<svg width="1996" height="1994" viewBox="0 0 1996 1994" fill="none" xmlns="http://www.w3.org/2000/svg">
<path d="M1196.62 1673.39C1571.83 1673.39 1876 1369.22 1876 994.015C1876 618.808 1571.83 314.643 1196.62 314.643C821.417 314.643 517.252 618.808 517.252 994.015C517.252 1369.22 821.417 1673.39 1196.62 1673.39Z" fill="#E1F8FF"/>
<g style="mix-blend-mode:multiply">
<path fill-rule="evenodd" clip-rule="evenodd" d="M1694.08 858.835C1714.4 782.995 1669.34 704.928 1593.5 684.607L518.372 396.527C442.532 376.205 364.458 421.277 344.137 497.117L176.632 1122.25C156.309 1198.1 201.387 1276.17 277.228 1296.49L1352.35 1584.57C1428.19 1604.89 1506.25 1559.82 1526.58 1483.97L1694.08 858.835Z" fill="#E7F4F9"/>
</g>
<path fill-rule="evenodd" clip-rule="evenodd" d="M1646.35 781.833C1666.67 705.993 1621.61 627.926 1545.77 607.605L470.641 319.525C394.801 299.203 316.727 344.276 296.405 420.115L128.901 1045.25C108.578 1121.1 153.656 1199.17 229.496 1219.49L1304.62 1507.57C1380.46 1527.89 1458.52 1482.82 1478.85 1406.97L1646.35 781.833Z" fill="white"/>
<path fill-rule="evenodd" clip-rule="evenodd" d="M1646.35 781.833C1666.67 705.993 1621.61 627.926 1545.77 607.605L470.641 319.525C394.801 299.203 316.727 344.276 296.405 420.115L128.901 1045.25C108.578 1121.1 153.656 1199.17 229.496 1219.49L1304.62 1507.57C1380.46 1527.89 1458.52 1482.82 1478.85 1406.97L1646.35 781.833ZM1578.86 763.748L1411.35 1388.88C1401.01 1427.48 1361.29 1450.41 1322.71 1440.08L247.581 1152C208.983 1141.65 186.053 1101.93 196.394 1063.34L363.899 438.2C374.238 399.613 413.957 376.68 452.555 387.022L1527.68 675.102C1566.27 685.441 1589.2 725.161 1578.86 763.748Z" fill="#00B8F0"/>
<path d="M1187.89 1287.84C1188.97 1283.79 1188.39 1280.02 1186.32 1276.43C1184.21 1272.97 1180.17 1269.14 1174 1265.17C1165.48 1259.7 1159.57 1254.21 1156.62 1248.5C1153.53 1242.76 1152.92 1236.37 1154.84 1229.22C1156.76 1222.06 1160.51 1216.7 1165.92 1213.23C1171.34 1209.76 1177.77 1208.45 1185.41 1209.63L1189.28 1195.18L1199.13 1197.82L1195.26 1212.27C1202.26 1215.3 1207.24 1219.96 1209.91 1226.18C1212.69 1232.56 1212.83 1240.13 1210.41 1249.17L1198.26 1245.91C1199.92 1239.7 1199.77 1234.31 1197.78 1229.87C1195.92 1225.47 1192.34 1222.63 1187.35 1221.29C1182.08 1219.88 1177.81 1220.18 1174.25 1222.12C1170.82 1224.1 1168.33 1227.48 1167.02 1232.34C1165.83 1236.79 1166.38 1240.7 1168.62 1244.2C1170.87 1247.69 1174.94 1251.39 1181.11 1255.36C1187.15 1259.29 1191.76 1263.13 1194.86 1266.71C1197.95 1270.28 1199.82 1274.11 1200.77 1278.13C1201.62 1281.97 1201.34 1286.24 1200.08 1290.97C1198.09 1298.39 1194.33 1303.75 1188.65 1307.15C1183 1310.41 1175.93 1311.41 1167.75 1310.08L1164.35 1322.77L1154.63 1320.17L1158.03 1307.48C1149.98 1304.6 1144.43 1299.93 1141.04 1293.67C1137.83 1287.31 1137.38 1279.81 1139.69 1271.17L1151.84 1274.42C1150.21 1280.5 1150.57 1285.66 1152.94 1289.77C1155.18 1293.84 1159.3 1296.82 1165.24 1298.41C1170.91 1299.93 1175.89 1299.68 1179.86 1297.85C1183.99 1295.92 1186.62 1292.57 1187.89 1287.84Z" fill="#FF6697"/>
<path d="M1263.7 1308.16C1264.79 1304.11 1264.21 1300.34 1262.13 1296.74C1260.02 1293.28 1255.98 1289.45 1249.81 1285.48C1241.29 1280.02 1235.38 1274.53 1232.43 1268.82C1229.34 1263.07 1228.73 1256.69 1230.65 1249.53C1232.57 1242.38 1236.32 1237.02 1241.74 1233.55C1247.15 1230.08 1253.58 1228.76 1261.22 1229.94L1265.09 1215.5L1274.95 1218.14L1271.08 1232.58C1278.08 1235.62 1283.05 1240.28 1285.72 1246.49C1288.5 1252.88 1288.64 1260.44 1286.22 1269.48L1274.07 1266.23C1275.73 1260.02 1275.59 1254.63 1273.59 1250.19C1271.73 1245.78 1268.16 1242.94 1263.16 1241.6C1257.9 1240.19 1253.62 1240.49 1250.06 1242.43C1246.64 1244.41 1244.14 1247.79 1242.84 1252.65C1241.64 1257.11 1242.19 1261.01 1244.43 1264.51C1246.68 1268.01 1250.75 1271.7 1256.93 1275.67C1262.96 1279.6 1267.58 1283.44 1270.67 1287.02C1273.76 1290.6 1275.63 1294.43 1276.58 1298.44C1277.43 1302.29 1277.15 1306.55 1275.89 1311.28C1273.9 1318.7 1270.15 1324.07 1264.46 1327.46C1258.81 1330.72 1251.75 1331.72 1243.56 1330.4L1240.16 1343.09L1230.44 1340.48L1233.84 1327.79C1225.79 1324.91 1220.24 1320.24 1216.85 1313.98C1213.64 1307.62 1213.19 1300.12 1215.5 1291.48L1227.65 1294.74C1226.03 1300.81 1226.38 1305.97 1228.75 1310.08C1230.99 1314.15 1235.11 1317.14 1241.05 1318.73C1246.72 1320.25 1251.71 1319.99 1255.67 1318.16C1259.8 1316.23 1262.44 1312.88 1263.7 1308.16Z" fill="#FF6697"/>
<path d="M1339.5 1328.47C1340.59 1324.42 1340.01 1320.65 1337.93 1317.05C1335.82 1313.59 1331.78 1309.76 1325.61 1305.79C1317.09 1300.33 1311.18 1294.84 1308.23 1289.13C1305.14 1283.38 1304.53 1277 1306.45 1269.84C1308.37 1262.69 1312.12 1257.33 1317.53 1253.86C1322.95 1250.39 1329.38 1249.07 1337.02 1250.25L1340.89 1235.81L1350.74 1238.45L1346.87 1252.89C1353.87 1255.93 1358.85 1260.59 1361.52 1266.8C1364.3 1273.19 1364.44 1280.75 1362.02 1289.79L1349.87 1286.54C1351.53 1280.33 1351.39 1274.94 1349.39 1270.5C1347.53 1266.09 1343.95 1263.25 1338.96 1261.91C1333.69 1260.5 1329.42 1260.8 1325.86 1262.74C1322.44 1264.72 1319.94 1268.1 1318.64 1272.96C1317.44 1277.42 1317.99 1281.32 1320.23 1284.82C1322.48 1288.32 1326.55 1292.01 1332.72 1295.98C1338.76 1299.91 1343.37 1303.75 1346.47 1307.33C1349.56 1310.91 1351.43 1314.74 1352.38 1318.75C1353.23 1322.6 1352.95 1326.87 1351.69 1331.59C1349.7 1339.01 1345.95 1344.38 1340.26 1347.77C1334.61 1351.03 1327.54 1352.03 1319.36 1350.71L1315.96 1363.4L1306.24 1360.79L1309.64 1348.1C1301.59 1345.22 1296.04 1340.55 1292.65 1334.29C1289.44 1327.93 1288.99 1320.43 1291.3 1311.79L1303.45 1315.05C1301.82 1321.12 1302.18 1326.28 1304.55 1330.39C1306.79 1334.46 1310.91 1337.45 1316.85 1339.04C1322.52 1340.56 1327.5 1340.3 1331.47 1338.47C1335.6 1336.54 1338.23 1333.19 1339.5 1328.47Z" fill="#FF6697"/>
<path d="M501.019 501.338L451.206 487.991L374.052 775.935L423.865 789.282L501.019 501.338Z" fill="#007DA3"/>
<path d="M485.114 805.694L562.269 517.75L647.315 540.538C672.829 547.375 693.989 559.121 710.39 575.67C727.196 592.326 738.244 612.649 743.645 636.234C748.532 660.114 747.799 685.528 740.637 712.257L736.73 726.836C729.46 753.97 717.388 776.345 700.919 794.069C684.45 811.793 664.72 823.869 641.946 829.487C618.658 835.4 594.055 834.885 568.136 827.94L485.114 805.694ZM601.635 571.704L546.075 779.057L578.474 787.738C604.798 794.791 627.217 792.117 645.732 779.716C663.951 766.801 677.535 745.265 686.187 714.595L690.527 698.396C698.883 667.212 698.401 641.473 688.972 621.584C680.057 601.399 662.383 587.982 636.464 581.037L601.635 571.704Z" fill="#007DA3"/>
<path d="M742.814 874.745L819.969 586.801L905.015 609.589C930.529 616.426 951.689 628.172 968.09 644.721C984.896 661.378 995.945 681.7 1001.34 705.285C1006.23 729.165 1005.5 754.579 998.337 781.308L994.431 795.887C987.16 823.021 975.088 845.396 958.619 863.12C942.15 880.844 922.42 892.92 899.646 898.538C876.358 904.451 851.755 903.936 825.836 896.991L742.814 874.745ZM859.335 640.755L803.775 848.108L836.174 856.789C862.498 863.842 884.918 861.168 903.433 848.767C921.651 835.852 935.235 814.316 943.887 783.646L948.228 767.447C956.583 736.263 956.101 710.524 946.672 690.635C937.757 670.45 920.083 657.033 894.164 650.088L859.335 640.755Z" fill="#007DA3"/>
<path d="M325.035 958.122L309.483 1016.16C308.054 1021.5 311.216 1026.98 316.548 1028.41C360.699 1040.24 541.124 1088.59 541.124 1088.59L585.577 1064.22L594.649 1030.36" stroke="#A3D6E6" stroke-width="13.9718" stroke-miterlimit="1.5" stroke-linecap="round" stroke-linejoin="round"/>
<path d="M605.5 989.866L618.893 939.882C619.579 937.324 619.212 934.6 617.892 932.307C616.56 930.01 614.383 928.333 611.811 927.644C569.842 916.398 403.501 871.827 361.518 860.578C358.96 859.892 356.222 860.252 353.933 861.579C351.644 862.905 349.965 865.081 349.279 867.639C344.754 884.527 335.886 917.623 335.886 917.623" stroke="#A3D6E6" stroke-width="13.9718" stroke-miterlimit="1.5" stroke-linecap="round" stroke-linejoin="round"/>
<path d="M523.192 935.799L378.823 897.115L349.785 1005.49L494.154 1044.17L523.192 935.799Z" fill="#F2CC0D" stroke="#F2CC0D" stroke-width="15.1283" stroke-miterlimit="1.5" stroke-linecap="round" stroke-linejoin="round"/>
<path d="M427.929 915.222L382.242 902.98L355.716 1001.98L401.403 1014.22L427.929 915.222Z" stroke="white" stroke-width="6.95207" stroke-miterlimit="1.5" stroke-linecap="round" stroke-linejoin="round"/>
<path d="M419.488 946.726L373.801 934.485L364.155 970.483L409.842 982.725L419.488 946.726Z" stroke="white" stroke-width="5.90359" stroke-miterlimit="1.5" stroke-linecap="round" stroke-linejoin="round"/>
<path d="M508.78 970.72L463.093 958.479L453.447 994.477L499.134 1006.72L508.78 970.72Z" stroke="white" stroke-width="5.90359" stroke-miterlimit="1.5" stroke-linecap="round" stroke-linejoin="round"/>
<path d="M463.152 958.422L419.532 946.735L409.868 982.804L453.487 994.492L463.152 958.422Z" stroke="white" stroke-width="6.00192" stroke-miterlimit="1.5" stroke-linecap="round" stroke-linejoin="round"/>
<path d="M517.238 939.152L471.551 926.911L445.025 1025.91L490.712 1038.15L517.238 939.152Z" stroke="white" stroke-width="6.95207" stroke-miterlimit="1.5" stroke-linecap="round" stroke-linejoin="round"/>
<path fill-rule="evenodd" clip-rule="evenodd" d="M1634.42 474.66C1659.17 495.56 1682.42 518.19 1703.96 542.37L744.981 1501.35C720.801 1479.81 698.171 1456.57 677.271 1431.81L1634.42 474.66Z" fill="#FF8DB2"/>
</svg>
