<svg width="2000" height="2000" viewBox="0 0 2000 2000" fill="none" xmlns="http://www.w3.org/2000/svg">
<path d="M498.927 1772.56L451.606 1752.3L430.848 1800.8L401.502 1788.23L453.612 1666.5L535.045 1701.36L525.346 1724.02L473.259 1701.72L461.269 1729.73L508.591 1749.99L498.927 1772.56Z" fill="#00B8F0"/>
<path d="M646.914 1808.12L629.714 1806.46L625.225 1852.99L593.45 1849.93L606.169 1718.12L658.039 1723.13C673.67 1724.64 685.556 1729.28 693.697 1737.08C701.839 1744.87 705.298 1755.1 704.075 1767.77C703.19 1776.94 700.6 1784.37 696.307 1790.05C692.013 1795.72 685.732 1800.05 677.465 1803.03L699.858 1858.82L699.727 1860.18L665.689 1856.9L646.914 1808.12ZM632.082 1781.93L652.178 1783.87C658.213 1784.45 662.907 1783.31 666.261 1780.43C669.614 1777.56 671.564 1773.28 672.112 1767.61C672.659 1761.94 671.55 1757.34 668.783 1753.81C666.017 1750.29 661.647 1748.24 655.672 1747.66L635.576 1745.72L632.082 1781.93Z" fill="#00B8F0"/>
<path d="M873.867 1794.88L823.904 1799.77L826.976 1831.18L885.991 1825.4L888.382 1849.84L797.597 1858.73L784.705 1726.94L875.671 1718.04L878.07 1742.57L818.875 1748.36L821.593 1776.15L871.556 1771.26L873.867 1794.88Z" fill="#00B8F0"/>
<path d="M1058.4 1756.16L1009.95 1769.31L1018.21 1799.76L1075.44 1784.24L1081.87 1807.94L993.829 1831.82L959.17 1704.02L1047.38 1680.09L1053.84 1703.88L996.43 1719.45L1003.74 1746.39L1052.19 1733.26L1058.4 1756.16Z" fill="#00B8F0"/>
<path d="M1177.06 1720.27L1154.97 1731.62L1110.12 1652.93L1139.16 1638L1177.06 1720.27ZM1163.58 1758.9C1161.53 1754.91 1161.28 1750.89 1162.85 1746.85C1164.42 1742.8 1167.36 1739.67 1171.67 1737.45C1175.99 1735.24 1180.25 1734.67 1184.45 1735.75C1188.65 1736.83 1191.78 1739.36 1193.83 1743.35C1195.88 1747.34 1196.12 1751.36 1194.55 1755.4C1192.98 1759.45 1190.04 1762.58 1185.73 1764.79C1181.41 1767.01 1177.16 1767.58 1172.96 1766.5C1168.75 1765.42 1165.63 1762.89 1163.58 1758.9Z" fill="#00B8F0"/>
<path fill-rule="evenodd" clip-rule="evenodd" d="M1373.69 743.62C1373.69 702.9 1340.64 669.84 1299.92 669.84H315.344C274.626 669.84 241.568 702.9 241.568 743.62V1359.7C241.568 1400.41 274.626 1433.47 315.344 1433.47H1299.92C1340.64 1433.47 1373.69 1400.41 1373.69 1359.7V743.62Z" fill="#E1F8FF"/>
<path d="M342.132 744.758C352.884 744.758 361.6 736.042 361.6 725.29C361.6 714.538 352.884 705.822 342.132 705.822C331.38 705.822 322.664 714.538 322.664 725.29C322.664 736.042 331.38 744.758 342.132 744.758Z" fill="white"/>
<path d="M405.683 744.758C416.435 744.758 425.151 736.042 425.151 725.29C425.151 714.538 416.435 705.822 405.683 705.822C394.931 705.822 386.215 714.538 386.215 725.29C386.215 736.042 394.931 744.758 405.683 744.758Z" fill="white"/>
<path d="M469.234 744.758C479.986 744.758 488.702 736.042 488.702 725.29C488.702 714.538 479.986 705.822 469.234 705.822C458.482 705.822 449.766 714.538 449.766 725.29C449.766 736.042 458.482 744.758 469.234 744.758Z" fill="white"/>
<path d="M1373.7 778.94H241.568V786.727H1373.7V778.94Z" fill="white"/>
<path fill-rule="evenodd" clip-rule="evenodd" d="M497 1527.58C573.692 1574.07 723.323 1614.82 864.691 1597.99C1021.82 1579.29 1165.92 1516.03 1225.87 1467.02C1265.76 1434.41 1287.1 1389.88 1249.35 1343.75C1155.63 1229.24 908.672 1176.56 734.944 1218.93C605.853 1250.41 581.552 1274.9 514.291 1344.06C470.621 1388.96 434.403 1489.64 497 1527.58Z" fill="#87E9CF"/>
<path d="M1050.62 1411.62C1059.22 1411.62 1066.19 1404.65 1066.19 1396.05C1066.19 1387.45 1059.22 1380.48 1050.62 1380.48C1042.02 1380.48 1035.05 1387.45 1035.05 1396.05C1035.05 1404.65 1042.02 1411.62 1050.62 1411.62Z" fill="white" fill-opacity="0.75"/>
<path d="M1089.1 1475.32C1097.7 1475.32 1104.67 1468.35 1104.67 1459.75C1104.67 1451.15 1097.7 1444.18 1089.1 1444.18C1080.5 1444.18 1073.53 1451.15 1073.53 1459.75C1073.53 1468.35 1080.5 1475.32 1089.1 1475.32Z" fill="white" fill-opacity="0.75"/>
<path fill-rule="evenodd" clip-rule="evenodd" d="M793.937 1191.27C821.591 1230.82 888.63 1350.07 989.86 1319.7C1029.24 1307.88 1030.13 1272.96 1034.53 1243.92C1039.47 1211.4 1040.35 1192.62 1047.96 1151.73" fill="#C27251"/>
<path fill-rule="evenodd" clip-rule="evenodd" d="M585.736 1090.24C423.969 890.96 450.67 692.62 643.003 570.05C747.335 503.56 855.895 530.55 971.688 611.04C1019.21 644.08 996.327 740.52 1059.39 820.96C1134.97 917.37 1160.02 1042.01 1139.36 1102.14C1094.87 1231.66 1011.6 1232.3 889.184 1226.62C801.953 1222.56 731.568 1210.47 669.004 1168.98C643.08 1151.79 597.027 1104.15 585.736 1090.24Z" fill="#D97E59"/>
<path fill-rule="evenodd" clip-rule="evenodd" d="M629.551 767.67C646.225 737.98 687.078 745.24 708.532 753.71C806.822 792.5 842.522 790.67 908.104 765.66C932.886 756.2 978.962 740.93 1012.27 674.76C1021.68 656.07 1022.65 610.03 1022.65 610.03C1022.65 610.03 1003.92 630.12 922.515 561.26C815.414 470.66 621.686 505.01 526.157 612.29C498.759 643.06 506.713 681.17 506.713 681.17C506.713 681.17 470.934 685.26 451.566 730.84C435.743 768.09 443.635 813.75 448.237 875.47C454.023 953.07 483.855 994.83 539.281 1052.9C544.49 1058.36 557.155 1096.59 567.47 1094.1C601.802 1085.82 563.559 1039.56 549.495 995.33C540.254 966.28 548.553 935.06 569.741 926.76C622.712 906.01 629.605 1053.86 672.504 995.34C675.774 990.88 649.177 938.11 641.51 888.71" fill="#194858"/>
<path fill-rule="evenodd" clip-rule="evenodd" d="M922.702 1075.55C932.164 1063.8 980.624 1057.94 1017.31 1036.75C1041.07 1023.03 1050.6 1004.09 1057.12 1003.51C1068.91 1002.46 1079.25 1065.84 1060.3 1084.76C1036.63 1108.39 987.702 1107.32 952.457 1100.25C931.339 1096.02 918.177 1081.16 922.702 1075.55Z" fill="white"/>
<path fill-rule="evenodd" clip-rule="evenodd" d="M919.62 1073.06C916.462 1076.55 917.219 1083.22 922.903 1090.02C928.301 1096.48 938.292 1103.18 951.194 1106.56C963.822 1109.71 978.172 1112.26 992.657 1113.01C1002.31 1113.5 1012.01 1113.24 1021.2 1111.83C1027.87 1110.81 1034.27 1109.16 1040.19 1106.89C1050.26 1103.05 1059.01 1097.52 1065.74 1090.21C1074.7 1080.32 1077.73 1061.29 1076.17 1042.93C1075.57 1035.73 1074.32 1028.73 1072.87 1022.55C1070.66 1013.15 1067.6 1005.7 1064.41 1002.1C1062.01 999.4 1059.3 998.43 1056.67 998.51C1054.49 998.56 1052.02 999.78 1049.09 1001.94C1042.35 1006.91 1031.67 1019.58 1012.52 1028.47C1008.4 1030.57 1004.07 1032.24 999.813 1034.14C996.946 1035.42 994.124 1036.78 991.292 1038.11C971.958 1047.14 952.486 1054.2 938.66 1060.41C929.246 1064.64 922.417 1068.72 919.537 1072.99L919.62 1073.06ZM1057.12 1009.03C1057.06 1009.12 1057 1009.21 1056.91 1009.29C1055.91 1010.16 1054.89 1011.4 1053.7 1012.86C1050.09 1017.27 1045.61 1023.51 1039.28 1030.24C1034.61 1035.21 1028.96 1040.19 1022.09 1045.03C1017.53 1047.99 1012.88 1050.9 1007.92 1053.21C1003.04 1055.49 997.929 1057.24 992.85 1058.84C974.763 1064.56 956.892 1067.65 943.543 1071.15C935.225 1073.33 928.791 1075.04 925.867 1078.09L925.784 1078.03C925.718 1078.12 925.947 1078.19 925.961 1078.31C926.016 1078.79 926.308 1079.26 926.595 1079.8C928.029 1082.5 931.344 1085.34 935.754 1087.94C940.525 1090.76 946.684 1092.96 953.72 1093.95C965.758 1095.78 979.337 1096.63 992.902 1096.33C1001.54 1096.14 1010.13 1095.32 1018.33 1093.94C1023.9 1093 1029.28 1091.84 1034.34 1090.22C1042.16 1087.72 1049.29 1084.43 1054.86 1079.31C1062.51 1072.4 1065.1 1057.6 1065.17 1043.36C1065.2 1036.28 1064.65 1029.3 1063.41 1023.3C1062.39 1018.39 1060.99 1014.15 1059.33 1011.16C1058.77 1010.15 1057.63 1009.58 1057.12 1009.03Z" fill="#AA5B3C"/>
<path fill-rule="evenodd" clip-rule="evenodd" d="M966.118 847.24C961.39 838.14 958.531 821.88 969.29 817.2C980.792 812.2 991.295 827.62 993.833 832.56C999.252 843.11 1004.12 863.76 992.987 867.72C978.692 872.81 969.982 854.68 966.118 847.24Z" fill="#133844"/>
<path fill-rule="evenodd" clip-rule="evenodd" d="M833.499 907.4C828.77 898.3 825.911 882.03 836.67 877.36C848.172 872.36 858.676 887.78 861.214 892.72C866.632 903.27 871.498 923.92 860.368 927.88C846.072 932.97 837.362 914.84 833.499 907.4Z" fill="#133844"/>
<path fill-rule="evenodd" clip-rule="evenodd" d="M911.471 881.13C916.509 886.9 922.144 892.34 928.078 897.56C942.221 909.98 958.082 920.93 971.649 931.04C982.399 939.04 991.632 946.38 996.841 953.64C1001.16 959.58 997.846 965.35 993.367 971.17C990.225 975.25 986.278 979.3 982.145 983.26C975.221 989.9 967.917 996.32 962.353 1001.74C959.51 1004.23 959.227 1008.56 961.721 1011.41C964.215 1014.25 968.547 1014.53 971.39 1012.04C978.543 1006.38 988.509 999.96 996.798 992.5C1003.2 986.74 1008.56 980.33 1011.78 973.98C1016.87 963.94 1017.23 953.7 1009.54 944.01C1005.18 938.57 998.849 933.05 991.163 927.49C970.444 912.49 939.662 896.43 918.317 874.77C916.563 872.88 913.604 872.77 911.715 874.53C909.826 876.28 909.716 879.24 911.471 881.13Z" fill="#476B76"/>
<path fill-rule="evenodd" clip-rule="evenodd" d="M604.673 974.85C597.244 966.58 587.504 959.91 579.86 959.5C573.208 959.15 567.727 962.97 566.063 973.9C565.527 977.73 565.911 981.95 567.127 986.19C568.191 989.9 569.868 993.63 571.946 997.14C573.994 1000.59 576.429 1003.82 579.044 1006.61C582.006 1009.76 585.183 1012.34 588.267 1014.08C588.905 1014.48 589.749 1014.29 590.15 1013.65C590.551 1013.01 590.359 1012.17 589.72 1011.77C587.049 1009.9 584.415 1007.22 581.939 1004.11C579.733 1001.33 577.711 998.18 575.976 994.88C574.258 991.62 572.865 988.2 571.93 984.83C570.94 981.26 570.436 977.76 570.837 974.53C571.713 966.76 575.023 963.55 579.738 963.58C586.691 963.63 595.679 969.47 602.821 976.61C603.305 977.12 604.113 977.14 604.624 976.65C605.135 976.17 605.157 975.36 604.673 974.85Z" fill="#476B76"/>
<path fill-rule="evenodd" clip-rule="evenodd" d="M623.608 917.3L650.511 922.17L639.792 939.55L623.608 917.3Z" fill="#438093"/>
<path fill-rule="evenodd" clip-rule="evenodd" d="M809.39 1288.42L832.531 1280L814.328 1259.69L809.39 1288.42Z" fill="#438093"/>
<path fill-rule="evenodd" clip-rule="evenodd" d="M671.729 931.97C652.444 915.52 626.199 919.51 613.158 940.87L565.901 1018.3C552.859 1039.66 557.929 1070.36 577.213 1086.81L794.262 1271.94C813.547 1288.39 839.791 1284.4 852.833 1263.03L900.09 1185.61C913.131 1164.24 908.062 1133.55 888.777 1117.1L671.729 931.97Z" fill="#438093"/>
<path fill-rule="evenodd" clip-rule="evenodd" d="M640.372 924.32C626.935 912.86 608.648 915.64 599.562 930.53L537.974 1031.42C528.888 1046.31 532.42 1067.7 545.857 1079.16L784.095 1282.37C797.533 1293.83 815.82 1291.05 824.906 1276.16L886.494 1175.26C895.58 1160.38 892.048 1138.98 878.611 1127.52L640.372 924.32Z" fill="#FFD500"/>
<path fill-rule="evenodd" clip-rule="evenodd" d="M648.468 1039.93C650.631 1036.27 649.86 1031.06 646.747 1028.29L610.34 995.91C607.227 993.14 602.942 993.86 600.778 997.51L592.937 1010.75C590.773 1014.4 591.544 1019.61 594.658 1022.38L631.064 1054.76C634.178 1057.53 638.462 1056.81 640.626 1053.16L648.468 1039.93Z" fill="#438093"/>
<path fill-rule="evenodd" clip-rule="evenodd" d="M615.856 1009.59C619.808 1013.17 621.125 1019.44 618.797 1023.6C616.469 1027.75 611.37 1028.22 607.419 1024.64C603.468 1021.07 602.15 1014.79 604.478 1010.64C606.807 1006.49 611.905 1006.02 615.856 1009.59Z" stroke="white" stroke-width="1.15" stroke-miterlimit="1.5" stroke-linejoin="round"/>
<path fill-rule="evenodd" clip-rule="evenodd" d="M513.989 1601.82C490.836 1556.98 541.933 1352.33 551.664 1306.81C560.853 1263.83 556.339 1176.8 561.62 1133.47C563.803 1115.56 585.04 1077.69 612.379 1043.58C629.744 1021.91 670.862 1000.6 695.074 991.32C717.358 982.78 731.665 1002.85 711.885 1021.93C704.54 1029.02 665.302 1046.3 649.781 1067.21C626.156 1099.04 607.437 1142.73 615.24 1145.2C620.225 1146.78 628.455 1103.78 660.22 1067.84C682.999 1042.06 723.213 1024.39 744.985 1022.43C773.196 1019.91 777.923 1026.49 774.63 1040.28C771.315 1054.16 746.968 1058.04 729.293 1065.82C718.913 1070.39 708.789 1073.47 694.226 1091.74C677.747 1112.41 648.438 1163.99 654.968 1168.05C660.821 1171.68 670.111 1127.69 704.296 1091.1C724.153 1069.84 796.542 1044.88 798.845 1077.37C800.116 1095.29 761.86 1095.09 732.44 1118.97C723.112 1126.54 686.487 1190.01 693.114 1194.24C698.985 1197.98 717.326 1143.13 735.232 1124.93C764.617 1095.05 817.436 1094.15 813.048 1115.46C808.688 1136.63 792.409 1128.67 770.568 1148.03C750.094 1166.18 753.265 1173.66 745.316 1200.91C733.414 1241.72 740.521 1217.75 741.949 1257.34C743.69 1305.56 719.53 1371.06 690.583 1414.2C675.516 1436.65 712.462 1588.66 680.501 1613.93C648.541 1639.19 537.142 1646.66 513.989 1601.82Z" fill="#D97E59"/>
<path d="M711.063 984.53C722.984 990.6 721.056 1002.38 715.944 1011.44C704.641 1031.48 679.674 1029.28 651.225 1061.3C631.105 1083.95 615.328 1114.58 611.907 1134.69C610.893 1140.64 611.174 1145.6 612.487 1149.25" stroke="#476B76" stroke-width="5" stroke-miterlimit="1.5" stroke-linecap="round" stroke-linejoin="round"/>
<path d="M760.512 1017.13C771.426 1017.11 777.372 1029.27 771.599 1041.86C769.208 1047.07 752.126 1055.99 735.003 1060.99C721.406 1064.95 703.421 1070.65 679.983 1107.42C672.094 1119.79 663.89 1131.69 659.083 1143.63C653.506 1157.5 651.98 1170.74 652.575 1173.99" stroke="#476B76" stroke-width="5" stroke-miterlimit="1.5" stroke-linecap="round" stroke-linejoin="round"/>
<path d="M780.645 1055.4C786.026 1057.17 795.356 1066.6 796.83 1073.76C798.8 1083.34 788.579 1087.83 781.501 1091.17C777.063 1093.26 751.577 1101.12 733.219 1113.71C719.554 1123.08 689.414 1178.67 690.617 1194.39" stroke="#476B76" stroke-width="5" stroke-miterlimit="1.5" stroke-linecap="round" stroke-linejoin="round"/>
<path d="M798.81 1097.57C806.718 1101.65 813.456 1113.53 807.645 1121.71C800.709 1131.47 775.5 1137.68 760.016 1153.78C754.629 1159.38 748.556 1173.9 744.199 1189.5C738.931 1208.37 736.547 1229.35 745.76 1245.17" stroke="#476B76" stroke-width="5" stroke-miterlimit="1.5" stroke-linecap="round" stroke-linejoin="round"/>
<path fill-rule="evenodd" clip-rule="evenodd" d="M1758.43 201.43C1758.43 167.43 1730.82 139.82 1696.82 139.82H1165.17C1131.17 139.82 1103.56 167.43 1103.56 201.43V549.89C1103.56 583.89 1131.17 611.5 1165.17 611.5H1220.17L1171.91 760.24L1398.1 611.5H1696.82C1730.82 611.5 1758.43 583.89 1758.43 549.89V201.43Z" fill="#FFE0EA"/>
<path fill-rule="evenodd" clip-rule="evenodd" d="M1575.17 343.31H1287.75V495.2C1287.75 506.56 1296.96 515.77 1308.31 515.77C1361.24 515.77 1501.69 515.77 1554.61 515.77C1565.97 515.77 1575.17 506.56 1575.17 495.2C1575.17 449.47 1575.17 343.31 1575.17 343.31Z" fill="#1ED2A2"/>
<path d="M1431.46 487.024C1463.21 487.024 1488.94 461.288 1488.94 429.54C1488.94 397.793 1463.21 372.056 1431.46 372.056C1399.71 372.056 1373.97 397.793 1373.97 429.54C1373.97 461.288 1399.71 487.024 1431.46 487.024Z" fill="#F42525"/>
<path fill-rule="evenodd" clip-rule="evenodd" d="M1575.17 343.31H1287.75C1287.75 343.31 1386.84 252.78 1420.46 222.06C1426.69 216.37 1436.24 216.37 1442.46 222.06C1476.08 252.78 1575.17 343.31 1575.17 343.31Z" fill="white"/>
<path fill-rule="evenodd" clip-rule="evenodd" d="M1400.3 240.48L1409.74 231.86H1453.19L1462.62 240.48H1435.83V266.34H1490.93L1500.37 274.96H1478.9V300.83H1528.67L1538.11 309.45H1522.04V335.31H1566.42L1575.17 343.31H1287.75L1296.51 335.31H1341.01V309.45H1324.81L1334.25 300.83H1384.07V274.96H1362.56L1371.99 266.34H1427.21V240.48H1400.3ZM1349.63 309.45V335.31H1427.21V309.45H1349.63ZM1435.83 309.45V335.31H1513.42V309.45H1435.83ZM1392.7 300.83H1470.28V274.96H1392.7V300.83Z" fill="#FF6697"/>
</svg>
