<svg width="3029" height="2000" viewBox="0 0 3029 2000" fill="none" xmlns="http://www.w3.org/2000/svg">
<g clip-path="url(#clip0)">
<path d="M242.303 1166.41C319.559 1166.41 382.188 1103.78 382.188 1026.52C382.188 949.265 319.559 886.636 242.303 886.636C165.047 886.636 102.418 949.265 102.418 1026.52C102.418 1103.78 165.047 1166.41 242.303 1166.41Z" fill="#EDE2FF"/>
<path d="M440.465 1069.46C517.721 1069.46 580.35 1006.84 580.35 929.58C580.35 852.323 517.721 789.694 440.465 789.694C363.209 789.694 300.58 852.323 300.58 929.58C300.58 1006.84 363.209 1069.46 440.465 1069.46Z" fill="#EDE2FF"/>
<path d="M601.904 1198C679.16 1198 741.789 1135.37 741.789 1058.11C741.789 980.854 679.16 918.225 601.904 918.225C524.648 918.225 462.02 980.854 462.02 1058.11C462.02 1135.37 524.648 1198 601.904 1198Z" fill="#EDE2FF"/>
<path fill-rule="evenodd" clip-rule="evenodd" d="M677.271 1069.46C677.271 1015.96 633.626 972.52 580.19 972.52H242.229C188.793 972.52 145.148 1015.96 145.148 1069.46C145.148 1122.97 188.793 1166.4 242.229 1166.4H580.19C633.626 1166.4 677.271 1122.97 677.271 1069.46Z" fill="#EDE2FF"/>
<path d="M2821.09 1489.42C2774.16 1489.42 2736.12 1451.38 2736.12 1404.45C2736.12 1357.52 2774.16 1319.48 2821.09 1319.48C2868.01 1319.48 2906.06 1357.52 2906.06 1404.45C2906.06 1451.38 2868.01 1489.42 2821.09 1489.42Z" fill="#CCE1FF"/>
<path d="M2692.99 1366.67C2651.04 1366.67 2617.03 1332.66 2617.03 1290.7C2617.03 1248.75 2651.04 1214.74 2692.99 1214.74C2734.94 1214.74 2768.95 1248.75 2768.95 1290.7C2768.95 1332.66 2734.94 1366.67 2692.99 1366.67Z" fill="#CCE1FF"/>
<path d="M2607.97 1489.42C2561.05 1489.42 2523 1451.38 2523 1404.45C2523 1357.52 2561.05 1319.48 2607.97 1319.48C2654.9 1319.48 2692.94 1357.52 2692.94 1404.45C2692.94 1451.38 2654.9 1489.42 2607.97 1489.42Z" fill="#CCE1FF"/>
<path fill-rule="evenodd" clip-rule="evenodd" d="M2556.9 1430.53C2556.9 1398.03 2583.34 1371.65 2615.8 1371.65H2835.43C2867.89 1371.65 2894.32 1398.03 2894.32 1430.53C2894.32 1463.03 2867.89 1489.42 2835.43 1489.42H2615.8C2583.34 1489.42 2556.9 1463.03 2556.9 1430.53Z" fill="#CCE1FF"/>
<path d="M2594.33 829.818C2533.02 829.818 2483.32 780.117 2483.32 718.807C2483.32 657.498 2533.02 607.797 2594.33 607.797C2655.64 607.797 2705.34 657.498 2705.34 718.807C2705.34 780.117 2655.64 829.818 2594.33 829.818Z" fill="#F1E8FF"/>
<path d="M2348.59 699.447C2289.39 699.447 2241.4 651.457 2241.4 592.258C2241.4 533.059 2289.39 485.069 2348.59 485.069C2407.79 485.069 2455.78 533.059 2455.78 592.258C2455.78 651.457 2407.79 699.447 2348.59 699.447Z" fill="#F1E8FF"/>
<path fill-rule="evenodd" clip-rule="evenodd" d="M2134.53 727.352C2134.53 670.8 2180.66 624.885 2237.14 624.885H2594.36C2650.84 624.885 2696.97 670.8 2696.97 727.352C2696.97 783.903 2650.84 829.815 2594.36 829.815H2237.14C2180.66 829.815 2134.53 783.903 2134.53 727.352Z" fill="#F1E8FF"/>
<path fill-rule="evenodd" clip-rule="evenodd" d="M2403.5 200.168C2480.56 239.247 2543.12 333.001 2543.12 439.423C2543.12 545.847 2480.56 639.6 2403.5 678.682C2554.59 678.682 2677.24 571.471 2677.24 439.423C2677.24 307.376 2554.59 200.168 2403.5 200.168Z" fill="#FFF3B4"/>
<path d="M1712.63 527.276C1643.92 527.276 1588.22 471.575 1588.22 402.865C1588.22 334.154 1643.92 278.453 1712.63 278.453C1781.34 278.453 1837.04 334.154 1837.04 402.865C1837.04 471.575 1781.34 527.276 1712.63 527.276Z" fill="#E9F2FF"/>
<path d="M1536.39 441.058C1467.68 441.058 1411.98 385.357 1411.98 316.647C1411.98 247.936 1467.68 192.235 1536.39 192.235C1605.1 192.235 1660.8 247.936 1660.8 316.647C1660.8 385.357 1605.1 441.058 1536.39 441.058Z" fill="#E9F2FF"/>
<path d="M1346.43 498.405C1287.74 498.405 1240.17 450.83 1240.17 392.143C1240.17 333.456 1287.74 285.881 1346.43 285.881C1405.12 285.881 1452.69 333.456 1452.69 392.143C1452.69 450.83 1405.12 498.405 1346.43 498.405Z" fill="#E9F2FF"/>
<path fill-rule="evenodd" clip-rule="evenodd" d="M1159.67 441.057C1159.67 393.472 1198.33 354.837 1246.06 354.837H1712.67C1760.41 354.837 1799.07 393.472 1799.07 441.057C1799.07 488.642 1760.41 527.274 1712.67 527.274H1246.06C1198.33 527.274 1159.67 488.642 1159.67 441.057Z" fill="#E9F2FF"/>
<path fill-rule="evenodd" clip-rule="evenodd" d="M1590.01 424.837V1795.2H2556.6C2556.6 1795.2 2556.6 1618.2 2556.6 1391.43C2556.6 857.603 2123.84 424.837 1590.01 424.837Z" fill="#FFE9F0"/>
<path fill-rule="evenodd" clip-rule="evenodd" d="M1590.02 1668.31H1730.79C1740.07 1668.31 1747.62 1675.84 1747.62 1685.14V1718.79C1747.62 1728.07 1740.07 1735.6 1730.79 1735.6H1590.02V1668.31ZM1590.02 1587.87H1652.05C1661.33 1587.87 1668.87 1595.43 1668.87 1604.71V1638.35C1668.87 1647.65 1661.33 1655.19 1652.05 1655.19H1590.02V1587.87ZM2146.64 1537.41C2146.64 1528.11 2154.17 1520.58 2163.47 1520.58H2320.05C2329.33 1520.58 2336.88 1528.11 2336.88 1537.41V1571.06C2336.88 1580.34 2329.33 1587.87 2320.05 1587.87H2163.47C2154.17 1587.87 2146.64 1580.34 2146.64 1571.06V1537.41ZM2067.91 1456.98C2067.91 1447.7 2075.44 1440.14 2084.72 1440.14H2241.31C2250.59 1440.14 2258.12 1447.7 2258.12 1456.98V1490.62C2258.12 1499.9 2250.59 1507.46 2241.31 1507.46H2084.72C2075.44 1507.46 2067.91 1499.9 2067.91 1490.62V1456.98ZM2418.95 1039.47C2418.95 1030.16 2411.42 1022.63 2402.14 1022.63H2245.55C2236.27 1022.63 2228.71 1030.16 2228.71 1039.47V1073.11C2228.71 1082.39 2236.27 1089.92 2245.55 1089.92H2402.14C2411.42 1089.92 2418.95 1082.39 2418.95 1073.11V1039.47ZM2446.12 942.195C2457.64 964.16 2468.36 986.606 2478.23 1009.51H2324.28C2315 1009.51 2307.47 1001.98 2307.47 992.676V959.029C2307.47 949.75 2315 942.195 2324.28 942.195H2446.12ZM1590.02 599.51H1691.42C1700.7 599.51 1708.26 607.042 1708.26 616.322V649.968C1708.26 659.269 1700.7 666.802 1691.42 666.802H1590.02V599.51ZM1786.99 535.907C1786.99 526.606 1779.46 519.073 1770.15 519.073H1613.58C1604.28 519.073 1596.75 526.606 1596.75 535.907V569.553C1596.75 578.833 1604.28 586.387 1613.58 586.387H1770.15C1779.46 586.387 1786.99 578.833 1786.99 569.553V535.907Z" fill="#F9CDDB"/>
<path fill-rule="evenodd" clip-rule="evenodd" d="M1590.01 424.837V1795.2H2556.6C2556.6 1795.2 2556.6 1618.2 2556.6 1391.43C2556.6 857.603 2123.84 424.837 1590.01 424.837ZM1633.67 469.535V1751.51H2512.94V1391.43C2512.94 896.348 2123.11 492.303 1633.67 469.535Z" fill="white"/>
<path fill-rule="evenodd" clip-rule="evenodd" d="M1697.6 1588.57C1682.04 1574.66 1647.95 1575.73 1627.67 1560.35C1589.78 1531.62 1545.65 1525.16 1549.08 1504.03C1551.9 1486.63 1622.38 1525.99 1626.91 1518.58C1631.01 1511.84 1601.95 1480.72 1591.29 1471.04C1576.52 1457.59 1533.46 1448.03 1533.98 1432.14C1534.53 1416.06 1550.55 1417.25 1565.01 1416.82C1579.86 1416.42 1616.1 1426.59 1625.71 1434.77C1654.38 1459.09 1648.29 1461.21 1678.7 1482.98C1698.12 1496.86 1730.87 1531.68 1740.02 1543.29C1796.81 1615.52 1877.98 1684.87 1933.42 1764.05C1954.01 1793.45 1819.91 1800.16 1792.04 1754.95C1764.59 1710.41 1742.2 1628.38 1697.6 1588.57Z" fill="#D78C6F"/>
<path fill-rule="evenodd" clip-rule="evenodd" d="M1627.25 1516.26C1628.43 1516.91 1629.52 1517.52 1630.46 1517.98C1634.11 1519.71 1640.15 1519.75 1647.12 1521.67C1650.63 1522.65 1654.37 1524.05 1658.15 1526.32C1658.71 1526.63 1658.91 1527.33 1658.6 1527.89C1658.3 1528.44 1657.58 1528.66 1657.03 1528.33C1653.34 1526.43 1649.76 1525.34 1646.4 1524.64C1639.02 1523.11 1632.71 1523.35 1628.8 1521.8C1627.42 1521.26 1625.68 1520.36 1623.87 1519.51C1625.42 1519.55 1626.46 1519.29 1626.9 1518.57C1627.27 1517.98 1627.38 1517.2 1627.25 1516.26ZM1535.33 1425.76C1537.64 1426.1 1540 1426.54 1542.38 1427.04C1549.89 1428.59 1557.53 1430.8 1564.17 1432.63C1570.44 1434.42 1580.9 1437.5 1589.96 1440.86C1597.38 1443.64 1603.89 1446.63 1606.81 1448.9C1610.55 1451.89 1619.08 1459.88 1626.42 1468.46C1630.83 1473.66 1634.78 1479.03 1637.08 1483.62C1637.42 1484.27 1637.18 1485.08 1636.55 1485.43C1635.9 1485.78 1635.09 1485.54 1634.74 1484.9C1632.23 1480.67 1628.04 1475.8 1623.52 1471.1C1615.94 1463.22 1607.36 1455.84 1603.6 1453.16C1600.87 1451.13 1594.78 1448.72 1587.97 1446.24C1579.02 1442.92 1568.84 1439.55 1562.69 1437.7C1556.2 1435.69 1548.73 1433.31 1541.38 1431.52C1538.95 1430.93 1536.53 1430.41 1534.17 1429.97C1534.39 1428.37 1534.78 1426.98 1535.33 1425.76ZM1564.54 1416.85C1566.9 1417.31 1569.06 1417.81 1570.98 1418.35C1575.5 1419.62 1582.23 1421.41 1589.04 1423.48C1593.15 1424.75 1597.29 1426.08 1601.03 1427.46C1606.7 1429.55 1611.42 1431.74 1613.78 1433.59C1617.51 1436.56 1626.05 1444.55 1633.39 1453.16C1637.8 1458.33 1641.77 1463.7 1644.06 1468.29C1644.41 1468.92 1644.17 1469.75 1643.54 1470.1C1642.88 1470.45 1642.08 1470.21 1641.73 1469.55C1639.22 1465.32 1635.04 1460.45 1630.53 1455.76C1622.95 1447.85 1614.35 1440.49 1610.59 1437.79C1608.45 1436.21 1604.17 1434.53 1599.11 1432.76C1595.44 1431.48 1591.38 1430.17 1587.36 1428.92C1580.59 1426.8 1573.93 1424.84 1569.46 1423.48C1565.07 1422.13 1559.26 1421 1553.19 1420.03C1550.11 1419.53 1546.99 1419.1 1543.91 1418.72C1549.72 1416.87 1557.32 1417.04 1564.54 1416.85Z" fill="#926767"/>
<path fill-rule="evenodd" clip-rule="evenodd" d="M2306.68 1773.96C2299.98 1735.71 2290.61 1695.84 2286.26 1657.17C2280.67 1607.52 2272.57 1564.4 2248.86 1517.04C2208.49 1436.4 2152.88 1383.98 2076.53 1363.09C2027.16 1349.59 1929.56 1391.97 1883.34 1422.43C1826.11 1460.12 1838.64 1520.4 1830.91 1620.99C1827.66 1663.39 1781.59 1682.28 1806.74 1770.36C1813.73 1794.75 1885.91 1775.97 1913.8 1777.87C2023.05 1785.36 2133.1 1795.38 2242.66 1793.83L2306.68 1773.96Z" fill="#D35E5E"/>
<path fill-rule="evenodd" clip-rule="evenodd" d="M1830.61 1623.99C1834.08 1618.68 1837.45 1613.4 1840.74 1608C1846.11 1599.25 1851.33 1590.17 1856.7 1579.97C1860.37 1572.94 1864.63 1565.49 1867.73 1557.74C1869.76 1552.65 1871.31 1547.44 1871.84 1542.13C1871.9 1541.28 1872.64 1540.65 1873.47 1540.71C1874.32 1540.8 1874.94 1541.52 1874.87 1542.37C1874.52 1548 1873.1 1553.57 1871.14 1559.03C1868.25 1567 1864.21 1574.73 1860.72 1581.98C1855.68 1592.48 1850.72 1601.85 1845.61 1610.86C1838.54 1623.37 1831.18 1635.21 1822.86 1648.55C1826.53 1640.73 1829.5 1632.85 1830.61 1623.99Z" fill="#3C7181"/>
<path fill-rule="evenodd" clip-rule="evenodd" d="M2083.98 1263.74C2087.24 1322.9 2070.22 1307.92 2067.86 1368.44C2067.8 1369.75 2089.51 1407.08 2088.05 1409.32C2083.75 1415.86 2045.27 1444.62 2016.29 1477.21C1986.97 1510.13 1948.28 1552.56 1931.85 1550.04C1906.43 1546.14 1961.96 1470.73 1939.28 1416.82C1918.95 1368.47 1867.09 1352.11 1874.12 1339.87C1884.28 1322.13 2003.41 1285.09 2027.26 1281.78" fill="#D78C6F"/>
<path fill-rule="evenodd" clip-rule="evenodd" d="M2044.74 1783.83C2034.8 1766.12 2026.74 1766.71 2033.36 1746.54C2036.72 1736.25 2047.42 1726.19 2045.87 1714.64C2043.53 1697.43 2024.78 1693.89 2022.7 1672.1C2020.35 1647.41 2045.21 1640.79 2044.17 1623.33C2042.9 1602.1 2015.61 1594.72 2016.2 1569.68C2016.72 1547.15 2044.01 1527.43 2042.7 1514.88C2040.32 1492.28 2013.23 1487.52 2010.72 1454.27C2008.91 1430.18 2033.32 1421.08 2033.1 1393.5C2032.86 1366.36 2004.95 1346.89 2006.13 1309.42C2007.14 1277.58 2038.73 1231.38 2075.56 1239.94C2127.25 1251.93 2127.92 1289.81 2125.67 1331.93C2124.04 1362.93 2080.19 1368.13 2078.99 1395.9C2078.01 1418.26 2100.48 1422.87 2103.6 1456.99C2106.29 1486.41 2073.64 1491.54 2073.97 1517.8C2074.28 1542.23 2099.23 1535.82 2100.85 1572.45C2101.98 1597.74 2074.04 1603.02 2073.38 1627.98C2072.97 1644.07 2101.81 1638.04 2102.18 1669.4C2102.55 1701.95 2079.45 1705.27 2074.91 1722.61C2069.63 1742.82 2104.19 1750.27 2080.28 1776.51L2044.74 1783.83Z" fill="#BADDE8"/>
<path fill-rule="evenodd" clip-rule="evenodd" d="M2040.57 1732.65C2048.04 1739.92 2056.25 1745.91 2065.15 1750.67C2072.58 1754.64 2080.46 1757.76 2088.78 1760.03C2088.67 1761.98 2088.21 1764.05 2087.27 1766.26C2078.54 1763.44 2070.28 1759.77 2062.6 1755.19C2053.86 1749.97 2045.83 1743.61 2038.58 1736.04C2039.24 1734.92 2039.91 1733.79 2040.57 1732.65ZM2088.97 1643.9C2089.85 1644.47 2090.72 1645.1 2091.57 1645.75C2085.79 1659.42 2074 1670.16 2059.89 1678.81C2051.18 1684.16 2041.57 1688.68 2031.99 1692.61C2030.68 1691.08 2029.41 1689.49 2028.25 1687.74C2038.25 1684.14 2048.34 1679.88 2057.49 1674.71C2071.35 1666.87 2083.1 1656.95 2088.97 1643.9ZM2016.64 1565.32C2024.76 1577 2035.39 1586.32 2047.51 1593.61C2057.84 1599.82 2069.26 1604.53 2081.14 1608C2079.8 1609.73 2078.56 1611.52 2077.47 1613.44C2065.87 1609.53 2054.8 1604.47 2044.78 1598.02C2033.73 1590.91 2023.95 1582.17 2016.22 1571.58C2016.2 1570.95 2016.2 1570.32 2016.2 1569.68C2016.24 1568.2 2016.4 1566.76 2016.64 1565.32ZM2092.53 1425.99C2093.47 1427.41 2094.41 1428.88 2095.33 1430.43C2094.89 1432.02 2094.37 1433.55 2093.69 1434.99C2085.66 1452.17 2073.89 1465.75 2059.85 1476.65C2051.2 1483.37 2041.68 1489.05 2031.66 1493.92C2030.13 1492.22 2028.52 1490.49 2026.9 1488.72C2037.4 1484.16 2047.38 1478.72 2056.44 1472.11C2070.2 1462.11 2081.88 1449.44 2090.09 1433.22C2091.2 1430.99 2091.94 1428.55 2092.53 1425.99ZM2126.16 1303.22C2126.24 1304.92 2126.29 1306.63 2126.31 1308.35C2123.14 1311.71 2119.96 1315.08 2116.62 1318.29C2114.37 1320.43 2112.05 1322.52 2109.65 1324.49C2097.55 1334.36 2084.19 1342.87 2070.18 1350.19C2056.16 1357.48 2041.51 1363.57 2026.81 1368.61C2026.59 1368.68 2026.35 1368.72 2026.14 1368.77C2025.13 1366.71 2024.08 1364.68 2022.99 1362.63C2023.41 1362.2 2023.93 1361.85 2024.54 1361.65C2039.08 1357.15 2053.6 1351.65 2067.53 1344.9C2081.46 1338.18 2094.78 1330.27 2106.88 1320.99C2109.26 1319.16 2111.55 1317.22 2113.76 1315.23C2118.04 1311.37 2122.1 1307.26 2126.16 1303.22Z" fill="#FEFEFE"/>
<path fill-rule="evenodd" clip-rule="evenodd" d="M1742.49 1366.67C1741.83 1366.19 1741.23 1365.68 1740.73 1365.16C1732.38 1356.75 1733.14 1346.34 1739.15 1336.89C1747.34 1324 1765.69 1313.11 1780.84 1313.17C1782.84 1313.2 1784.47 1314.83 1784.47 1316.82C1784.45 1318.83 1782.81 1320.44 1780.81 1320.44C1767.88 1320.38 1752.26 1329.77 1745.28 1340.77C1741.18 1347.21 1740.2 1354.33 1745.86 1360.05C1746.31 1360.49 1746.81 1360.88 1747.39 1361.27C1749.13 1359.64 1750.95 1358.17 1752.76 1356.97C1760.43 1351.99 1768.04 1351.89 1772.09 1359.07C1773.62 1361.78 1773.78 1364.07 1773.28 1365.88C1772.7 1367.89 1771.28 1369.55 1769.04 1370.64C1765.75 1372.26 1760.08 1372.54 1754.5 1371.49C1752.66 1371.12 1750.81 1370.64 1749.1 1370.01C1747.44 1371.97 1746 1374.09 1744.84 1376.21C1743.2 1379.2 1742.15 1382.17 1742.39 1384.59C1742.86 1389.37 1745.71 1394.2 1749.89 1398.15C1752.74 1400.82 1756.21 1403.09 1760.09 1404.61C1764.35 1396.86 1771.46 1392.69 1780.57 1395.73C1785.79 1397.45 1787.53 1400.73 1787.61 1403.65C1787.74 1407.76 1783.89 1412.43 1778.28 1413.48C1773.46 1414.37 1768.75 1414.27 1764.32 1413.39C1762.32 1420.31 1762.46 1428.89 1765.12 1435.95C1766.85 1440.64 1769.72 1444.68 1773.96 1446.89C1776.73 1448.3 1779.73 1449.24 1782.65 1449.77C1784.37 1447.08 1786.29 1444.77 1788.26 1443.09C1793.14 1438.89 1798.32 1438.37 1801.91 1441.62C1804.14 1443.63 1805.07 1445.64 1805.3 1447.37C1805.57 1449.57 1804.8 1451.6 1803.04 1453.33C1800.99 1455.29 1797.11 1456.86 1792.24 1457.37C1790.5 1457.54 1788.63 1457.58 1786.68 1457.5C1783.81 1463.83 1782.81 1471.65 1786.95 1477.69C1789.71 1481.71 1797.75 1486.62 1805.86 1489.24C1806.49 1487.91 1807.25 1486.65 1808.1 1485.51C1810.94 1481.73 1814.89 1479.31 1820.13 1479.94C1825.53 1480.6 1828.82 1484.96 1828.88 1489.02C1828.93 1491.97 1827.45 1495.01 1823.66 1496.73C1820.03 1498.37 1815.36 1498.61 1810.41 1497.82C1810.04 1499.22 1809.81 1500.49 1809.68 1501.43C1807.62 1516.12 1816.23 1528.22 1832.4 1535.36C1835.22 1536.6 1838.51 1537.32 1841.7 1537.76C1842.65 1534.96 1846.68 1530.31 1851.26 1528.06C1854.95 1526.25 1858.85 1526.01 1861.9 1528.06C1863.69 1529.29 1864.59 1530.73 1864.93 1532.15C1865.3 1533.65 1865.11 1535.23 1864.32 1536.8C1862.9 1539.57 1859 1542.47 1855.21 1544.05C1853.29 1544.85 1850.6 1545.23 1847.97 1545.34C1847.92 1549.35 1848.6 1554.75 1851.1 1559.16C1856.71 1569.02 1871.8 1575.55 1884.94 1576.06C1886.02 1573.76 1887.29 1571.58 1888.66 1569.55C1890.66 1566.56 1895.85 1562.32 1900.48 1561.49C1902.54 1561.12 1904.51 1561.34 1906.25 1562.23C1907.96 1563.11 1909.49 1564.64 1910.52 1567.21C1911.41 1569.46 1911.44 1571.45 1910.91 1573.22C1910.2 1575.64 1908.38 1577.71 1905.72 1579.24C1901.4 1581.75 1894.66 1582.89 1889.82 1583.24C1889.34 1584.66 1888.97 1586.12 1888.74 1587.58C1888.03 1591.95 1888.6 1596.3 1891.71 1599.81C1897.74 1606.64 1913.57 1614.4 1926.58 1616.78C1928.56 1613.06 1931.4 1609.61 1935.19 1607.34C1936.14 1606.78 1939.85 1605.4 1943.04 1605.44C1945.28 1605.49 1947.28 1606.23 1948.57 1607.61C1949.89 1608.98 1950.84 1611.16 1949.99 1614.66C1948.39 1621.3 1942.59 1624.57 1934.46 1624.75C1933.4 1624.77 1932.32 1624.75 1931.22 1624.66C1931.14 1624.96 1931.06 1625.27 1930.98 1625.55C1929.32 1632.85 1932.09 1640.09 1937.19 1646.08C1944.91 1655.16 1957.92 1661.51 1970.64 1661.23C1970.83 1659.07 1971.33 1656.97 1972.12 1654.99C1973.41 1651.84 1977.94 1646.47 1982.99 1644.11C1987.13 1642.17 1991.5 1642.13 1995.11 1645.29C1997.56 1647.45 1998.48 1649.7 1998.61 1651.78C1998.77 1654.7 1997.11 1657.69 1994 1660.2C1989.92 1663.5 1983.15 1666.12 1978.07 1667.45C1978.99 1672.41 1981.62 1677.34 1985.02 1680.97C1996.42 1693 2014.25 1695.84 2031.08 1690.2L2031.58 1690.01C2031.08 1686.78 2031.66 1683.39 2033.72 1679.9C2035.11 1677.5 2039.12 1674.02 2043.01 1673.2C2046.41 1672.45 2049.76 1673.26 2052.07 1676.95C2054.94 1681.51 2053.42 1685.79 2049.23 1689.31C2047.1 1691.12 2044.17 1692.71 2041.25 1694.02C2041.59 1694.44 2041.93 1694.85 2042.3 1695.25C2046.2 1699.4 2052.23 1702.63 2057.5 1704.35C2064.95 1706.8 2074.46 1708.89 2082.89 1707.56C2082.91 1706.97 2082.96 1706.4 2083.04 1705.82C2083.33 1703.78 2084.25 1698.98 2086.39 1695.27C2088.02 1692.43 2090.36 1690.25 2093.31 1689.53C2095.32 1689.03 2097.71 1689.16 2100.45 1690.44C2103.98 1692.08 2105.51 1694.24 2106.03 1696.3C2106.8 1699.24 2105.38 1702.69 2102.32 1705.66C2098.87 1708.98 2093.47 1711.89 2090.52 1713.04C2091.94 1719.37 2096.55 1725.64 2103.24 1728.81C2110.7 1732.39 2121.86 1733.09 2131.21 1730.53C2133.19 1729.99 2135.08 1729.29 2136.85 1728.44C2134.72 1725.47 2133.13 1722.17 2132.77 1719.16C2132.42 1716.62 2132.87 1714.24 2134.11 1712.23C2135.29 1710.29 2137.3 1708.61 2140.46 1707.58C2150.23 1704.44 2157.02 1715.75 2151.2 1725.27C2150.31 1726.75 2149.23 1728.11 2147.99 1729.35L2148.09 1729.42C2153.44 1732.8 2162.71 1733.28 2172.48 1732.67C2188.04 1731.73 2204.95 1727.65 2211.3 1725.18C2213.17 1724.46 2215.28 1725.4 2215.99 1727.26C2216.72 1729.13 2215.78 1731.23 2213.91 1731.95C2206.09 1734.99 2183.07 1740.4 2164.82 1740.12C2156.44 1739.99 2149.04 1738.59 2144.22 1735.55C2143.46 1735.07 2142.72 1734.53 2141.98 1733.92C2139.3 1735.44 2136.29 1736.65 2133.13 1737.52C2122.1 1740.55 2108.93 1739.57 2100.11 1735.38C2091.42 1731.23 2085.49 1723.06 2083.54 1714.77C2074.06 1716.1 2063.53 1713.98 2055.23 1711.25C2047.54 1708.72 2038.64 1703.41 2034.35 1696.86L2034.3 1696.75C2033.98 1696.86 2033.66 1696.97 2033.4 1697.08C2013.78 1703.65 1993.03 1699.99 1979.75 1685.95C1975.36 1681.3 1972.12 1674.92 1970.98 1668.48C1956.08 1668.85 1940.72 1661.45 1931.66 1650.79C1925.03 1642.95 1921.74 1633.44 1923.92 1623.94L1924 1623.63C1909.65 1620.6 1892.87 1612.06 1886.29 1604.64C1881.63 1599.37 1880.52 1592.93 1881.57 1586.43C1881.76 1585.33 1881.99 1584.22 1882.28 1583.13C1867.35 1581.8 1851.1 1573.85 1844.78 1562.71C1841.6 1557.08 1840.75 1550.18 1840.83 1544.96C1836.93 1544.42 1832.9 1543.52 1829.45 1541.99C1809.83 1533.35 1800.01 1518.26 1802.49 1500.42C1802.67 1499.29 1802.96 1497.76 1803.38 1496.08C1793.66 1492.87 1784.29 1486.62 1780.97 1481.8C1776.55 1475.34 1776.18 1467.39 1778.13 1460.09C1778.47 1458.85 1778.86 1457.65 1779.31 1456.47C1776.36 1455.77 1773.41 1454.75 1770.65 1453.33C1764.82 1450.31 1760.72 1444.92 1758.32 1438.5C1755.13 1429.99 1754.98 1419.68 1757.37 1411.34C1752.63 1409.44 1748.39 1406.69 1744.91 1403.44C1739.36 1398.2 1735.8 1391.67 1735.17 1385.33C1734.8 1381.69 1736.04 1377.19 1738.46 1372.74C1739.6 1370.68 1740.96 1368.61 1742.49 1366.67ZM2142.77 1724.33C2143.62 1723.46 2144.38 1722.52 2145.01 1721.49C2146.22 1719.48 2146.36 1717.23 2145.54 1715.66C2145.04 1714.64 2143.99 1714.07 2142.67 1714.51C2141.35 1714.92 2140.48 1715.49 2140.11 1716.34C2139.43 1718.02 2140.25 1720.07 2141.35 1722.1C2141.77 1722.87 2142.25 1723.61 2142.77 1724.33ZM2098.98 1698.09C2098.9 1698 2098.77 1697.87 2098.66 1697.78C2098.32 1697.5 2097.9 1697.26 2097.37 1697.02C2096.47 1696.58 2095.71 1696.4 2095.05 1696.58C2093.97 1696.84 2093.29 1697.85 2092.68 1698.89C2091.55 1700.88 2090.89 1703.28 2090.52 1705.07C2092.73 1703.92 2095.37 1702.26 2097.26 1700.44C2098.03 1699.7 2098.82 1698.37 2098.98 1698.09ZM2038.77 1687.23C2040.91 1686.25 2042.99 1685.09 2044.54 1683.78C2045.62 1682.87 2046.67 1681.99 2045.94 1680.82C2045.41 1679.96 2044.51 1680.23 2043.72 1680.55C2042.09 1681.23 2040.56 1682.56 2039.96 1683.59C2039.22 1684.83 2038.85 1686.06 2038.77 1687.23ZM1978.15 1659.94C1981.99 1658.81 1986.55 1656.89 1989.45 1654.55C1990.02 1654.09 1990.53 1653.63 1990.89 1653.13C1991.13 1652.8 1991.37 1652.52 1991.34 1652.17C1991.32 1651.67 1990.89 1651.25 1990.29 1650.73C1989.05 1649.64 1987.5 1650.01 1986.07 1650.68C1982.76 1652.23 1979.67 1655.68 1978.83 1657.74C1978.54 1658.46 1978.3 1659.2 1978.15 1659.94ZM1942.96 1612.8C1942.36 1612.8 1941.44 1612.82 1940.86 1612.96C1939.99 1613.15 1939.22 1613.39 1938.93 1613.57C1937.25 1614.59 1935.83 1615.95 1934.67 1617.5C1936.22 1617.43 1937.64 1617.21 1938.91 1616.82C1940.93 1616.19 1942.44 1615.01 1942.94 1612.96C1942.96 1612.91 1942.96 1612.85 1942.96 1612.8ZM1893.42 1575.58C1896.51 1575.12 1899.74 1574.33 1902.09 1572.98C1903.33 1572.23 1904.35 1571.34 1903.77 1569.88C1903.56 1569.35 1903.33 1568.94 1902.98 1568.72C1902.67 1568.52 1902.27 1568.57 1901.88 1568.63C1900.98 1568.76 1900.06 1569.18 1899.17 1569.68C1897.27 1570.77 1895.53 1572.34 1894.69 1573.59C1894.27 1574.22 1893.85 1574.9 1893.42 1575.58ZM1857.53 1533.92C1856.61 1533.54 1855.53 1534.05 1854.47 1534.57C1852.76 1535.42 1851.1 1536.71 1849.97 1537.98C1850.86 1537.85 1851.73 1537.65 1852.44 1537.34C1854.03 1536.69 1855.71 1535.71 1856.9 1534.61C1857.11 1534.42 1857.34 1534.16 1857.53 1533.92ZM1813.18 1490.92C1815.97 1491.25 1818.55 1491.08 1820.66 1490.12C1821.11 1489.92 1821.47 1489.68 1821.58 1489.35C1821.76 1488.89 1821.45 1488.41 1821.11 1488.02C1820.66 1487.56 1820 1487.23 1819.24 1487.15C1816.39 1486.8 1814.55 1488.68 1813.18 1490.92ZM1797.96 1448.09C1797.77 1447.82 1797.4 1447.32 1797.06 1446.99C1796.56 1446.56 1795.93 1446.8 1795.3 1447.08C1793.98 1447.65 1792.66 1448.74 1791.4 1450.16C1792.4 1450.05 1793.32 1449.9 1794.19 1449.7C1795.35 1449.44 1796.35 1449.11 1797.17 1448.68C1797.43 1448.52 1797.77 1448.26 1797.96 1448.09ZM1767.43 1406.58C1770.49 1406.99 1773.67 1406.95 1776.94 1406.34C1778.02 1406.14 1778.99 1405.64 1779.65 1404.99C1780.02 1404.64 1780.36 1404.29 1780.36 1403.87C1780.34 1403.72 1780.21 1403.63 1780.05 1403.5C1779.63 1403.15 1779.02 1402.85 1778.26 1402.61C1773.54 1401.03 1769.93 1402.98 1767.43 1406.58ZM1766.25 1363.87C1766.19 1363.63 1766.01 1363.06 1765.77 1362.63C1763.88 1359.29 1760.3 1360.75 1756.74 1363.06C1756.16 1363.44 1755.61 1363.83 1755.03 1364.27C1758.19 1364.94 1761.48 1365.09 1764.01 1364.66C1764.61 1364.57 1765.17 1364.42 1765.67 1364.22C1765.85 1364.13 1766.12 1363.96 1766.25 1363.87Z" fill="#133844"/>
<path fill-rule="evenodd" clip-rule="evenodd" d="M1824.35 1047.1C1794.08 1062.34 1753.12 1064.1 1737.38 1074.94C1724 1084.13 1753.14 1105.41 1760.7 1131.89C1766.15 1150.94 1747.8 1167.81 1750.13 1177.81C1752.01 1185.84 1755.3 1192.24 1771.19 1196.41C1788.63 1200.98 1807.07 1194.9 1805.23 1199.72C1797.04 1221.45 1771.47 1205.93 1753.36 1213.6C1745.73 1216.85 1746.82 1224.94 1750.44 1234.42C1754.12 1244.07 1744.97 1258.2 1742.29 1268.38C1734.51 1298.13 1739.39 1309.16 1773.54 1318.25C1813.23 1328.8 1906.24 1384.07 1951.57 1369.86C2099.02 1323.63 2266.81 1193.62 2125.33 1019.92C2096.28 984.265 2035.71 949.37 1989.35 948.236C1874.2 945.381 1866.35 1025.98 1824.35 1047.1Z" fill="#D78C6F"/>
<path fill-rule="evenodd" clip-rule="evenodd" d="M1749.94 1175.97C1750.9 1175.97 1751.88 1176.15 1752.82 1176.5C1761.88 1181.63 1767.18 1185.97 1773.45 1189.18C1777.53 1191.26 1781.73 1192.76 1787.56 1193.59C1788.69 1193.68 1798.04 1194.4 1803.08 1195.71C1805.92 1196.45 1807.45 1197.85 1807.29 1199.03C1807.1 1201.8 1806.01 1204.29 1804.48 1206.45C1802.95 1208.64 1800.96 1210.49 1798.67 1211.85C1795.74 1213.75 1788.91 1215.65 1781.38 1217.5C1770.66 1220.12 1758.74 1222.22 1754.02 1222.17C1751.94 1222.2 1749.85 1221.85 1747.73 1221.23C1748.06 1217.83 1749.7 1215.16 1753.36 1213.61C1771.49 1205.93 1797.03 1221.45 1805.24 1199.73C1807.05 1194.9 1788.63 1200.97 1771.18 1196.41C1755.31 1192.24 1752.01 1185.82 1750.13 1177.83C1750 1177.22 1749.94 1176.61 1749.94 1175.97Z" fill="#C57D7D"/>
<path fill-rule="evenodd" clip-rule="evenodd" d="M1867.34 1057.01C1872.83 1050.08 1884.63 1042.08 1892.11 1048.9C1900.12 1056.18 1891.69 1069.9 1888.69 1073.65C1882.3 1081.64 1867.77 1092.76 1860.71 1085.41C1851.65 1075.95 1862.84 1062.69 1867.34 1057.01Z" fill="#194858"/>
<path fill-rule="evenodd" clip-rule="evenodd" d="M1900.52 1076.81C1904.49 1078.66 1909.63 1079.86 1914.95 1080.47C1916.94 1080.71 1918.92 1080.84 1920.84 1080.89C1924.02 1080.95 1927.05 1080.76 1929.69 1080.54C1931.76 1080.28 1933.22 1078.42 1932.98 1076.35C1932.74 1074.28 1930.86 1072.82 1928.82 1073.06C1925.94 1073.5 1922.54 1073.8 1919.01 1074.07C1916.83 1074.22 1914.6 1074.39 1912.43 1074.44C1908.5 1074.54 1904.75 1074.44 1901.59 1073.69C1900.74 1073.41 1899.8 1073.85 1899.5 1074.72C1899.22 1075.57 1899.67 1076.51 1900.52 1076.81Z" fill="#926767"/>
<path fill-rule="evenodd" clip-rule="evenodd" d="M1893.33 1083.44C1895.88 1087.08 1897.69 1090.96 1899.15 1095.01C1900 1097.43 1900.64 1099.92 1901.23 1102.44C1902.1 1106.19 1902.75 1110.01 1903.1 1113.93C1903.34 1115.98 1905.21 1117.46 1907.26 1117.22C1909.33 1116.98 1910.81 1115.11 1910.55 1113.04C1910.03 1109.48 1909.4 1106 1908.37 1102.62C1907.7 1100.33 1906.87 1098.08 1905.89 1095.93C1903.43 1090.56 1900.16 1085.66 1895.88 1081.32C1895.3 1080.63 1894.25 1080.52 1893.55 1081.11C1892.86 1081.69 1892.77 1082.72 1893.33 1083.44Z" fill="#926767"/>
<path fill-rule="evenodd" clip-rule="evenodd" d="M1978.78 949.435C1976.88 937.84 2030.13 927.247 2089.41 955.865C2160.03 989.932 2201.03 1055.82 2203.47 1129.8C2204.84 1171.62 2194.4 1215.89 2168.16 1254.17C2110.36 1338.52 2021.87 1348.41 2014.83 1345.58C2005.04 1341.63 1991.5 1303.95 2004.84 1286.86C2013.65 1275.59 2035.01 1246.43 2049.07 1241.44C2071.65 1233.37 2098.5 1215.35 2098 1190.7C2097.39 1160.05 2072 1151.64 2049.05 1157.46C2035.16 1160.99 2016.27 1186.12 2006.7 1177.79C2001.07 1172.93 2026.31 1144.82 2034.57 1104.78C2053.89 1011.45 1981.11 963.777 1978.78 949.435Z" fill="#BADDE8"/>
<path fill-rule="evenodd" clip-rule="evenodd" d="M1995.33 971.475C2005.04 971.191 2014.69 972.239 2023.49 975.296C2032.47 978.418 2040.5 983.68 2046.99 991.693C2048.21 993.309 2047.88 995.623 2046.27 996.846C2044.65 998.047 2042.36 997.741 2041.14 996.126C2034.56 986.824 2025.5 981.344 2015.35 978.375C2010.02 976.802 2004.41 975.907 1998.71 975.514C1997.56 974.117 1996.42 972.763 1995.33 971.475ZM1983.97 958.112C1993.3 956.147 2003.76 955.623 2014.15 956.169C2027.73 956.868 2041.16 959.422 2051.81 962.916C2053.71 963.614 2054.69 965.711 2054.02 967.61C2053.34 969.51 2051.22 970.492 2049.32 969.815C2039.35 965.907 2026.64 962.763 2013.73 961.344C2004.48 960.339 1995.13 960.187 1986.59 961.278C1985.63 960.165 1984.76 959.117 1983.97 958.112Z" fill="#FEFEFE"/>
<path fill-rule="evenodd" clip-rule="evenodd" d="M2056.91 1177.12C2058.68 1173.72 2063.15 1173.13 2067.31 1173.93C2071.71 1174.78 2076.03 1177.23 2077.14 1180.8C2077.77 1182.76 2077.4 1185.33 2076.38 1187.56C2075.4 1189.74 2073.78 1191.66 2071.71 1192.27C2069.18 1193.01 2066.76 1192.94 2064.43 1192.44C2058.07 1191.15 2052.14 1187.32 2045.75 1187.64C2043.25 1187.73 2039.89 1188.39 2037.38 1189.65C2035.05 1190.85 2033.48 1192.61 2033.42 1194.88C2033.35 1196.23 2034.46 1197.78 2036.29 1199.22C2038.67 1201.09 2042.33 1202.92 2044.47 1203.99C2046.39 1204.97 2052.49 1207.26 2056.56 1210.29C2057.37 1210.9 2058.09 1211.53 2058.64 1212.19C2059.09 1212.8 2059.44 1213.43 2059.11 1214.21C2058.02 1217 2054.6 1217.77 2051.12 1217.57C2047.37 1217.37 2043.36 1216.02 2040.81 1213.54C2040.02 1212.73 2038.76 1212.69 2037.93 1213.45C2037.12 1214.21 2037.08 1215.5 2037.84 1216.31C2041.44 1220.53 2047.91 1223.06 2053.58 1223.04C2058.63 1223.02 2062.91 1220.82 2064.89 1216.74C2066.61 1212.95 2065.46 1209.48 2062.43 1206.76C2060.71 1205.21 2058.35 1203.95 2055.87 1202.95C2051.94 1201.38 2047.8 1200.5 2046.23 1199.96C2044.42 1199.31 2041.5 1198.35 2039.19 1197.13C2038.3 1196.65 2037.51 1196.15 2036.95 1195.62C2036.66 1195.36 2036.38 1195.19 2036.38 1194.9C2036.36 1193.66 2037.38 1192.79 2038.67 1192.09C2040.78 1190.98 2043.7 1190.48 2045.86 1190.39C2052.03 1190.22 2057.65 1194.1 2063.76 1195.51C2066.59 1196.17 2069.51 1196.34 2072.63 1195.53C2075.64 1194.75 2078.14 1192.22 2079.69 1189.13C2081.22 1186.05 2081.72 1182.48 2080.95 1179.69C2079.62 1174.78 2074.18 1170.88 2068.27 1169.49C2061.95 1168.01 2055.32 1169.53 2052.4 1174.63C2051.7 1175.87 2052.16 1177.44 2053.4 1178.14C2054.65 1178.82 2056.22 1178.36 2056.91 1177.12Z" fill="#607175"/>
<path fill-rule="evenodd" clip-rule="evenodd" d="M1777.15 1272.64C1826.47 1249.32 1835.73 1275.24 1863 1272.66C1878.38 1271.23 1986.53 1243.03 1999.98 1232.75C2010.5 1224.7 2016.67 1209.67 2023.42 1199.87C2034.4 1183.83 2048.36 1173.11 2068.6 1171.02C2098.33 1167.93 2131 1206.09 2117.4 1241.7C2104.89 1274.42 2058.37 1299.79 2026.49 1313.48C1988.05 1330.01 1930.67 1345.99 1886.3 1353.89C1862.61 1358.12 1801.73 1363.52 1777.69 1345.25C1758.83 1330.92 1743.54 1288.55 1777.15 1272.64Z" fill="#00779C"/>
<path fill-rule="evenodd" clip-rule="evenodd" d="M1790.36 1135.48C1798.06 1139.09 1808.96 1145.66 1816.43 1155.11C1822.5 1162.84 1826.19 1172.54 1823.41 1184.24C1823 1186.2 1824.29 1188.15 1826.25 1188.56C1828.24 1188.96 1830.18 1187.69 1830.57 1185.7C1832.5 1174.59 1829.85 1165.2 1824.77 1157.47C1816.43 1144.74 1801.56 1136.6 1791.56 1132.67C1790.79 1132.34 1789.88 1132.69 1789.55 1133.48C1789.22 1134.24 1789.57 1135.13 1790.36 1135.48Z" fill="#926767"/>
<path fill-rule="evenodd" clip-rule="evenodd" d="M1944.81 966.027C1950.33 968.734 1954.11 972.424 1956.86 976.769C1961.1 983.494 1962.84 991.769 1964.68 1000.55C1965.18 1002.51 1967.19 1003.67 1969.15 1003.17C1971.1 1002.66 1972.28 1000.66 1971.77 998.691C1968.87 989.455 1966.03 980.809 1960.75 974.04C1957.17 969.433 1952.54 965.656 1946.03 963.232C1945.25 962.905 1944.35 963.254 1944.02 964.018C1943.7 964.804 1944.05 965.699 1944.81 966.027Z" fill="#926767"/>
<path fill-rule="evenodd" clip-rule="evenodd" d="M1927.49 976.573C1933.24 979.608 1937.69 980.569 1941.23 984.106C1943.08 985.962 1944.59 988.582 1945.99 992.643C1947.76 997.883 1947.95 1001.86 1947.39 1005.2C1946.53 1010.22 1944 1013.82 1942.47 1017.84C1941.84 1019.76 1942.87 1021.84 1944.79 1022.47C1946.71 1023.12 1948.78 1022.08 1949.42 1020.18C1950.75 1015.7 1953.06 1011.53 1953.56 1006.01C1953.94 1001.88 1953.46 997.01 1950.79 990.809C1948.72 986.005 1946.58 983.014 1944.15 980.962C1940.07 977.446 1935.27 976.617 1928.83 973.8C1928.06 973.451 1927.15 973.757 1926.8 974.521C1926.43 975.285 1926.73 976.202 1927.49 976.573Z" fill="#926767"/>
<path fill-rule="evenodd" clip-rule="evenodd" d="M2487.72 1714.85C2491.2 1723.41 2490.2 1733.12 2485.04 1740.76C2479.91 1748.42 2471.29 1753.02 2462.06 1753.02C2397.59 1753.02 2273.55 1753.02 2209.07 1753.02C2199.84 1753.02 2191.22 1748.42 2186.09 1740.76C2180.94 1733.12 2179.93 1723.41 2183.41 1714.85C2197.44 1680.4 2217.44 1631.23 2227.94 1605.48C2232.18 1595.05 2242.33 1588.22 2253.6 1588.22C2291.92 1588.22 2379.21 1588.22 2417.55 1588.22C2428.8 1588.22 2438.95 1595.05 2443.19 1605.48C2453.69 1631.23 2473.7 1680.4 2487.72 1714.85Z" fill="#00779C"/>
<path d="M2301.27 1649.49C2307.99 1649.49 2313.44 1644.04 2313.44 1637.32C2313.44 1630.6 2307.99 1625.15 2301.27 1625.15C2294.55 1625.15 2289.1 1630.6 2289.1 1637.32C2289.1 1644.04 2294.55 1649.49 2301.27 1649.49Z" fill="#FFA6C3"/>
<path d="M2301.27 1682.78C2307.99 1682.78 2313.44 1677.33 2313.44 1670.6C2313.44 1663.88 2307.99 1658.43 2301.27 1658.43C2294.55 1658.43 2289.1 1663.88 2289.1 1670.6C2289.1 1677.33 2294.55 1682.78 2301.27 1682.78Z" fill="#FFA6C3"/>
<path d="M2301.27 1716.06C2307.99 1716.06 2313.44 1710.61 2313.44 1703.89C2313.44 1697.17 2307.99 1691.72 2301.27 1691.72C2294.55 1691.72 2289.1 1697.17 2289.1 1703.89C2289.1 1710.61 2294.55 1716.06 2301.27 1716.06Z" fill="#FFA6C3"/>
<path d="M2335.55 1649.49C2342.27 1649.49 2347.72 1644.04 2347.72 1637.32C2347.72 1630.6 2342.27 1625.15 2335.55 1625.15C2328.83 1625.15 2323.38 1630.6 2323.38 1637.32C2323.38 1644.04 2328.83 1649.49 2335.55 1649.49Z" fill="#FFA6C3"/>
<path d="M2335.55 1682.78C2342.27 1682.78 2347.72 1677.33 2347.72 1670.6C2347.72 1663.88 2342.27 1658.43 2335.55 1658.43C2328.83 1658.43 2323.38 1663.88 2323.38 1670.6C2323.38 1677.33 2328.83 1682.78 2335.55 1682.78Z" fill="#FFA6C3"/>
<path d="M2335.55 1716.06C2342.27 1716.06 2347.72 1710.61 2347.72 1703.89C2347.72 1697.17 2342.27 1691.72 2335.55 1691.72C2328.83 1691.72 2323.38 1697.17 2323.38 1703.89C2323.38 1710.61 2328.83 1716.06 2335.55 1716.06Z" fill="#FFA6C3"/>
<path d="M2369.85 1649.49C2376.57 1649.49 2382.02 1644.04 2382.02 1637.32C2382.02 1630.6 2376.57 1625.15 2369.85 1625.15C2363.13 1625.15 2357.68 1630.6 2357.68 1637.32C2357.68 1644.04 2363.13 1649.49 2369.85 1649.49Z" fill="#FFA6C3"/>
<path d="M2369.85 1682.78C2376.57 1682.78 2382.02 1677.33 2382.02 1670.6C2382.02 1663.88 2376.57 1658.43 2369.85 1658.43C2363.13 1658.43 2357.68 1663.88 2357.68 1670.6C2357.68 1677.33 2363.13 1682.78 2369.85 1682.78Z" fill="#FFA6C3"/>
<path d="M2369.85 1716.06C2376.57 1716.06 2382.02 1710.61 2382.02 1703.89C2382.02 1697.17 2376.57 1691.72 2369.85 1691.72C2363.13 1691.72 2357.68 1697.17 2357.68 1703.89C2357.68 1710.61 2363.13 1716.06 2369.85 1716.06Z" fill="#FFA6C3"/>
<path d="M2556.7 1748.74H1590.1V1857.91H2556.7V1748.74Z" fill="#F1E7FF"/>
<path d="M2556.7 1748.74H1590.1V1770.57H2556.7V1748.74Z" fill="#E5D5B3"/>
<g style="mix-blend-mode:multiply">
<path fill-rule="evenodd" clip-rule="evenodd" d="M2369.8 1748.75L2477.73 1857.92H1895.63C1859.69 1819.49 1831.18 1785.19 1790.48 1748.75H2369.8Z" fill="#EBEFF4"/>
</g>
<path fill-rule="evenodd" clip-rule="evenodd" d="M2199.41 1750.36C2207.79 1685.75 2062.58 1447.6 2053.65 1418.37C2045.2 1390.77 2041.58 1346.75 2035.68 1318.71C2033.24 1307.1 2020.98 1282.24 2001.17 1261.48C1988.59 1248.28 1968.99 1240.22 1952.63 1235.52C1937.57 1231.2 1932.53 1243.14 1946.55 1254.5C1951.75 1258.72 1971.96 1264.95 1983.3 1277.75C2000.55 1297.24 2009.88 1305.62 2004.91 1307.69C2001.74 1309 2000.42 1299.75 1977.6 1278.03C1961.25 1262.46 1935.3 1253.06 1920.95 1253.01C1902.35 1252.94 1900.93 1255.79 1903.86 1264.62C1906.81 1273.51 1922.96 1274.67 1934.96 1278.76C1942.01 1281.16 1948.81 1282.61 1959.37 1293.73C1971.32 1306.33 1988.82 1318.6 1984.77 1321.61C1981.15 1324.32 1978.42 1316.45 1953.99 1294.45C1939.8 1281.67 1893.92 1264.17 1894.25 1285.54C1894.43 1297.34 1918.91 1297.89 1939.5 1311.84C1946.03 1316.28 1963.12 1337.42 1959.02 1340.56C1955.39 1343.34 1951.32 1327.93 1938.58 1317.02C1917.67 1299.14 1894.99 1298.52 1898.62 1312.33C1900.32 1318.77 1909.17 1318.71 1919.5 1326.83C1933.62 1337.93 1932.99 1347.95 1939.73 1365.34C1949.82 1391.35 1939.38 1375.31 1949.43 1399.29C1962.13 1429.64 1977.57 1430.86 1998.95 1457.45C2010.07 1471.28 2075.75 1746.97 2102.07 1781.35C2124.91 1811.21 2147.27 1820.94 2177.54 1813.82C2206.42 1807.03 2197.33 1766.41 2199.41 1750.36Z" fill="#D78C6F"/>
<path fill-rule="evenodd" clip-rule="evenodd" d="M1901.46 1304.01C1901.38 1304.07 1901.27 1304.14 1901.16 1304.23C1898.63 1305.82 1899.32 1308.35 1900.81 1311.65C1901.25 1312.59 1902.14 1313.22 1903.17 1313.92C1904.96 1315.12 1907.16 1316.19 1909.61 1317.33C1915.39 1320.08 1922.23 1323.2 1928.15 1328.4C1929.65 1329.71 1931.38 1332.06 1933.06 1335.16C1936.16 1340.93 1939.48 1349.6 1942.18 1356.8C1943.3 1359.77 1949.43 1375.95 1949.78 1380.65C1950.33 1387.63 1953.21 1395.65 1957.49 1403.07C1960.55 1408.37 1963.23 1413.96 1967.64 1418.88C1978.21 1430.62 2003.56 1448.48 2007.91 1480.51C2007.97 1480.91 2007.97 1481.3 2007.95 1481.67C2003.82 1468.37 2000.7 1459.64 1998.95 1457.46C1977.58 1430.86 1962.14 1429.64 1949.43 1399.29C1939.39 1375.32 1949.83 1391.37 1939.74 1365.34C1932.99 1347.96 1933.63 1337.94 1919.5 1326.82C1909.17 1318.7 1900.31 1318.77 1898.63 1312.35C1897.56 1308.31 1898.73 1305.51 1901.46 1304.01ZM1899.19 1276.93C1899.04 1277.2 1898.73 1277.72 1898.6 1278.11C1897.95 1279.9 1897.66 1282.22 1898.36 1283.83C1899.28 1285.91 1900.72 1286.91 1902.32 1287.63C1903.97 1288.42 1905.81 1288.96 1907.6 1289.62C1910.68 1290.78 1928.25 1295.23 1941.29 1302.61C1951.73 1308.51 1962.23 1324.53 1966.51 1337.72C1967.45 1340.58 1965.87 1343.66 1962.99 1344.6C1960.13 1345.51 1957.05 1343.94 1956.11 1341.08C1955.85 1340.23 1955.55 1339.36 1955.22 1338.48C1956.68 1340.51 1957.88 1341.43 1959.02 1340.56C1963.12 1337.41 1946.03 1316.28 1939.5 1311.85C1918.91 1297.89 1894.43 1297.35 1894.26 1285.56C1894.17 1281.17 1896.05 1278.42 1899.19 1276.93ZM1906.51 1254.36C1906.4 1254.62 1906.4 1254.92 1906.42 1255.23C1906.49 1256.21 1906.84 1257.28 1907.4 1258.37C1907.99 1259.49 1908.8 1260.6 1909.85 1261.67C1912.01 1263.92 1914.46 1264.71 1917.32 1265.27C1921.33 1266.06 1926.03 1266.34 1931.77 1267.48C1941.55 1269.44 1956.25 1274.03 1976.05 1297.87C1981.16 1304.01 1987.97 1311.76 1990.39 1315.75C1991.84 1318.16 1992.12 1320.16 1992.01 1321.23C1991.73 1324.23 1989.06 1326.43 1986.07 1326.15C1983.6 1325.91 1981.68 1324.1 1981.22 1321.78C1981.01 1321.5 1980.46 1320.82 1979.7 1319.84C1982.12 1322.13 1983.39 1322.68 1984.78 1321.63C1988.82 1318.61 1971.31 1306.34 1959.37 1293.75C1948.8 1282.61 1942.01 1281.17 1934.96 1278.77C1922.97 1274.68 1906.81 1273.51 1903.87 1264.62C1902.03 1259.14 1901.9 1255.97 1906.51 1254.36ZM1939.5 1237.59C1939.94 1239.16 1940.81 1240.69 1941.79 1242.15C1945.42 1247.46 1951.03 1248.9 1957.71 1251.43C1966.11 1254.6 1976.07 1258.72 1986.97 1269.05C1999.11 1280.56 2009.02 1295.4 2012.16 1302.22C2013.71 1305.58 2013.71 1308.11 2013.45 1309.14C2012.67 1312.06 2009.67 1313.79 2006.77 1313.03C2004.39 1312.39 2002.82 1310.3 2002.71 1307.98C2002.42 1307.48 2001.29 1305.54 1999.54 1302.76C2002.4 1306.69 2003.47 1308.29 2004.91 1307.7C2009.87 1305.62 2000.55 1297.24 1983.3 1277.74C1971.97 1264.95 1951.75 1258.72 1946.55 1254.51C1938.54 1248 1936.75 1241.32 1939.5 1237.59Z" fill="#926767"/>
<g style="mix-blend-mode:multiply">
<path fill-rule="evenodd" clip-rule="evenodd" d="M1380.66 82.1636V1452.52H414.066C414.066 1452.52 414.066 1275.52 414.066 1048.76C414.066 514.93 846.825 82.1636 1380.66 82.1636Z" fill="url(#paint0_linear)"/>
</g>
<path d="M1354.84 1080.5H439.189V1496.42H1354.84V1080.5Z" fill="white"/>
<path fill-rule="evenodd" clip-rule="evenodd" d="M1380.66 82.1636V1452.52H414.066C414.066 1452.52 414.066 1275.52 414.066 1048.76C414.066 514.93 846.825 82.1636 1380.66 82.1636ZM1336.99 126.862C847.554 149.63 457.728 553.675 457.728 1048.76V1408.84H1336.99V126.862Z" fill="white"/>
<path fill-rule="evenodd" clip-rule="evenodd" d="M1037.3 702.307C1068.62 762.086 1022.5 824.714 973.077 863.876C956.852 876.741 891.598 911.167 888.346 917.968C886.678 921.498 990.837 1125.96 1011.39 1132.95C1023.93 1137.22 1127.99 1129.8 1162.7 1081.45C1186.27 1048.59 1145.35 969.972 1148.05 967.462C1171.85 945.338 1195.6 914.863 1226.71 900.723L1037.3 702.307Z" fill="#C27251"/>
<path fill-rule="evenodd" clip-rule="evenodd" d="M1133.6 1419.6C1099.39 1467.75 1095.74 1466.35 1067.73 1486.17C1025.94 1515.76 760.198 1464.14 731.137 1462.59C688.779 1460.32 609.435 1473.84 574.042 1458.16C549.828 1447.44 558.648 1431 557.731 1391.15C555.831 1309.25 576.028 1243.62 599.128 1183.25C624.871 1116.02 664.784 983.466 810.853 922.374C848.408 906.697 886.683 885.693 929.368 888.029C949.499 889.121 1001.95 1093.33 1104.76 1097.81C1157.73 1100.1 1150.13 981.675 1167.21 993.924C1196.95 1015.26 1240.79 1045.28 1263.01 1088.33C1263.32 1088.84 1263.63 1089.34 1263.93 1089.84C1269.83 1099.88 1272.75 1109.8 1277.56 1124.8C1293.95 1176.09 1284.59 1226.22 1277.67 1254.12C1260.39 1323.71 1233.32 1406.57 1194.87 1418.79C1185.31 1421.83 1159.43 1423.9 1133.6 1419.6Z" fill="#8CFFE1"/>
<path fill-rule="evenodd" clip-rule="evenodd" d="M1215.63 1253.47C1215.83 1269.17 1213.77 1284.32 1209.98 1299.09C1204.6 1320.14 1195.36 1339.99 1187.81 1360.54C1182.67 1374.56 1178.44 1388.87 1174.82 1403.23C1173.61 1408.06 1176.56 1412.94 1181.39 1414.15C1186.2 1415.36 1191.1 1412.42 1192.3 1407.58C1195.3 1395.67 1199.3 1383.97 1202.91 1372.13C1204.54 1366.72 1206.03 1361.27 1207.51 1355.82C1211 1342.88 1213.96 1329.88 1216.69 1316.82C1221.07 1295.97 1224.19 1274.98 1222.41 1253.16C1222.32 1251.29 1220.75 1249.84 1218.88 1249.94C1217.02 1250.01 1215.56 1251.6 1215.63 1253.47Z" fill="#349CBC"/>
<path fill-rule="evenodd" clip-rule="evenodd" d="M1081 1428.89C1088.25 1417.53 1144.66 1371.66 1151.65 1366.78C1172.05 1352.62 1245.45 1329.72 1272.39 1342.31C1289.1 1350.13 1271.47 1363.81 1269.81 1380.29C1268.77 1390.65 1261.21 1399.13 1256.03 1407.73C1248.06 1420.98 1240.27 1436.48 1228.74 1447.36C1223.87 1451.94 1216.82 1454.83 1211 1458.18" fill="#D37C59"/>
<path fill-rule="evenodd" clip-rule="evenodd" d="M1139.83 491.403C1229.61 414.458 1479.53 476.327 1489.77 632.541C1491.59 660.296 1483.27 692.186 1476.42 706.919C1459.69 743.111 1442.08 753.094 1435.32 775.023C1429.06 795.476 1444.68 844.948 1433.3 860.905C1418.69 881.391 1396.7 851.308 1383.53 860.536C1377.41 864.791 1380.32 884.127 1371.08 886.212C1349.21 891.082 1328.89 883.326 1316.07 873.986C1306.08 866.721 1301.21 857.155 1300.08 860.277C1292.45 880.957 1338.99 906.149 1331.22 928.265C1328.16 936.857 1320.45 934.379 1305.17 942.083C1291.24 949.127 1305.17 985.037 1247.34 989.829C1194.18 994.261 1119.68 903.649 1063.81 820.195C1006.86 735.163 1022.85 591.619 1139.83 491.403Z" fill="#D37C59"/>
<path fill-rule="evenodd" clip-rule="evenodd" d="M1322.93 935.405C1320.31 932.85 1318.17 929.422 1315.53 925.973C1314.26 924.291 1313.08 921.824 1312.14 918.855C1311.16 915.601 1310.29 911.475 1309.3 907.61C1308.87 905.82 1308.65 904.051 1307.93 902.741C1304.3 895.077 1300.48 887.304 1298.56 879.182C1297.19 873.287 1296.53 867.566 1297.43 861.78C1297.4 860.318 1298.17 858.898 1299.5 858.134C1301.51 856.977 1304.06 857.676 1305.2 859.663C1309.46 866.125 1316.9 870.798 1325.05 873.767C1328.98 875.208 1333.08 876.103 1337.14 876.649C1341.25 877.195 1345.31 877.283 1349.06 876.715C1359.41 875.427 1364.74 873.898 1369.28 873.745C1372.29 873.636 1375.05 873.942 1378.23 875.055C1377.05 880.339 1375.42 885.187 1371.05 886.169C1349.15 891.038 1328.82 883.287 1316.01 873.942C1306.05 866.671 1301.18 857.13 1300.02 860.252C1292.43 880.929 1338.95 906.104 1331.16 928.222C1329.67 932.457 1327.03 934.007 1322.93 935.405Z" fill="#AA5B3C"/>
<path fill-rule="evenodd" clip-rule="evenodd" d="M1236.94 650.925C1205.05 663.062 1209.76 696.012 1187.3 689.74C1169.99 684.914 1191.99 655.391 1186.37 627.24C1182.16 606.256 1159.82 598.126 1139.86 603.763C1096.27 616.037 1115.82 674.793 1109.93 688.721C1102.06 707.257 1094.47 725.044 1078.87 737.32C1071.66 743.01 1063.38 748.216 1056.28 755.592C1055.27 756.661 1040.95 773.124 1040.68 773.143C1034.66 773.581 1034.94 756.608 1032.96 745.595C1027.6 715.712 1026.05 690.462 1019.01 662.542C993.678 561.991 1035.62 474.945 1094.79 437.337C1143.49 406.379 1191.17 385.604 1239.82 387.127C1258.18 387.721 1269.04 402.549 1269.04 402.549C1269.04 402.549 1274.52 394.102 1300.46 395.883C1368.45 400.576 1445.94 474.119 1475.13 534.622C1488.82 563.018 1490.18 591.116 1501.54 608.881C1515.82 631.199 1539.1 639.667 1545.45 639.637C1558.02 639.577 1527.99 691.175 1486.68 691.675C1374.86 693.068 1362.38 600.718 1344.33 599.613C1326.33 598.535 1331.35 624.609 1298.64 637.806C1270.83 649.031 1262.69 641.143 1236.94 650.925Z" fill="#1E5A6C"/>
<path fill-rule="evenodd" clip-rule="evenodd" d="M1171.97 633L1170.68 625.446L1187.17 637.717C1191.77 640.839 1195.64 645.468 1198.17 651.385L1282.49 848.502C1290 866.013 1283.15 888.371 1267.25 898.393L1209.59 934.747C1203.32 938.699 1196.58 940.14 1190.24 939.397L1171.86 937.345L1175.29 932.629C1171.97 929.681 1169.15 925.838 1167.17 921.188L1082.84 724.092C1075.35 706.581 1082.19 684.223 1098.1 674.179L1155.77 637.848C1161.01 634.529 1166.58 632.978 1171.97 633Z" fill="#438093"/>
<path fill-rule="evenodd" clip-rule="evenodd" d="M1179.64 635.765C1174.42 623.575 1161.18 619.341 1150.1 626.33L1074.95 673.699C1063.86 680.688 1059.1 696.27 1064.31 708.461L1156.87 924.806C1162.1 937.022 1175.34 941.256 1186.43 934.267L1261.57 886.897C1272.66 879.908 1277.42 864.326 1272.2 852.111L1179.64 635.765Z" fill="#FFD500"/>
<path fill-rule="evenodd" clip-rule="evenodd" d="M1146.49 716.324C1149.16 714.588 1150.38 710.823 1149.21 707.919L1135.51 673.966C1134.34 671.062 1131.21 670.113 1128.54 671.849L1118.84 678.144C1116.16 679.88 1114.94 683.646 1116.11 686.549L1129.81 720.503C1130.99 723.407 1134.11 724.355 1136.78 722.619L1146.49 716.324Z" fill="#438093"/>
<path fill-rule="evenodd" clip-rule="evenodd" d="M1135.07 684.85C1133.49 680.829 1129.6 679.381 1126.41 681.558C1123.31 683.677 1122.01 688.574 1123.55 692.488C1125.14 696.508 1129.03 697.956 1132.21 695.779C1135.31 693.66 1136.61 688.763 1135.07 684.85ZM1134.26 685.169C1135.65 688.708 1134.53 693.142 1131.72 695.063C1129.01 696.92 1125.71 695.601 1124.36 692.168C1122.97 688.629 1124.1 684.19 1126.9 682.274C1129.63 680.412 1132.91 681.736 1134.26 685.169Z" fill="white"/>
<path fill-rule="evenodd" clip-rule="evenodd" d="M712.817 1055.85C696.123 1092.38 687.594 1122.18 683.972 1150.78C679.892 1182.87 682.03 1213.4 685.705 1250.14C688.643 1278.14 696.476 1313.08 705.806 1342.04C711.086 1358.44 716.92 1372.92 722.205 1383.28C726.843 1392.37 731.485 1398.5 735.11 1400.97C737.475 1402.56 740.453 1403.6 743.993 1403.85C748.409 1404.14 753.91 1403.25 759.788 1401.3C774.771 1396.38 792.714 1385 800.56 1376.44C802.845 1374.03 802.732 1370.23 800.337 1367.95C797.921 1365.67 794.128 1365.78 791.847 1368.18C786.731 1373.41 776.892 1379.66 766.887 1384.22C761.148 1386.85 755.343 1388.89 750.337 1389.72C747.323 1390.24 744.723 1390.65 743.089 1389.47C740.657 1387.74 738.154 1383.1 735.057 1376.83C730.192 1366.91 724.994 1353.03 719.853 1337.46C710.588 1309.4 701.714 1275.8 698.244 1248.69C693.489 1212.96 690.41 1183.26 693.315 1151.79C695.898 1123.79 703.169 1094.41 718.184 1058.18C718.825 1056.71 718.159 1054.98 716.688 1054.34C715.195 1053.69 713.483 1054.36 712.817 1055.85Z" fill="#349CBC"/>
<path fill-rule="evenodd" clip-rule="evenodd" d="M781.275 1404.22C776.057 1324.82 1021.28 979.908 1034.43 944.971C1046.85 911.966 1053.66 842.416 1063.02 808.687C1066.89 794.751 1088.26 767.249 1114.01 743.474C1130.37 728.358 1165.52 716.372 1185.83 711.903C1204.52 707.778 1213.47 725.419 1195.5 738.188C1188.83 742.922 1155.65 751.95 1140.85 766.671C1118.31 789.094 1098.25 821.496 1104.14 824.395C1107.91 826.24 1119.57 793.135 1149.05 768.422C1170.19 750.706 1204.19 741.485 1221.69 742.535C1244.37 743.889 1247.33 749.689 1243.07 760.229C1238.78 770.831 1219.01 770.998 1204.07 775.063C1195.29 777.441 1186.9 778.683 1173.17 791.422C1157.63 805.854 1128.23 843.268 1132.92 847.261C1137.13 850.839 1149.75 817.065 1181.23 792.133C1199.51 777.645 1259.9 766.489 1257.84 792.537C1256.71 806.886 1226.4 802.173 1200.22 817.592C1191.92 822.477 1155.3 868.435 1160.05 872.583C1164.25 876.247 1185.35 834.935 1201.72 822.641C1228.59 802.465 1270.59 808.05 1264.56 824.433C1258.58 840.691 1246.61 832.439 1226.99 845.184C1208.58 857.138 1210.2 863.439 1200.65 884.113C1186.33 915.04 1194.83 896.885 1191.24 928.457C1186.86 966.913 1151.7 1010.44 1123.6 1041.17C1108.97 1057.19 966.142 1439.15 939.49 1458.04C902.029 1484.6 878.832 1490.37 842.483 1479.35C807.814 1468.84 782.571 1423.92 781.275 1404.22Z" fill="#D97E59"/>
<path fill-rule="evenodd" clip-rule="evenodd" d="M1250.29 810.404C1260.7 812.195 1267.21 817.282 1264.57 824.422C1258.58 840.688 1246.62 832.435 1226.99 845.186C1208.6 857.129 1210.22 863.439 1200.66 884.094C1186.36 915.033 1194.85 896.889 1191.25 928.439C1191.22 928.679 1191.2 928.919 1191.16 929.16C1190.88 931.103 1190.57 933.09 1190.2 935.098C1186.4 954.072 1175.83 974.007 1162.86 992.85C1161.33 994.706 1159.85 996.539 1158.43 998.374C1155.57 1002.09 1152.82 1006.02 1150.13 1010.08C1141.36 1021.28 1132.16 1031.82 1123.6 1041.17C1120.4 1044.71 1110.96 1065.97 1097.91 1097.19C1097.88 1096.58 1097.93 1095.97 1098.1 1095.36C1106.68 1064.88 1110.07 1052.17 1118.63 1039.64C1128.98 1024.51 1138.45 1006.36 1149.81 991.692C1156.66 982.828 1165.53 973.985 1171.51 960.623C1181.79 937.653 1181.88 909.99 1183.6 901.19C1185.9 889.487 1194.7 875.906 1196.16 872.675C1201.92 859.837 1209.26 848.265 1214.61 844.16C1223.6 837.238 1235.05 833.636 1244.3 830.382C1249.17 828.658 1253.39 827.26 1255.61 824.946C1257.03 823.461 1256.99 821.365 1256.47 819.422C1255.79 816.845 1254.17 814.378 1252.23 812.959C1251.29 812.282 1250.66 811.387 1250.29 810.404ZM1243.41 777.697C1252.49 779.444 1258.54 783.985 1257.86 792.522C1256.73 806.889 1226.42 802.151 1200.22 817.588C1191.92 822.457 1155.31 868.417 1160.07 872.566C1160.83 873.243 1162.19 872.413 1163.95 870.492C1163.71 871.343 1163.56 872.107 1163.5 872.784C1163.28 875.797 1160.66 878.068 1157.67 877.828C1154.65 877.609 1152.4 874.99 1152.62 871.998C1153.02 866.431 1158.32 855.797 1165.79 844.815C1176.53 828.985 1191.49 812.282 1199.09 808.592C1215.48 800.644 1237.05 797.326 1240.9 796.168C1243.47 795.382 1246.64 794.575 1249.09 793.046C1250.29 792.282 1251.33 791.343 1251.25 789.706C1251.14 787.588 1249.78 785.055 1248.26 782.784C1246.75 780.557 1245.05 778.527 1243.58 777.806C1243.54 777.762 1243.47 777.74 1243.41 777.697ZM1230.24 743.374C1245.07 745.645 1246.73 751.19 1243.08 760.23C1238.8 770.841 1219.02 770.994 1204.09 775.055C1195.31 777.435 1186.9 778.679 1173.17 791.431C1157.64 805.841 1128.23 843.264 1132.93 847.26C1134 848.155 1135.57 846.693 1137.86 843.614C1136.44 847.391 1135.74 850.317 1135.79 851.496C1135.88 854.509 1133.52 857.042 1130.5 857.129C1127.49 857.238 1124.96 854.858 1124.87 851.845C1124.78 848.876 1127.6 837.195 1134.41 825.622C1139.81 816.452 1147.93 807.697 1155.9 798.57C1180.4 770.47 1196.44 768.112 1208.45 766.496C1216.49 765.404 1224.65 763.286 1230.42 760.95C1232.91 759.946 1235.7 758.177 1236.01 757.981C1239.48 752.588 1238.87 746.321 1233.84 745.579C1232.34 745.339 1231.07 744.531 1230.24 743.374ZM1194.91 711.649C1206.88 714.007 1210.22 727.719 1195.53 738.177C1188.84 742.915 1155.66 751.933 1140.85 766.671C1118.32 789.094 1098.26 821.496 1104.15 824.4C1104.78 824.706 1105.64 824.029 1106.75 822.588C1106.6 823.92 1106.64 825.142 1106.84 826.212C1107.43 829.16 1105.5 832.042 1102.56 832.631C1099.61 833.221 1096.73 831.278 1096.14 828.33C1095.4 824.575 1095.7 819.64 1097.58 813.941C1102.93 797.719 1119.72 774.225 1139.22 757.959C1153.06 746.409 1165.09 741.845 1175.18 738.308C1183.67 735.295 1190.66 733.417 1195.68 726.976C1199 722.741 1201.79 716.867 1196.16 712.85C1195.68 712.5 1195.26 712.107 1194.91 711.649Z" fill="#476B76"/>
<path fill-rule="evenodd" clip-rule="evenodd" d="M1391.35 744.473C1397.4 737.996 1409.83 730.974 1416.74 738.392C1424.14 746.313 1414.6 759.324 1411.3 762.825C1404.28 770.279 1388.86 780.2 1382.41 772.285C1374.14 762.106 1386.4 749.778 1391.35 744.473Z" fill="#1E5A6C"/>
<path d="M1122.08 1150.51C1127.74 1152.58 1134.01 1149.68 1136.09 1144.02C1138.17 1138.36 1135.27 1132.08 1129.6 1130C1123.94 1127.93 1117.67 1130.83 1115.59 1136.49C1113.51 1142.15 1116.42 1148.43 1122.08 1150.51Z" fill="white"/>
<path d="M1132.02 1201.73C1137.68 1203.81 1143.95 1200.91 1146.03 1195.24C1148.11 1189.58 1145.2 1183.31 1139.54 1181.23C1133.88 1179.15 1127.61 1182.06 1125.53 1187.72C1123.45 1193.38 1126.36 1199.65 1132.02 1201.73Z" fill="white"/>
<path fill-rule="evenodd" clip-rule="evenodd" d="M1419.77 689.726C1417.06 687.674 1414.53 685.818 1412 684.181C1410.05 682.958 1408.13 681.91 1406.23 681.037C1404.42 680.185 1402.63 679.53 1400.86 679.05C1398.85 678.526 1396.87 678.22 1394.9 678.22C1390.82 678.176 1386.84 679.181 1383.05 681.473C1379.01 683.919 1375.12 687.805 1371.34 693.679C1370.4 694.967 1370.67 696.801 1371.95 697.74C1373.24 698.7 1375.05 698.438 1376.01 697.15C1381.1 691.124 1385.88 688.176 1390.71 687.237C1392.32 686.91 1393.92 686.888 1395.58 686.975C1397.26 687.085 1398.98 687.303 1400.78 687.718C1402.89 688.198 1405.08 688.788 1407.37 689.574C1410.6 690.687 1413.98 691.932 1417.59 693.46C1418.61 694.072 1419.95 693.722 1420.53 692.696C1421.15 691.648 1420.8 690.338 1419.77 689.726Z" fill="#476B76"/>
<path d="M1380.74 1408.84H414.137V1518.02H1380.74V1408.84Z" fill="#F1E7FF"/>
<path d="M1380.74 1408.85H414.137V1430.68H1380.74V1408.85Z" fill="#E5D5B3"/>
<g style="mix-blend-mode:multiply">
<path fill-rule="evenodd" clip-rule="evenodd" d="M1179.28 1518H433.232L544.804 1408.83H1309.26L1179.28 1518Z" fill="#EBEFF4"/>
</g>
<path fill-rule="evenodd" clip-rule="evenodd" d="M1308.04 1340.19C1284.55 1332.97 1223.8 1336.15 1209.11 1373.59C1206.79 1379.52 1172.34 1396.68 1169.59 1401.57C1168.04 1404.35 1174.86 1408.49 1182.36 1407.95C1190.57 1407.34 1199.79 1401.97 1204.45 1403.52C1231.68 1412.52 1242.32 1444.41 1285.34 1450.72C1313.63 1454.88 1367.52 1488.69 1384.91 1460.96C1400.41 1436.2 1324.3 1434.02 1334.89 1419.68C1344.95 1406.09 1411.37 1415.92 1423.6 1419.6C1442.67 1425.33 1469.21 1460.13 1485.86 1442.3C1500.09 1427.06 1447.55 1392.44 1436.81 1386.76C1415.31 1375.43 1389.91 1371.62 1367.59 1361.28C1355.27 1355.56 1327.35 1346.16 1308.04 1340.19Z" fill="#D37C59"/>
<path fill-rule="evenodd" clip-rule="evenodd" d="M1472.27 1447.15C1473.82 1446.78 1475.37 1446.1 1476.73 1445.27C1478.04 1444.44 1479.15 1443.46 1479.87 1442.35C1480.46 1441.45 1480.74 1440.49 1480.35 1439.55C1478.56 1435.23 1475.18 1429.75 1471.25 1424.58C1467.49 1419.62 1463.21 1414.9 1459.17 1411.85C1452.47 1406.78 1444.26 1401.63 1436.44 1397.2C1426.14 1391.34 1416.55 1386.72 1412.25 1384.95C1409.87 1383.96 1400.81 1380.95 1389.78 1377.87C1382.53 1375.86 1374.46 1373.79 1366.84 1372.24C1366.31 1372.13 1365.98 1371.63 1366.09 1371.13C1366.18 1370.62 1366.68 1370.27 1367.18 1370.38C1374.87 1371.82 1383.06 1373.79 1390.37 1375.71C1401.6 1378.64 1410.81 1381.52 1413.25 1382.48C1417.62 1384.18 1427.4 1388.7 1438.01 1394.34C1446.09 1398.64 1454.63 1403.57 1461.62 1408.51C1466.05 1411.63 1470.83 1416.45 1475 1421.65C1479.35 1427.09 1483.01 1432.94 1485.02 1437.54C1485.79 1439.31 1485.79 1441.15 1485.22 1442.89C1481.33 1446.72 1476.94 1447.81 1472.27 1447.15ZM1216.57 1409.51C1214.78 1407.94 1212.95 1406.41 1211.09 1405.08C1209.48 1403.9 1207.86 1402.83 1206.22 1401.96C1203.54 1400.47 1200.87 1399.44 1198.32 1398.99C1196.53 1398.7 1192.75 1399.16 1188.98 1400.01C1185.46 1400.82 1181.94 1401.93 1179.91 1403.2C1179.46 1403.48 1178.82 1403.35 1178.54 1402.89C1178.23 1402.44 1178.36 1401.8 1178.82 1401.5C1180.94 1400.06 1184.65 1398.68 1188.39 1397.65C1192.56 1396.52 1196.73 1395.89 1198.74 1396.15C1201.9 1396.5 1205.24 1397.68 1208.69 1399.29C1213.06 1401.32 1217.6 1404.05 1221.84 1407.3C1223.45 1408.55 1225.05 1409.86 1226.51 1411.26C1227.49 1412.2 1228.43 1413.2 1229.32 1414.2C1231.07 1416.21 1232.62 1418.22 1234.04 1420.19C1235.7 1422.46 1237.05 1424.6 1238.23 1426.54C1238.47 1426.82 1238.45 1427.24 1238.23 1427.52C1230.79 1421.04 1224.15 1414.47 1216.57 1409.51ZM1334.17 1423.81L1333.93 1423.68C1328.23 1420.62 1323.04 1417.3 1317.29 1414.14C1312.1 1411.26 1306.55 1408.44 1300.39 1405.23C1299.61 1404.88 1299.28 1403.94 1299.63 1403.16C1300 1402.39 1300.94 1402.04 1301.7 1402.41C1308.15 1405.03 1313.84 1407.52 1319.37 1409.73C1325.44 1412.13 1331.29 1414.03 1337.29 1416.37C1337.67 1416.5 1338.04 1416.65 1338.39 1416.8C1336.88 1417.61 1335.68 1418.57 1334.85 1419.68C1333.76 1421.17 1333.58 1422.52 1334.17 1423.81Z" fill="#476B76"/>
</g>
<defs>
<linearGradient id="paint0_linear" x1="1380.66" y1="256.59" x2="1380.66" y2="1080.49" gradientUnits="userSpaceOnUse">
<stop stop-color="#F3FCFF"/>
<stop offset="1" stop-color="#A5EAFF"/>
</linearGradient>
<clipPath id="clip0">
<rect width="3028.38" height="2000" fill="white"/>
</clipPath>
</defs>
</svg>
