<svg width="2000" height="2000" viewBox="0 0 2000 2000" fill="none" xmlns="http://www.w3.org/2000/svg">
<g clip-path="url(#clip0)">
<path d="M569.95 1780.25L519.883 1770.83L510.224 1822.17L479.205 1816.34L503.471 1687.36L589.636 1703.57L585.131 1727.52L529.985 1717.14L524.388 1746.89L574.455 1756.31L569.95 1780.25Z" fill="#00BAF2"/>
<path d="M720.875 1782.85L703.837 1784.94L709.49 1830.93L678.162 1834.78L662.149 1704.52L713.264 1698.23C728.836 1696.32 741.356 1698.31 750.8 1704.03C760.449 1709.91 766.04 1719.08 767.571 1731.54C768.675 1740.52 767.766 1748.26 764.845 1754.75C761.741 1761.27 756.647 1766.73 749.403 1771.34L782.981 1820.59L783.138 1821.87L749.429 1826.02L720.875 1782.85ZM700.864 1760.76L720.651 1758.32C726.696 1757.58 731.074 1755.37 733.622 1751.9C736.171 1748.42 737.279 1743.82 736.603 1738.32C735.905 1732.65 733.716 1728.45 730.402 1725.7C726.882 1722.78 722.282 1721.67 716.236 1722.42L696.45 1724.85L700.864 1760.76Z" fill="#00BAF2"/>
<path d="M937.654 1721.31L890.285 1736.8L899.979 1766.45L955.771 1748.2L963.343 1771.36L877.551 1799.41L836.764 1674.67L922.731 1646.56L930.303 1669.72L874.337 1688.02L882.942 1714.34L930.312 1698.85L937.654 1721.31Z" fill="#00BAF2"/>
<path d="M1107.87 1644.2L1063.74 1667.36L1078.24 1694.98L1130.22 1667.7L1141.54 1689.28L1061.62 1731.22L1000.62 1615.02L1080.71 1572.99L1092.03 1594.56L1039.9 1621.92L1052.76 1646.44L1096.89 1623.28L1107.87 1644.2Z" fill="#00BAF2"/>
<path d="M1214.82 1584.04L1195.93 1599.73L1135.62 1533.21L1160.46 1512.57L1214.82 1584.04ZM1210.06 1624.23C1207.22 1620.83 1206.14 1616.93 1206.79 1612.79C1207.45 1608.4 1209.75 1604.81 1213.44 1601.74C1217.13 1598.67 1220.94 1597.19 1225.38 1597.34C1229.57 1597.46 1233.2 1599.24 1236.04 1602.65C1238.87 1606.05 1239.95 1609.95 1239.42 1614.23C1238.64 1618.48 1236.6 1622.1 1232.91 1625.16C1229.22 1628.23 1225.15 1629.69 1220.83 1629.69C1216.52 1629.42 1212.89 1627.64 1210.06 1624.23Z" fill="#00BAF2"/>
<path fill-rule="evenodd" clip-rule="evenodd" d="M381.187 1513.93C457.192 1560.01 605.479 1600.38 745.579 1583.71C901.299 1565.18 1044.1 1502.48 1103.51 1453.91C1143.05 1421.59 1164.2 1377.46 1126.78 1331.75C1033.9 1218.26 789.165 1166.06 616.995 1208.04C489.063 1239.25 464.979 1263.51 398.322 1332.05C355.044 1376.55 319.151 1476.32 381.187 1513.93Z" fill="#87E9CF"/>
<path d="M929.845 1399.01C938.368 1399.01 945.277 1392.1 945.277 1383.58C945.277 1375.06 938.368 1368.15 929.845 1368.15C921.322 1368.15 914.412 1375.06 914.412 1383.58C914.412 1392.1 921.322 1399.01 929.845 1399.01Z" fill="white" fill-opacity="0.75"/>
<path d="M967.975 1462.14C976.498 1462.14 983.407 1455.23 983.407 1446.71C983.407 1438.18 976.498 1431.27 967.975 1431.27C959.451 1431.27 952.542 1438.18 952.542 1446.71C952.542 1455.23 959.451 1462.14 967.975 1462.14Z" fill="white" fill-opacity="0.75"/>
<path fill-rule="evenodd" clip-rule="evenodd" d="M675.459 1180.63C702.866 1219.83 769.302 1338.01 869.625 1307.92C908.652 1296.2 909.533 1261.58 913.898 1232.81C918.786 1200.58 919.666 1181.97 927.202 1141.46" fill="#C27251"/>
<path fill-rule="evenodd" clip-rule="evenodd" d="M469.127 1080.54C308.812 883.058 335.262 686.472 525.875 565.011C629.271 499.121 736.855 525.86 851.612 605.638C898.713 638.383 876.03 733.951 938.527 813.669C1013.43 909.227 1038.26 1032.75 1017.79 1092.34C973.691 1220.7 891.168 1221.33 769.853 1215.7C683.397 1211.67 613.645 1199.68 551.642 1158.56C525.955 1141.54 480.308 1094.31 469.127 1080.54Z" fill="#D97E59"/>
<path fill-rule="evenodd" clip-rule="evenodd" d="M512.538 760.852C529.071 731.446 569.554 738.628 590.816 747.019C688.229 785.474 723.599 783.644 788.591 758.851C813.159 749.503 858.824 734.364 891.825 668.781C901.15 650.243 902.123 604.646 902.123 604.646C902.123 604.646 883.552 624.547 802.882 556.307C696.741 466.523 504.751 500.561 410.077 606.877C382.922 637.364 390.809 675.132 390.809 675.132C390.809 675.132 355.353 679.195 336.152 724.357C320.473 761.27 328.297 806.524 332.852 867.682C338.587 944.597 368.157 985.988 423.081 1043.53C428.247 1048.94 440.799 1086.84 451.025 1084.37C485.038 1076.14 447.143 1030.3 433.209 986.486C424.052 957.695 432.273 926.75 453.271 918.528C505.764 897.958 512.593 1044.47 555.11 986.489C558.349 982.067 531.997 929.778 524.399 880.817" fill="#194858"/>
<path fill-rule="evenodd" clip-rule="evenodd" d="M803.069 1065.98C812.449 1054.34 860.472 1048.53 896.817 1027.52C920.377 1013.93 929.817 995.15 936.279 994.587C947.966 993.554 958.209 1056.35 939.429 1075.09C915.974 1098.53 867.489 1097.47 832.555 1090.46C811.629 1086.27 798.579 1071.54 803.069 1065.98Z" fill="white"/>
<path fill-rule="evenodd" clip-rule="evenodd" d="M800.012 1063.52C796.886 1066.98 797.638 1073.59 803.27 1080.33C808.62 1086.73 818.52 1093.37 831.3 1096.7C843.817 1099.83 858.033 1102.35 872.396 1103.1C881.963 1103.6 891.569 1103.33 900.681 1101.93C907.289 1100.93 913.633 1099.29 919.504 1097.05C929.475 1093.23 938.142 1087.74 944.822 1080.5C953.708 1070.71 956.711 1051.86 955.16 1033.64C954.559 1026.52 953.327 1019.59 951.884 1013.45C949.699 1004.14 946.663 996.748 943.497 993.177C941.121 990.5 938.445 989.557 935.829 989.621C933.668 989.666 931.216 990.878 928.316 993.014C921.64 997.968 911.054 1010.5 892.086 1019.33C888.002 1021.41 883.701 1023.06 879.488 1024.95C876.646 1026.21 873.841 1027.55 871.035 1028.86C851.886 1037.84 832.584 1044.82 818.88 1050.97C809.549 1055.16 802.788 1059.21 799.935 1063.46L800.012 1063.52ZM936.275 1000.04C936.227 1000.16 936.16 1000.25 936.071 1000.32C935.078 1001.18 934.064 1002.39 932.884 1003.84C929.309 1008.23 924.875 1014.42 918.6 1021.07C913.969 1026 908.365 1030.93 901.557 1035.73C897.042 1038.66 892.436 1041.55 887.522 1043.85C882.686 1046.11 877.617 1047.83 872.588 1049.43C854.66 1055.1 836.949 1058.15 823.72 1061.61C815.476 1063.77 809.105 1065.48 806.202 1068.5L806.123 1068.44C806.058 1068.53 806.281 1068.59 806.294 1068.71C806.349 1069.18 806.636 1069.65 806.918 1070.18C808.349 1072.88 811.629 1075.68 816.002 1078.26C820.73 1081.06 826.83 1083.23 833.804 1084.22C845.731 1086.02 859.193 1086.87 872.637 1086.57C881.194 1086.37 889.705 1085.56 897.836 1084.21C903.361 1083.29 908.686 1082.11 913.705 1080.52C921.446 1078.02 928.509 1074.77 934.046 1069.71C941.615 1062.85 944.176 1048.17 944.248 1034.07C944.289 1027.07 943.739 1020.14 942.505 1014.18C941.496 1009.32 940.111 1005.12 938.472 1002.17C937.916 1001.17 936.781 1000.59 936.275 1000.04Z" fill="#AA5B3C"/>
<path fill-rule="evenodd" clip-rule="evenodd" d="M846.086 839.716C841.402 830.699 838.571 814.58 849.235 809.947C860.629 804.982 871.038 820.27 873.559 825.177C878.924 835.624 883.743 856.084 872.721 860.023C858.553 865.066 849.923 847.1 846.086 839.716Z" fill="#133844"/>
<path fill-rule="evenodd" clip-rule="evenodd" d="M714.657 899.336C709.973 890.319 707.142 874.2 717.806 869.568C729.2 864.602 739.61 879.89 742.13 884.797C747.495 895.245 752.314 915.705 741.292 919.643C727.124 924.687 718.494 906.72 714.657 899.336Z" fill="#133844"/>
<path fill-rule="evenodd" clip-rule="evenodd" d="M791.939 873.309C796.932 879.024 802.513 884.409 808.388 889.565C822.406 901.884 838.125 912.737 851.57 922.747C862.234 930.703 871.381 937.972 876.535 945.149C880.811 951.034 877.535 956.757 873.101 962.538C869.989 966.589 866.075 970.597 861.971 974.504C855.109 981.078 847.872 987.447 842.367 992.839C839.54 995.286 839.261 999.582 841.734 1002.4C844.207 1005.22 848.507 1005.52 851.321 1003.05C858.4 997.408 868.28 991.056 876.501 983.675C882.844 977.964 888.145 971.601 891.342 965.318C896.393 955.37 896.742 945.216 889.123 935.621C884.8 930.227 878.529 924.751 870.908 919.23C850.384 904.393 819.873 888.467 798.718 866.992C796.979 865.121 794.048 865.016 792.174 866.748C790.311 868.505 790.2 871.438 791.939 873.309Z" fill="#476B76"/>
<path fill-rule="evenodd" clip-rule="evenodd" d="M488.399 965.698C484.436 961.144 479.795 957.05 475.172 954.162C471.099 951.622 466.994 950.094 463.337 949.857C456.211 949.4 450.231 953.37 448.323 965.066C447.751 969.028 448.099 973.401 449.37 977.792C450.463 981.569 452.192 985.35 454.357 988.885C456.479 992.348 458.991 995.573 461.703 998.341C464.783 1001.47 468.059 1004.02 471.238 1005.7C472.219 1006.31 473.516 1006.01 474.134 1005.03C474.751 1004.05 474.456 1002.76 473.473 1002.14C470.931 1000.27 468.492 997.582 466.156 994.5C464.075 991.753 462.196 988.641 460.558 985.427C458.948 982.255 457.652 978.952 456.759 975.707C455.838 972.357 455.304 969.068 455.667 966.037C456.367 959.195 459 956.161 463.148 956.127C469.853 956.089 478.564 961.624 485.552 968.406C486.297 969.193 487.539 969.221 488.325 968.476C489.112 967.732 489.145 966.485 488.399 965.698Z" fill="#476B76"/>
<path fill-rule="evenodd" clip-rule="evenodd" d="M512.59 917.31L506.652 909.141L533.314 913.972C540.591 914.956 547.868 918.156 554.345 923.679L769.438 1107.16C788.561 1123.45 793.577 1153.88 780.654 1175.05L733.823 1251.77C728.73 1260.11 721.622 1265.77 713.699 1268.59L690.761 1276.94L692.069 1269.36C686.407 1267.84 680.853 1264.93 675.776 1260.61L460.667 1077.14C441.559 1060.83 436.544 1030.42 449.467 1009.23L496.298 932.51C500.544 925.541 506.221 920.448 512.59 917.31Z" fill="#438093"/>
<path fill-rule="evenodd" clip-rule="evenodd" d="M523.259 916.085C509.955 904.737 491.832 907.491 482.826 922.245L421.792 1022.24C412.786 1036.99 416.289 1058.19 429.593 1069.54L665.696 1270.92C679.028 1282.29 697.151 1279.54 706.157 1264.78L767.191 1164.79C776.197 1150.04 772.694 1128.84 759.363 1117.47L523.259 916.085Z" fill="#FFD500"/>
<path fill-rule="evenodd" clip-rule="evenodd" d="M531.283 1030.69C533.426 1027.07 532.661 1021.91 529.575 1019.16L493.495 987.073C490.41 984.329 486.165 985.037 484.022 988.654L476.246 1001.78C474.102 1005.39 474.868 1010.56 477.953 1013.3L514.033 1045.39C517.119 1048.14 521.363 1047.43 523.507 1043.81L531.283 1030.69Z" fill="#438093"/>
<path fill-rule="evenodd" clip-rule="evenodd" d="M499.357 1000.19C495.132 996.363 489.684 996.934 487.197 1001.37C484.776 1005.69 486.113 1012.24 490.225 1015.96C494.45 1019.78 499.898 1019.21 502.385 1014.77C504.806 1010.45 503.469 1003.91 499.357 1000.19ZM498.587 1001.04C502.306 1004.4 503.581 1010.3 501.386 1014.21C499.263 1018 494.602 1018.37 490.995 1015.11C487.275 1011.74 486.006 1005.84 488.195 1001.93C490.323 998.134 494.98 997.774 498.587 1001.04Z" fill="white"/>
<path fill-rule="evenodd" clip-rule="evenodd" d="M398.023 1587.49C375.078 1543.06 425.716 1340.26 435.361 1295.15C444.465 1252.53 439.993 1166.28 445.226 1123.35C447.389 1105.6 468.434 1068.07 495.531 1034.27C512.737 1012.79 553.487 991.679 577.483 982.481C599.566 974.002 613.746 993.912 594.142 1012.82C586.863 1019.83 547.978 1036.97 532.595 1057.68C509.182 1089.23 490.633 1132.52 498.365 1134.98C503.306 1136.54 511.462 1093.94 542.941 1058.31C565.515 1032.77 605.37 1015.25 626.946 1013.32C654.903 1010.8 659.588 1017.34 656.324 1031C653.039 1044.75 628.91 1048.59 611.396 1056.31C601.107 1060.83 591.075 1063.89 576.642 1081.98C560.31 1102.48 531.267 1153.61 537.737 1157.62C543.537 1161.22 552.744 1117.63 586.623 1081.37C606.302 1060.3 678.039 1035.56 680.323 1067.76C681.584 1085.51 643.67 1085.33 614.513 1108.98C605.271 1116.48 568.974 1179.38 575.542 1183.57C581.359 1187.28 599.535 1132.91 617.281 1114.88C646.402 1085.28 698.748 1084.38 694.4 1105.51C690.077 1126.47 673.943 1118.59 652.301 1137.78C632.01 1155.77 635.152 1163.17 627.276 1190.19C615.478 1230.62 622.522 1206.87 623.94 1246.11C625.663 1293.91 601.721 1358.82 573.031 1401.55C558.1 1423.82 594.714 1574.45 563.042 1599.49C531.366 1624.52 420.969 1631.95 398.023 1587.49Z" fill="#D97E59"/>
<path fill-rule="evenodd" clip-rule="evenodd" d="M678.682 1091.26C689.305 1092.48 696.077 1097.34 694.398 1105.5C690.077 1126.48 673.943 1118.6 652.298 1137.77C635.929 1152.3 634.811 1159.93 630.852 1176.51C630.518 1177.63 630.191 1178.77 629.872 1179.91C629.045 1182.88 628.285 1185.9 627.634 1188.94L627.274 1190.19C617.015 1225.36 621.006 1211.97 623.151 1233.7C614.974 1217.47 617.211 1196.65 622.463 1177.85C626.989 1161.63 633.474 1146.63 639.071 1140.8C648.568 1130.93 661.601 1124.63 672.074 1119.06C678.203 1115.82 683.42 1112.97 685.909 1109.46C687.985 1106.54 687.625 1102.96 686.234 1099.74C684.685 1096.16 681.82 1092.94 678.682 1091.26ZM666.281 1053.05C674.301 1054.74 679.721 1059.28 680.323 1067.76C681.583 1085.51 643.669 1085.31 614.514 1108.97C605.269 1116.48 568.972 1179.37 575.54 1183.57C575.94 1183.82 576.397 1183.8 576.908 1183.54C577.004 1185.6 575.437 1187.39 573.36 1187.56C571.243 1187.71 569.394 1186.13 569.231 1184.02C568.726 1177.42 573.238 1164.05 580.044 1149.87C590.021 1129.05 604.706 1106.36 613.111 1100.6C631.515 1087.97 657.046 1080.05 661.495 1077.94C664.717 1076.43 668.681 1074.7 671.591 1072.2C673.703 1070.39 675.211 1068.13 674.558 1064.96C673.944 1061.97 671.584 1058.57 668.924 1055.68C668.066 1054.74 667.174 1053.85 666.281 1053.05ZM647.954 1013.8C657.166 1016.05 658.481 1021.97 656.324 1031C653.04 1044.76 628.911 1048.6 611.394 1056.31C601.107 1060.83 591.074 1063.88 576.641 1081.99C560.31 1102.48 531.264 1153.6 537.735 1157.62C538.235 1157.93 538.758 1157.88 539.321 1157.54C539.02 1160.02 538.977 1161.87 539.149 1162.82C539.531 1164.9 538.146 1166.91 536.058 1167.3C533.969 1167.68 531.964 1166.28 531.583 1164.2C530.952 1160.76 532.338 1146.68 538.247 1131.99C543.092 1119.94 551.332 1107.94 559.284 1095.46C583.392 1057.65 601.99 1051.91 615.977 1047.82C625.83 1044.94 635.675 1040.73 642.466 1036.73C644.994 1035.23 647.077 1033.79 648.517 1032.46C649.123 1031.91 649.609 1031.43 649.826 1030.96C653.004 1024.02 651.954 1017.06 647.954 1013.8ZM595.637 982.203C605.217 986.849 607.366 1000.05 594.143 1012.82C586.863 1019.83 547.977 1036.96 532.597 1057.68C526.012 1066.56 519.813 1076.36 514.473 1085.91C512.843 1088.79 511.309 1091.65 509.886 1094.48C499.123 1115.45 493.463 1133.42 498.364 1134.97C498.435 1135 498.506 1135 498.577 1135.02C498.735 1135.97 498.963 1136.87 499.255 1137.68C499.975 1139.68 498.937 1141.88 496.94 1142.6C494.943 1143.33 492.737 1142.28 492.018 1140.3C490.541 1136.19 490.13 1130.62 491.27 1123.91C494.749 1103.48 510.701 1072.3 531.152 1049.28C548.469 1029.79 564.481 1022.74 577.023 1015.88C584.518 1011.77 590.704 1007.82 594.815 1000.53C598.117 994.679 600.152 987.311 595.637 982.203Z" fill="#476B76"/>
<path fill-rule="evenodd" clip-rule="evenodd" d="M1631.29 199.676C1631.29 165.977 1603.94 138.611 1570.23 138.611L1043.35 138.611C1009.66 138.611 982.29 165.977 982.29 199.676L982.29 544.994C982.29 578.693 1009.66 606.058 1043.35 606.058L1097.86 606.058L1050.03 753.469L1274.2 606.058L1570.23 606.058C1603.94 606.058 1631.29 578.692 1631.29 544.993L1631.29 199.676Z" fill="white"/>
<path fill-rule="evenodd" clip-rule="evenodd" d="M1449.67 340.259L1164.83 340.259C1164.83 340.259 1164.83 430.131 1164.83 479.531C1164.83 487.922 1168.16 495.968 1174.09 501.9C1180.02 507.833 1188.07 511.167 1196.46 511.167C1251.26 511.167 1363.23 511.167 1418.04 511.167C1426.43 511.167 1434.47 507.833 1440.4 501.9C1446.34 495.967 1449.67 487.921 1449.67 479.531C1449.67 430.13 1449.67 340.259 1449.67 340.259Z" fill="#1ED2A2"/>
<path d="M1307.25 482.676C1338.71 482.676 1364.22 457.171 1364.22 425.708C1364.22 394.245 1338.71 368.74 1307.25 368.74C1275.79 368.74 1250.28 394.246 1250.28 425.708C1250.28 457.171 1275.79 482.676 1307.25 482.676Z" fill="#F42525"/>
<path fill-rule="evenodd" clip-rule="evenodd" d="M1449.66 340.262L1164.82 340.262C1164.82 340.262 1252.58 260.089 1290.32 225.6C1299.9 216.841 1314.59 216.841 1324.17 225.6C1361.92 260.09 1449.66 340.262 1449.66 340.262Z" fill="white"/>
<path fill-rule="evenodd" clip-rule="evenodd" d="M1276.38 238.367L1285.73 229.824L1328.79 229.824L1338.14 238.367L1311.59 238.367L1311.59 263.995L1366.2 263.995L1375.55 272.537L1354.27 272.537L1354.27 298.175L1403.6 298.175L1412.95 306.718L1397.03 306.718L1397.03 332.346L1441.01 332.346L1449.68 340.274L1164.84 340.275L1173.52 332.346L1217.62 332.346L1217.62 306.718L1201.57 306.718L1210.92 298.176L1260.29 298.176L1260.29 272.538L1238.98 272.538L1248.32 263.995L1303.05 263.995L1303.05 238.367L1276.38 238.367ZM1226.16 306.718L1226.16 332.346L1303.05 332.346L1303.05 306.718L1226.16 306.718ZM1311.59 306.718L1311.59 332.346L1388.48 332.346L1388.48 306.718L1311.59 306.718ZM1268.85 298.176L1345.73 298.175L1345.73 272.537L1268.85 272.537L1268.85 298.176Z" fill="#FF6697"/>
</g>
<defs>
<clipPath id="clip0">
<rect width="2000" height="2000" fill="white"/>
</clipPath>
</defs>
</svg>
