<svg width="2000" height="2000" viewBox="0 0 2000 2000" fill="none" xmlns="http://www.w3.org/2000/svg">
<g clip-path="url(#clip0)">
<path d="M1588.75 1202.72C1643.98 1202.72 1688.75 1157.95 1688.75 1102.72C1688.75 1047.49 1643.98 1002.72 1588.75 1002.72C1533.53 1002.72 1488.75 1047.49 1488.75 1102.72C1488.75 1157.95 1533.53 1202.72 1588.75 1202.72Z" fill="#DDF7FF"/>
<path d="M1730.36 1111.17C1773.29 1111.17 1808.1 1076.36 1808.1 1033.42C1808.1 990.482 1773.29 955.672 1730.36 955.672C1687.42 955.672 1652.61 990.482 1652.61 1033.42C1652.61 1076.36 1687.42 1111.17 1730.36 1111.17Z" fill="#DDF7FF"/>
<path fill-rule="evenodd" clip-rule="evenodd" d="M1899.7 1133.42C1899.7 1095.17 1868.5 1064.12 1830.3 1064.12H1588.7C1550.5 1064.12 1519.3 1095.17 1519.3 1133.42C1519.3 1171.67 1550.5 1202.72 1588.7 1202.72H1830.3C1868.5 1202.72 1899.7 1171.67 1899.7 1133.42Z" fill="#DDF7FF"/>
<path fill-rule="evenodd" clip-rule="evenodd" d="M1627.23 886.013C1627.23 737.418 1568.21 594.908 1463.13 489.836C1358.06 384.763 1215.55 325.735 1066.96 325.735C918.361 325.735 775.85 384.763 670.776 489.836C565.714 594.908 506.681 737.418 506.681 886.013V1699.35H1627.23C1627.23 1699.35 1627.23 1265.93 1627.23 886.013Z" fill="url(#paint0_linear)"/>
<path fill-rule="evenodd" clip-rule="evenodd" d="M1627.23 886.013C1627.23 737.418 1568.21 594.908 1463.13 489.836C1358.06 384.763 1215.55 325.735 1066.96 325.735C918.361 325.735 775.85 384.763 670.776 489.836C565.714 594.908 506.681 737.418 506.681 886.013V1699.35H1627.23V886.013ZM1570.64 1642.74V886.013C1570.64 752.434 1517.56 624.315 1423.1 529.858C1328.66 435.401 1200.54 382.335 1066.96 382.335C933.374 382.335 805.266 435.401 710.805 529.858C616.345 624.315 563.286 752.434 563.286 886.013V1642.74H1570.64Z" fill="#006F91"/>
<path fill-rule="evenodd" clip-rule="evenodd" d="M1627.23 886.013C1627.23 737.418 1568.21 594.908 1463.13 489.836C1358.06 384.763 1215.55 325.735 1066.96 325.735C918.361 325.735 775.85 384.763 670.776 489.836C565.714 594.908 506.681 737.418 506.681 886.013V1699.35H1627.23V886.013ZM1587.24 1659.34V886.013C1587.24 748.03 1532.42 615.69 1434.85 518.12C1337.27 420.549 1204.95 365.735 1066.96 365.735C928.975 365.735 796.635 420.549 699.073 518.12C601.498 615.69 546.684 748.03 546.684 886.013V1659.34H1587.24Z" fill="#EBDEFF"/>
<path fill-rule="evenodd" clip-rule="evenodd" d="M1648.43 1765.52H506.752L547.072 1805.93C566.794 1825.7 593.541 1836.8 621.434 1836.8H1681.11C1687.61 1836.8 1693.39 1832.9 1695.89 1826.92C1698.39 1820.93 1696.86 1814.06 1692.3 1809.49L1648.43 1765.52Z" fill="#84BFD1"/>
<path fill-rule="evenodd" clip-rule="evenodd" d="M1670.66 1734.09C1670.66 1714.91 1655.12 1699.35 1635.91 1699.35C1460.46 1699.35 673.442 1699.35 497.992 1699.35C478.807 1699.35 463.244 1714.91 463.244 1734.09C463.244 1758.7 463.244 1787.35 463.244 1787.35H1670.66C1670.66 1787.35 1670.66 1758.7 1670.66 1734.09Z" fill="#EBDEFF"/>
<path fill-rule="evenodd" clip-rule="evenodd" d="M1309.7 1699.34H1635.92C1655.1 1699.34 1670.66 1714.9 1670.66 1734.1C1670.66 1758.7 1670.66 1787.36 1670.66 1787.36H1151.44L1075.68 1738.02L1309.7 1699.34Z" fill="#498CB9"/>
<path d="M1627.25 1689.35H506.7V1699.35H1627.25V1689.35Z" fill="#D1B57B"/>
<path fill-rule="evenodd" clip-rule="evenodd" d="M1079.63 1610.55C1071.99 1623.73 1078.27 1638.77 1082.03 1652.15C1085.67 1665.21 1087.11 1696.07 1104.81 1698.55C1111.29 1699.45 1118.03 1697.75 1124.35 1696.51C1130.55 1695.29 1136.95 1694.07 1142.63 1691.15C1156.67 1683.91 1149.05 1660.75 1146.95 1649.65C1144.87 1638.69 1146.51 1626.39 1141.21 1616.17C1132.59 1599.51 1102.25 1609.29 1087.91 1609.57" fill="#9B5F45"/>
<path fill-rule="evenodd" clip-rule="evenodd" d="M1424.19 1725.03L1142.49 1719.95L1137.01 1649.59C1132.79 1632.55 1116.53 1638.19 1101.08 1638.17C1084.29 1638.15 1068.29 1632.97 1065.67 1625.49C1061.38 1613.27 1058.5 1573.27 1059.24 1567.29C1065.71 1515.21 1068.46 1480.53 1120.59 1424.61C1188.17 1352.13 1377.86 1321.05 1427.99 1387.35C1491.69 1471.59 1431.85 1536.93 1430.13 1616.59C1429.33 1652.83 1423.64 1688.79 1424.19 1725.03Z" fill="#42E4B9"/>
<path d="M1251.67 1528.97C1255.22 1529.89 1258.85 1527.75 1259.76 1524.19C1260.68 1520.64 1258.54 1517.02 1254.98 1516.1C1251.43 1515.19 1247.8 1517.33 1246.89 1520.88C1245.97 1524.44 1248.11 1528.06 1251.67 1528.97Z" fill="white"/>
<path d="M1260.8 1559.39C1264.35 1560.31 1267.97 1558.17 1268.89 1554.61C1269.8 1551.06 1267.66 1547.44 1264.11 1546.52C1260.55 1545.61 1256.93 1547.75 1256.02 1551.3C1255.1 1554.86 1257.24 1558.48 1260.8 1559.39Z" fill="white"/>
<g style="mix-blend-mode:multiply">
<path fill-rule="evenodd" clip-rule="evenodd" d="M1372.92 1356.03C1396.7 1361.57 1416.16 1371.77 1427.94 1387.35C1491.62 1471.59 1431.8 1536.93 1430.08 1616.59C1429.28 1652.83 1423.58 1688.79 1424.12 1725.03L1413.68 1724.85C1390.64 1712.61 1361.32 1693.03 1331.02 1662.37C1306.56 1637.63 1309.9 1603.95 1287.06 1581.93C1259.94 1555.81 1246 1529.65 1232.46 1503.35C1229.42 1497.45 1234.76 1488.63 1230.98 1483.35C1212.24 1457.37 1236.04 1409.21 1227.26 1396.47C1220.66 1386.89 1340.56 1362.43 1372.92 1356.03Z" fill="#7BC4DA"/>
</g>
<path fill-rule="evenodd" clip-rule="evenodd" d="M1325.69 1398.23C1323.91 1407.75 1319.65 1418.75 1315.69 1429.23C1308.97 1446.99 1300.39 1468.67 1286.37 1482.55C1269.83 1498.91 1242.97 1508.61 1225.61 1490.11C1208.43 1471.79 1206.33 1442.01 1196.05 1418.43" fill="#9B5F45"/>
<path fill-rule="evenodd" clip-rule="evenodd" d="M1153.15 1427.87C1143.85 1418.73 1132.81 1403.73 1132.45 1398.89C1131.75 1389.27 1133.31 1361.33 1153.97 1345.81C1164.79 1337.67 1230.09 1418.53 1241.39 1435.67C1251.75 1451.37 1242.01 1461.25 1236.83 1469.89C1229.07 1482.81 1221.01 1491.87 1219.33 1506.87C1213.37 1559.89 1208.77 1616.03 1198.47 1673.97C1193.05 1704.43 1183.19 1719.03 1151.27 1735.73C1129.01 1747.37 1100.97 1747.11 1092.17 1736.57C1080.39 1722.49 1089.55 1651.41 1095.23 1636.85C1119.35 1575.03 1166.75 1499.47 1176.87 1465.63C1180.33 1454.05 1163.85 1438.41 1153.15 1427.87Z" fill="#BE6946"/>
<path fill-rule="evenodd" clip-rule="evenodd" d="M1175.86 1358.72C1199.48 1380.88 1233.54 1423.72 1241.4 1435.66C1251.76 1451.36 1242.02 1461.24 1236.84 1469.88C1230.06 1481.18 1223.04 1489.53 1220.26 1501.49C1210.34 1487.63 1200.92 1474.51 1192.24 1462.49C1173.52 1436.48 1155.58 1419.68 1146.78 1406.94C1139.16 1395.88 1143.56 1371.04 1143.56 1371.04L1175.86 1358.72Z" fill="#5C513C"/>
<path fill-rule="evenodd" clip-rule="evenodd" d="M1242.3 1461.27C1238.6 1460.95 1234.84 1460.95 1231.12 1461.29C1222.3 1462.05 1213.66 1464.67 1206.52 1469.39C1206.3 1469.53 1206 1469.49 1205.86 1469.25C1205.7 1469.03 1205.76 1468.73 1205.98 1468.59C1213.18 1463.61 1221.98 1460.77 1230.98 1459.81C1235.04 1459.37 1239.16 1459.3 1243.18 1459.6C1242.9 1460.16 1242.6 1460.73 1242.3 1461.27ZM1144.14 1355.81C1143.38 1360.43 1142.84 1365.33 1142.72 1370.27C1142.58 1377.03 1143.22 1383.86 1145.2 1390.18C1146 1392.8 1147.14 1395.46 1148.56 1397.92C1149.98 1400.34 1151.7 1402.61 1153.72 1404.45C1158.02 1408.35 1163.1 1411.85 1168.48 1414.97C1176.58 1419.67 1185.4 1423.46 1193.3 1426.34C1195.56 1427.18 1197.72 1427.87 1199.82 1428.45C1194.04 1421.05 1190.74 1411.49 1190.28 1401.55C1190.26 1400.45 1191.12 1399.53 1192.24 1399.51C1193.34 1399.47 1194.26 1400.34 1194.28 1401.45C1194.36 1410.87 1197.24 1420.02 1202.56 1427.14C1203.22 1428 1203.9 1428.85 1204.62 1429.67C1204.68 1429.67 1204.76 1429.69 1204.82 1429.71C1208.92 1430.63 1212.82 1431.23 1216.76 1431.83C1219.42 1432.31 1221.94 1432.61 1224.48 1432.79C1226.2 1432.91 1227.9 1433.01 1229.68 1433.03C1231.38 1433.05 1233.12 1433.01 1234.96 1432.93C1236.36 1432.87 1237.82 1432.81 1239.36 1432.69C1239.58 1433.01 1239.78 1433.29 1239.98 1433.59C1238.32 1434.09 1236.76 1434.5 1235.22 1434.86C1233.36 1435.28 1231.6 1435.61 1229.86 1435.83C1228 1436.07 1226.18 1436.21 1224.38 1436.23C1221.68 1436.27 1219 1436.03 1216.16 1435.69C1214.2 1435.39 1212.24 1435.07 1210.26 1434.73C1214.6 1437.83 1219.76 1439.97 1225.66 1440.75C1226.2 1440.83 1226.58 1441.31 1226.52 1441.83C1226.46 1442.37 1225.98 1442.75 1225.44 1442.69C1217.14 1441.89 1210.12 1438.55 1204.58 1433.57C1204.38 1433.53 1204.18 1433.47 1203.96 1433.43C1200.2 1432.53 1196.3 1431.35 1192.04 1429.67C1185.34 1427.03 1178.02 1423.71 1171.04 1419.73C1164.14 1415.77 1157.58 1411.19 1152.26 1405.99C1150.16 1403.95 1148.4 1401.47 1146.96 1398.81C1145.56 1396.19 1144.48 1393.38 1143.74 1390.6C1141.96 1384.1 1141.54 1377.11 1141.96 1370.22C1142.24 1365.44 1142.92 1360.71 1143.84 1356.24L1143.94 1356.1L1144.14 1355.81Z" fill="#476B76"/>
<path fill-rule="evenodd" clip-rule="evenodd" d="M1080.85 1657.94C1084.61 1663.18 1085.19 1662.72 1089.07 1668.12C1093.51 1674.28 1111.45 1691.94 1118.95 1689.62C1129.21 1686.42 1131.15 1678.58 1127.63 1673.54C1125.59 1670.62 1109.91 1661.04 1104.67 1658.98C1100.85 1657.46 1094.99 1655.46 1091.85 1652.6C1089.59 1650.54 1089.97 1650.72 1086.95 1649.84" fill="#5E5845"/>
<path fill-rule="evenodd" clip-rule="evenodd" d="M1445.35 1416.71C1474.11 1458.71 1473.93 1489.63 1472.19 1539.91C1471.21 1567.81 1465.75 1593.77 1460.39 1621.05C1454.63 1650.41 1448.03 1707.21 1426.75 1731.99C1418.25 1741.89 1389.77 1746.09 1368.47 1750.49C1317.31 1761.05 1267.17 1752.17 1213.21 1747.33C1176.97 1744.07 1150.53 1757.23 1114.25 1752.95C1102.31 1751.55 1083.83 1746.79 1075.07 1737.53C1067.81 1729.85 1059.97 1700.35 1061.79 1690.45C1065.21 1672.07 1068.31 1654.07 1079.73 1649.39C1080.85 1648.93 1081.15 1650.95 1081.93 1651.95C1082.95 1653.23 1086.45 1656.75 1089.69 1658.93C1090.65 1659.57 1102.49 1684.71 1117.09 1684.47C1119.83 1684.43 1124.09 1681.09 1124.95 1677.99C1126.67 1671.81 1104.55 1665.49 1093.35 1660.25C1086.01 1656.83 1080.59 1651.15 1080.91 1648.33C1081.81 1640.37 1096.57 1642.73 1102.63 1644.11C1113.21 1646.55 1127.71 1650.41 1141.05 1656.97C1156.07 1664.35 1170.09 1674.63 1183.99 1680.11C1209.29 1690.09 1240.61 1683.15 1266.85 1682.07C1300.39 1680.69 1337.69 1672.87 1354.33 1664.15C1364.73 1658.71 1365.01 1638.71 1365.15 1625.37C1365.71 1574.63 1365.97 1525.63 1372.23 1475.11" fill="#D37C59"/>
<path fill-rule="evenodd" clip-rule="evenodd" d="M1365.8 1578.17C1366.26 1578.35 1366.72 1578.53 1367.22 1578.73L1466.84 1587.29C1464.9 1598.47 1462.64 1609.65 1460.4 1621.05C1454.64 1650.41 1448.04 1707.21 1426.76 1731.99C1420.38 1739.45 1402.66 1743.65 1385.22 1747.17C1365.22 1744.15 1340.76 1731.81 1313 1700.75C1305.48 1692.33 1306.14 1684.25 1310.68 1677.09C1328.9 1673.73 1344.94 1669.09 1354.36 1664.15C1364.74 1658.71 1365.02 1638.71 1365.18 1625.37C1365.34 1609.49 1365.48 1593.79 1365.8 1578.17Z" fill="#665F4C"/>
<path fill-rule="evenodd" clip-rule="evenodd" d="M1061.72 1697.53C1061.78 1697.65 1061.84 1697.76 1061.9 1697.88C1063.84 1702.92 1067.64 1711.04 1072.26 1717.48C1075.52 1722 1079.16 1725.75 1082.88 1726.79C1083.4 1726.93 1083.7 1727.44 1083.58 1727.96C1083.44 1728.48 1082.92 1728.8 1082.4 1728.66C1078.24 1727.74 1073.94 1723.94 1070.06 1719.16C1067.8 1716.34 1065.7 1713.2 1063.84 1710.12C1062.78 1705.62 1062.02 1701.25 1061.72 1697.53ZM1063.58 1681.14C1064.6 1683.88 1065.84 1686.77 1067.24 1689.57C1070.34 1695.81 1074.16 1701.66 1077.92 1704.96C1078.32 1705.3 1078.38 1705.91 1078.04 1706.33C1077.7 1706.73 1077.08 1706.78 1076.68 1706.44C1072.56 1703.22 1068.22 1697.3 1064.62 1690.94C1063.86 1689.62 1063.14 1688.26 1062.46 1686.92C1062.82 1684.98 1063.2 1683.04 1063.58 1681.14ZM1068.68 1662.42C1069.18 1664.7 1070.1 1667.02 1071.2 1669.26C1075.04 1677.12 1081.24 1684.14 1082.86 1686.36C1083.18 1686.8 1083.1 1687.4 1082.68 1687.72C1082.26 1688.06 1081.64 1687.99 1081.32 1687.57C1079.52 1685.37 1072.78 1678.56 1068.38 1670.74C1067.82 1669.74 1067.28 1668.72 1066.82 1667.68C1067.38 1665.84 1068 1664.08 1068.68 1662.42ZM1359.58 1659.1C1361.98 1659.8 1364.28 1660.88 1366.44 1662.26C1368.56 1663.62 1370.56 1665.28 1372.34 1667.16C1373.64 1668.52 1374.82 1670.03 1375.88 1671.59C1378.44 1675.31 1380.38 1679.38 1381.62 1683.27C1381.8 1683.69 1381.58 1684.16 1381.16 1684.34C1380.74 1684.5 1380.26 1684.3 1380.1 1683.88C1379.1 1681.84 1377.86 1679.81 1376.46 1677.81C1374.5 1674.99 1372.14 1672.34 1369.56 1669.96C1367.86 1668.42 1366.08 1666.99 1364.2 1665.79C1361.84 1664.29 1359.34 1663.15 1356.68 1662.57C1357.78 1661.61 1358.74 1660.44 1359.58 1659.1ZM1076.98 1650.86C1077.84 1650.28 1078.76 1649.78 1079.74 1649.38C1080.86 1648.92 1081.16 1650.94 1081.94 1651.94C1082.96 1653.22 1086.46 1656.74 1089.7 1658.92C1090.1 1659.2 1092.38 1663.69 1095.94 1668.83C1093.78 1666.51 1091.24 1664.06 1088.48 1661.84C1086.68 1660.38 1084.84 1659.26 1083.26 1658.1C1082.76 1657.74 1082.3 1657.38 1081.88 1657.02C1080.82 1656.12 1079.92 1655.18 1079.16 1654.22C1078.26 1653.12 1077.56 1651.98 1077 1650.9L1076.98 1650.86Z" fill="#476B76"/>
<path fill-rule="evenodd" clip-rule="evenodd" d="M1145.3 1348.16C1150.22 1326.14 1155.71 1313.93 1162.97 1292.56C1167.57 1279.02 1182.83 1267.78 1189.83 1259.07C1206.27 1238.58 1209.46 1203.14 1251.66 1199.76C1296.79 1196.13 1336.68 1188.47 1366.08 1212.82C1447.11 1279.95 1406.57 1361.44 1339.05 1401.8C1326.96 1409.02 1309.21 1410.06 1303.95 1411.88C1301 1412.92 1244.48 1434.36 1234.96 1433.6C1216.44 1432.13 1202.4 1431.01 1187.19 1424.3C1154.65 1409.99 1144.89 1401 1142.77 1377.74C1141.99 1369.1 1142.82 1359.3 1145.3 1348.16Z" fill="#D97E59"/>
<path fill-rule="evenodd" clip-rule="evenodd" d="M1422.72 1383.1C1443.16 1401.37 1460 1425.87 1467.76 1452.27C1473.96 1473.45 1479.92 1504.09 1483.86 1527.13C1486.14 1540.45 1488.58 1587.73 1481.52 1594.55C1476.2 1599.67 1455.16 1607.33 1443.08 1610.71C1423.28 1616.25 1398.9 1616.31 1377.48 1613.67C1369.54 1612.69 1349.08 1607.29 1345.18 1604.07C1340.88 1600.49 1339.18 1577.99 1338.74 1567.09C1336.88 1521.13 1333.96 1493.29 1349.1 1457.51C1363.44 1423.57 1395.76 1398.55 1408.24 1388.41L1422.72 1383.1Z" fill="#20AF9E"/>
<path fill-rule="evenodd" clip-rule="evenodd" d="M1361.78 1273.85C1355.98 1260.33 1346.36 1256.25 1336.76 1258.9C1292.79 1271.07 1277.55 1268.65 1250.54 1254.91C1240.33 1249.73 1221.25 1241.06 1209.98 1211.13C1206.79 1202.67 1208.47 1182.88 1208.47 1182.88C1208.47 1182.88 1215.6 1192.35 1253.69 1166.51C1303.81 1132.52 1385.4 1156.11 1421.51 1206.53C1431.87 1220.99 1426.71 1236.98 1426.71 1236.98C1426.71 1236.98 1440.84 1240.18 1447.06 1260.64C1452.16 1277.34 1448.38 1293.7 1443.59 1319.98C1437.55 1353.04 1408.4 1399.47 1366.34 1406.15C1349.01 1408.9 1341.31 1404.06 1328.26 1409.86C1325.17 1411.23 1321.35 1411.36 1318.92 1411.09C1315.38 1410.67 1315 1410.04 1314.99 1409.54C1314.96 1408.89 1328.79 1406.41 1335.43 1400.83C1349.46 1389.05 1344.64 1376.29 1335.92 1371.76C1314.13 1360.43 1304.94 1389.13 1297.44 1366.51C1295.59 1360.94 1315.89 1349.81 1326.54 1332.3" fill="#00445A"/>
<path fill-rule="evenodd" clip-rule="evenodd" d="M1213.96 1277.52C1217.84 1273.86 1222.02 1266.37 1217.53 1262.23C1212.75 1257.81 1204.95 1263.59 1202.86 1265.58C1198.4 1269.83 1192.49 1279.13 1197.27 1282.98C1203.41 1287.93 1210.79 1280.51 1213.96 1277.52Z" fill="#00445A"/>
<path fill-rule="evenodd" clip-rule="evenodd" d="M1265.13 1323.84C1268.35 1319.59 1271.24 1311.51 1266.13 1308.17C1260.68 1304.6 1253.95 1311.58 1252.21 1313.9C1248.52 1318.83 1244.22 1328.98 1249.57 1331.99C1256.45 1335.85 1262.49 1327.32 1265.13 1323.84Z" fill="#00445A"/>
<path fill-rule="evenodd" clip-rule="evenodd" d="M1225.1 1296.82C1216.02 1304.47 1203.46 1309.61 1194.87 1314.69C1191.68 1316.58 1189.02 1318.5 1187.13 1320.46C1183.79 1323.94 1183.56 1327.94 1185.18 1332.03C1186.2 1334.61 1188.05 1337.3 1190.33 1339.77C1193.29 1342.97 1196.94 1345.82 1199.51 1348.29C1200.52 1349.36 1202.22 1349.4 1203.29 1348.38C1204.37 1347.37 1204.41 1345.67 1203.39 1344.61C1201.43 1342.29 1198.82 1339.53 1196.37 1336.7C1194.9 1335.02 1193.51 1333.3 1192.44 1331.6C1190.91 1329.17 1189.83 1326.81 1191.72 1324.65C1194 1322.02 1197.86 1319.51 1202.33 1316.77C1207.97 1313.33 1214.53 1309.65 1220.48 1305.32C1222.98 1303.51 1225.36 1301.6 1227.53 1299.54C1228.28 1298.87 1228.34 1297.72 1227.67 1296.96C1227 1296.21 1225.85 1296.15 1225.1 1296.82Z" fill="#476B76"/>
<path fill-rule="evenodd" clip-rule="evenodd" d="M1310.69 1383.17C1314 1383.02 1317.39 1383.51 1319.72 1384.67C1320.51 1385.06 1321.09 1385.57 1321.36 1386.23C1321.47 1386.5 1321.39 1386.8 1321.32 1387.13C1321.2 1387.8 1320.79 1388.51 1320.2 1389.35C1319.56 1390.32 1318.56 1391.11 1317.47 1391.87C1316.35 1392.66 1315.12 1393.4 1313.81 1394.02C1312.44 1394.66 1311.06 1395.24 1309.68 1395.64C1308.13 1396.08 1306.68 1396.44 1305.36 1396.44C1304.46 1396.32 1303.64 1396.95 1303.52 1397.85C1303.4 1398.75 1304.03 1399.57 1304.93 1399.69C1306.81 1400.2 1309.09 1400.31 1311.52 1400.07C1312.95 1399.93 1314.38 1399.62 1315.8 1399.18C1317.62 1398.62 1319.37 1397.81 1320.87 1396.8C1322.68 1395.59 1324.11 1394.06 1325.09 1392.43C1326.94 1389.14 1327.11 1386.55 1326.28 1384.6C1325.78 1383.43 1325.02 1382.39 1323.88 1381.62C1322.74 1380.84 1321.29 1380.23 1319.6 1379.91C1316.86 1379.41 1313.52 1379.5 1310.33 1380.13C1309.49 1380.23 1308.89 1380.99 1308.99 1381.83C1309.09 1382.67 1309.85 1383.27 1310.69 1383.17Z" fill="#476B76"/>
<path fill-rule="evenodd" clip-rule="evenodd" d="M1163.89 1362.62C1167.87 1363.18 1171.58 1364.11 1174.97 1365.33C1178.54 1366.62 1181.67 1368.28 1184.45 1370.38C1187.77 1372.89 1190.63 1375.93 1192.57 1379.99C1193.77 1382.56 1194.81 1385.37 1195.43 1388.62C1195.59 1390.27 1197.05 1391.52 1198.73 1391.35C1200.4 1391.2 1201.64 1389.71 1201.48 1388.06C1201.45 1380.56 1199.61 1374.42 1196.49 1369.3C1194.95 1366.78 1193.02 1364.56 1190.82 1362.61C1187.38 1359.59 1183.16 1357.31 1178.46 1355.62C1174.41 1354.17 1169.94 1353.26 1165.19 1352.7C1162.43 1352.34 1159.94 1354.27 1159.58 1357.02C1159.23 1359.76 1161.15 1362.27 1163.89 1362.62Z" fill="#AA5B3C"/>
<path fill-rule="evenodd" clip-rule="evenodd" d="M1350.61 1488.25C1345.91 1498.23 1342.87 1508.01 1340.99 1518.39C1339.63 1525.87 1338.87 1533.65 1338.55 1542.03C1338.27 1549.39 1338.37 1557.19 1338.61 1565.67C1338.81 1569.63 1338.93 1573.87 1339.35 1578.17C1339.75 1582.37 1340.39 1586.61 1341.37 1590.73C1342.75 1596.49 1344.81 1601.93 1347.85 1606.63C1348.13 1607.07 1348.57 1607.55 1349.21 1607.95C1350.31 1608.61 1352.03 1609.27 1354.07 1609.79C1359.01 1611.07 1365.71 1611.87 1367.85 1612.13C1368.05 1612.15 1368.25 1612.03 1368.29 1611.83C1368.33 1611.63 1368.19 1611.43 1367.99 1611.39C1366.19 1610.93 1361.09 1609.55 1356.71 1607.95C1354.83 1607.27 1353.13 1606.53 1351.91 1605.81C1351.37 1605.49 1350.97 1605.21 1350.83 1604.91C1348.47 1600.33 1347.21 1595.13 1346.37 1589.75C1345.75 1585.77 1345.43 1581.71 1345.19 1577.71C1344.93 1573.47 1344.75 1569.31 1344.61 1565.43C1344.15 1557.07 1343.91 1549.39 1343.89 1542.13C1343.89 1533.95 1344.21 1526.37 1345.13 1519.03C1346.43 1508.83 1348.77 1499.17 1352.77 1489.19C1353.03 1488.59 1352.75 1487.89 1352.17 1487.63C1351.57 1487.37 1350.87 1487.65 1350.61 1488.25Z" fill="#297B94"/>
<path fill-rule="evenodd" clip-rule="evenodd" d="M876.593 1093.95L884.008 1108.74L900.37 1111.22L888.593 1122.85L891.285 1139.17L876.593 1131.58L861.889 1139.17L864.581 1122.85L852.816 1111.22L869.166 1108.74L876.593 1093.95Z" fill="#7BC4DA"/>
<path fill-rule="evenodd" clip-rule="evenodd" d="M1496.85 1105.99L1497.31 1122.53L1511.08 1131.7L1495.49 1137.25L1491.02 1153.18L1480.92 1140.09L1464.39 1140.74L1473.73 1127.09L1468 1111.58L1483.86 1116.25L1496.85 1105.99Z" fill="#A3D6E6"/>
<path fill-rule="evenodd" clip-rule="evenodd" d="M643.115 1407.05L636.531 1422.23L645.131 1436.37L628.657 1434.8L617.866 1447.35L614.256 1431.21L598.999 1424.8L613.245 1416.39L614.61 1399.91L627.005 1410.85L643.115 1407.05Z" fill="#7BC4DA"/>
<path fill-rule="evenodd" clip-rule="evenodd" d="M1361.63 475.906L1349.25 486.873L1351.05 503.323L1336.79 494.93L1321.71 501.727L1325.26 485.578L1314.15 473.318L1330.62 471.724L1338.83 457.367L1345.43 472.53L1361.63 475.906Z" fill="#A3D6E6"/>
<path fill-rule="evenodd" clip-rule="evenodd" d="M1037.69 655.316L1021.82 660.01L1016.5 675.68L1007.13 662.04L990.584 661.815L1000.64 648.689L995.761 632.878L1011.36 638.402L1024.87 628.87L1024.44 645.4L1037.69 655.316Z" fill="#7BC4DA"/>
<path fill-rule="evenodd" clip-rule="evenodd" d="M923.243 570.511L906.881 568.05L895.428 579.995L892.709 563.671L877.815 556.466L892.483 548.83L894.751 532.439L906.544 544.044L922.824 541.127L915.432 555.919L923.243 570.511Z" fill="#A3D6E6"/>
<path fill-rule="evenodd" clip-rule="evenodd" d="M1554.06 979.92L1540.28 970.765L1524.85 976.741L1529.29 960.8L1518.85 947.97L1535.37 947.258L1544.36 933.367L1550.13 948.872L1566.12 953.119L1553.16 963.393L1554.06 979.92Z" fill="#7BC4DA"/>
<path d="M377.522 413.579C322.303 413.579 277.538 368.814 277.538 313.595C277.538 258.376 322.303 213.611 377.522 213.611C432.742 213.611 477.506 258.376 477.506 313.595C477.506 368.814 432.742 413.579 377.522 413.579Z" fill="#DEF7FF"/>
<path d="M235.937 344.29C180.718 344.29 135.954 299.526 135.954 244.306C135.954 189.087 180.718 144.323 235.937 144.323C291.157 144.323 335.921 189.087 335.921 244.306C335.921 299.526 291.157 344.29 235.937 344.29Z" fill="#DEF7FF"/>
<path fill-rule="evenodd" clip-rule="evenodd" d="M547.094 344.3C547.094 306.052 516.027 274.998 477.811 274.998H147.43C109.214 274.998 78.1494 306.052 78.1494 344.3C78.1494 382.548 109.214 413.601 147.43 413.601H477.811C516.027 413.601 547.094 382.548 547.094 344.3Z" fill="#DEF7FF"/>
<path fill-rule="evenodd" clip-rule="evenodd" d="M676.837 367.355L386.589 367.355C386.589 367.355 386.589 448.887 386.589 500.377C386.589 523.092 405.001 541.504 427.714 541.504L635.713 541.505C658.426 541.505 676.837 523.092 676.837 500.377C676.837 448.888 676.837 367.355 676.837 367.355Z" fill="#72E7AE"/>
<g style="mix-blend-mode:multiply">
<path fill-rule="evenodd" clip-rule="evenodd" d="M676.83 377.541L431.731 377.753L528.67 541.501L427.71 541.501C405.01 541.501 386.59 523.089 386.59 500.375L386.59 367.351L676.83 367.351L676.83 377.541Z" fill="#CBE8F1"/>
</g>
<path fill-rule="evenodd" clip-rule="evenodd" d="M576.499 466.035C576.499 457.147 572.971 448.628 566.691 442.349C560.411 436.06 551.882 432.534 542.995 432.534C535.614 432.534 527.804 432.534 520.423 432.534C511.536 432.534 503.007 436.06 496.727 442.348C490.448 448.628 486.919 457.147 486.919 466.035C486.919 498.061 486.919 541.511 486.919 541.511L576.499 541.511C576.499 541.511 576.499 498.061 576.499 466.035Z" fill="#F2739C"/>
<path fill-rule="evenodd" clip-rule="evenodd" d="M576.499 466.035C576.499 457.147 572.971 448.628 566.691 442.349C560.411 436.06 551.882 432.534 542.995 432.534C535.614 432.534 527.804 432.534 520.423 432.534C511.536 432.534 503.007 436.06 496.727 442.348C490.448 448.628 486.919 457.147 486.919 466.035C486.919 498.061 486.919 541.511 486.919 541.511L576.499 541.511C576.499 541.511 576.499 498.061 576.499 466.035ZM570.494 535.511L570.494 466.035C570.494 458.739 567.6 451.749 562.444 446.586C557.289 441.431 550.291 438.534 542.995 438.534C535.614 438.534 527.804 438.534 520.423 438.534C513.127 438.534 506.129 441.431 500.974 446.586C495.818 451.749 492.924 458.739 492.924 466.035L492.924 535.511L570.494 535.511Z" fill="#D06A8B"/>
<g style="mix-blend-mode:multiply">
<path fill-rule="evenodd" clip-rule="evenodd" d="M486.931 470.977L528.67 541.501L486.931 541.501L486.931 470.977Z" fill="#CBE8F1"/>
</g>
<path d="M558.889 494.581C563.072 494.581 566.462 491.19 566.463 487.007C566.463 482.825 563.072 479.434 558.889 479.434C554.707 479.434 551.316 482.825 551.316 487.007C551.316 491.19 554.707 494.581 558.889 494.581Z" fill="black"/>
<path fill-rule="evenodd" clip-rule="evenodd" d="M676.827 367.358L386.583 367.357C386.583 367.357 469.118 291.951 509.698 254.866C522.162 243.485 541.248 243.485 553.712 254.866C594.302 291.951 676.827 367.358 676.827 367.358Z" fill="#F2739C"/>
<path fill-rule="evenodd" clip-rule="evenodd" d="M500.255 263.529L509.787 254.824L553.664 254.824L563.187 263.529L536.134 263.529L536.134 289.643L591.775 289.643L601.308 298.347L579.627 298.347L579.627 324.472L629.886 324.472L639.419 333.177L623.191 333.177L623.191 359.291L668.007 359.291L676.843 367.369L386.599 367.369L395.445 359.291L440.382 359.291L440.382 333.177L424.023 333.177L433.556 324.472L483.865 324.472L483.865 298.347L462.144 298.347L471.666 289.643L527.429 289.643L527.429 263.529L500.255 263.529ZM449.087 333.177L449.087 359.291L527.429 359.291L527.429 333.177L449.087 333.177ZM536.134 333.177L536.134 359.291L614.486 359.291L614.486 333.177L536.134 333.177ZM492.58 324.472L570.922 324.472L570.922 298.347L492.58 298.347L492.58 324.472Z" fill="#FFDDE8"/>
<path fill-rule="evenodd" clip-rule="evenodd" d="M420.878 394.053C394.138 405.46 371.419 442.405 369.809 486.002C368.198 529.608 388.131 568.122 413.956 581.474C434.177 565.012 451.398 529.532 452.893 489.071C454.387 448.619 439.83 411.956 420.878 394.053Z" fill="#29B38E"/>
<path fill-rule="evenodd" clip-rule="evenodd" d="M334.781 387.633C315.668 410.384 311.863 457.48 330.292 502.566C348.724 547.662 384.425 578.602 414.004 581.455C424.882 556.267 424.355 512.953 407.252 471.109C390.153 429.276 360.186 397.984 334.781 387.633Z" fill="#24D5A6"/>
<path fill-rule="evenodd" clip-rule="evenodd" d="M247.521 425.591C240.541 455.082 259.468 502.033 298.189 538.28C336.917 574.535 385.008 590.321 413.977 581.415C412.109 552.818 390.943 511.224 355.008 477.584C319.08 443.952 276.174 425.566 247.521 425.591Z" fill="#6AE1C1"/>
<path fill-rule="evenodd" clip-rule="evenodd" d="M205.742 509.118C210.862 538.74 245.781 573.467 294.221 590.301C342.672 607.138 391.594 601.546 413.983 581.484C401.322 556.335 366.468 527.39 321.512 511.767C276.567 496.148 231.264 497.238 205.742 509.118Z" fill="#A4EDDA"/>
<path fill-rule="evenodd" clip-rule="evenodd" d="M276.693 638.554L324.394 702.342C324.394 702.342 350.013 730.964 374.853 713.042C398.753 695.788 373.273 676.19 373.273 676.19L341.994 637.034L276.693 638.554Z" fill="#EDEAF3"/>
<path fill-rule="evenodd" clip-rule="evenodd" d="M379.543 663.835L412.203 703.527C412.203 703.527 428.723 727.939 445.623 715.579C460.143 704.963 442.664 685.319 442.664 685.319L417.023 650.613L379.543 663.835Z" fill="#EDEAF3"/>
<path fill-rule="evenodd" clip-rule="evenodd" d="M422.588 593.55C422.588 579.749 411.405 568.557 397.612 568.557C383.8 568.557 372.617 579.749 372.617 593.55C372.617 614.67 372.617 643.761 372.617 658.59C372.617 663.833 376.866 668.07 382.106 668.07H413.097C418.338 668.07 422.588 663.833 422.588 658.59V593.55Z" fill="#E64A4A"/>
<path d="M402.526 534.146C413.817 527.176 418.463 514.225 412.904 505.22C407.345 496.215 393.685 494.565 382.394 501.535C371.103 508.505 366.457 521.456 372.016 530.462C377.576 539.467 391.235 541.116 402.526 534.146Z" fill="#DBE0E1"/>
<path d="M419.805 589.654C443.87 589.654 463.375 571.121 463.375 548.259C463.375 525.396 443.87 506.863 419.805 506.863C395.741 506.863 376.232 525.396 376.232 548.259C376.232 571.121 395.741 589.654 419.805 589.654Z" fill="white"/>
<path fill-rule="evenodd" clip-rule="evenodd" d="M390.988 579.21C389.308 574.858 388.368 570.132 388.368 565.196C388.368 543.552 406.129 525.98 428.009 525.98C443.529 525.98 456.969 534.826 463.469 547.696C463.469 547.884 463.488 548.07 463.488 548.258C463.488 571.104 443.948 589.654 419.908 589.654C408.808 589.654 398.688 585.706 390.988 579.21Z" fill="#D09983"/>
<path fill-rule="evenodd" clip-rule="evenodd" d="M355.819 546.823C355.819 524.724 337.921 506.812 315.844 506.812C293.738 506.812 275.84 524.724 275.84 546.823V633.191C275.84 637.217 277.425 641.065 280.278 643.898C283.103 646.731 286.965 648.312 290.971 648.312C305.209 648.312 326.45 648.312 340.716 648.312C344.722 648.312 348.555 646.731 351.409 643.898C354.233 641.065 355.819 637.217 355.819 633.191C355.819 612.762 355.819 575.572 355.819 546.823Z" fill="#007780"/>
<path fill-rule="evenodd" clip-rule="evenodd" d="M355.079 539.86C353.828 535.549 349.322 533.069 345.013 534.319L345.008 534.321C340.699 535.571 338.219 540.077 339.47 544.388C343.691 558.939 352.708 590.021 356.93 604.571C358.181 608.884 362.684 611.353 366.992 610.103L366.998 610.101C371.307 608.851 373.789 604.356 372.538 600.043C368.317 585.493 359.3 554.411 355.079 539.86Z" fill="#007780"/>
<path d="M331.15 528.323C356.688 528.323 377.389 508.654 377.389 484.392C377.389 460.129 356.688 440.46 331.15 440.46C305.612 440.46 284.908 460.129 284.908 484.392C284.908 508.654 305.612 528.323 331.15 528.323Z" fill="#DBE0E1"/>
<path fill-rule="evenodd" clip-rule="evenodd" d="M304.654 520.29C304.374 519.068 304.114 517.832 303.894 516.578C298.274 485.256 315.594 455.91 342.534 451.084C349.474 449.844 356.354 450.344 362.874 452.306C371.914 460.324 377.553 471.74 377.553 484.4C377.553 508.646 356.834 528.33 331.314 528.33C321.394 528.33 312.194 525.352 304.654 520.29Z" fill="#C48369"/>
<path fill-rule="evenodd" clip-rule="evenodd" d="M388.775 594.652C390.15 592.896 390.777 590.658 390.507 588.442C390.239 586.224 389.099 584.203 387.34 582.825C385.58 581.446 383.345 580.823 381.123 581.09C378.906 581.358 376.884 582.503 375.508 584.259C371.457 589.43 365.863 596.571 361.813 601.742C360.437 603.498 359.81 605.735 360.078 607.953C360.351 610.175 361.496 612.19 363.255 613.569C365.015 614.947 367.245 615.575 369.463 615.305C371.68 615.035 373.704 613.89 375.079 612.134C379.13 606.964 384.724 599.823 388.775 594.652Z" fill="#E64A4A"/>
<g style="mix-blend-mode:lighten">
<path fill-rule="evenodd" clip-rule="evenodd" d="M650.465 461.006C659.985 415.692 700.204 381.62 748.344 381.62C803.524 381.62 848.344 426.428 848.344 481.62C848.344 492.329 846.645 502.644 843.525 512.32H848.344C886.584 512.32 917.644 543.373 917.644 581.621C917.644 619.869 886.584 650.923 848.344 650.923H606.684C606.524 650.923 606.384 650.921 606.224 650.921C551.245 650.681 506.685 605.965 506.685 550.923C506.685 495.731 551.485 450.922 606.684 450.922C622.384 450.922 637.245 454.548 650.465 461.006Z" fill="#83E2FF"/>
</g>
</g>
<defs>
<linearGradient id="paint0_linear" x1="1627.23" y1="1689.35" x2="676.807" y2="517.852" gradientUnits="userSpaceOnUse">
<stop stop-color="#002DA7"/>
<stop offset="0.45" stop-color="#0047A9"/>
<stop offset="1" stop-color="#0086AE"/>
</linearGradient>
<clipPath id="clip0">
<rect width="2000" height="2000" fill="white"/>
</clipPath>
</defs>
</svg>
