<svg width="2000" height="2000" viewBox="0 0 2000 2000" fill="none" xmlns="http://www.w3.org/2000/svg">
<g clip-path="url(#clip0)">
<path d="M2136.28 -3782.39H-2240.61V20993.8H2136.28V-3782.39Z" fill="white"/>
<path d="M2045.02 54.5381H-52.0781V1895.28H2045.02V54.5381Z" fill="white"/>
<path d="M826 1044H168V1198H826V1044Z" fill="#32C3EF"/>
<path d="M260.316 991.17C259.663 998.093 257.054 1003.63 252.488 1007.51C247.922 1011.48 241.865 1013.42 234.317 1013.42C229.005 1013.42 224.346 1012.12 220.339 1009.63C216.332 1007.23 213.257 1003.63 211.021 999.109C208.877 994.586 207.759 989.232 207.666 983.232V977.047C207.666 970.863 208.784 965.416 210.927 960.709C213.164 956.001 216.332 952.309 220.526 949.816C224.626 947.232 229.471 945.939 234.876 945.939C242.145 945.939 248.015 947.97 252.488 951.847C256.961 955.816 259.57 961.355 260.316 968.555H248.854C248.295 963.847 246.897 960.432 244.661 958.309C242.424 956.278 239.163 955.17 234.876 955.17C229.844 955.17 226.024 957.016 223.321 960.616C220.619 964.216 219.221 969.57 219.221 976.586V982.401C219.221 989.509 220.526 994.862 223.042 998.647C225.651 1002.34 229.378 1004.19 234.317 1004.19C238.79 1004.19 242.238 1003.17 244.474 1001.14C246.804 999.201 248.202 995.786 248.854 991.17H260.316Z" fill="#00B1E7"/>
<path d="M298.881 1012.49C298.415 1011.57 298.042 1010 297.669 1007.97C294.128 1011.57 289.842 1013.42 284.717 1013.42C279.778 1013.42 275.771 1012.03 272.603 1009.17C269.528 1006.4 267.943 1002.99 267.943 998.832C267.943 993.663 269.9 989.694 273.814 986.832C277.728 984.063 283.226 982.678 290.494 982.678H297.297V979.54C297.297 976.955 296.551 974.924 295.153 973.447C293.756 971.878 291.519 971.14 288.63 971.14C286.114 971.14 284.064 971.786 282.48 973.078C280.803 974.278 280.057 975.847 280.057 977.786H268.968C268.968 975.109 269.9 972.617 271.671 970.309C273.441 967.909 275.864 966.155 278.939 964.77C282.014 963.478 285.462 962.832 289.283 962.832C295.06 962.832 299.626 964.217 303.074 967.17C306.522 970.032 308.293 974.001 308.386 979.263V1001.23C308.386 1005.57 308.945 1009.08 310.249 1011.76V1012.49H298.881ZM286.767 1004.65C289.003 1004.65 291.053 1004.09 292.917 1002.99C294.874 1001.97 296.272 1000.59 297.297 998.832V989.601H291.333C287.233 989.601 284.158 990.34 282.108 991.724C280.057 993.109 279.032 995.14 279.032 997.724C279.032 999.847 279.685 1001.51 281.082 1002.71C282.48 1004 284.437 1004.65 286.767 1004.65Z" fill="#00B1E7"/>
<path d="M331.685 943.263H320.596V1012.49H331.685V943.263Z" fill="#00B1E7"/>
<path d="M355.482 943.263H344.393V1012.49H355.482V943.263Z" fill="#00B1E7"/>
<path d="M444.411 1012.49H432.95V983.325H403.317V1012.49H391.762V946.863H403.317V974.186H432.95V946.863H444.411V1012.49Z" fill="#00B1E7"/>
<path d="M453.869 987.663C453.869 982.863 454.801 978.617 456.665 974.74C458.622 970.955 461.324 968.001 464.772 965.878C468.22 963.847 472.227 962.832 476.7 962.832C483.316 962.832 488.72 964.955 492.821 969.201C497.014 973.447 499.25 979.078 499.53 986.001L499.623 988.586C499.623 993.386 498.691 997.724 496.828 1001.51C494.964 1005.29 492.261 1008.25 488.814 1010.28C485.366 1012.4 481.266 1013.42 476.793 1013.42C469.804 1013.42 464.213 1011.11 460.113 1006.49C455.919 1001.97 453.869 995.786 453.869 988.217V987.663ZM464.865 988.586C464.865 993.663 465.89 997.54 468.033 1000.4C470.083 1003.26 473.065 1004.65 476.793 1004.65C480.52 1004.65 483.409 1003.17 485.459 1000.31C487.509 997.447 488.627 993.201 488.627 987.663C488.627 982.77 487.509 978.801 485.366 975.94C483.222 973.078 480.334 971.601 476.7 971.601C473.065 971.601 470.177 973.078 468.033 975.847C465.983 978.709 464.865 982.955 464.865 988.586Z" fill="#00B1E7"/>
<path d="M518.662 963.755L519.035 968.832C522.483 964.863 527.235 962.832 533.199 962.832C539.815 962.832 544.288 965.324 546.711 970.309C550.345 965.324 555.377 962.832 561.807 962.832C567.305 962.832 571.312 964.309 573.921 967.263C576.623 970.217 577.928 974.647 578.021 980.463V1012.49H566.932V980.74C566.932 977.694 566.28 975.386 564.882 974.001C563.577 972.524 561.341 971.786 558.172 971.786C555.656 971.786 553.606 972.432 552.022 973.817C550.345 975.109 549.227 976.863 548.668 979.078V1012.49H537.579V980.371C537.485 974.647 534.503 971.786 528.726 971.786C524.346 971.786 521.178 973.54 519.314 977.14V1012.49H508.318V963.755H518.662Z" fill="#00B1E7"/>
<path d="M609.717 1013.42C602.728 1013.42 597.044 1011.2 592.757 1006.86C588.378 1002.43 586.234 996.617 586.234 989.417V988.032C586.234 983.14 587.166 978.801 589.03 975.017C590.894 971.14 593.596 968.186 597.044 966.063C600.492 963.847 604.312 962.832 608.506 962.832C615.215 962.832 620.34 964.955 624.068 969.201C627.702 973.447 629.472 979.447 629.472 987.201V991.54H597.323C597.696 995.601 599.001 998.832 601.424 1001.14C603.753 1003.45 606.828 1004.65 610.369 1004.65C615.495 1004.65 619.595 1002.62 622.763 998.555L628.727 1004.19C626.77 1007.14 624.161 1009.36 620.806 1011.02C617.545 1012.59 613.817 1013.42 609.717 1013.42ZM608.412 971.601C605.431 971.601 602.915 972.709 601.051 974.74C599.187 976.863 598.069 979.817 597.51 983.601H618.57V982.77C618.383 979.078 617.358 976.309 615.588 974.463C613.91 972.524 611.488 971.601 608.412 971.601Z" fill="#00B1E7"/>
<path d="M1829.92 662.005H168.389V815.852H1829.92V662.005Z" fill="#FF4E87"/>
<path d="M241.604 613.446C241.604 610.585 240.579 608.369 238.528 606.8C236.478 605.231 232.751 603.662 227.439 602C222.128 600.431 217.841 598.677 214.673 596.739C208.616 592.954 205.634 588.062 205.634 582.062C205.634 576.708 207.777 572.369 212.157 568.954C216.537 565.539 222.221 563.785 229.117 563.785C233.776 563.785 237.876 564.615 241.417 566.369C245.051 568.031 247.94 570.431 249.99 573.569C252.04 576.615 253.065 580.123 253.065 583.908H241.604C241.604 580.4 240.485 577.723 238.342 575.785C236.199 573.846 233.031 572.923 229.024 572.923C225.296 572.923 222.314 573.754 220.264 575.323C218.214 576.892 217.189 579.108 217.189 581.969C217.189 584.369 218.307 586.4 220.544 587.969C222.78 589.631 226.508 591.2 231.633 592.677C236.758 594.154 240.951 595.908 244.026 597.846C247.195 599.785 249.431 602 250.922 604.492C252.413 607.077 253.065 609.939 253.065 613.354C253.065 618.8 251.015 623.139 246.729 626.369C242.535 629.6 236.758 631.262 229.489 631.262C224.737 631.262 220.357 630.339 216.35 628.585C212.25 626.831 209.175 624.431 206.939 621.292C204.702 618.246 203.584 614.646 203.584 610.492H215.139C215.139 614.277 216.35 617.139 218.866 619.169C221.289 621.2 224.923 622.215 229.489 622.215C233.496 622.215 236.572 621.385 238.528 619.815C240.579 618.246 241.604 616.123 241.604 613.446Z" fill="#FF6697"/>
<path d="M276.595 569.692V581.6H285.355V589.723H276.595V616.862C276.595 618.8 276.968 620.092 277.713 620.923C278.459 621.754 279.857 622.215 281.72 622.215C283.025 622.215 284.33 622.031 285.634 621.754V630.246C283.118 630.892 280.695 631.262 278.366 631.262C269.793 631.262 265.599 626.554 265.599 617.323V589.723H257.492V581.6H265.599V569.692H276.595Z" fill="#FF6697"/>
<path d="M322.775 630.339C322.309 629.416 321.937 627.847 321.564 625.816C318.023 629.416 313.736 631.262 308.611 631.262C303.672 631.262 299.665 629.877 296.497 627.016C293.422 624.247 291.838 620.831 291.838 616.677C291.838 611.508 293.795 607.539 297.709 604.677C301.622 601.908 307.12 600.523 314.389 600.523H321.191V597.385C321.191 594.8 320.446 592.77 319.048 591.293C317.65 589.723 315.414 588.985 312.525 588.985C310.009 588.985 307.959 589.631 306.375 590.923C304.697 592.123 303.952 593.693 303.952 595.631H292.863C292.863 592.954 293.795 590.462 295.565 588.154C297.336 585.754 299.759 584 302.834 582.616C305.909 581.323 309.357 580.677 313.177 580.677C318.955 580.677 323.521 582.062 326.969 585.016C330.417 587.877 332.187 591.846 332.28 597.108V619.077C332.28 623.416 332.839 626.923 334.144 629.6V630.339H322.775ZM310.661 622.493C312.898 622.493 314.948 621.939 316.812 620.831C318.768 619.816 320.166 618.431 321.191 616.677V607.447H315.227C311.127 607.447 308.052 608.185 306.002 609.57C303.952 610.954 302.927 612.985 302.927 615.57C302.927 617.693 303.579 619.354 304.977 620.554C306.375 621.847 308.332 622.493 310.661 622.493Z" fill="#FF6697"/>
<path d="M354.087 581.6L354.367 587.231C358.001 582.893 362.847 580.677 368.717 580.677C378.968 580.677 384.186 586.493 384.372 598.123V630.339H373.283V598.77C373.283 595.631 372.631 593.323 371.326 591.846C369.929 590.37 367.785 589.631 364.71 589.631C360.237 589.631 356.883 591.662 354.739 595.631V630.339H343.65V581.6H354.087Z" fill="#FF6697"/>
<path d="M393.605 605.6C393.605 598.123 395.283 592.03 398.824 587.507C402.365 582.984 407.117 580.677 412.988 580.677C418.206 580.677 422.4 582.43 425.661 586.123V561.107H436.657V630.338H426.686L426.127 625.261C422.866 629.23 418.393 631.261 412.895 631.261C407.117 631.261 402.458 628.954 398.917 624.338C395.376 619.723 393.605 613.538 393.605 605.6ZM404.601 606.523C404.601 611.507 405.626 615.384 407.49 618.154C409.447 620.923 412.149 622.307 415.69 622.307C420.256 622.307 423.518 620.277 425.661 616.307V595.538C423.611 591.569 420.35 589.63 415.784 589.63C412.243 589.63 409.447 591.015 407.49 593.877C405.626 596.646 404.601 600.892 404.601 606.523Z" fill="#FF6697"/>
<path d="M477.143 630.339C476.677 629.416 476.304 627.847 475.931 625.816C472.39 629.416 468.104 631.262 462.978 631.262C458.04 631.262 454.033 629.877 450.864 627.016C447.789 624.247 446.205 620.831 446.205 616.677C446.205 611.508 448.162 607.539 452.076 604.677C455.99 601.908 461.487 600.523 468.756 600.523H475.558V597.385C475.558 594.8 474.813 592.77 473.415 591.293C472.017 589.723 469.781 588.985 466.892 588.985C464.376 588.985 462.326 589.631 460.742 590.923C459.065 592.123 458.319 593.693 458.319 595.631H447.23C447.23 592.954 448.162 590.462 449.932 588.154C451.703 585.754 454.126 584 457.201 582.616C460.276 581.323 463.724 580.677 467.544 580.677C473.322 580.677 477.888 582.062 481.336 585.016C484.784 587.877 486.554 591.846 486.647 597.108V619.077C486.647 623.416 487.207 626.923 488.511 629.6V630.339H477.143ZM465.028 622.493C467.265 622.493 469.315 621.939 471.179 620.831C473.136 619.816 474.533 618.431 475.558 616.677V607.447H469.595C465.494 607.447 462.419 608.185 460.369 609.57C458.319 610.954 457.294 612.985 457.294 615.57C457.294 617.693 457.946 619.354 459.344 620.554C460.742 621.847 462.699 622.493 465.028 622.493Z" fill="#FF6697"/>
<path d="M523.924 591.57C522.526 591.293 521.035 591.2 519.451 591.2C514.419 591.2 510.971 593.139 509.201 597.016V630.339H498.205V581.6H508.735L509.015 587.046C511.624 582.8 515.351 580.677 520.104 580.677C521.688 580.677 522.992 580.862 524.017 581.323L523.924 591.57Z" fill="#FF6697"/>
<path d="M528.822 605.6C528.822 598.123 530.5 592.03 534.041 587.507C537.582 582.984 542.334 580.677 548.205 580.677C553.423 580.677 557.616 582.43 560.878 586.123V561.107H571.874V630.338H561.903L561.344 625.261C558.082 629.23 553.61 631.261 548.112 631.261C542.334 631.261 537.675 628.954 534.134 624.338C530.593 619.723 528.822 613.538 528.822 605.6ZM539.818 606.523C539.818 611.507 540.843 615.384 542.707 618.154C544.664 620.923 547.366 622.307 550.907 622.307C555.473 622.307 558.735 620.277 560.878 616.307V595.538C558.828 591.569 555.566 589.63 551 589.63C547.459 589.63 544.664 591.015 542.707 593.877C540.843 596.646 539.818 600.892 539.818 606.523Z" fill="#FF6697"/>
<path d="M626.896 622.493C629.599 622.493 631.928 621.662 633.792 620.093C635.562 618.523 636.588 616.585 636.681 614.185H647.117C646.931 617.231 645.999 620.093 644.229 622.677C642.458 625.354 640.035 627.385 636.96 628.954C633.885 630.431 630.53 631.262 626.989 631.262C620.094 631.262 614.689 629.047 610.682 624.616C606.582 620.185 604.625 614.093 604.625 606.339V605.231C604.625 597.754 606.582 591.846 610.589 587.323C614.596 582.893 620.094 580.677 626.989 580.677C632.86 580.677 637.613 582.339 641.247 585.754C644.974 589.077 646.931 593.6 647.117 599.047H636.681C636.588 596.277 635.562 593.97 633.792 592.123C631.928 590.37 629.692 589.446 626.896 589.446C623.262 589.446 620.56 590.739 618.603 593.323C616.646 595.908 615.714 599.785 615.621 605.047V606.8C615.621 612.062 616.646 616.031 618.51 618.616C620.466 621.2 623.262 622.493 626.896 622.493Z" fill="#FF6697"/>
<path d="M684.432 630.339C683.966 629.416 683.593 627.847 683.22 625.816C679.679 629.416 675.393 631.262 670.268 631.262C665.329 631.262 661.322 629.877 658.153 627.016C655.078 624.247 653.494 620.831 653.494 616.677C653.494 611.508 655.451 607.539 659.365 604.677C663.279 601.908 668.777 600.523 676.045 600.523H682.848V597.385C682.848 594.8 682.102 592.77 680.704 591.293C679.306 589.723 677.07 588.985 674.181 588.985C671.665 588.985 669.615 589.631 668.031 590.923C666.354 592.123 665.608 593.693 665.608 595.631H654.519C654.519 592.954 655.451 590.462 657.222 588.154C658.992 585.754 661.415 584 664.49 582.616C667.565 581.323 671.013 580.677 674.834 580.677C680.611 580.677 685.177 582.062 688.625 585.016C692.073 587.877 693.843 591.846 693.937 597.108V619.077C693.937 623.416 694.496 626.923 695.8 629.6V630.339H684.432ZM672.318 622.493C674.554 622.493 676.604 621.939 678.468 620.831C680.425 619.816 681.822 618.431 682.848 616.677V607.447H676.884C672.784 607.447 669.708 608.185 667.658 609.57C665.608 610.954 664.583 612.985 664.583 615.57C664.583 617.693 665.235 619.354 666.633 620.554C668.031 621.847 669.988 622.493 672.318 622.493Z" fill="#FF6697"/>
<path d="M716.027 561.107H704.938V630.338H716.027V561.107Z" fill="#FF6697"/>
<path d="M739.821 561.107H728.732V630.338H739.821V561.107Z" fill="#FF6697"/>
<path d="M763.648 630.339H752.559V581.601H763.648V630.339ZM751.906 568.862C751.906 567.201 752.465 565.816 753.49 564.708C754.609 563.601 756.1 563.047 758.15 563.047C760.107 563.047 761.691 563.601 762.809 564.708C763.834 565.816 764.393 567.201 764.393 568.862C764.393 570.524 763.834 571.908 762.809 573.016C761.691 574.124 760.107 574.678 758.15 574.678C756.1 574.678 754.609 574.124 753.49 573.016C752.465 571.908 751.906 570.524 751.906 568.862Z" fill="#FF6697"/>
<path d="M785.909 581.6L786.189 587.231C789.823 582.893 794.669 580.677 800.539 580.677C810.79 580.677 816.008 586.493 816.195 598.123V630.339H805.106V598.77C805.106 595.631 804.453 593.323 803.149 591.846C801.751 590.37 799.608 589.631 796.533 589.631C792.06 589.631 788.705 591.662 786.562 595.631V630.339H775.473V581.6H785.909Z" fill="#FF6697"/>
<path d="M825.551 605.6C825.551 598.031 827.321 591.939 830.956 587.416C834.497 582.893 839.342 580.677 845.213 580.677C850.897 580.677 855.277 582.616 858.538 586.493L859.004 581.6H868.975V628.862C868.975 635.231 866.925 640.308 862.918 644C858.911 647.693 853.506 649.539 846.704 649.539C843.07 649.539 839.529 648.8 836.081 647.323C832.633 645.847 830.024 643.908 828.253 641.508L833.472 634.862C836.826 638.923 841.02 640.862 846.052 640.862C849.686 640.862 852.574 639.939 854.718 637.908C856.861 635.97 857.886 633.108 857.886 629.231V626C854.718 629.508 850.431 631.262 845.12 631.262C839.435 631.262 834.683 628.954 831.049 624.431C827.414 619.908 825.551 613.631 825.551 605.6ZM836.547 606.523C836.547 611.416 837.572 615.293 839.622 618.062C841.579 620.923 844.374 622.308 848.008 622.308C852.481 622.308 855.743 620.462 857.886 616.677V595.17C855.836 591.477 852.574 589.631 848.102 589.631C844.467 589.631 841.579 591.108 839.622 593.877C837.572 596.739 836.547 600.985 836.547 606.523Z" fill="#FF6697"/>
<path d="M929.262 591.57C927.864 591.293 926.373 591.2 924.789 591.2C919.757 591.2 916.309 593.139 914.539 597.016V630.339H903.543V581.6H914.073L914.352 587.046C916.962 582.8 920.689 580.677 925.442 580.677C927.026 580.677 928.33 580.862 929.355 581.323L929.262 591.57Z" fill="#FF6697"/>
<path d="M965.629 630.339C965.163 629.416 964.79 627.847 964.417 625.816C960.876 629.416 956.59 631.262 951.465 631.262C946.526 631.262 942.519 629.877 939.351 627.016C936.276 624.247 934.691 620.831 934.691 616.677C934.691 611.508 936.648 607.539 940.562 604.677C944.476 601.908 949.974 600.523 957.242 600.523H964.045V597.385C964.045 594.8 963.299 592.77 961.901 591.293C960.504 589.723 958.267 588.985 955.378 588.985C952.862 588.985 950.812 589.631 949.228 590.923C947.551 592.123 946.805 593.693 946.805 595.631H935.716C935.716 592.954 936.648 590.462 938.419 588.154C940.189 585.754 942.612 584 945.687 582.616C948.762 581.323 952.21 580.677 956.031 580.677C961.808 580.677 966.374 582.062 969.822 585.016C973.27 587.877 975.041 591.846 975.134 597.108V619.077C975.134 623.416 975.693 626.923 976.997 629.6V630.339H965.629ZM953.515 622.493C955.751 622.493 957.801 621.939 959.665 620.831C961.622 619.816 963.02 618.431 964.045 616.677V607.447H958.081C953.981 607.447 950.906 608.185 948.856 609.57C946.805 610.954 945.78 612.985 945.78 615.57C945.78 617.693 946.433 619.354 947.831 620.554C949.228 621.847 951.185 622.493 953.515 622.493Z" fill="#FF6697"/>
<path d="M1000.25 569.692V581.6H1009.01V589.723H1000.25V616.862C1000.25 618.8 1000.62 620.092 1001.37 620.923C1002.12 621.754 1003.51 622.215 1005.38 622.215C1006.68 622.215 1007.99 622.031 1009.29 621.754V630.246C1006.77 630.892 1004.35 631.262 1002.02 631.262C993.449 631.262 989.256 626.554 989.256 617.323V589.723H981.148V581.6H989.256V569.692H1000.25Z" fill="#FF6697"/>
<path d="M1038.57 631.262C1031.58 631.262 1025.89 629.047 1021.61 624.708C1017.23 620.277 1015.08 614.462 1015.08 607.262V605.877C1015.08 600.985 1016.02 596.647 1017.88 592.862C1019.74 588.985 1022.45 586.031 1025.89 583.908C1029.34 581.693 1033.16 580.677 1037.36 580.677C1044.06 580.677 1049.19 582.8 1052.92 587.046C1056.55 591.293 1058.32 597.293 1058.32 605.047V609.385H1026.17C1026.55 613.447 1027.85 616.677 1030.27 618.985C1032.6 621.293 1035.68 622.493 1039.22 622.493C1044.34 622.493 1048.44 620.462 1051.61 616.4L1057.58 622.031C1055.62 624.985 1053.01 627.2 1049.66 628.862C1046.39 630.431 1042.67 631.262 1038.57 631.262ZM1037.26 589.446C1034.28 589.446 1031.76 590.554 1029.9 592.585C1028.04 594.708 1026.92 597.662 1026.36 601.447H1047.42V600.616C1047.23 596.923 1046.21 594.154 1044.44 592.308C1042.76 590.37 1040.34 589.446 1037.26 589.446Z" fill="#FF6697"/>
<path d="M1093.92 617.047C1093.92 615.108 1093.08 613.631 1091.49 612.616C1089.82 611.6 1087.21 610.677 1083.39 609.939C1079.66 609.108 1076.49 608.185 1073.98 606.985C1068.48 604.308 1065.68 600.431 1065.68 595.447C1065.68 591.2 1067.45 587.693 1071.09 584.923C1074.63 582.062 1079.19 580.677 1084.69 580.677C1090.56 580.677 1095.31 582.154 1098.95 585.016C1102.58 587.877 1104.45 591.662 1104.45 596.185H1093.36C1093.36 594.154 1092.61 592.4 1091.03 590.923C1089.44 589.539 1087.3 588.893 1084.69 588.893C1082.27 588.893 1080.31 589.446 1078.82 590.554C1077.24 591.662 1076.49 593.139 1076.49 594.985C1076.49 596.647 1077.24 598.031 1078.63 598.954C1080.03 599.877 1082.92 600.8 1087.3 601.723C1091.59 602.647 1095.04 603.847 1097.46 605.139C1099.97 606.431 1101.74 608 1102.96 609.847C1104.17 611.693 1104.82 613.908 1104.82 616.493C1104.82 620.923 1102.96 624.431 1099.32 627.2C1095.59 629.877 1090.84 631.262 1084.88 631.262C1080.78 631.262 1077.24 630.524 1074.07 629.047C1070.9 627.662 1068.48 625.631 1066.71 623.139C1064.94 620.647 1064.1 617.877 1064.1 614.923H1074.81C1074.91 617.508 1075.93 619.539 1077.8 620.923C1079.57 622.308 1081.99 623.047 1084.97 623.047C1087.86 623.047 1090.1 622.493 1091.68 621.385C1093.17 620.277 1093.92 618.893 1093.92 617.047Z" fill="#FF6697"/>
<path d="M1240.12 1588.1C1239.6 1593.64 1237.51 1598.07 1233.86 1601.17C1230.21 1604.35 1225.36 1605.9 1219.32 1605.9C1215.07 1605.9 1211.35 1604.86 1208.14 1602.87C1204.93 1600.95 1202.47 1598.07 1200.69 1594.45C1198.97 1590.83 1198.08 1586.55 1198 1581.75V1576.8C1198 1571.85 1198.9 1567.5 1200.61 1563.73C1202.4 1559.97 1204.93 1557.01 1208.29 1555.02C1211.57 1552.95 1215.45 1551.92 1219.77 1551.92C1225.58 1551.92 1230.28 1553.54 1233.86 1556.64C1237.44 1559.82 1239.53 1564.25 1240.12 1570.01H1230.95C1230.5 1566.24 1229.39 1563.51 1227.6 1561.81C1225.81 1560.19 1223.2 1559.3 1219.77 1559.3C1215.74 1559.3 1212.69 1560.78 1210.53 1563.66C1208.36 1566.54 1207.25 1570.82 1207.25 1576.43V1581.09C1207.25 1586.77 1208.29 1591.05 1210.3 1594.08C1212.39 1597.04 1215.37 1598.51 1219.32 1598.51C1222.9 1598.51 1225.66 1597.7 1227.45 1596.08C1229.31 1594.53 1230.43 1591.79 1230.95 1588.1H1240.12Z" fill="#6D9EAC"/>
<path d="M1289.35 1580.27C1289.35 1585.44 1288.45 1589.95 1286.66 1593.79C1284.8 1597.7 1282.27 1600.65 1278.91 1602.8C1275.56 1604.86 1271.76 1605.9 1267.43 1605.9C1263.11 1605.9 1259.31 1604.86 1255.95 1602.8C1252.6 1600.65 1249.99 1597.7 1248.12 1593.86C1246.33 1590.02 1245.37 1585.59 1245.37 1580.57V1577.61C1245.37 1572.52 1246.26 1567.94 1248.12 1564.03C1249.91 1560.11 1252.52 1557.16 1255.88 1555.09C1259.16 1552.95 1263.03 1551.92 1267.36 1551.92C1271.68 1551.92 1275.48 1552.95 1278.84 1555.02C1282.19 1557.09 1284.73 1560.04 1286.59 1563.88C1288.38 1567.72 1289.27 1572.22 1289.35 1577.39V1580.27ZM1280.1 1577.54C1280.1 1571.71 1278.99 1567.28 1276.75 1564.17C1274.59 1561.07 1271.38 1559.52 1267.36 1559.52C1263.33 1559.52 1260.27 1561.07 1257.96 1564.17C1255.73 1567.2 1254.61 1571.63 1254.53 1577.25V1580.27C1254.53 1586.03 1255.73 1590.54 1257.96 1593.64C1260.2 1596.81 1263.41 1598.37 1267.43 1598.37C1271.46 1598.37 1274.59 1596.81 1276.82 1593.79C1278.99 1590.69 1280.1 1586.18 1280.1 1580.27V1577.54Z" fill="#6D9EAC"/>
<path d="M1323.86 1591.65C1323.86 1589.36 1323.04 1587.58 1321.4 1586.33C1319.76 1585.07 1316.78 1583.82 1312.53 1582.49C1308.28 1581.23 1304.85 1579.83 1302.31 1578.28C1297.47 1575.25 1295.08 1571.34 1295.08 1566.54C1295.08 1562.25 1296.8 1558.78 1300.3 1556.05C1303.81 1553.32 1308.35 1551.92 1313.87 1551.92C1317.6 1551.92 1320.88 1552.58 1323.71 1553.98C1326.62 1555.31 1328.93 1557.23 1330.57 1559.74C1332.21 1562.18 1333.03 1564.99 1333.03 1568.01H1323.86C1323.86 1565.21 1322.96 1563.07 1321.25 1561.52C1319.54 1559.97 1317 1559.23 1313.79 1559.23C1310.81 1559.23 1308.43 1559.89 1306.79 1561.15C1305.15 1562.4 1304.33 1564.17 1304.33 1566.46C1304.33 1568.38 1305.22 1570.01 1307.01 1571.26C1308.8 1572.59 1311.78 1573.85 1315.88 1575.03C1319.98 1576.21 1323.34 1577.61 1325.8 1579.17C1328.33 1580.72 1330.12 1582.49 1331.31 1584.48C1332.51 1586.55 1333.03 1588.84 1333.03 1591.57C1333.03 1595.93 1331.39 1599.4 1327.96 1601.98C1324.6 1604.57 1319.98 1605.9 1314.17 1605.9C1310.37 1605.9 1306.86 1605.16 1303.66 1603.76C1300.38 1602.35 1297.92 1600.43 1296.13 1597.92C1294.34 1595.49 1293.44 1592.61 1293.44 1589.28H1302.69C1302.69 1592.31 1303.66 1594.6 1305.67 1596.22C1307.61 1597.85 1310.51 1598.66 1314.17 1598.66C1317.37 1598.66 1319.83 1598 1321.4 1596.74C1323.04 1595.49 1323.86 1593.79 1323.86 1591.65Z" fill="#6D9EAC"/>
<path d="M1379.03 1560.04H1362.48V1605.16H1353.38V1560.04H1336.98V1552.65H1379.03V1560.04Z" fill="#6D9EAC"/>
<path d="M1447.46 1580.27C1447.46 1585.44 1446.57 1589.95 1444.78 1593.79C1442.91 1597.7 1440.38 1600.65 1437.02 1602.8C1433.67 1604.86 1429.87 1605.9 1425.54 1605.9C1421.22 1605.9 1417.42 1604.86 1414.06 1602.8C1410.71 1600.65 1408.1 1597.7 1406.23 1593.86C1404.45 1590.02 1403.48 1585.59 1403.48 1580.57V1577.61C1403.48 1572.52 1404.37 1567.94 1406.23 1564.03C1408.02 1560.11 1410.63 1557.16 1413.99 1555.09C1417.27 1552.95 1421.14 1551.92 1425.47 1551.92C1429.79 1551.92 1433.59 1552.95 1436.95 1555.02C1440.3 1557.09 1442.84 1560.04 1444.7 1563.88C1446.49 1567.72 1447.39 1572.22 1447.46 1577.39V1580.27ZM1438.22 1577.54C1438.22 1571.71 1437.1 1567.28 1434.86 1564.17C1432.7 1561.07 1429.49 1559.52 1425.47 1559.52C1421.44 1559.52 1418.39 1561.07 1416.08 1564.17C1413.84 1567.2 1412.72 1571.63 1412.65 1577.25V1580.27C1412.65 1586.03 1413.84 1590.54 1416.08 1593.64C1418.31 1596.81 1421.52 1598.37 1425.54 1598.37C1429.57 1598.37 1432.7 1596.81 1434.94 1593.79C1437.1 1590.69 1438.22 1586.18 1438.22 1580.27V1577.54Z" fill="#6D9EAC"/>
<path d="M1484.66 1582.93H1463.34V1605.16H1454.09V1552.65H1487.79V1560.04H1463.34V1575.62H1484.66V1582.93Z" fill="#6D9EAC"/>
<path d="M1558.26 1588.1C1557.74 1593.64 1555.65 1598.07 1552 1601.17C1548.35 1604.35 1543.5 1605.9 1537.46 1605.9C1533.21 1605.9 1529.48 1604.86 1526.28 1602.87C1523.07 1600.95 1520.61 1598.07 1518.82 1594.45C1517.11 1590.83 1516.22 1586.55 1516.14 1581.75V1576.8C1516.14 1571.85 1517.04 1567.5 1518.75 1563.73C1520.54 1559.97 1523.07 1557.01 1526.43 1555.02C1529.71 1552.95 1533.58 1551.92 1537.91 1551.92C1543.72 1551.92 1548.42 1553.54 1552 1556.64C1555.58 1559.82 1557.66 1564.25 1558.26 1570.01H1549.09C1548.64 1566.24 1547.53 1563.51 1545.74 1561.81C1543.95 1560.19 1541.34 1559.3 1537.91 1559.3C1533.88 1559.3 1530.83 1560.78 1528.66 1563.66C1526.5 1566.54 1525.38 1570.82 1525.38 1576.43V1581.09C1525.38 1586.77 1526.43 1591.05 1528.44 1594.08C1530.53 1597.04 1533.51 1598.51 1537.46 1598.51C1541.04 1598.51 1543.8 1597.7 1545.59 1596.08C1547.45 1594.53 1548.57 1591.79 1549.09 1588.1H1558.26Z" fill="#6D9EAC"/>
<path d="M1593.92 1592.9H1573.42L1569.09 1605.16H1559.55L1579.53 1552.65H1587.8L1607.86 1605.16H1598.24L1593.92 1592.9ZM1575.95 1585.59H1591.38L1583.7 1563.81L1575.95 1585.59Z" fill="#6D9EAC"/>
<path d="M1622.39 1597.85H1646.47V1605.16H1613.15V1552.65H1622.39V1597.85Z" fill="#6D9EAC"/>
<path d="M1661.95 1597.85H1686.03V1605.16H1652.71V1552.65H1661.95V1597.85Z" fill="#6D9EAC"/>
<path d="M1718.27 1591.65C1718.27 1589.36 1717.45 1587.58 1715.81 1586.33C1714.17 1585.07 1711.19 1583.82 1706.94 1582.49C1702.69 1581.23 1699.26 1579.83 1696.72 1578.28C1691.88 1575.25 1689.49 1571.34 1689.49 1566.54C1689.49 1562.25 1691.21 1558.78 1694.71 1556.05C1698.22 1553.32 1702.76 1551.92 1708.28 1551.92C1712.01 1551.92 1715.29 1552.58 1718.12 1553.98C1721.03 1555.31 1723.34 1557.23 1724.98 1559.74C1726.62 1562.18 1727.44 1564.99 1727.44 1568.01H1718.27C1718.27 1565.21 1717.37 1563.07 1715.66 1561.52C1713.95 1559.97 1711.41 1559.23 1708.21 1559.23C1705.22 1559.23 1702.84 1559.89 1701.2 1561.15C1699.56 1562.4 1698.74 1564.17 1698.74 1566.46C1698.74 1568.38 1699.63 1570.01 1701.42 1571.26C1703.21 1572.59 1706.19 1573.85 1710.29 1575.03C1714.39 1576.21 1717.75 1577.61 1720.21 1579.17C1722.74 1580.72 1724.53 1582.49 1725.72 1584.48C1726.92 1586.55 1727.44 1588.84 1727.44 1591.57C1727.44 1595.93 1725.8 1599.4 1722.37 1601.98C1719.01 1604.57 1714.39 1605.9 1708.58 1605.9C1704.78 1605.9 1701.27 1605.16 1698.07 1603.76C1694.79 1602.35 1692.33 1600.43 1690.54 1597.92C1688.75 1595.49 1687.85 1592.61 1687.85 1589.28H1697.1C1697.1 1592.31 1698.07 1594.6 1700.08 1596.22C1702.02 1597.85 1704.92 1598.66 1708.58 1598.66C1711.78 1598.66 1714.24 1598 1715.81 1596.74C1717.45 1595.49 1718.27 1593.79 1718.27 1591.65Z" fill="#6D9EAC"/>
<path d="M1748.43 1583.82C1748.43 1578.28 1749.18 1572.96 1750.67 1568.01C1752.16 1562.99 1754.39 1558.56 1757.3 1554.65C1760.21 1550.66 1763.26 1547.93 1766.55 1546.38L1768.26 1551.47C1764.83 1554.06 1762.07 1557.97 1759.98 1563.21C1757.82 1568.53 1756.7 1574.59 1756.48 1581.38L1756.41 1584.48C1756.41 1591.72 1757.45 1598.22 1759.54 1603.98C1761.62 1609.66 1764.53 1614.02 1768.26 1616.97L1766.55 1621.85C1763.26 1620.3 1760.21 1617.49 1757.23 1613.58C1754.32 1609.59 1752.16 1605.16 1750.67 1600.14C1749.18 1595.19 1748.43 1589.73 1748.43 1583.82Z" fill="#6D9EAC"/>
<path d="M1797.04 1591.42C1797.04 1589.43 1796.37 1587.73 1795.1 1586.4C1793.76 1585.07 1791.6 1583.89 1788.54 1582.78C1785.49 1581.75 1783.1 1580.72 1781.39 1579.83C1775.72 1576.8 1772.89 1572.37 1772.89 1566.46C1772.89 1562.48 1774.16 1559.23 1776.54 1556.64C1779 1554.06 1782.36 1552.51 1786.53 1552.06V1544.16H1792.34V1552.14C1796.59 1552.73 1799.87 1554.5 1802.19 1557.45C1804.5 1560.41 1805.61 1564.17 1805.61 1568.9H1796.82C1796.82 1565.87 1796.15 1563.51 1794.73 1561.74C1793.39 1560.04 1791.52 1559.15 1789.14 1559.15C1786.83 1559.15 1785.04 1559.74 1783.7 1561C1782.43 1562.25 1781.76 1564.1 1781.76 1566.39C1781.76 1568.46 1782.43 1570.16 1783.7 1571.41C1784.96 1572.67 1787.2 1573.85 1790.33 1575.03C1793.39 1576.14 1795.85 1577.17 1797.64 1578.13C1799.35 1579.09 1800.84 1580.2 1802.11 1581.45C1803.3 1582.71 1804.27 1584.11 1804.87 1585.74C1805.54 1587.36 1805.91 1589.21 1805.91 1591.35C1805.91 1595.41 1804.65 1598.73 1802.11 1601.25C1799.58 1603.76 1796.07 1605.31 1791.6 1605.75V1612.77H1785.86V1605.75C1781.01 1605.23 1777.29 1603.53 1774.75 1600.65C1772.14 1597.77 1770.88 1593.93 1770.88 1589.21H1779.67C1779.67 1592.24 1780.49 1594.53 1781.98 1596.22C1783.55 1597.85 1785.71 1598.73 1788.54 1598.73C1791.3 1598.73 1793.39 1598.07 1794.88 1596.74C1796.3 1595.41 1797.04 1593.64 1797.04 1591.42Z" fill="#6D9EAC"/>
<path d="M1828.71 1584.41C1828.71 1589.73 1827.97 1594.89 1826.48 1599.84C1824.99 1604.79 1822.75 1609.29 1819.69 1613.43C1816.71 1617.49 1813.58 1620.3 1810.3 1621.85L1808.59 1616.97C1812.16 1614.17 1815.07 1609.96 1817.16 1604.2C1819.32 1598.44 1820.36 1591.94 1820.36 1584.56V1583.74C1820.36 1577.02 1819.47 1570.97 1817.61 1565.5C1815.74 1559.97 1813.13 1555.61 1809.7 1552.29L1808.59 1551.25L1810.3 1546.38C1813.43 1547.85 1816.41 1550.51 1819.32 1554.28C1822.23 1558.05 1824.46 1562.33 1826.03 1567.05C1827.6 1571.71 1828.42 1576.58 1828.64 1581.6L1828.71 1584.41Z" fill="#6D9EAC"/>
<path d="M1830.64 1510.34H162.115V1516.5H1830.64V1510.34Z" fill="#6C9DAC"/>
<path d="M163.045 535.94L162.246 1513.42L167.995 1513.43L168.794 535.945L163.045 535.94Z" fill="#6C9DAC"/>
<path fill-rule="evenodd" clip-rule="evenodd" d="M849.726 1126.78V1149.84L821 1121.07L849.726 1092.28V1115.34H1213.5V1126.78H849.726Z" fill="#32C3EF"/>
<path fill-rule="evenodd" clip-rule="evenodd" d="M1801.95 1126.78V1149.84L1830.68 1121.07L1801.95 1092.28V1115.34H1438V1126.78H1801.95Z" fill="#32C3EF"/>
<path d="M1296.65 1230.26C1356.95 1246.42 1418.94 1210.63 1435.1 1150.33C1451.25 1090.02 1415.47 1028.04 1355.16 1011.88C1294.86 995.723 1232.88 1031.51 1216.72 1091.81C1200.56 1152.12 1236.35 1214.1 1296.65 1230.26Z" fill="#FFE667"/>
<path fill-rule="evenodd" clip-rule="evenodd" d="M1355.16 1011.88C1415.41 1028.02 1451.21 1090.06 1435.07 1150.32C1418.92 1210.58 1356.9 1246.4 1296.65 1230.26C1236.38 1214.11 1200.57 1152.07 1216.72 1091.81C1232.87 1031.55 1294.9 995.732 1355.16 1011.88ZM1353.39 1018.49C1410 1033.66 1443.68 1091.95 1428.51 1148.56C1413.34 1205.18 1355.03 1238.81 1298.42 1223.64C1241.81 1208.47 1208.16 1150.2 1223.33 1093.58C1238.5 1036.97 1296.78 1003.32 1353.39 1018.49Z" fill="#32C3EF"/>
<path fill-rule="evenodd" clip-rule="evenodd" d="M1351.17 1026.69C1403.24 1040.64 1434.18 1094.25 1420.23 1146.33C1406.27 1198.41 1352.67 1229.37 1300.6 1215.42C1248.52 1201.46 1217.57 1147.85 1231.53 1095.77C1245.48 1043.69 1299.09 1012.73 1351.17 1026.69ZM1350.38 1029.67C1400.82 1043.18 1430.82 1095.11 1417.3 1145.55C1403.79 1195.99 1351.85 1225.96 1301.4 1212.45C1250.96 1198.93 1220.98 1147.01 1234.5 1096.56C1248.01 1046.12 1299.94 1016.15 1350.38 1029.67Z" fill="#32C3EF"/>
<path d="M1266.62 1102.73C1265.73 1102.52 1264.94 1102.64 1264.28 1103.17C1263.62 1103.71 1262.85 1104.71 1261.93 1106.22C1261.01 1107.68 1260.19 1108.91 1259.44 1109.8C1257 1112.74 1254.37 1113.88 1251.54 1113.21C1250.14 1112.88 1248.97 1112.18 1248.09 1111.09C1247.21 1110 1246.64 1108.6 1246.39 1106.93C1246.17 1105.27 1246.26 1103.49 1246.7 1101.6C1247.14 1099.75 1247.86 1098.16 1248.9 1096.84C1249.89 1095.54 1251.1 1094.6 1252.51 1094.09C1253.89 1093.54 1255.39 1093.48 1256.93 1093.84L1255.46 1100.04C1254.42 1099.8 1253.55 1099.93 1252.82 1100.45C1252.1 1100.93 1251.61 1101.73 1251.34 1102.86C1251.08 1103.94 1251.08 1104.9 1251.44 1105.64C1251.75 1106.4 1252.32 1106.88 1253.04 1107.05C1253.72 1107.22 1254.38 1106.99 1255.08 1106.43C1255.79 1105.83 1256.63 1104.73 1257.62 1103.09C1258.63 1101.41 1259.58 1100.1 1260.51 1099.1C1262.74 1096.72 1265.27 1095.82 1268.07 1096.49C1270.3 1097.02 1271.85 1098.31 1272.74 1100.32C1273.6 1102.28 1273.69 1104.8 1272.99 1107.73C1272.49 1109.84 1271.65 1111.63 1270.52 1113.16C1269.36 1114.69 1268.06 1115.72 1266.56 1116.24C1265.06 1116.81 1263.45 1116.88 1261.8 1116.49L1263.28 1110.25C1264.65 1110.58 1265.74 1110.45 1266.56 1109.88C1267.37 1109.35 1267.97 1108.26 1268.36 1106.63C1268.6 1105.62 1268.57 1104.77 1268.29 1104.05C1267.96 1103.36 1267.42 1102.92 1266.62 1102.73Z" fill="#32C3EF"/>
<path d="M1285.85 1076.38L1279.78 1082.69L1282.25 1087.2L1277.52 1092.11L1265.33 1066.92L1269.5 1062.6L1295.21 1073.74L1290.45 1078.68L1285.85 1076.38ZM1277.33 1078.21L1281.28 1074.1L1272.72 1069.84L1277.33 1078.21Z" fill="#32C3EF"/>
<path d="M1307.2 1061.9L1306.4 1042.08L1313.22 1039.91L1312.67 1067.64L1306.02 1069.76L1289.64 1047.43L1296.35 1045.29L1307.2 1061.9Z" fill="#32C3EF"/>
<path d="M1337.31 1040.63L1330.97 1039.98L1328.29 1066.1L1334.63 1066.75L1337.31 1040.63Z" fill="#32C3EF"/>
<path d="M1363.65 1079.65L1358.21 1076.4L1358.52 1057.57L1350.15 1071.58L1344.68 1068.31L1358.15 1045.78L1363.62 1049.05L1363.31 1067.87L1371.68 1053.87L1377.12 1057.12L1363.65 1079.65Z" fill="#32C3EF"/>
<path d="M1382.08 1102.38C1380.65 1102.02 1379.18 1101.22 1377.67 1099.89C1376.16 1098.56 1374.87 1096.93 1373.76 1094.95C1372.06 1091.93 1371.64 1089 1372.46 1086.15C1373.27 1083.3 1375.26 1080.9 1378.46 1078.97L1380.44 1077.82C1382.69 1076.55 1384.88 1075.84 1387.01 1075.71C1389.17 1075.57 1391.09 1075.98 1392.84 1076.97C1394.58 1077.96 1396.01 1079.46 1397.11 1081.41C1398.73 1084.3 1399.35 1086.91 1398.92 1089.24C1398.53 1091.56 1397.08 1093.57 1394.65 1095.28L1391.64 1089.91C1392.81 1089 1393.5 1088.1 1393.68 1087.14C1393.88 1086.22 1393.63 1085.16 1392.97 1083.99C1392.18 1082.59 1391 1081.85 1389.42 1081.75C1387.79 1081.64 1385.9 1082.19 1383.71 1083.42L1382.33 1084.2C1380.04 1085.48 1378.55 1086.83 1377.87 1088.24C1377.14 1089.67 1377.28 1091.27 1378.23 1092.96C1379.03 1094.39 1379.97 1095.31 1381 1095.63L1384.54 1093.64L1382.37 1089.77L1386.17 1087.64L1391.48 1097.1L1382.08 1102.38Z" fill="#32C3EF"/>
<path d="M1387.75 1125.31C1388.68 1125.31 1389.42 1125.01 1389.93 1124.34C1390.45 1123.67 1390.97 1122.52 1391.53 1120.84C1392.09 1119.2 1392.61 1117.82 1393.12 1116.78C1394.83 1113.36 1397.12 1111.65 1400.04 1111.65C1401.48 1111.65 1402.77 1112.07 1403.88 1112.93C1404.98 1113.79 1405.87 1115.02 1406.49 1116.58C1407.08 1118.15 1407.41 1119.9 1407.4 1121.84C1407.4 1123.74 1407.07 1125.46 1406.36 1126.98C1405.69 1128.47 1404.73 1129.66 1403.47 1130.48C1402.25 1131.34 1400.81 1131.74 1399.23 1131.74L1399.24 1125.37C1400.31 1125.37 1401.12 1125.03 1401.71 1124.36C1402.31 1123.73 1402.6 1122.84 1402.6 1121.68C1402.61 1120.56 1402.39 1119.63 1401.87 1119C1401.39 1118.33 1400.73 1117.99 1399.99 1117.99C1399.29 1117.99 1398.7 1118.36 1398.14 1119.06C1397.59 1119.81 1397.03 1121.08 1396.44 1122.9C1395.84 1124.76 1395.21 1126.25 1394.54 1127.44C1392.91 1130.27 1390.66 1131.72 1387.78 1131.72C1385.49 1131.71 1383.68 1130.82 1382.36 1129.06C1381.07 1127.34 1380.41 1124.92 1380.41 1121.9C1380.42 1119.74 1380.83 1117.8 1381.57 1116.05C1382.35 1114.3 1383.38 1113 1384.72 1112.14C1386.05 1111.25 1387.6 1110.81 1389.3 1110.81L1389.28 1117.22C1387.88 1117.22 1386.85 1117.59 1386.18 1118.33C1385.51 1119.04 1385.18 1120.23 1385.18 1121.91C1385.17 1122.95 1385.39 1123.77 1385.84 1124.41C1386.32 1125.01 1386.94 1125.31 1387.75 1125.31Z" fill="#32C3EF"/>
<path d="M1383.46 1147.33L1385.33 1142.74L1402.24 1148.79L1399.78 1154.83L1383.46 1147.33ZM1380.53 1139.74C1381.35 1140.08 1381.91 1140.67 1382.18 1141.46C1382.47 1142.31 1382.4 1143.16 1382.04 1144.06C1381.67 1144.96 1381.14 1145.59 1380.34 1145.98C1379.59 1146.36 1378.78 1146.39 1377.96 1146.06C1377.13 1145.73 1376.58 1145.14 1376.27 1144.33C1376.01 1143.5 1376.03 1142.66 1376.4 1141.76C1376.76 1140.86 1377.35 1140.22 1378.11 1139.8C1378.9 1139.44 1379.71 1139.41 1380.53 1139.74Z" fill="#32C3EF"/>
<path d="M1327.08 1163.04C1327.81 1160.34 1327.52 1157.79 1326.3 1155.54C1324.99 1153.25 1322.51 1150.87 1318.81 1148.27C1315.09 1145.77 1312.26 1143.52 1310.28 1141.7C1303.77 1135.56 1301.58 1128.54 1303.73 1120.53C1305.17 1115.13 1308.05 1111.18 1312.19 1108.54C1316.43 1105.92 1321.5 1105.03 1327.26 1105.93L1330.13 1095.22L1337.94 1097.31L1335.04 1108.12C1340.53 1110.45 1344.29 1114.03 1346.32 1118.86C1348.35 1123.69 1348.48 1129.2 1346.77 1135.6L1334.96 1132.44C1336.06 1128.34 1336.02 1124.89 1334.76 1121.98C1333.57 1119.2 1331.39 1117.33 1328.19 1116.47C1325.09 1115.64 1322.47 1115.8 1320.22 1117.01C1318.06 1118.26 1316.49 1120.52 1315.66 1123.62C1314.91 1126.42 1315.19 1128.97 1316.44 1131.12C1317.68 1133.28 1320.26 1135.68 1324.03 1138.41C1327.73 1141.01 1330.66 1143.3 1332.71 1145.24C1334.66 1147.16 1336.26 1149.2 1337.51 1151.35C1338.65 1153.48 1339.44 1155.73 1339.65 1158.15C1339.96 1160.59 1339.79 1163.23 1339.02 1166.13C1337.54 1171.63 1334.63 1175.68 1330.32 1178.17C1326.01 1180.66 1320.74 1181.5 1314.58 1180.49L1312.03 1190L1304.33 1187.93L1306.87 1178.43C1300.56 1175.98 1296.17 1172.34 1293.81 1167.53C1291.36 1162.69 1291.05 1157.03 1292.77 1150.63L1304.57 1153.79C1303.47 1157.89 1303.74 1161.29 1305.13 1164.13C1306.64 1166.89 1309.22 1168.87 1313.02 1169.89C1316.72 1170.88 1319.77 1170.73 1322.25 1169.46C1324.63 1168.17 1326.28 1166.04 1327.08 1163.04Z" fill="#32C3EF"/>
<path d="M1249.48 996.626L1256.68 993.435L1250.9 980.378L1249.48 996.626ZM1263.63 990.358L1265.01 993.466L1261.64 994.956L1264.12 1000.55L1260.54 1002.14L1258.06 996.544L1247.23 1001.34L1245.86 998.23L1247.7 979.172L1253.51 976.597L1260.26 991.848L1263.63 990.358Z" fill="#32C3EF"/>
<path d="M1272.01 983.68C1271 979.699 1270.99 976.345 1271.98 973.619C1272.98 970.861 1274.87 969.131 1277.64 968.43C1280.45 967.716 1282.96 968.32 1285.15 970.24C1287.34 972.16 1288.95 975.124 1289.96 979.13C1290.96 983.085 1290.98 986.452 1290 989.23C1289.06 992.001 1287.13 993.753 1284.24 994.487C1281.47 995.188 1278.99 994.552 1276.78 992.58C1274.6 990.601 1273.01 987.635 1272.01 983.68ZM1275.55 975.354C1275.01 977.225 1275.12 979.673 1275.89 982.697C1276.65 985.721 1277.71 987.956 1279.07 989.4C1280.45 990.812 1281.87 991.332 1283.34 990.958C1284.95 990.552 1285.99 989.407 1286.48 987.524C1286.96 985.64 1286.82 983.173 1286.05 980.123C1285.27 977.047 1284.2 974.828 1282.83 973.468C1281.49 972.075 1280.06 971.572 1278.53 971.959C1277.08 972.326 1276.09 973.457 1275.55 975.354Z" fill="#32C3EF"/>
<path d="M1301.54 981.594L1301.19 978.252L1310.9 977.235L1311.25 980.577L1301.54 981.594Z" fill="#32C3EF"/>
<path d="M1327.72 966.351L1327.48 973.227C1328.47 973.049 1329.38 972.976 1330.21 973.005C1332.92 973.104 1335.03 973.901 1336.52 975.396C1338.02 976.864 1338.72 978.811 1338.63 981.236C1338.54 983.848 1337.6 985.908 1335.81 987.418C1334.05 988.902 1331.63 989.588 1328.57 989.477C1325.82 989.378 1323.57 988.843 1321.82 987.872L1321.96 984.074C1323.63 985.175 1325.66 985.769 1328.06 985.856C1332.27 986.009 1334.44 984.379 1334.56 980.968C1334.61 979.609 1334.17 978.539 1333.24 977.758C1332.33 976.952 1331.08 976.519 1329.48 976.462C1327.45 976.388 1325.44 976.782 1323.43 977.643L1323.97 962.813L1337.52 963.304L1337.4 966.702L1327.72 966.351Z" fill="#32C3EF"/>
<path d="M1357.71 969.35L1356.35 976.095C1357.36 976.08 1358.27 976.155 1359.08 976.318C1361.75 976.855 1363.69 977.982 1364.93 979.699C1366.16 981.389 1366.54 983.424 1366.06 985.803C1365.55 988.365 1364.29 990.246 1362.28 991.446C1360.3 992.626 1357.81 992.913 1354.8 992.307C1352.11 991.765 1349.97 990.873 1348.4 989.632L1349.15 985.907C1350.62 987.263 1352.53 988.178 1354.88 988.652C1359.01 989.484 1361.41 988.226 1362.09 984.88C1362.36 983.547 1362.09 982.42 1361.3 981.498C1360.54 980.556 1359.37 979.927 1357.8 979.611C1355.82 979.211 1353.76 979.273 1351.65 979.799L1354.58 965.251L1367.87 967.928L1367.2 971.261L1357.71 969.35Z" fill="#32C3EF"/>
<path d="M1380.16 998.776L1404.28 979.661L1407.7 981.138L1383.53 1000.24L1380.16 998.776ZM1393.32 997.453C1394.05 995.764 1395.28 994.579 1397 993.898C1398.72 993.193 1400.44 993.211 1402.16 993.951C1403.85 994.682 1405.03 995.918 1405.7 997.66C1406.38 999.378 1406.35 1001.08 1405.62 1002.77C1404.88 1004.48 1403.65 1005.68 1401.93 1006.36C1400.23 1007.02 1398.53 1006.98 1396.84 1006.25C1395.13 1005.51 1393.92 1004.29 1393.23 1002.6C1392.55 1000.88 1392.58 999.166 1393.32 997.453ZM1382.41 977.044C1383.14 975.355 1384.36 974.171 1386.08 973.49C1387.8 972.809 1389.5 972.834 1391.19 973.564C1392.9 974.305 1394.1 975.534 1394.78 977.252C1395.46 978.97 1395.44 980.673 1394.71 982.362C1393.96 984.075 1392.74 985.273 1391.02 985.953C1389.3 986.634 1387.58 986.604 1385.87 985.863C1384.18 985.133 1383 983.909 1382.32 982.191C1381.64 980.473 1381.67 978.758 1382.41 977.044ZM1385.45 978.362C1385.08 979.219 1385.06 980.08 1385.38 980.946C1385.73 981.822 1386.33 982.446 1387.19 982.816C1388.04 983.186 1388.91 983.198 1389.79 982.851C1390.66 982.503 1391.29 981.901 1391.66 981.045C1392.03 980.188 1392.03 979.334 1391.68 978.482C1391.33 977.605 1390.73 976.982 1389.87 976.611C1389.01 976.241 1388.15 976.229 1387.27 976.577C1386.42 976.935 1385.81 977.53 1385.45 978.362ZM1398.24 996.964C1397.36 997.312 1396.74 997.914 1396.37 998.77C1396 999.627 1395.99 1000.49 1396.34 1001.37C1396.68 1002.25 1397.29 1002.87 1398.14 1003.24C1399 1003.61 1399.85 1003.62 1400.71 1003.26C1401.58 1002.91 1402.21 1002.31 1402.58 1001.45C1402.95 1000.6 1402.96 999.73 1402.61 998.853C1402.29 997.987 1401.7 997.369 1400.84 996.999C1399.98 996.628 1399.12 996.617 1398.24 996.964Z" fill="#32C3EF"/>
<path d="M1256.84 1239.17L1255.66 1241.96C1255.04 1241.18 1254.43 1240.56 1253.83 1240.11C1253.27 1239.66 1252.48 1239.21 1251.46 1238.79C1249.6 1238 1247.78 1237.97 1245.99 1238.71C1244.22 1239.44 1242.9 1240.85 1242.02 1242.93C1241.12 1245.05 1241.03 1247 1241.73 1248.77C1242.43 1250.55 1243.8 1251.86 1245.82 1252.72C1247.61 1253.48 1249.31 1253.65 1250.91 1253.25L1249.7 1256.12C1248.23 1256.39 1246.49 1256.1 1244.46 1255.24C1241.68 1254.06 1239.78 1252.23 1238.74 1249.75C1237.71 1247.27 1237.81 1244.58 1239.04 1241.67C1240.23 1238.85 1242.09 1236.93 1244.6 1235.91C1247.14 1234.9 1249.77 1234.97 1252.49 1236.13C1254.48 1236.97 1255.93 1237.98 1256.84 1239.17Z" fill="#32C3EF"/>
<path d="M1279.2 1245.4L1282.19 1246.18L1277.04 1265.74L1274.06 1264.95L1276.31 1256.39L1267.52 1254.08L1265.27 1262.64L1262.28 1261.85L1267.42 1242.3L1270.41 1243.08L1268.2 1251.5L1276.99 1253.81L1279.2 1245.4Z" fill="#32C3EF"/>
<path d="M1294.66 1266.48L1303.17 1267.53L1302.86 1270.09L1291.28 1268.66L1293.75 1248.6L1305.19 1250.01L1304.87 1252.57L1296.5 1251.54L1295.74 1257.73L1303.15 1258.64L1302.84 1261.2L1295.42 1260.29L1294.66 1266.48Z" fill="#32C3EF"/>
<path d="M1320.35 1263.67L1326.83 1263.59L1326.49 1262.58C1325.7 1260.23 1325.06 1258.28 1324.56 1256.75C1324.06 1255.19 1323.76 1254.23 1323.65 1253.85L1323.5 1253.28C1323.29 1254.22 1322.34 1257.34 1320.67 1262.64L1320.35 1263.67ZM1329.35 1271.09L1327.7 1266.16L1319.54 1266.26L1317.98 1271.23L1314.71 1271.27L1321.46 1250.96L1325.51 1250.92L1332.65 1271.06L1329.35 1271.09Z" fill="#32C3EF"/>
<path d="M1347.32 1260.07L1349.93 1259.67C1351.37 1259.46 1352.42 1258.94 1353.06 1258.11C1353.72 1257.28 1353.97 1256.29 1353.79 1255.12C1353.61 1253.89 1353.08 1252.98 1352.2 1252.39C1351.32 1251.79 1350.15 1251.6 1348.69 1251.82L1346.14 1252.2L1347.32 1260.07ZM1342.7 1250.14L1348.43 1249.28C1350.72 1248.94 1352.63 1249.28 1354.16 1250.3C1355.69 1251.31 1356.59 1252.76 1356.88 1254.66C1357.16 1256.55 1356.71 1258.2 1355.53 1259.59C1354.36 1260.98 1352.7 1261.84 1350.54 1262.16L1347.7 1262.59L1348.76 1269.68L1345.71 1270.14L1342.7 1250.14Z" fill="#32C3EF"/>
<path d="M1373.73 1262.31L1381.99 1259.98L1382.69 1262.47L1371.46 1265.63L1365.97 1246.17L1377.06 1243.05L1377.76 1245.53L1369.64 1247.82L1371.34 1253.82L1378.53 1251.8L1379.23 1254.28L1372.04 1256.31L1373.73 1262.31Z" fill="#32C3EF"/>
<path d="M1391.17 1240.94L1394.07 1247.73L1396.63 1246.64C1397.81 1246.13 1398.57 1245.45 1398.92 1244.58C1399.26 1243.7 1399.21 1242.74 1398.77 1241.71C1397.8 1239.45 1396.08 1238.85 1393.6 1239.91L1391.17 1240.94ZM1404.91 1254.26L1397.53 1249.06L1395.08 1250.1L1398.09 1257.17L1395.25 1258.38L1387.31 1239.79L1392.5 1237.57C1394.63 1236.66 1396.5 1236.48 1398.11 1237.03C1399.71 1237.57 1400.89 1238.73 1401.65 1240.51C1402.19 1241.83 1402.33 1243.08 1402.08 1244.28C1401.82 1245.45 1401.21 1246.49 1400.24 1247.38L1408.3 1252.81L1404.91 1254.26Z" fill="#32C3EF"/>
</g>
<defs>
<clipPath id="clip0">
<rect width="2000" height="2000" fill="white"/>
</clipPath>
</defs>
</svg>
