<svg width="2000" height="2000" viewBox="0 0 2000 2000" fill="none" xmlns="http://www.w3.org/2000/svg">
<g clip-path="url(#clip0)">
<path d="M1286.19 1044.16H168.428V1198H1286.19V1044.16Z" fill="#32C3EF"/>
<path d="M260.316 991.17C259.663 998.094 257.054 1003.63 252.488 1007.51C247.922 1011.48 241.865 1013.42 234.317 1013.42C229.005 1013.42 224.346 1012.12 220.339 1009.63C216.332 1007.23 213.257 1003.63 211.021 999.109C208.877 994.586 207.759 989.232 207.666 983.232V977.047C207.666 970.863 208.784 965.417 210.927 960.709C213.164 956.001 216.332 952.309 220.526 949.817C224.626 947.232 229.471 945.94 234.876 945.94C242.145 945.94 248.015 947.97 252.488 951.847C256.961 955.817 259.57 961.355 260.316 968.555H248.854C248.295 963.847 246.897 960.432 244.661 958.309C242.424 956.278 239.163 955.17 234.876 955.17C229.844 955.17 226.024 957.017 223.321 960.617C220.619 964.217 219.221 969.57 219.221 976.586V982.401C219.221 989.509 220.526 994.863 223.042 998.647C225.651 1002.34 229.378 1004.19 234.317 1004.19C238.79 1004.19 242.238 1003.17 244.474 1001.14C246.804 999.201 248.202 995.786 248.854 991.17H260.316Z" fill="#00B1E7"/>
<path d="M298.88 1012.49C298.414 1011.57 298.041 1010 297.668 1007.97C294.127 1011.57 289.841 1013.42 284.716 1013.42C279.777 1013.42 275.77 1012.03 272.602 1009.17C269.527 1006.4 267.942 1002.99 267.942 998.832C267.942 993.663 269.899 989.694 273.813 986.832C277.727 984.063 283.225 982.678 290.493 982.678H297.296V979.54C297.296 976.955 296.55 974.924 295.152 973.447C293.755 971.878 291.518 971.14 288.63 971.14C286.114 971.14 284.063 971.786 282.479 973.078C280.802 974.278 280.056 975.847 280.056 977.786H268.967C268.967 975.109 269.899 972.617 271.67 970.309C273.44 967.909 275.863 966.155 278.938 964.77C282.013 963.478 285.461 962.832 289.282 962.832C295.059 962.832 299.625 964.217 303.073 967.17C306.521 970.032 308.292 974.001 308.385 979.263V1001.23C308.385 1005.57 308.944 1009.08 310.248 1011.76V1012.49H298.88ZM286.766 1004.65C289.002 1004.65 291.052 1004.09 292.916 1002.99C294.873 1001.97 296.271 1000.59 297.296 998.832V989.601H291.332C287.232 989.601 284.157 990.34 282.107 991.724C280.056 993.109 279.031 995.14 279.031 997.724C279.031 999.847 279.684 1001.51 281.081 1002.71C282.479 1004 284.436 1004.65 286.766 1004.65Z" fill="#00B1E7"/>
<path d="M331.685 943.263H320.596V1012.49H331.685V943.263Z" fill="#00B1E7"/>
<path d="M355.481 943.263H344.392V1012.49H355.481V943.263Z" fill="#00B1E7"/>
<path d="M444.412 1012.49H432.951V983.325H403.318V1012.49H391.763V946.864H403.318V974.187H432.951V946.864H444.412V1012.49Z" fill="#00B1E7"/>
<path d="M453.869 987.663C453.869 982.863 454.801 978.617 456.665 974.74C458.622 970.955 461.324 968.001 464.772 965.878C468.22 963.847 472.227 962.832 476.7 962.832C483.316 962.832 488.72 964.955 492.821 969.201C497.014 973.447 499.25 979.078 499.53 986.001L499.623 988.586C499.623 993.386 498.691 997.724 496.828 1001.51C494.964 1005.29 492.261 1008.25 488.814 1010.28C485.366 1012.4 481.266 1013.42 476.793 1013.42C469.804 1013.42 464.213 1011.11 460.113 1006.49C455.919 1001.97 453.869 995.786 453.869 988.217V987.663ZM464.865 988.586C464.865 993.663 465.89 997.54 468.033 1000.4C470.083 1003.26 473.065 1004.65 476.793 1004.65C480.52 1004.65 483.409 1003.17 485.459 1000.31C487.509 997.447 488.627 993.201 488.627 987.663C488.627 982.77 487.509 978.801 485.366 975.94C483.222 973.078 480.334 971.601 476.7 971.601C473.065 971.601 470.177 973.078 468.033 975.847C465.983 978.709 464.865 982.955 464.865 988.586Z" fill="#00B1E7"/>
<path d="M518.662 963.755L519.035 968.832C522.483 964.863 527.235 962.832 533.199 962.832C539.815 962.832 544.288 965.324 546.711 970.309C550.345 965.324 555.377 962.832 561.807 962.832C567.305 962.832 571.312 964.309 573.921 967.263C576.623 970.217 577.928 974.647 578.021 980.463V1012.49H566.932V980.74C566.932 977.694 566.28 975.386 564.882 974.001C563.577 972.524 561.341 971.786 558.172 971.786C555.656 971.786 553.606 972.432 552.022 973.817C550.345 975.109 549.227 976.863 548.668 979.078V1012.49H537.579V980.371C537.485 974.647 534.503 971.786 528.726 971.786C524.346 971.786 521.178 973.54 519.314 977.14V1012.49H508.318V963.755H518.662Z" fill="#00B1E7"/>
<path d="M609.717 1013.42C602.728 1013.42 597.044 1011.2 592.757 1006.86C588.378 1002.43 586.234 996.617 586.234 989.417V988.032C586.234 983.14 587.166 978.801 589.03 975.017C590.894 971.14 593.596 968.186 597.044 966.063C600.492 963.847 604.312 962.832 608.506 962.832C615.215 962.832 620.34 964.955 624.068 969.201C627.702 973.447 629.472 979.447 629.472 987.201V991.54H597.323C597.696 995.601 599.001 998.832 601.424 1001.14C603.753 1003.45 606.828 1004.65 610.369 1004.65C615.495 1004.65 619.595 1002.62 622.763 998.555L628.727 1004.19C626.77 1007.14 624.161 1009.36 620.806 1011.02C617.545 1012.59 613.817 1013.42 609.717 1013.42ZM608.412 971.601C605.431 971.601 602.915 972.709 601.051 974.74C599.187 976.863 598.069 979.817 597.51 983.601H618.57V982.77C618.383 979.078 617.358 976.309 615.588 974.463C613.91 972.524 611.488 971.601 608.412 971.601Z" fill="#00B1E7"/>
<path d="M1829.92 662.005H168.389V815.852H1829.92V662.005Z" fill="#FF4E87"/>
<path d="M241.605 613.446C241.605 610.584 240.58 608.369 238.53 606.8C236.48 605.23 232.753 603.661 227.441 602C222.13 600.43 217.843 598.676 214.675 596.738C208.618 592.953 205.636 588.061 205.636 582.061C205.636 576.707 207.779 572.369 212.159 568.953C216.539 565.538 222.223 563.784 229.119 563.784C233.778 563.784 237.878 564.615 241.419 566.369C245.053 568.03 247.942 570.43 249.992 573.569C252.042 576.615 253.067 580.123 253.067 583.907H241.605C241.605 580.4 240.487 577.723 238.344 575.784C236.201 573.846 233.032 572.923 229.025 572.923C225.298 572.923 222.316 573.753 220.266 575.323C218.216 576.892 217.191 579.107 217.191 581.969C217.191 584.369 218.309 586.4 220.546 587.969C222.782 589.63 226.509 591.2 231.635 592.676C236.76 594.153 240.953 595.907 244.028 597.846C247.197 599.784 249.433 602 250.924 604.492C252.415 607.076 253.067 609.938 253.067 613.353C253.067 618.8 251.017 623.138 246.731 626.369C242.537 629.6 236.76 631.261 229.491 631.261C224.739 631.261 220.359 630.338 216.352 628.584C212.252 626.83 209.177 624.43 206.941 621.292C204.704 618.246 203.586 614.646 203.586 610.492H215.141C215.141 614.276 216.352 617.138 218.868 619.169C221.291 621.2 224.925 622.215 229.491 622.215C233.498 622.215 236.573 621.384 238.53 619.815C240.58 618.246 241.605 616.123 241.605 613.446Z" fill="#FF6697"/>
<path d="M276.596 569.692V581.6H285.356V589.723H276.596V616.861C276.596 618.8 276.969 620.092 277.714 620.923C278.46 621.753 279.858 622.215 281.721 622.215C283.026 622.215 284.331 622.03 285.635 621.753V630.246C283.119 630.892 280.696 631.261 278.367 631.261C269.794 631.261 265.6 626.553 265.6 617.323V589.723H257.493V581.6H265.6V569.692H276.596Z" fill="#FF6697"/>
<path d="M322.776 630.339C322.31 629.416 321.938 627.847 321.565 625.816C318.024 629.416 313.737 631.262 308.612 631.262C303.673 631.262 299.666 629.877 296.498 627.016C293.423 624.247 291.839 620.831 291.839 616.677C291.839 611.508 293.796 607.539 297.71 604.677C301.623 601.908 307.121 600.523 314.39 600.523H321.192V597.385C321.192 594.8 320.447 592.77 319.049 591.293C317.651 589.723 315.415 588.985 312.526 588.985C310.01 588.985 307.96 589.631 306.376 590.923C304.698 592.123 303.953 593.693 303.953 595.631H292.864C292.864 592.954 293.796 590.462 295.566 588.154C297.337 585.754 299.76 584 302.835 582.616C305.91 581.323 309.358 580.677 313.178 580.677C318.956 580.677 323.522 582.062 326.97 585.016C330.418 587.877 332.188 591.846 332.281 597.108V619.077C332.281 623.416 332.84 626.923 334.145 629.6V630.339H322.776ZM310.662 622.493C312.899 622.493 314.949 621.939 316.812 620.831C318.769 619.816 320.167 618.431 321.192 616.677V607.447H315.228C311.128 607.447 308.053 608.185 306.003 609.57C303.953 610.954 302.928 612.985 302.928 615.57C302.928 617.693 303.58 619.354 304.978 620.554C306.376 621.847 308.333 622.493 310.662 622.493Z" fill="#FF6697"/>
<path d="M354.09 581.6L354.37 587.231C358.004 582.893 362.849 580.677 368.72 580.677C378.971 580.677 384.189 586.493 384.375 598.123V630.339H373.286V598.77C373.286 595.631 372.634 593.323 371.329 591.846C369.932 590.37 367.788 589.631 364.713 589.631C360.24 589.631 356.886 591.662 354.742 595.631V630.339H343.653V581.6H354.09Z" fill="#FF6697"/>
<path d="M393.608 605.599C393.608 598.123 395.286 592.03 398.827 587.507C402.368 582.984 407.12 580.676 412.991 580.676C418.209 580.676 422.403 582.43 425.664 586.123V561.107H436.66V630.338H426.689L426.13 625.261C422.869 629.23 418.396 631.261 412.898 631.261C407.12 631.261 402.461 628.953 398.92 624.338C395.379 619.723 393.608 613.538 393.608 605.599ZM404.604 606.523C404.604 611.507 405.629 615.384 407.493 618.153C409.45 620.923 412.152 622.307 415.693 622.307C420.259 622.307 423.521 620.276 425.664 616.307V595.538C423.614 591.569 420.353 589.63 415.786 589.63C412.245 589.63 409.45 591.015 407.493 593.876C405.629 596.646 404.604 600.892 404.604 606.523Z" fill="#FF6697"/>
<path d="M477.145 630.339C476.68 629.416 476.307 627.847 475.934 625.816C472.393 629.416 468.107 631.262 462.981 631.262C458.043 631.262 454.036 629.877 450.867 627.016C447.792 624.247 446.208 620.831 446.208 616.677C446.208 611.508 448.165 607.539 452.079 604.677C455.992 601.908 461.49 600.523 468.759 600.523H475.561V597.385C475.561 594.8 474.816 592.77 473.418 591.293C472.02 589.723 469.784 588.985 466.895 588.985C464.379 588.985 462.329 589.631 460.745 590.923C459.068 592.123 458.322 593.693 458.322 595.631H447.233C447.233 592.954 448.165 590.462 449.935 588.154C451.706 585.754 454.129 584 457.204 582.616C460.279 581.323 463.727 580.677 467.547 580.677C473.325 580.677 477.891 582.062 481.339 585.016C484.787 587.877 486.557 591.846 486.65 597.108V619.077C486.65 623.416 487.209 626.923 488.514 629.6V630.339H477.145ZM465.031 622.493C467.268 622.493 469.318 621.939 471.182 620.831C473.139 619.816 474.536 618.431 475.561 616.677V607.447H469.597C465.497 607.447 462.422 608.185 460.372 609.57C458.322 610.954 457.297 612.985 457.297 615.57C457.297 617.693 457.949 619.354 459.347 620.554C460.745 621.847 462.702 622.493 465.031 622.493Z" fill="#FF6697"/>
<path d="M523.926 591.57C522.528 591.293 521.037 591.2 519.453 591.2C514.421 591.2 510.973 593.139 509.203 597.016V630.339H498.207V581.6H508.737L509.017 587.046C511.626 582.8 515.353 580.677 520.106 580.677C521.69 580.677 522.994 580.862 524.019 581.323L523.926 591.57Z" fill="#FF6697"/>
<path d="M528.824 605.599C528.824 598.123 530.502 592.03 534.043 587.507C537.584 582.984 542.336 580.676 548.207 580.676C553.425 580.676 557.618 582.43 560.88 586.123V561.107H571.876V630.338H561.905L561.346 625.261C558.084 629.23 553.611 631.261 548.114 631.261C542.336 631.261 537.677 628.953 534.136 624.338C530.595 619.723 528.824 613.538 528.824 605.599ZM539.82 606.523C539.82 611.507 540.845 615.384 542.709 618.153C544.666 620.923 547.368 622.307 550.909 622.307C555.475 622.307 558.737 620.276 560.88 616.307V595.538C558.83 591.569 555.568 589.63 551.002 589.63C547.461 589.63 544.666 591.015 542.709 593.876C540.845 596.646 539.82 600.892 539.82 606.523Z" fill="#FF6697"/>
<path d="M626.899 622.493C629.602 622.493 631.931 621.662 633.795 620.093C635.565 618.523 636.59 616.585 636.684 614.185H647.12C646.934 617.231 646.002 620.093 644.232 622.677C642.461 625.354 640.038 627.385 636.963 628.954C633.888 630.431 630.533 631.262 626.992 631.262C620.097 631.262 614.692 629.047 610.685 624.616C606.585 620.185 604.628 614.093 604.628 606.339V605.231C604.628 597.754 606.585 591.846 610.592 587.323C614.599 582.893 620.097 580.677 626.992 580.677C632.863 580.677 637.615 582.339 641.25 585.754C644.977 589.077 646.934 593.6 647.12 599.047H636.684C636.59 596.277 635.565 593.97 633.795 592.123C631.931 590.37 629.695 589.446 626.899 589.446C623.265 589.446 620.563 590.739 618.606 593.323C616.649 595.908 615.717 599.785 615.624 605.047V606.8C615.624 612.062 616.649 616.031 618.513 618.616C620.469 621.2 623.265 622.493 626.899 622.493Z" fill="#FF6697"/>
<path d="M684.435 630.339C683.969 629.416 683.596 627.847 683.223 625.816C679.682 629.416 675.396 631.262 670.27 631.262C665.332 631.262 661.325 629.877 658.156 627.016C655.081 624.247 653.497 620.831 653.497 616.677C653.497 611.508 655.454 607.539 659.368 604.677C663.282 601.908 668.779 600.523 676.048 600.523H682.85V597.385C682.85 594.8 682.105 592.77 680.707 591.293C679.309 589.723 677.073 588.985 674.184 588.985C671.668 588.985 669.618 589.631 668.034 590.923C666.357 592.123 665.611 593.693 665.611 595.631H654.522C654.522 592.954 655.454 590.462 657.224 588.154C658.995 585.754 661.418 584 664.493 582.616C667.568 581.323 671.016 580.677 674.837 580.677C680.614 580.677 685.18 582.062 688.628 585.016C692.076 587.877 693.846 591.846 693.94 597.108V619.077C693.94 623.416 694.499 626.923 695.803 629.6V630.339H684.435ZM672.321 622.493C674.557 622.493 676.607 621.939 678.471 620.831C680.428 619.816 681.825 618.431 682.85 616.677V607.447H676.887C672.786 607.447 669.711 608.185 667.661 609.57C665.611 610.954 664.586 612.985 664.586 615.57C664.586 617.693 665.238 619.354 666.636 620.554C668.034 621.847 669.991 622.493 672.321 622.493Z" fill="#FF6697"/>
<path d="M716.029 561.107H704.939V630.338H716.029V561.107Z" fill="#FF6697"/>
<path d="M739.824 561.107H728.735V630.338H739.824V561.107Z" fill="#FF6697"/>
<path d="M763.65 630.339H752.56V581.6H763.65V630.339ZM751.908 568.862C751.908 567.2 752.467 565.816 753.492 564.708C754.611 563.6 756.102 563.046 758.152 563.046C760.109 563.046 761.693 563.6 762.811 564.708C763.836 565.816 764.395 567.2 764.395 568.862C764.395 570.523 763.836 571.908 762.811 573.016C761.693 574.123 760.109 574.677 758.152 574.677C756.102 574.677 754.611 574.123 753.492 573.016C752.467 571.908 751.908 570.523 751.908 568.862Z" fill="#FF6697"/>
<path d="M785.911 581.6L786.191 587.231C789.825 582.893 794.671 580.677 800.541 580.677C810.792 580.677 816.01 586.493 816.197 598.123V630.339H805.108V598.77C805.108 595.631 804.455 593.323 803.151 591.846C801.753 590.37 799.61 589.631 796.534 589.631C792.062 589.631 788.707 591.662 786.564 595.631V630.339H775.475V581.6H785.911Z" fill="#FF6697"/>
<path d="M825.553 605.6C825.553 598.031 827.323 591.939 830.957 587.416C834.499 582.893 839.344 580.677 845.215 580.677C850.899 580.677 855.279 582.616 858.54 586.493L859.006 581.6H868.977V628.862C868.977 635.231 866.927 640.308 862.92 644C858.913 647.693 853.508 649.539 846.706 649.539C843.072 649.539 839.531 648.8 836.083 647.323C832.635 645.847 830.026 643.908 828.255 641.508L833.473 634.862C836.828 638.923 841.021 640.862 846.053 640.862C849.688 640.862 852.576 639.939 854.72 637.908C856.863 635.97 857.888 633.108 857.888 629.231V626C854.72 629.508 850.433 631.262 845.122 631.262C839.437 631.262 834.685 628.954 831.051 624.431C827.416 619.908 825.553 613.631 825.553 605.6ZM836.549 606.523C836.549 611.416 837.574 615.293 839.624 618.062C841.581 620.923 844.376 622.308 848.01 622.308C852.483 622.308 855.745 620.462 857.888 616.677V595.17C855.838 591.477 852.576 589.631 848.104 589.631C844.469 589.631 841.581 591.108 839.624 593.877C837.574 596.739 836.549 600.985 836.549 606.523Z" fill="#FF6697"/>
<path d="M929.265 591.57C927.867 591.293 926.376 591.2 924.792 591.2C919.76 591.2 916.312 593.139 914.542 597.016V630.339H903.546V581.6H914.076L914.355 587.046C916.965 582.8 920.692 580.677 925.444 580.677C927.029 580.677 928.333 580.862 929.358 581.323L929.265 591.57Z" fill="#FF6697"/>
<path d="M965.631 630.339C965.165 629.416 964.792 627.847 964.419 625.816C960.878 629.416 956.592 631.262 951.467 631.262C946.528 631.262 942.521 629.877 939.353 627.016C936.278 624.247 934.693 620.831 934.693 616.677C934.693 611.508 936.65 607.539 940.564 604.677C944.478 601.908 949.976 600.523 957.244 600.523H964.047V597.385C964.047 594.8 963.301 592.77 961.903 591.293C960.506 589.723 958.269 588.985 955.38 588.985C952.864 588.985 950.814 589.631 949.23 590.923C947.553 592.123 946.807 593.693 946.807 595.631H935.718C935.718 592.954 936.65 590.462 938.421 588.154C940.191 585.754 942.614 584 945.689 582.616C948.764 581.323 952.212 580.677 956.033 580.677C961.81 580.677 966.376 582.062 969.824 585.016C973.272 587.877 975.043 591.846 975.136 597.108V619.077C975.136 623.416 975.695 626.923 976.999 629.6V630.339H965.631ZM953.517 622.493C955.753 622.493 957.803 621.939 959.667 620.831C961.624 619.816 963.022 618.431 964.047 616.677V607.447H958.083C953.983 607.447 950.908 608.185 948.857 609.57C946.807 610.954 945.782 612.985 945.782 615.57C945.782 617.693 946.435 619.354 947.832 620.554C949.23 621.847 951.187 622.493 953.517 622.493Z" fill="#FF6697"/>
<path d="M1000.25 569.692V581.6H1009.01V589.723H1000.25V616.861C1000.25 618.8 1000.63 620.092 1001.37 620.923C1002.12 621.753 1003.51 622.215 1005.38 622.215C1006.68 622.215 1007.99 622.03 1009.29 621.753V630.246C1006.78 630.892 1004.35 631.261 1002.02 631.261C993.451 631.261 989.257 626.553 989.257 617.323V589.723H981.15V581.6H989.257V569.692H1000.25Z" fill="#FF6697"/>
<path d="M1038.57 631.262C1031.58 631.262 1025.89 629.047 1021.61 624.708C1017.23 620.277 1015.08 614.462 1015.08 607.262V605.877C1015.08 600.985 1016.02 596.647 1017.88 592.862C1019.74 588.985 1022.45 586.031 1025.89 583.908C1029.34 581.693 1033.16 580.677 1037.36 580.677C1044.07 580.677 1049.19 582.8 1052.92 587.046C1056.55 591.293 1058.32 597.293 1058.32 605.047V609.385H1026.17C1026.55 613.447 1027.85 616.677 1030.27 618.985C1032.6 621.293 1035.68 622.493 1039.22 622.493C1044.35 622.493 1048.45 620.462 1051.61 616.4L1057.58 622.031C1055.62 624.985 1053.01 627.2 1049.66 628.862C1046.4 630.431 1042.67 631.262 1038.57 631.262ZM1037.26 589.446C1034.28 589.446 1031.77 590.554 1029.9 592.585C1028.04 594.708 1026.92 597.662 1026.36 601.447H1047.42V600.616C1047.23 596.923 1046.21 594.154 1044.44 592.308C1042.76 590.37 1040.34 589.446 1037.26 589.446Z" fill="#FF6697"/>
<path d="M1093.92 617.047C1093.92 615.108 1093.08 613.631 1091.49 612.616C1089.82 611.6 1087.21 610.677 1083.39 609.939C1079.66 609.108 1076.49 608.185 1073.98 606.985C1068.48 604.308 1065.68 600.431 1065.68 595.447C1065.68 591.2 1067.45 587.693 1071.09 584.923C1074.63 582.062 1079.19 580.677 1084.69 580.677C1090.56 580.677 1095.32 582.154 1098.95 585.016C1102.58 587.877 1104.45 591.662 1104.45 596.185H1093.36C1093.36 594.154 1092.61 592.4 1091.03 590.923C1089.44 589.539 1087.3 588.893 1084.69 588.893C1082.27 588.893 1080.31 589.446 1078.82 590.554C1077.24 591.662 1076.49 593.139 1076.49 594.985C1076.49 596.647 1077.24 598.031 1078.64 598.954C1080.03 599.877 1082.92 600.8 1087.3 601.723C1091.59 602.647 1095.04 603.847 1097.46 605.139C1099.97 606.431 1101.75 608 1102.96 609.847C1104.17 611.693 1104.82 613.908 1104.82 616.493C1104.82 620.923 1102.96 624.431 1099.32 627.2C1095.6 629.877 1090.84 631.262 1084.88 631.262C1080.78 631.262 1077.24 630.524 1074.07 629.047C1070.9 627.662 1068.48 625.631 1066.71 623.139C1064.94 620.647 1064.1 617.877 1064.1 614.923H1074.81C1074.91 617.508 1075.93 619.539 1077.8 620.923C1079.57 622.308 1081.99 623.047 1084.97 623.047C1087.86 623.047 1090.1 622.493 1091.68 621.385C1093.17 620.277 1093.92 618.893 1093.92 617.047Z" fill="#FF6697"/>
<path d="M1240.12 1588.1C1239.6 1593.64 1237.51 1598.07 1233.86 1601.17C1230.21 1604.35 1225.36 1605.9 1219.32 1605.9C1215.08 1605.9 1211.35 1604.86 1208.14 1602.87C1204.94 1600.95 1202.48 1598.07 1200.69 1594.45C1198.97 1590.83 1198.08 1586.55 1198 1581.75V1576.8C1198 1571.85 1198.9 1567.5 1200.61 1563.73C1202.4 1559.97 1204.94 1557.01 1208.29 1555.02C1211.57 1552.95 1215.45 1551.92 1219.77 1551.92C1225.59 1551.92 1230.28 1553.54 1233.86 1556.64C1237.44 1559.82 1239.53 1564.25 1240.12 1570.01H1230.95C1230.51 1566.24 1229.39 1563.51 1227.6 1561.81C1225.81 1560.19 1223.2 1559.3 1219.77 1559.3C1215.75 1559.3 1212.69 1560.78 1210.53 1563.66C1208.37 1566.54 1207.25 1570.82 1207.25 1576.43V1581.09C1207.25 1586.77 1208.29 1591.05 1210.3 1594.08C1212.39 1597.04 1215.37 1598.51 1219.32 1598.51C1222.9 1598.51 1225.66 1597.7 1227.45 1596.08C1229.31 1594.53 1230.43 1591.79 1230.95 1588.1H1240.12Z" fill="#6D9EAC"/>
<path d="M1289.35 1580.27C1289.35 1585.44 1288.46 1589.95 1286.67 1593.79C1284.8 1597.7 1282.27 1600.65 1278.91 1602.8C1275.56 1604.86 1271.76 1605.9 1267.43 1605.9C1263.11 1605.9 1259.31 1604.86 1255.95 1602.8C1252.6 1600.65 1249.99 1597.7 1248.13 1593.86C1246.34 1590.02 1245.37 1585.59 1245.37 1580.57V1577.61C1245.37 1572.52 1246.26 1567.94 1248.13 1564.03C1249.91 1560.11 1252.52 1557.16 1255.88 1555.09C1259.16 1552.95 1263.04 1551.92 1267.36 1551.92C1271.68 1551.92 1275.48 1552.95 1278.84 1555.02C1282.19 1557.09 1284.73 1560.04 1286.59 1563.88C1288.38 1567.72 1289.28 1572.22 1289.35 1577.39V1580.27ZM1280.11 1577.54C1280.11 1571.71 1278.99 1567.28 1276.75 1564.17C1274.59 1561.07 1271.38 1559.52 1267.36 1559.52C1263.33 1559.52 1260.28 1561.07 1257.97 1564.17C1255.73 1567.2 1254.61 1571.63 1254.54 1577.25V1580.27C1254.54 1586.03 1255.73 1590.54 1257.97 1593.64C1260.2 1596.81 1263.41 1598.37 1267.43 1598.37C1271.46 1598.37 1274.59 1596.81 1276.83 1593.79C1278.99 1590.69 1280.11 1586.18 1280.11 1580.27V1577.54Z" fill="#6D9EAC"/>
<path d="M1323.86 1591.65C1323.86 1589.36 1323.04 1587.58 1321.4 1586.33C1319.76 1585.07 1316.78 1583.82 1312.53 1582.49C1308.28 1581.23 1304.85 1579.83 1302.32 1578.28C1297.47 1575.25 1295.09 1571.34 1295.09 1566.54C1295.09 1562.25 1296.8 1558.78 1300.3 1556.05C1303.81 1553.32 1308.35 1551.92 1313.87 1551.92C1317.6 1551.92 1320.88 1552.58 1323.71 1553.98C1326.62 1555.31 1328.93 1557.23 1330.57 1559.74C1332.21 1562.18 1333.03 1564.99 1333.03 1568.01H1323.86C1323.86 1565.21 1322.97 1563.07 1321.25 1561.52C1319.54 1559.97 1317 1559.23 1313.8 1559.23C1310.81 1559.23 1308.43 1559.89 1306.79 1561.15C1305.15 1562.4 1304.33 1564.17 1304.33 1566.46C1304.33 1568.38 1305.22 1570.01 1307.01 1571.26C1308.8 1572.59 1311.78 1573.85 1315.88 1575.03C1319.98 1576.21 1323.34 1577.61 1325.8 1579.17C1328.33 1580.72 1330.12 1582.49 1331.32 1584.48C1332.51 1586.55 1333.03 1588.84 1333.03 1591.57C1333.03 1595.93 1331.39 1599.4 1327.96 1601.98C1324.61 1604.57 1319.98 1605.9 1314.17 1605.9C1310.37 1605.9 1306.86 1605.16 1303.66 1603.76C1300.38 1602.35 1297.92 1600.43 1296.13 1597.92C1294.34 1595.49 1293.45 1592.61 1293.45 1589.28H1302.69C1302.69 1592.31 1303.66 1594.6 1305.67 1596.22C1307.61 1597.85 1310.52 1598.66 1314.17 1598.66C1317.38 1598.66 1319.84 1598 1321.4 1596.74C1323.04 1595.49 1323.86 1593.79 1323.86 1591.65Z" fill="#6D9EAC"/>
<path d="M1379.03 1560.04H1362.48V1605.16H1353.39V1560.04H1336.99V1552.65H1379.03V1560.04Z" fill="#6D9EAC"/>
<path d="M1447.46 1580.27C1447.46 1585.44 1446.57 1589.95 1444.78 1593.79C1442.91 1597.7 1440.38 1600.65 1437.03 1602.8C1433.67 1604.86 1429.87 1605.9 1425.54 1605.9C1421.22 1605.9 1417.42 1604.86 1414.06 1602.8C1410.71 1600.65 1408.1 1597.7 1406.24 1593.86C1404.45 1590.02 1403.48 1585.59 1403.48 1580.57V1577.61C1403.48 1572.52 1404.37 1567.94 1406.24 1564.03C1408.03 1560.11 1410.64 1557.16 1413.99 1555.09C1417.27 1552.95 1421.15 1551.92 1425.47 1551.92C1429.79 1551.92 1433.6 1552.95 1436.95 1555.02C1440.31 1557.09 1442.84 1560.04 1444.7 1563.88C1446.49 1567.72 1447.39 1572.22 1447.46 1577.39V1580.27ZM1438.22 1577.54C1438.22 1571.71 1437.1 1567.28 1434.86 1564.17C1432.7 1561.07 1429.5 1559.52 1425.47 1559.52C1421.44 1559.52 1418.39 1561.07 1416.08 1564.17C1413.84 1567.2 1412.72 1571.63 1412.65 1577.25V1580.27C1412.65 1586.03 1413.84 1590.54 1416.08 1593.64C1418.31 1596.81 1421.52 1598.37 1425.54 1598.37C1429.57 1598.37 1432.7 1596.81 1434.94 1593.79C1437.1 1590.69 1438.22 1586.18 1438.22 1580.27V1577.54Z" fill="#6D9EAC"/>
<path d="M1484.66 1582.93H1463.34V1605.16H1454.09V1552.65H1487.79V1560.04H1463.34V1575.62H1484.66V1582.93Z" fill="#6D9EAC"/>
<path d="M1558.26 1588.1C1557.74 1593.64 1555.65 1598.07 1552 1601.17C1548.35 1604.35 1543.5 1605.9 1537.46 1605.9C1533.21 1605.9 1529.49 1604.86 1526.28 1602.87C1523.08 1600.95 1520.62 1598.07 1518.83 1594.45C1517.11 1590.83 1516.22 1586.55 1516.14 1581.75V1576.8C1516.14 1571.85 1517.04 1567.5 1518.75 1563.73C1520.54 1559.97 1523.08 1557.01 1526.43 1555.02C1529.71 1552.95 1533.59 1551.92 1537.91 1551.92C1543.73 1551.92 1548.42 1553.54 1552 1556.64C1555.58 1559.82 1557.67 1564.25 1558.26 1570.01H1549.09C1548.65 1566.24 1547.53 1563.51 1545.74 1561.81C1543.95 1560.19 1541.34 1559.3 1537.91 1559.3C1533.89 1559.3 1530.83 1560.78 1528.67 1563.66C1526.5 1566.54 1525.39 1570.82 1525.39 1576.43V1581.09C1525.39 1586.77 1526.43 1591.05 1528.44 1594.08C1530.53 1597.04 1533.51 1598.51 1537.46 1598.51C1541.04 1598.51 1543.8 1597.7 1545.59 1596.08C1547.45 1594.53 1548.57 1591.79 1549.09 1588.1H1558.26Z" fill="#6D9EAC"/>
<path d="M1593.92 1592.9H1573.42L1569.09 1605.16H1559.55L1579.53 1552.65H1587.81L1607.86 1605.16H1598.24L1593.92 1592.9ZM1575.95 1585.59H1591.38L1583.71 1563.81L1575.95 1585.59Z" fill="#6D9EAC"/>
<path d="M1622.4 1597.85H1646.47V1605.16H1613.15V1552.65H1622.4V1597.85Z" fill="#6D9EAC"/>
<path d="M1661.95 1597.85H1686.03V1605.16H1652.71V1552.65H1661.95V1597.85Z" fill="#6D9EAC"/>
<path d="M1718.27 1591.65C1718.27 1589.36 1717.45 1587.58 1715.81 1586.33C1714.17 1585.07 1711.19 1583.82 1706.94 1582.49C1702.69 1581.23 1699.26 1579.83 1696.73 1578.28C1691.88 1575.25 1689.5 1571.34 1689.5 1566.54C1689.5 1562.25 1691.21 1558.78 1694.71 1556.05C1698.22 1553.32 1702.77 1551.92 1708.28 1551.92C1712.01 1551.92 1715.29 1552.58 1718.12 1553.98C1721.03 1555.31 1723.34 1557.23 1724.98 1559.74C1726.62 1562.18 1727.44 1564.99 1727.44 1568.01H1718.27C1718.27 1565.21 1717.38 1563.07 1715.66 1561.52C1713.95 1559.97 1711.41 1559.23 1708.21 1559.23C1705.23 1559.23 1702.84 1559.89 1701.2 1561.15C1699.56 1562.4 1698.74 1564.17 1698.74 1566.46C1698.74 1568.38 1699.64 1570.01 1701.42 1571.26C1703.21 1572.59 1706.2 1573.85 1710.3 1575.03C1714.4 1576.21 1717.75 1577.61 1720.21 1579.17C1722.74 1580.72 1724.53 1582.49 1725.73 1584.48C1726.92 1586.55 1727.44 1588.84 1727.44 1591.57C1727.44 1595.93 1725.8 1599.4 1722.37 1601.98C1719.02 1604.57 1714.4 1605.9 1708.58 1605.9C1704.78 1605.9 1701.28 1605.16 1698.07 1603.76C1694.79 1602.35 1692.33 1600.43 1690.54 1597.92C1688.75 1595.49 1687.86 1592.61 1687.86 1589.28H1697.1C1697.1 1592.31 1698.07 1594.6 1700.08 1596.22C1702.02 1597.85 1704.93 1598.66 1708.58 1598.66C1711.79 1598.66 1714.25 1598 1715.81 1596.74C1717.45 1595.49 1718.27 1593.79 1718.27 1591.65Z" fill="#6D9EAC"/>
<path d="M1748.43 1583.82C1748.43 1578.28 1749.18 1572.96 1750.67 1568.01C1752.16 1562.99 1754.39 1558.56 1757.3 1554.65C1760.21 1550.66 1763.27 1547.93 1766.55 1546.38L1768.26 1551.47C1764.83 1554.06 1762.07 1557.97 1759.99 1563.21C1757.82 1568.53 1756.71 1574.59 1756.48 1581.38L1756.41 1584.48C1756.41 1591.72 1757.45 1598.22 1759.54 1603.98C1761.63 1609.66 1764.53 1614.02 1768.26 1616.97L1766.55 1621.85C1763.27 1620.3 1760.21 1617.49 1757.23 1613.58C1754.32 1609.59 1752.16 1605.16 1750.67 1600.14C1749.18 1595.19 1748.43 1589.73 1748.43 1583.82Z" fill="#6D9EAC"/>
<path d="M1797.04 1591.42C1797.04 1589.43 1796.37 1587.73 1795.11 1586.4C1793.76 1585.07 1791.6 1583.89 1788.54 1582.78C1785.49 1581.75 1783.1 1580.72 1781.39 1579.83C1775.72 1576.8 1772.89 1572.37 1772.89 1566.46C1772.89 1562.48 1774.16 1559.23 1776.54 1556.64C1779 1554.06 1782.36 1552.51 1786.53 1552.06V1544.16H1792.35V1552.14C1796.6 1552.73 1799.88 1554.5 1802.19 1557.45C1804.5 1560.41 1805.62 1564.17 1805.62 1568.9H1796.82C1796.82 1565.87 1796.15 1563.51 1794.73 1561.74C1793.39 1560.04 1791.53 1559.15 1789.14 1559.15C1786.83 1559.15 1785.04 1559.74 1783.7 1561C1782.43 1562.25 1781.76 1564.1 1781.76 1566.39C1781.76 1568.46 1782.43 1570.16 1783.7 1571.41C1784.97 1572.67 1787.2 1573.85 1790.33 1575.03C1793.39 1576.14 1795.85 1577.17 1797.64 1578.13C1799.35 1579.09 1800.85 1580.2 1802.11 1581.45C1803.31 1582.71 1804.27 1584.11 1804.87 1585.74C1805.54 1587.36 1805.91 1589.21 1805.91 1591.35C1805.91 1595.41 1804.65 1598.73 1802.11 1601.25C1799.58 1603.76 1796.07 1605.31 1791.6 1605.75V1612.77H1785.86V1605.75C1781.02 1605.23 1777.29 1603.53 1774.75 1600.65C1772.14 1597.77 1770.88 1593.93 1770.88 1589.21H1779.67C1779.67 1592.24 1780.49 1594.53 1781.98 1596.22C1783.55 1597.85 1785.71 1598.73 1788.54 1598.73C1791.3 1598.73 1793.39 1598.07 1794.88 1596.74C1796.3 1595.41 1797.04 1593.64 1797.04 1591.42Z" fill="#6D9EAC"/>
<path d="M1828.71 1584.41C1828.71 1589.73 1827.97 1594.89 1826.48 1599.84C1824.99 1604.79 1822.75 1609.29 1819.69 1613.43C1816.71 1617.49 1813.58 1620.3 1810.3 1621.85L1808.59 1616.97C1812.17 1614.17 1815.07 1609.96 1817.16 1604.2C1819.32 1598.44 1820.37 1591.94 1820.37 1584.56V1583.74C1820.37 1577.02 1819.47 1570.97 1817.61 1565.5C1815.74 1559.97 1813.13 1555.61 1809.71 1552.29L1808.59 1551.25L1810.3 1546.38C1813.43 1547.85 1816.41 1550.51 1819.32 1554.28C1822.23 1558.05 1824.47 1562.33 1826.03 1567.05C1827.6 1571.71 1828.42 1576.58 1828.64 1581.6L1828.71 1584.41Z" fill="#6D9EAC"/>
<path d="M1830.64 1510.34H162.116V1516.5H1830.64V1510.34Z" fill="#6C9DAC"/>
<path d="M163.046 535.94L162.247 1513.42L167.996 1513.43L168.795 535.945L163.046 535.94Z" fill="#6C9DAC"/>
<path fill-rule="evenodd" clip-rule="evenodd" d="M1331.82 1126.78V1149.84L1303.09 1121.07L1331.82 1092.28V1115.34H1496.6V1126.78H1331.82Z" fill="#32C3EF"/>
<path fill-rule="evenodd" clip-rule="evenodd" d="M1801.95 1126.78V1149.84L1830.68 1121.07L1801.95 1092.28V1115.34H1637.17V1126.78H1801.95Z" fill="#32C3EF"/>
<path d="M1537.65 1230.26C1597.95 1246.42 1659.94 1210.63 1676.1 1150.33C1692.25 1090.02 1656.47 1028.04 1596.16 1011.88C1535.86 995.723 1473.88 1031.51 1457.72 1091.81C1441.56 1152.12 1477.35 1214.1 1537.65 1230.26Z" fill="#FFE667"/>
<path fill-rule="evenodd" clip-rule="evenodd" d="M1596.16 1011.88C1656.41 1028.02 1692.21 1090.06 1676.07 1150.32C1659.92 1210.58 1597.9 1246.4 1537.65 1230.26C1477.38 1214.11 1441.57 1152.07 1457.72 1091.81C1473.87 1031.55 1535.9 995.732 1596.16 1011.88ZM1594.39 1018.49C1651 1033.66 1684.68 1091.95 1669.51 1148.56C1654.34 1205.18 1596.03 1238.81 1539.42 1223.64C1482.81 1208.47 1449.16 1150.2 1464.33 1093.58C1479.5 1036.97 1537.78 1003.32 1594.39 1018.49Z" fill="#32C3EF"/>
<path fill-rule="evenodd" clip-rule="evenodd" d="M1592.17 1026.69C1644.24 1040.64 1675.18 1094.25 1661.23 1146.33C1647.27 1198.41 1593.67 1229.37 1541.6 1215.42C1489.52 1201.46 1458.57 1147.85 1472.52 1095.77C1486.48 1043.69 1540.09 1012.73 1592.17 1026.69ZM1591.38 1029.67C1641.82 1043.18 1671.82 1095.11 1658.3 1145.55C1644.79 1195.99 1592.85 1225.96 1542.4 1212.45C1491.96 1198.93 1461.98 1147.01 1475.49 1096.56C1489.01 1046.12 1540.93 1016.15 1591.38 1029.67Z" fill="#32C3EF"/>
<path d="M1507.62 1102.73C1506.72 1102.52 1505.94 1102.64 1505.28 1103.17C1504.62 1103.71 1503.85 1104.71 1502.92 1106.22C1502.01 1107.68 1501.18 1108.91 1500.44 1109.8C1497.99 1112.74 1495.37 1113.88 1492.53 1113.21C1491.13 1112.88 1489.97 1112.18 1489.09 1111.09C1488.21 1110 1487.63 1108.6 1487.38 1106.93C1487.17 1105.27 1487.25 1103.49 1487.7 1101.6C1488.14 1099.75 1488.86 1098.16 1489.9 1096.84C1490.89 1095.54 1492.1 1094.6 1493.51 1094.09C1494.89 1093.54 1496.39 1093.48 1497.93 1093.84L1496.46 1100.04C1495.42 1099.8 1494.55 1099.93 1493.82 1100.45C1493.1 1100.93 1492.6 1101.73 1492.34 1102.86C1492.08 1103.94 1492.08 1104.9 1492.43 1105.64C1492.75 1106.4 1493.32 1106.88 1494.03 1107.05C1494.72 1107.22 1495.38 1106.99 1496.08 1106.43C1496.79 1105.83 1497.62 1104.73 1498.62 1103.09C1499.63 1101.41 1500.58 1100.1 1501.5 1099.1C1503.74 1096.72 1506.27 1095.82 1509.07 1096.49C1511.3 1097.02 1512.85 1098.31 1513.74 1100.32C1514.6 1102.28 1514.68 1104.8 1513.99 1107.73C1513.49 1109.84 1512.64 1111.63 1511.52 1113.16C1510.36 1114.69 1509.05 1115.72 1507.56 1116.24C1506.06 1116.81 1504.45 1116.88 1502.8 1116.49L1504.28 1110.25C1505.64 1110.58 1506.74 1110.45 1507.56 1109.88C1508.37 1109.35 1508.96 1108.26 1509.35 1106.63C1509.59 1105.62 1509.57 1104.77 1509.28 1104.05C1508.95 1103.36 1508.41 1102.92 1507.62 1102.73Z" fill="#32C3EF"/>
<path d="M1526.85 1076.38L1520.77 1082.69L1523.25 1087.2L1518.52 1092.11L1506.33 1066.92L1510.49 1062.6L1536.2 1073.74L1531.45 1078.68L1526.85 1076.38ZM1518.32 1078.21L1522.28 1074.1L1513.72 1069.84L1518.32 1078.21Z" fill="#32C3EF"/>
<path d="M1548.2 1061.9L1547.4 1042.08L1554.22 1039.91L1553.66 1067.64L1547.02 1069.76L1530.63 1047.42L1537.35 1045.29L1548.2 1061.9Z" fill="#32C3EF"/>
<path d="M1578.31 1040.63L1571.97 1039.98L1569.29 1066.1L1575.63 1066.75L1578.31 1040.63Z" fill="#32C3EF"/>
<path d="M1604.65 1079.65L1599.21 1076.4L1599.52 1057.57L1591.15 1071.58L1585.68 1068.31L1599.15 1045.78L1604.62 1049.05L1604.31 1067.87L1612.68 1053.87L1618.12 1057.12L1604.65 1079.65Z" fill="#32C3EF"/>
<path d="M1623.08 1102.38C1621.65 1102.02 1620.18 1101.22 1618.67 1099.89C1617.16 1098.56 1615.87 1096.93 1614.76 1094.95C1613.06 1091.93 1612.64 1089 1613.45 1086.15C1614.27 1083.3 1616.26 1080.9 1619.46 1078.97L1621.44 1077.82C1623.69 1076.55 1625.87 1075.84 1628 1075.71C1630.17 1075.57 1632.09 1075.98 1633.83 1076.97C1635.57 1077.96 1637.01 1079.46 1638.11 1081.41C1639.73 1084.3 1640.35 1086.91 1639.92 1089.24C1639.53 1091.56 1638.07 1093.57 1635.64 1095.28L1632.63 1089.91C1633.81 1089 1634.49 1088.1 1634.68 1087.14C1634.88 1086.22 1634.62 1085.16 1633.97 1083.99C1633.18 1082.59 1632 1081.85 1630.42 1081.75C1628.79 1081.64 1626.9 1082.19 1624.71 1083.42L1623.33 1084.2C1621.04 1085.48 1619.55 1086.83 1618.86 1088.24C1618.14 1089.67 1618.27 1091.27 1619.22 1092.96C1620.03 1094.39 1620.97 1095.31 1622 1095.63L1625.54 1093.64L1623.37 1089.77L1627.16 1087.64L1632.48 1097.1L1623.08 1102.38Z" fill="#32C3EF"/>
<path d="M1628.75 1125.31C1629.67 1125.31 1630.41 1125.01 1630.93 1124.34C1631.45 1123.67 1631.97 1122.52 1632.53 1120.84C1633.08 1119.2 1633.6 1117.82 1634.12 1116.78C1635.83 1113.36 1638.12 1111.64 1641.04 1111.65C1642.48 1111.65 1643.77 1112.07 1644.87 1112.93C1645.98 1113.78 1646.86 1115.02 1647.49 1116.58C1648.08 1118.15 1648.41 1119.9 1648.4 1121.84C1648.4 1123.74 1648.06 1125.46 1647.36 1126.98C1646.69 1128.47 1645.73 1129.66 1644.47 1130.48C1643.25 1131.34 1641.81 1131.74 1640.22 1131.74L1640.23 1125.37C1641.31 1125.37 1642.12 1125.03 1642.71 1124.36C1643.3 1123.73 1643.6 1122.84 1643.6 1121.68C1643.6 1120.56 1643.38 1119.63 1642.87 1119C1642.39 1118.33 1641.73 1117.99 1640.99 1117.99C1640.29 1117.99 1639.69 1118.36 1639.14 1119.06C1638.58 1119.81 1638.03 1121.08 1637.43 1122.9C1636.84 1124.76 1636.21 1126.25 1635.54 1127.44C1633.91 1130.27 1631.66 1131.72 1628.78 1131.72C1626.49 1131.71 1624.68 1130.82 1623.35 1129.06C1622.06 1127.34 1621.4 1124.92 1621.41 1121.9C1621.41 1119.74 1621.82 1117.8 1622.57 1116.05C1623.35 1114.3 1624.38 1113 1625.71 1112.14C1627.04 1111.25 1628.6 1110.81 1630.29 1110.81L1630.28 1117.22C1628.88 1117.22 1627.84 1117.59 1627.18 1118.33C1626.51 1119.04 1626.18 1120.23 1626.17 1121.91C1626.17 1122.95 1626.39 1123.77 1626.83 1124.41C1627.31 1125.01 1627.94 1125.3 1628.75 1125.31Z" fill="#32C3EF"/>
<path d="M1624.45 1147.33L1626.32 1142.74L1643.24 1148.79L1640.78 1154.83L1624.45 1147.33ZM1621.53 1139.74C1622.35 1140.08 1622.9 1140.67 1623.18 1141.46C1623.47 1142.31 1623.4 1143.16 1623.04 1144.06C1622.67 1144.96 1622.14 1145.59 1621.34 1145.98C1620.58 1146.36 1619.77 1146.39 1618.95 1146.06C1618.13 1145.73 1617.58 1145.14 1617.27 1144.33C1617.01 1143.5 1617.03 1142.66 1617.39 1141.76C1617.76 1140.86 1618.34 1140.22 1619.11 1139.8C1619.9 1139.44 1620.71 1139.41 1621.53 1139.74Z" fill="#32C3EF"/>
<path d="M1568.08 1163.04C1568.81 1160.34 1568.52 1157.79 1567.3 1155.54C1565.98 1153.25 1563.51 1150.87 1559.81 1148.27C1556.08 1145.77 1553.26 1143.52 1551.28 1141.7C1544.77 1135.56 1542.58 1128.54 1544.73 1120.53C1546.17 1115.13 1549.05 1111.18 1553.19 1108.54C1557.43 1105.92 1562.5 1105.03 1568.26 1105.93L1571.13 1095.22L1578.94 1097.31L1576.04 1108.12C1581.53 1110.45 1585.29 1114.03 1587.32 1118.86C1589.35 1123.69 1589.48 1129.2 1587.76 1135.6L1575.96 1132.44C1577.06 1128.34 1577.01 1124.89 1575.76 1121.98C1574.57 1119.2 1572.39 1117.33 1569.19 1116.47C1566.09 1115.64 1563.47 1115.8 1561.22 1117.01C1559.06 1118.26 1557.49 1120.52 1556.66 1123.62C1555.91 1126.42 1556.19 1128.97 1557.44 1131.12C1558.68 1133.28 1561.25 1135.68 1565.03 1138.41C1568.73 1141.01 1571.65 1143.3 1573.71 1145.24C1575.66 1147.16 1577.26 1149.2 1578.5 1151.35C1579.65 1153.48 1580.44 1155.73 1580.65 1158.15C1580.96 1160.59 1580.79 1163.23 1580.01 1166.13C1578.54 1171.63 1575.63 1175.68 1571.32 1178.17C1567.01 1180.66 1561.74 1181.5 1555.58 1180.49L1553.03 1190L1545.32 1187.93L1547.87 1178.43C1541.56 1175.98 1537.17 1172.34 1534.81 1167.53C1532.36 1162.69 1532.05 1157.03 1533.77 1150.62L1545.57 1153.79C1544.47 1157.89 1544.74 1161.29 1546.13 1164.12C1547.64 1166.89 1550.22 1168.87 1554.02 1169.89C1557.72 1170.88 1560.77 1170.73 1563.25 1169.46C1565.63 1168.17 1567.28 1166.04 1568.08 1163.04Z" fill="#32C3EF"/>
</g>
<defs>
<clipPath id="clip0">
<rect width="2000" height="2000" fill="white"/>
</clipPath>
</defs>
</svg>
