<svg width="2000" height="2000" viewBox="0 0 2000 2000" fill="none" xmlns="http://www.w3.org/2000/svg">
<g clip-path="url(#clip0)">
<path fill-rule="evenodd" clip-rule="evenodd" d="M1258.46 986.422C1263.19 991.738 1270.09 1000.39 1269.71 1015.14C1269.29 1031.17 1261.79 1041.1 1256.52 1048.45C1251.89 1054.91 1253.38 1063.9 1259.83 1068.53C1266.28 1073.16 1275.28 1071.67 1279.91 1065.22C1287.65 1054.41 1297.86 1039.47 1298.47 1015.9C1299.12 991.025 1287.94 976.274 1279.98 967.315C1274.71 961.376 1265.61 960.835 1259.67 966.11C1253.73 971.381 1253.19 980.483 1258.46 986.422Z" fill="#C2F1FF"/>
<path fill-rule="evenodd" clip-rule="evenodd" d="M1302.48 934.91C1317.65 959.887 1323.59 983.106 1324.54 1008.96C1325.62 1038.17 1318.87 1070.94 1302.9 1095.6C1298.59 1102.27 1300.5 1111.18 1307.16 1115.5C1313.83 1119.82 1322.74 1117.91 1327.06 1111.24C1346.12 1081.8 1354.58 1042.78 1353.3 1007.9C1352.17 977.199 1345.09 949.639 1327.07 919.972C1322.95 913.184 1314.09 911.022 1307.31 915.142C1300.52 919.269 1298.36 928.122 1302.48 934.91Z" fill="#C2F1FF"/>
<path fill-rule="evenodd" clip-rule="evenodd" d="M1346.73 891.325C1394.66 965.236 1397.53 1063.57 1346.12 1141.89C1341.76 1148.53 1343.62 1157.46 1350.25 1161.81C1356.89 1166.17 1365.82 1164.32 1370.18 1157.68C1428.04 1069.53 1424.82 958.86 1370.88 875.664C1366.56 869 1357.64 867.103 1350.98 871.417C1344.32 875.741 1342.41 884.661 1346.73 891.325Z" fill="#C2F1FF"/>
<path fill-rule="evenodd" clip-rule="evenodd" d="M509.916 986.422C514.638 991.739 521.543 1000.39 521.157 1015.14C520.738 1031.17 513.238 1041.1 507.972 1048.45C503.343 1054.91 504.828 1063.9 511.283 1068.53C517.736 1073.16 526.732 1071.67 531.36 1065.22C539.104 1054.41 549.307 1039.47 549.923 1015.9C550.575 991.025 539.392 976.274 531.434 967.315C526.161 961.376 517.061 960.835 511.121 966.11C505.184 971.381 504.644 980.484 509.916 986.422Z" fill="#C2F1FF"/>
<path fill-rule="evenodd" clip-rule="evenodd" d="M553.93 934.91C569.1 959.887 575.045 983.105 575.993 1008.96C577.069 1038.17 570.32 1070.94 554.353 1095.6C550.04 1102.27 551.949 1111.18 558.611 1115.5C565.278 1119.82 574.195 1117.91 578.509 1111.24C597.571 1081.8 606.035 1042.78 604.75 1007.9C603.626 977.198 596.539 949.639 578.525 919.972C574.403 913.184 565.545 911.022 558.759 915.142C551.969 919.268 549.808 928.122 553.93 934.91Z" fill="#C2F1FF"/>
<path fill-rule="evenodd" clip-rule="evenodd" d="M598.183 891.324C646.114 965.236 648.983 1063.57 597.575 1141.89C593.214 1148.53 595.067 1157.46 601.706 1161.81C608.345 1166.17 617.271 1164.32 621.632 1157.68C679.491 1069.53 676.274 958.859 622.332 875.663C618.012 868.999 609.091 867.102 602.432 871.417C595.767 875.74 593.863 884.66 598.183 891.324Z" fill="#C2F1FF"/>
<path fill-rule="evenodd" clip-rule="evenodd" d="M1876.14 1131C1881.52 1149.31 1877.96 1169.09 1866.52 1184.37C1855.07 1199.66 1837.09 1208.69 1818.01 1208.69H1589.8C1570.72 1208.69 1552.74 1199.66 1541.29 1184.37C1529.85 1169.09 1526.29 1149.31 1531.67 1131C1546.39 1080.92 1564.84 1018.19 1576.24 979.424C1582.52 958.01 1602.19 943.323 1624.52 943.323H1783.29C1805.62 943.323 1825.29 958.01 1831.57 979.424C1842.97 1018.19 1861.43 1080.92 1876.14 1131Z" fill="#FF6B9B"/>
<path fill-rule="evenodd" clip-rule="evenodd" d="M1865.94 1185.18C1864.23 1187.38 1862.4 1189.44 1860.45 1191.34L1548.26 1192.19C1546.25 1190.28 1544.34 1188.24 1542.59 1186.05L1865.94 1185.18Z" fill="#FFF0F5"/>
<path fill-rule="evenodd" clip-rule="evenodd" d="M1548.87 1072.58L1576.25 979.453C1582.54 958.038 1602.21 943.33 1624.53 943.33C1668.18 943.33 1739.67 943.33 1783.31 943.33C1800.38 943.33 1815.87 951.915 1825.05 965.53L1548.87 1072.58Z" fill="#E5689B"/>
<path fill-rule="evenodd" clip-rule="evenodd" d="M1844.12 823.911C1841.22 809.749 1745.87 788.331 1657.64 805.938C1574.09 822.63 1483.31 883.216 1486.22 897.378L1488.5 908.487C1491.4 922.649 1507.27 931.383 1523.72 928.007C1523.72 928.007 1591.55 884.841 1670.46 868.384C1757.15 850.312 1821.72 866.837 1821.72 866.837C1838.34 863.425 1849.31 849.182 1846.4 835.02L1844.12 823.911Z" fill="#FF6B9B"/>
<path fill-rule="evenodd" clip-rule="evenodd" d="M1802.24 919.089C1791.91 918.475 1782.64 912.218 1778.16 902.792C1774.09 894.072 1772.15 884.308 1772.75 874.088C1774.71 841.137 1803.03 815.977 1835.97 817.933C1868.91 819.89 1894.05 848.227 1892.09 881.178C1891.48 891.398 1888.4 900.864 1883.32 909.01C1877.76 917.84 1867.97 922.934 1857.48 922.311C1842.27 921.467 1817.6 920.001 1802.24 919.089Z" fill="#FF6B9B"/>
<path fill-rule="evenodd" clip-rule="evenodd" d="M1778.61 903.727L1883.2 909.296C1881.77 911.511 1880.06 913.48 1878.13 915.188L1783.13 910.142C1781.37 908.25 1779.83 906.096 1778.61 903.727Z" fill="#FFF0F5"/>
<path fill-rule="evenodd" clip-rule="evenodd" d="M1517.59 990.537C1508.2 995.239 1496.87 994.45 1488.29 988.388C1480.81 982.913 1474.41 975.663 1469.96 966.781C1455.39 937.681 1467.17 902.238 1496.26 887.672C1525.34 873.107 1560.78 884.906 1575.35 914.006C1579.8 922.888 1581.9 932.293 1581.66 941.596C1581.36 952.073 1575.34 961.549 1565.95 966.252C1552.54 973.032 1531.02 983.809 1517.59 990.537Z" fill="#FF6B9B"/>
<path fill-rule="evenodd" clip-rule="evenodd" d="M1581.61 942.695C1581.43 945.357 1580.89 947.941 1580.01 950.372L1496.15 992.249C1493.69 991.465 1491.3 990.342 1489.1 988.88L1581.61 942.695Z" fill="#FFF0F5"/>
<path fill-rule="evenodd" clip-rule="evenodd" d="M1894.47 816.322C1897.82 817.331 1902.93 819.171 1906.57 825.444C1910.52 832.257 1909.94 838.346 1909.63 842.775C1909.36 846.668 1912.29 850.05 1916.19 850.322C1920.08 850.598 1923.46 847.661 1923.73 843.768C1924.19 837.255 1924.61 828.377 1918.8 818.354C1912.67 807.78 1904.19 804.488 1898.56 802.788C1894.82 801.661 1890.88 803.778 1889.75 807.514C1888.62 811.248 1890.74 815.195 1894.47 816.322Z" fill="#82E2FF"/>
<path fill-rule="evenodd" clip-rule="evenodd" d="M1898.95 788.047C1912.39 792.248 1923.08 798.143 1928.9 807.712C1936.14 819.597 1940.7 836.347 1936.55 850.346C1935.44 854.088 1937.58 858.026 1941.32 859.132C1945.06 860.242 1948.99 858.103 1950.1 854.365C1955.35 836.662 1950.13 815.386 1940.98 800.36C1933.54 788.137 1920.34 779.92 1903.17 774.555C1899.45 773.391 1895.48 775.465 1894.32 779.189C1893.15 782.913 1895.23 786.883 1898.95 788.047Z" fill="#82E2FF"/>
<path fill-rule="evenodd" clip-rule="evenodd" d="M1758.79 1078.06C1758.84 1078.98 1758.86 1079.91 1758.86 1080.84C1758.86 1111.18 1734.23 1135.81 1703.9 1135.81C1673.56 1135.81 1648.93 1111.18 1648.93 1080.84C1648.93 1079.91 1648.95 1078.98 1649 1078.06H1671.24C1671.16 1078.98 1671.12 1079.9 1671.12 1080.84C1671.12 1098.93 1685.8 1113.62 1703.9 1113.62C1721.99 1113.62 1736.67 1098.93 1736.67 1080.84C1736.67 1079.9 1736.63 1078.98 1736.55 1078.06H1758.79Z" fill="#FFF0F5"/>
<path d="M1743.19 1047.6C1751.87 1047.6 1758.9 1040.56 1758.9 1031.89C1758.9 1023.22 1751.87 1016.19 1743.19 1016.19C1734.52 1016.19 1727.49 1023.22 1727.49 1031.89C1727.49 1040.56 1734.52 1047.6 1743.19 1047.6Z" fill="#FFF0F5"/>
<path d="M1664.67 1047.6C1673.34 1047.6 1680.38 1040.56 1680.38 1031.89C1680.38 1023.22 1673.34 1016.19 1664.67 1016.19C1656 1016.19 1648.96 1023.22 1648.96 1031.89C1648.96 1040.56 1656 1047.6 1664.67 1047.6Z" fill="#FFF0F5"/>
<path d="M813.555 951.465L780.5 960.322L783.809 996.847L763.211 1002.37L754.884 910.606L811.867 895.337L813.393 912.379L777.131 922.095L778.974 943.281L812.029 934.424L813.555 951.465Z" fill="#00ACE2"/>
<path d="M873.173 939.722L861.702 942.795L864.57 975.208L843.973 980.727L835.646 888.967L866.637 880.795C876.504 878.151 884.746 878.322 891.429 881.555C897.989 884.821 902.141 890.45 903.673 898.633C904.988 905.022 904.559 910.822 902.476 915.874C900.36 920.804 896.688 925.357 891.552 929.377L912.779 961.233L913.043 962.22L891.089 968.103L873.173 939.722ZM860.053 925.787L872.174 922.672C875.504 921.78 878.109 920.156 880.146 917.892C882.06 915.66 883.192 912.978 883.575 909.967C883.802 906.865 883.445 904.053 882.257 901.595C880.328 897.353 876.863 895.77 871.863 896.845L857.892 900.456L860.053 925.787Z" fill="#00ACE2"/>
<path d="M985.289 903.069L953.097 911.695L954.982 933.531L993.095 923.319L994.62 940.36L935.91 956.092L927.583 864.331L986.417 848.567L987.942 865.608L949.83 875.82L951.457 895.214L983.772 886.555L985.289 903.069Z" fill="#00ACE2"/>
<path d="M1069.47 880.513L1037.28 889.139L1039.17 910.975L1077.28 900.762L1078.8 917.803L1020.09 933.535L1011.77 841.775L1070.6 826.01L1072.13 843.052L1034.01 853.264L1035.64 872.657L1067.96 863.998L1069.47 880.513Z" fill="#00ACE2"/>
<path d="M802.937 1133.95C803.973 1140.28 803.453 1146.23 801.289 1151.97C798.968 1157.61 795.395 1162.54 790.292 1166.68C785.313 1170.79 779.476 1173.68 772.783 1175.34C763.466 1177.57 755.519 1176.53 748.695 1172.27C741.995 1167.99 736.952 1161.01 733.972 1151.37C731.85 1144.93 730.583 1137.73 730.384 1129.59C730.029 1121.36 731.204 1113.9 733.754 1107.14C736.181 1100.41 739.867 1094.93 744.534 1090.63C749.324 1086.31 754.881 1083.37 761.451 1081.74C771.105 1079.29 779.389 1080.11 786.459 1084.29C793.497 1088.36 798.63 1095.18 801.644 1104.94L781.136 1110.31C779.838 1104.97 777.827 1101.41 775.226 1099.6C772.534 1097.94 769.12 1097.53 764.647 1098.6C753.817 1101.1 749.404 1111.27 751.687 1129.17C752.659 1137.24 753.653 1142.92 754.545 1146.25C756.942 1156.18 761.998 1160.25 769.464 1158.51C774.464 1157.44 777.957 1155.18 780.223 1151.8C782.399 1148.57 783.291 1144.5 782.898 1139.58L802.937 1133.95Z" fill="#00ACE2"/>
<path d="M873.671 1129.4L845.673 1136.9L842.298 1155.39L819.603 1161.47L842.605 1061.32L861.969 1056.13L901.625 1139.49L880.287 1145.21L873.671 1129.4ZM849.081 1118.54L867.212 1113.68L855.292 1084.49L849.081 1118.54Z" fill="#00ACE2"/>
<path d="M942.066 1111.21L977.712 1101.66L979.361 1118.66L922.994 1133.77L914.667 1042.01L935.388 1036.45L942.066 1111.21Z" fill="#00ACE2"/>
<path d="M1020.82 1090.11L1056.46 1080.55L1058.11 1097.56L1001.75 1112.67L993.419 1020.91L1014.14 1015.35L1020.82 1090.11Z" fill="#00ACE2"/>
<path d="M1120.03 1055.59C1119.67 1050.8 1116.24 1047.88 1109.79 1046.97L1098.83 1045.54C1083.36 1043.07 1074.42 1036.35 1072.29 1025.42C1071.21 1020.42 1071.78 1015.64 1073.84 1010.99C1075.9 1006.34 1079.39 1002.1 1084.26 998.55C1089.12 994.999 1094.78 992.426 1101.31 990.674C1110.01 988.607 1117.7 989.19 1124.33 992.703C1130.83 996.249 1135.17 1002.09 1137.36 1010.23L1116.88 1015.72C1116.11 1012.35 1114.64 1009.84 1112.51 1008.3C1110.47 1006.6 1107.62 1006.3 1104.13 1007.11C1100.68 1008.03 1097.79 1009.6 1095.54 1012.05C1093.38 1014.35 1092.4 1017.12 1092.67 1020.09C1092.99 1024.24 1096.84 1026.77 1104.32 1027.54C1111.67 1028.35 1117.2 1029.25 1120.78 1030.27C1131.92 1033.37 1138.44 1039.95 1140.44 1049.86C1141.55 1054.98 1141.01 1059.88 1139.2 1064.47C1137.26 1069.08 1133.98 1073.14 1129.37 1076.62C1124.75 1080.1 1119.09 1082.68 1112.64 1084.27C1107.83 1085.56 1103.32 1085.98 1098.85 1085.59C1094.42 1085.32 1090.4 1084.15 1086.72 1082.23C1079.46 1078.36 1074.74 1072.09 1072.61 1063.14L1093.37 1057.71C1094.31 1062.22 1096.1 1065.44 1098.67 1067.13C1101.14 1068.98 1104.77 1069.2 1109.46 1067.94C1112.91 1067.02 1115.55 1065.52 1117.46 1063.28C1119.38 1061.05 1120.14 1058.47 1120.03 1055.59Z" fill="#00ACE2"/>
<path d="M1183.19 1034.3L1167.16 1038.6L1158.86 976.574L1179.96 970.923L1183.19 1034.3ZM1165.83 1059.31C1165.04 1056.35 1165.36 1053.62 1166.9 1050.96C1168.47 1048.43 1170.88 1046.59 1173.97 1045.76C1177.05 1044.94 1179.9 1045.23 1182.5 1046.52C1185 1047.96 1186.74 1050.01 1187.46 1052.72C1188.41 1055.77 1188.09 1058.5 1186.55 1061.16C1184.86 1063.73 1182.54 1065.41 1179.45 1066.24C1176.37 1067.07 1173.67 1066.86 1171.08 1065.57C1168.45 1064.16 1166.71 1062.12 1165.83 1059.31Z" fill="#00ACE2"/>
<path fill-rule="evenodd" clip-rule="evenodd" d="M416.939 723.425C416.939 708.894 405.143 697.111 390.625 697.111H130.41C115.891 697.111 104.096 708.894 104.096 723.425L104.096 1282.09C104.096 1296.61 115.891 1308.4 130.41 1308.4H390.625C405.143 1308.4 416.939 1296.61 416.939 1282.09L416.939 723.425Z" fill="white"/>
<path fill-rule="evenodd" clip-rule="evenodd" d="M439.31 723.425C439.31 696.548 417.496 674.737 390.625 674.737H130.41C103.546 674.737 81.7324 696.548 81.7324 723.425L81.7324 1282.09C81.7324 1308.96 103.546 1330.78 130.41 1330.78H390.625C417.496 1330.78 439.31 1308.96 439.31 1282.09L439.31 723.425ZM416.939 723.425C416.939 708.894 405.143 697.111 390.625 697.111H130.41C115.891 697.111 104.096 708.894 104.096 723.425L104.096 1282.09C104.096 1296.61 115.891 1308.4 130.41 1308.4H390.625C405.143 1308.4 416.939 1296.61 416.939 1282.09L416.939 723.425Z" fill="#00C4FF"/>
<path d="M424.416 1258.68H96.6348V1308.41H424.416V1258.68Z" fill="#00C4FF"/>
<path fill-rule="evenodd" clip-rule="evenodd" d="M298.008 1294.56C298.008 1287.66 292.394 1282.04 285.484 1282.04H235.573C228.663 1282.04 223.055 1287.66 223.055 1294.56C223.055 1301.47 228.663 1307.09 235.573 1307.09H285.484C292.394 1307.09 298.008 1301.47 298.008 1294.56ZM293.413 1294.56C293.413 1298.94 289.863 1302.5 285.484 1302.5H235.573C231.199 1302.5 227.644 1298.94 227.644 1294.56C227.644 1290.19 231.199 1286.64 235.573 1286.64H285.484C289.863 1286.64 293.413 1290.19 293.413 1294.56Z" fill="white"/>
<path d="M424.412 695.013H96.6309V727.307H424.412V695.013Z" fill="#00C4FF"/>
<path d="M213.315 706.02C215.896 706.02 217.987 703.927 217.987 701.347C217.987 698.766 215.896 696.674 213.315 696.674C210.734 696.674 208.643 698.766 208.643 701.347C208.643 703.927 210.734 706.02 213.315 706.02Z" fill="white"/>
<path fill-rule="evenodd" clip-rule="evenodd" d="M227.7 706.027H312.357C314.935 706.027 317.03 703.932 317.03 701.354C317.03 698.769 314.935 696.682 312.357 696.682H227.7C225.115 696.682 223.027 698.769 223.027 701.354C223.027 703.932 225.115 706.027 227.7 706.027Z" fill="white"/>
<path fill-rule="evenodd" clip-rule="evenodd" d="M353.064 998.366C353.143 999.929 353.183 1001.49 353.183 1003.07C353.183 1054.23 311.636 1095.77 260.475 1095.77C209.314 1095.77 167.768 1054.23 167.768 1003.07C167.768 1001.49 167.807 999.929 167.887 998.366H205.394C205.261 999.916 205.195 1001.48 205.195 1003.07C205.195 1033.57 229.961 1058.35 260.475 1058.35C290.989 1058.35 315.756 1033.57 315.756 1003.07C315.756 1001.48 315.689 999.916 315.556 998.366H353.064Z" fill="#FF97B9"/>
<path d="M326.751 962.723C341.381 962.723 353.24 950.864 353.24 936.234C353.24 921.605 341.381 909.746 326.751 909.746C312.122 909.746 300.264 921.605 300.264 936.234C300.264 950.864 312.122 962.723 326.751 962.723Z" fill="#FF97B9"/>
<path d="M194.312 962.723C208.941 962.723 220.801 950.864 220.801 936.234C220.801 921.605 208.941 909.746 194.312 909.746C179.683 909.746 167.824 921.605 167.824 936.234C167.824 950.864 179.683 962.723 194.312 962.723Z" fill="#FF97B9"/>
</g>
<defs>
<clipPath id="clip0">
<rect width="2000" height="2000" fill="white"/>
</clipPath>
</defs>
</svg>
