<svg width="3029" height="2000" viewBox="0 0 3029 2000" fill="none" xmlns="http://www.w3.org/2000/svg">
<g clip-path="url(#clip0)">
<path d="M242.293 1166.42C319.549 1166.42 382.178 1103.79 382.178 1026.54C382.178 949.281 319.549 886.652 242.293 886.652C165.037 886.652 102.408 949.281 102.408 1026.54C102.408 1103.79 165.037 1166.42 242.293 1166.42Z" fill="#EADDFF"/>
<path d="M440.453 1069.48C517.709 1069.48 580.338 1006.85 580.338 929.596C580.338 852.339 517.709 789.71 440.453 789.71C363.197 789.71 300.568 852.339 300.568 929.596C300.568 1006.85 363.197 1069.48 440.453 1069.48Z" fill="#EADDFF"/>
<path d="M601.895 1198.01C679.151 1198.01 741.779 1135.38 741.779 1058.13C741.779 980.871 679.151 918.242 601.895 918.242C524.638 918.242 462.01 980.871 462.01 1058.13C462.01 1135.38 524.638 1198.01 601.895 1198.01Z" fill="#EADDFF"/>
<path fill-rule="evenodd" clip-rule="evenodd" d="M677.261 1069.48C677.261 1015.98 633.616 972.537 580.18 972.537H242.219C188.783 972.537 145.139 1015.98 145.139 1069.48C145.139 1122.98 188.783 1166.42 242.219 1166.42H580.18C633.616 1166.42 677.261 1122.98 677.261 1069.48Z" fill="#EADDFF"/>
<path d="M2821.08 1489.43C2774.15 1489.43 2736.11 1451.39 2736.11 1404.47C2736.11 1357.54 2774.15 1319.5 2821.08 1319.5C2868 1319.5 2906.04 1357.54 2906.04 1404.47C2906.04 1451.39 2868 1489.43 2821.08 1489.43Z" fill="#D6E8FF"/>
<path d="M2692.98 1366.68C2651.03 1366.68 2617.02 1332.67 2617.02 1290.72C2617.02 1248.77 2651.03 1214.76 2692.98 1214.76C2734.93 1214.76 2768.94 1248.77 2768.94 1290.72C2768.94 1332.67 2734.93 1366.68 2692.98 1366.68Z" fill="#D6E8FF"/>
<path d="M2607.96 1489.43C2561.04 1489.43 2522.99 1451.39 2522.99 1404.47C2522.99 1357.54 2561.04 1319.5 2607.96 1319.5C2654.89 1319.5 2692.93 1357.54 2692.93 1404.47C2692.93 1451.39 2654.89 1489.43 2607.96 1489.43Z" fill="#D6E8FF"/>
<path fill-rule="evenodd" clip-rule="evenodd" d="M2556.89 1430.55C2556.89 1398.05 2583.33 1371.66 2615.79 1371.66H2835.42C2867.88 1371.66 2894.32 1398.05 2894.32 1430.55C2894.32 1463.05 2867.88 1489.43 2835.42 1489.43H2615.79C2583.33 1489.43 2556.89 1463.05 2556.89 1430.55Z" fill="#D6E8FF"/>
<path d="M2594.33 829.834C2533.02 829.834 2483.32 780.133 2483.32 718.823C2483.32 657.514 2533.02 607.813 2594.33 607.813C2655.63 607.813 2705.34 657.514 2705.34 718.823C2705.34 780.133 2655.63 829.834 2594.33 829.834Z" fill="#ECE0FF"/>
<path d="M2348.58 699.463C2289.38 699.463 2241.39 651.473 2241.39 592.273C2241.39 533.074 2289.38 485.084 2348.58 485.084C2407.78 485.084 2455.77 533.074 2455.77 592.273C2455.77 651.473 2407.78 699.463 2348.58 699.463Z" fill="#ECE0FF"/>
<path fill-rule="evenodd" clip-rule="evenodd" d="M2134.53 727.369C2134.53 670.817 2180.66 624.902 2237.14 624.902H2594.36C2650.84 624.902 2696.97 670.817 2696.97 727.369C2696.97 783.921 2650.84 829.833 2594.36 829.833H2237.14C2180.66 829.833 2134.53 783.921 2134.53 727.369Z" fill="#ECE0FF"/>
<path fill-rule="evenodd" clip-rule="evenodd" d="M2403.49 200.18C2480.55 239.26 2543.11 333.013 2543.11 439.436C2543.11 545.86 2480.55 639.614 2403.49 678.696C2554.58 678.696 2677.24 571.485 2677.24 439.436C2677.24 307.389 2554.58 200.18 2403.49 200.18Z" fill="#FFEA83"/>
<path d="M1712.63 527.293C1643.92 527.293 1588.22 471.592 1588.22 402.881C1588.22 334.171 1643.92 278.469 1712.63 278.469C1781.34 278.469 1837.04 334.171 1837.04 402.881C1837.04 471.592 1781.34 527.293 1712.63 527.293Z" fill="#D7E9FF"/>
<path d="M1536.39 441.074C1467.67 441.074 1411.97 385.373 1411.97 316.662C1411.97 247.951 1467.67 192.25 1536.39 192.25C1605.1 192.25 1660.8 247.951 1660.8 316.662C1660.8 385.373 1605.1 441.074 1536.39 441.074Z" fill="#D7E9FF"/>
<path d="M1346.43 498.421C1287.74 498.421 1240.16 450.846 1240.16 392.159C1240.16 333.472 1287.74 285.897 1346.43 285.897C1405.11 285.897 1452.69 333.472 1452.69 392.159C1452.69 450.846 1405.11 498.421 1346.43 498.421Z" fill="#D7E9FF"/>
<path fill-rule="evenodd" clip-rule="evenodd" d="M1159.66 441.073C1159.66 393.488 1198.32 354.853 1246.06 354.853H1712.66C1760.4 354.853 1799.06 393.488 1799.06 441.073C1799.06 488.658 1760.4 527.291 1712.66 527.291H1246.06C1198.32 527.291 1159.66 488.658 1159.66 441.073Z" fill="#D7E9FF"/>
<path fill-rule="evenodd" clip-rule="evenodd" d="M1590 424.852V1795.22H2556.59C2556.59 1795.22 2556.59 1618.22 2556.59 1391.45C2556.59 857.619 2123.83 424.852 1590 424.852Z" fill="#FFE9F0"/>
<path fill-rule="evenodd" clip-rule="evenodd" d="M1590.01 1668.33H1730.78C1740.06 1668.33 1747.61 1675.86 1747.61 1685.16V1718.81C1747.61 1728.09 1740.06 1735.62 1730.78 1735.62H1590.01V1668.33ZM1590.01 1587.89H1652.04C1661.32 1587.89 1668.86 1595.45 1668.86 1604.73V1638.37C1668.86 1647.67 1661.32 1655.21 1652.04 1655.21H1590.01V1587.89ZM2146.63 1537.43C2146.63 1528.13 2154.16 1520.6 2163.46 1520.6H2320.04C2329.32 1520.6 2336.87 1528.13 2336.87 1537.43V1571.08C2336.87 1580.36 2329.32 1587.89 2320.04 1587.89H2163.46C2154.16 1587.89 2146.63 1580.36 2146.63 1571.08V1537.43ZM2067.9 1457C2067.9 1447.72 2075.43 1440.16 2084.71 1440.16H2241.3C2250.58 1440.16 2258.11 1447.72 2258.11 1457V1490.64C2258.11 1499.92 2250.58 1507.48 2241.3 1507.48H2084.71C2075.43 1507.48 2067.9 1499.92 2067.9 1490.64V1457ZM2418.94 1039.48C2418.94 1030.18 2411.41 1022.65 2402.13 1022.65H2245.54C2236.26 1022.65 2228.7 1030.18 2228.7 1039.48V1073.13C2228.7 1082.41 2236.26 1089.94 2245.54 1089.94H2402.13C2411.41 1089.94 2418.94 1082.41 2418.94 1073.13V1039.48ZM2446.11 942.213C2457.63 964.178 2468.35 986.623 2478.22 1009.53H2324.27C2314.99 1009.53 2307.46 1001.99 2307.46 992.693V959.047C2307.46 949.767 2314.99 942.213 2324.27 942.213H2446.11ZM1590.01 599.526H1691.41C1700.69 599.526 1708.25 607.058 1708.25 616.338V649.984C1708.25 659.286 1700.69 666.819 1691.41 666.819H1590.01V599.526ZM1786.98 535.923C1786.98 526.622 1779.45 519.089 1770.14 519.089H1613.57C1604.27 519.089 1596.74 526.622 1596.74 535.923V569.569C1596.74 578.849 1604.27 586.403 1613.57 586.403H1770.14C1779.45 586.403 1786.98 578.849 1786.98 569.569V535.923Z" fill="#F9CDDB"/>
<path fill-rule="evenodd" clip-rule="evenodd" d="M1590 424.852V1795.22H2556.59C2556.59 1795.22 2556.59 1618.22 2556.59 1391.45C2556.59 857.619 2123.83 424.852 1590 424.852ZM1633.66 469.55V1751.53H2512.93V1391.45C2512.93 896.365 2123.1 492.319 1633.66 469.55Z" fill="white"/>
<path fill-rule="evenodd" clip-rule="evenodd" d="M1697.59 1588.58C1682.03 1574.68 1647.94 1575.75 1627.66 1560.37C1589.78 1531.64 1545.64 1525.18 1549.07 1504.04C1551.89 1486.65 1622.37 1526.01 1626.9 1518.59C1631 1511.85 1601.94 1480.73 1591.28 1471.05C1576.51 1457.61 1533.45 1448.05 1533.97 1432.15C1534.52 1416.07 1550.54 1417.27 1565 1416.84C1579.85 1416.44 1616.09 1426.61 1625.7 1434.79C1654.37 1459.11 1648.28 1461.22 1678.7 1483C1698.11 1496.88 1730.86 1531.7 1740.02 1543.31C1796.8 1615.54 1877.97 1684.88 1933.41 1764.06C1954 1793.47 1819.9 1800.18 1792.03 1754.97C1764.58 1710.43 1742.19 1628.4 1697.59 1588.58Z" fill="#DB8B6C"/>
<path fill-rule="evenodd" clip-rule="evenodd" d="M1627.24 1516.28C1628.42 1516.93 1629.51 1517.54 1630.45 1518C1634.1 1519.73 1640.14 1519.77 1647.11 1521.69C1650.62 1522.67 1654.36 1524.07 1658.14 1526.34C1658.7 1526.65 1658.9 1527.35 1658.59 1527.91C1658.29 1528.46 1657.57 1528.68 1657.02 1528.35C1653.33 1526.45 1649.75 1525.36 1646.39 1524.66C1639.01 1523.13 1632.7 1523.37 1628.79 1521.82C1627.42 1521.28 1625.67 1520.38 1623.86 1519.53C1625.41 1519.57 1626.45 1519.31 1626.89 1518.59C1627.26 1518 1627.37 1517.21 1627.24 1516.28ZM1535.32 1425.77C1537.63 1426.12 1539.99 1426.56 1542.37 1427.06C1549.88 1428.61 1557.52 1430.82 1564.16 1432.65C1570.43 1434.44 1580.89 1437.52 1589.95 1440.88C1597.37 1443.65 1603.88 1446.65 1606.8 1448.92C1610.54 1451.91 1619.07 1459.9 1626.41 1468.48C1630.82 1473.68 1634.77 1479.05 1637.07 1483.63C1637.42 1484.29 1637.17 1485.1 1636.54 1485.45C1635.89 1485.79 1635.08 1485.55 1634.73 1484.92C1632.22 1480.69 1628.03 1475.82 1623.51 1471.12C1615.93 1463.24 1607.35 1455.86 1603.59 1453.17C1600.86 1451.14 1594.77 1448.74 1587.96 1446.25C1579.01 1442.93 1568.83 1439.57 1562.68 1437.72C1556.19 1435.71 1548.73 1433.33 1541.37 1431.54C1538.94 1430.95 1536.52 1430.42 1534.16 1429.99C1534.38 1428.39 1534.77 1427 1535.32 1425.77ZM1564.53 1416.86C1566.89 1417.32 1569.05 1417.83 1570.97 1418.37C1575.49 1419.64 1582.22 1421.43 1589.03 1423.5C1593.14 1424.77 1597.28 1426.1 1601.02 1427.48C1606.69 1429.57 1611.41 1431.76 1613.77 1433.61C1617.5 1436.58 1626.04 1444.57 1633.38 1453.17C1637.79 1458.35 1641.76 1463.72 1644.05 1468.31C1644.4 1468.94 1644.16 1469.77 1643.53 1470.12C1642.87 1470.47 1642.07 1470.23 1641.72 1469.57C1639.21 1465.34 1635.04 1460.47 1630.52 1455.77C1622.94 1447.87 1614.34 1440.51 1610.58 1437.8C1608.44 1436.23 1604.16 1434.55 1599.1 1432.78C1595.43 1431.49 1591.37 1430.18 1587.35 1428.94C1580.58 1426.82 1573.92 1424.86 1569.45 1423.5C1565.06 1422.15 1559.25 1421.01 1553.18 1420.05C1550.1 1419.55 1546.98 1419.11 1543.9 1418.74C1549.71 1416.89 1557.31 1417.06 1564.53 1416.86Z" fill="#926767"/>
<path fill-rule="evenodd" clip-rule="evenodd" d="M2306.67 1773.98C2299.96 1735.72 2290.6 1695.86 2286.25 1657.19C2280.66 1607.54 2272.56 1564.41 2248.85 1517.06C2208.48 1436.42 2152.87 1384 2076.51 1363.1C2027.15 1349.61 1929.55 1391.99 1883.33 1422.45C1826.1 1460.13 1838.63 1520.42 1830.9 1621.01C1827.65 1663.41 1781.58 1682.3 1806.73 1770.38C1813.72 1794.76 1885.9 1775.99 1913.78 1777.89C2023.04 1785.38 2133.09 1795.4 2242.65 1793.85L2306.67 1773.98Z" fill="#C86868"/>
<path fill-rule="evenodd" clip-rule="evenodd" d="M1830.6 1624C1834.07 1618.7 1837.44 1613.42 1840.73 1608.02C1846.1 1599.27 1851.32 1590.18 1856.69 1579.99C1860.36 1572.96 1864.62 1565.51 1867.72 1557.76C1869.75 1552.67 1871.3 1547.45 1871.83 1542.15C1871.89 1541.3 1872.63 1540.66 1873.46 1540.73C1874.31 1540.82 1874.93 1541.54 1874.86 1542.39C1874.51 1548.02 1873.09 1553.59 1871.13 1559.05C1868.24 1567.02 1864.21 1574.75 1860.71 1582C1855.67 1592.5 1850.71 1601.86 1845.6 1610.88C1838.53 1623.39 1831.17 1635.23 1822.85 1648.57C1826.52 1640.75 1829.49 1632.87 1830.6 1624Z" fill="#3C7181"/>
<path fill-rule="evenodd" clip-rule="evenodd" d="M2083.97 1263.76C2087.23 1322.92 2070.21 1307.94 2067.85 1368.46C2067.79 1369.76 2089.5 1407.1 2088.04 1409.33C2083.74 1415.88 2045.26 1444.64 2016.28 1477.23C1986.96 1510.15 1948.27 1552.58 1931.84 1550.06C1906.42 1546.16 1961.96 1470.75 1939.27 1416.83C1918.94 1368.48 1867.08 1352.13 1874.11 1339.88C1884.27 1322.15 2003.4 1285.11 2027.25 1281.8" fill="#DB8B6C"/>
<path fill-rule="evenodd" clip-rule="evenodd" d="M2044.73 1783.85C2034.79 1766.14 2026.73 1766.73 2033.35 1746.55C2036.71 1736.27 2047.41 1726.2 2045.86 1714.65C2043.52 1697.45 2024.77 1693.91 2022.69 1672.12C2020.34 1647.43 2045.21 1640.81 2044.16 1623.34C2042.89 1602.12 2015.6 1594.74 2016.19 1569.7C2016.71 1547.16 2044 1527.45 2042.69 1514.89C2040.31 1492.3 2013.22 1487.54 2010.71 1454.28C2008.9 1430.2 2033.31 1421.09 2033.09 1393.52C2032.85 1366.38 2004.94 1346.9 2006.12 1309.43C2007.13 1277.6 2038.72 1231.4 2075.55 1239.96C2127.24 1251.95 2127.91 1289.83 2125.66 1331.95C2124.03 1362.95 2080.18 1368.15 2078.98 1395.92C2078 1418.28 2100.47 1422.88 2103.59 1457.01C2106.28 1486.42 2073.63 1491.55 2073.96 1517.82C2074.27 1542.25 2099.22 1535.83 2100.84 1572.47C2101.97 1597.75 2074.03 1603.04 2073.37 1627.99C2072.96 1644.09 2101.8 1638.06 2102.17 1669.41C2102.54 1701.97 2079.44 1705.29 2074.9 1722.62C2069.62 1742.84 2104.18 1750.29 2080.27 1776.53L2044.73 1783.85Z" fill="#BADDE8"/>
<path fill-rule="evenodd" clip-rule="evenodd" d="M2040.56 1732.67C2048.03 1739.94 2056.24 1745.93 2065.15 1750.69C2072.57 1754.66 2080.45 1757.78 2088.77 1760.05C2088.66 1762 2088.2 1764.07 2087.26 1766.28C2078.53 1763.46 2070.28 1759.79 2062.59 1755.21C2053.86 1749.99 2045.82 1743.63 2038.57 1736.06C2039.23 1734.94 2039.91 1733.81 2040.56 1732.67ZM2088.97 1643.92C2089.84 1644.49 2090.71 1645.12 2091.56 1645.77C2085.78 1659.44 2073.99 1670.18 2059.88 1678.83C2051.17 1684.18 2041.56 1688.7 2031.98 1692.63C2030.67 1691.1 2029.4 1689.51 2028.25 1687.76C2038.25 1684.16 2048.33 1679.9 2057.48 1674.73C2071.35 1666.89 2083.09 1656.97 2088.97 1643.92ZM2016.63 1565.34C2024.75 1577.02 2035.39 1586.34 2047.5 1593.63C2057.83 1599.83 2069.25 1604.55 2081.13 1608.02C2079.8 1609.75 2078.55 1611.54 2077.46 1613.46C2065.87 1609.55 2054.8 1604.49 2044.77 1598.04C2033.73 1590.93 2023.94 1582.19 2016.22 1571.6C2016.19 1570.97 2016.19 1570.34 2016.19 1569.7C2016.24 1568.22 2016.39 1566.78 2016.63 1565.34ZM2092.53 1426.01C2093.46 1427.43 2094.4 1428.9 2095.32 1430.45C2094.88 1432.04 2094.36 1433.57 2093.68 1435.01C2085.65 1452.19 2073.88 1465.77 2059.84 1476.67C2051.19 1483.39 2041.67 1489.07 2031.65 1493.94C2030.12 1492.24 2028.51 1490.51 2026.89 1488.74C2037.39 1484.18 2047.37 1478.74 2056.43 1472.13C2070.19 1462.13 2081.87 1449.46 2090.08 1433.24C2091.19 1431.01 2091.94 1428.57 2092.53 1426.01ZM2126.15 1303.24C2126.24 1304.94 2126.28 1306.65 2126.3 1308.37C2123.14 1311.73 2119.95 1315.1 2116.61 1318.31C2114.36 1320.44 2112.04 1322.54 2109.64 1324.51C2097.55 1334.38 2084.18 1342.89 2070.17 1350.2C2056.15 1357.5 2041.5 1363.59 2026.8 1368.63C2026.59 1368.7 2026.35 1368.74 2026.13 1368.79C2025.12 1366.73 2024.08 1364.7 2022.98 1362.65C2023.4 1362.21 2023.92 1361.86 2024.53 1361.67C2039.08 1357.17 2053.6 1351.67 2067.53 1344.92C2081.46 1338.2 2094.77 1330.29 2106.87 1321.01C2109.25 1319.18 2111.54 1317.24 2113.75 1315.25C2118.03 1311.38 2122.09 1307.28 2126.15 1303.24Z" fill="#FEFEFE"/>
<path fill-rule="evenodd" clip-rule="evenodd" d="M1742.48 1366.68C1741.83 1366.2 1741.22 1365.7 1740.72 1365.18C1732.37 1356.77 1733.13 1346.36 1739.14 1336.9C1747.33 1324.02 1765.69 1313.12 1780.83 1313.19C1782.83 1313.21 1784.46 1314.85 1784.46 1316.84C1784.44 1318.85 1782.81 1320.46 1780.8 1320.46C1767.87 1320.4 1752.26 1329.78 1745.28 1340.79C1741.17 1347.23 1740.19 1354.35 1745.86 1360.07C1746.3 1360.5 1746.8 1360.9 1747.38 1361.29C1749.12 1359.65 1750.94 1358.19 1752.76 1356.99C1760.42 1352.01 1768.03 1351.9 1772.09 1359.09C1773.61 1361.79 1773.77 1364.09 1773.27 1365.9C1772.69 1367.91 1771.27 1369.57 1769.03 1370.66C1765.74 1372.27 1760.08 1372.56 1754.49 1371.51C1752.65 1371.14 1750.81 1370.66 1749.1 1370.02C1747.44 1371.99 1745.99 1374.11 1744.83 1376.23C1743.2 1379.22 1742.14 1382.19 1742.38 1384.61C1742.85 1389.39 1745.7 1394.22 1749.88 1398.17C1752.73 1400.83 1756.21 1403.1 1760.08 1404.63C1764.34 1396.88 1771.45 1392.71 1780.57 1395.75C1785.78 1397.47 1787.52 1400.75 1787.6 1403.67C1787.73 1407.78 1783.89 1412.45 1778.28 1413.5C1773.46 1414.39 1768.74 1414.28 1764.32 1413.41C1762.32 1420.33 1762.45 1428.91 1765.11 1435.96C1766.85 1440.66 1769.72 1444.7 1773.96 1446.9C1776.72 1448.32 1779.72 1449.26 1782.65 1449.78C1784.36 1447.1 1786.28 1444.78 1788.26 1443.1C1793.13 1438.91 1798.32 1438.39 1801.9 1441.64C1804.14 1443.65 1805.06 1445.66 1805.3 1447.38C1805.56 1449.59 1804.8 1451.62 1803.03 1453.34C1800.98 1455.31 1797.11 1456.88 1792.23 1457.38C1790.5 1457.56 1788.63 1457.6 1786.68 1457.51C1783.81 1463.85 1782.8 1471.66 1786.94 1477.71C1789.7 1481.73 1797.74 1486.64 1805.85 1489.26C1806.48 1487.93 1807.25 1486.66 1808.09 1485.53C1810.93 1481.75 1814.88 1479.33 1820.12 1479.96C1825.52 1480.61 1828.81 1484.98 1828.87 1489.04C1828.92 1491.99 1827.45 1495.02 1823.65 1496.75C1820.02 1498.39 1815.36 1498.63 1810.41 1497.84C1810.04 1499.24 1809.8 1500.51 1809.67 1501.44C1807.61 1516.14 1816.23 1528.23 1832.4 1535.37C1835.21 1536.62 1838.51 1537.34 1841.69 1537.78C1842.64 1534.98 1846.67 1530.33 1851.25 1528.08C1854.94 1526.27 1858.84 1526.03 1861.89 1528.08C1863.68 1529.3 1864.58 1530.75 1864.92 1532.16C1865.29 1533.67 1865.11 1535.24 1864.32 1536.82C1862.89 1539.59 1859 1542.49 1855.2 1544.06C1853.28 1544.87 1850.59 1545.24 1847.96 1545.35C1847.91 1549.37 1848.59 1554.76 1851.09 1559.17C1856.7 1569.04 1871.8 1575.57 1884.94 1576.07C1886.02 1573.78 1887.28 1571.6 1888.65 1569.57C1890.65 1566.58 1895.84 1562.34 1900.47 1561.51C1902.53 1561.14 1904.5 1561.36 1906.24 1562.25C1907.95 1563.13 1909.48 1564.65 1910.51 1567.23C1911.4 1569.48 1911.43 1571.47 1910.9 1573.23C1910.19 1575.66 1908.37 1577.73 1905.71 1579.26C1901.4 1581.77 1894.65 1582.91 1889.81 1583.26C1889.33 1584.68 1888.97 1586.14 1888.73 1587.6C1888.02 1591.97 1888.6 1596.31 1891.7 1599.83C1897.74 1606.66 1913.56 1614.41 1926.57 1616.79C1928.55 1613.08 1931.39 1609.63 1935.18 1607.36C1936.13 1606.79 1939.85 1605.42 1943.03 1605.46C1945.27 1605.51 1947.27 1606.25 1948.56 1607.62C1949.88 1609 1950.83 1611.18 1949.99 1614.68C1948.38 1621.31 1942.59 1624.59 1934.45 1624.76C1933.39 1624.79 1932.31 1624.76 1931.21 1624.68C1931.13 1624.98 1931.05 1625.29 1930.97 1625.57C1929.31 1632.86 1932.08 1640.11 1937.19 1646.1C1944.9 1655.18 1957.91 1661.53 1970.63 1661.25C1970.82 1659.09 1971.32 1656.99 1972.11 1655C1973.4 1651.86 1977.93 1646.49 1982.99 1644.13C1987.12 1642.19 1991.49 1642.14 1995.1 1645.31C1997.55 1647.47 1998.47 1649.72 1998.6 1651.79C1998.76 1654.72 1997.1 1657.71 1993.99 1660.22C1989.91 1663.52 1983.14 1666.14 1978.06 1667.47C1978.98 1672.43 1981.62 1677.36 1985.01 1680.99C1996.42 1693.02 2014.25 1695.86 2031.07 1690.22L2031.58 1690.03C2031.07 1686.79 2031.65 1683.41 2033.71 1679.92C2035.1 1677.51 2039.11 1674.04 2043.01 1673.21C2046.4 1672.47 2049.75 1673.28 2052.07 1676.97C2054.94 1681.53 2053.41 1685.81 2049.22 1689.33C2047.09 1691.14 2044.16 1692.73 2041.24 1694.04C2041.58 1694.46 2041.93 1694.87 2042.29 1695.27C2046.19 1699.41 2052.22 1702.65 2057.49 1704.37C2064.94 1706.82 2074.45 1708.91 2082.88 1707.58C2082.9 1706.99 2082.96 1706.42 2083.04 1705.83C2083.33 1703.8 2084.25 1699 2086.38 1695.29C2088.01 1692.45 2090.36 1690.27 2093.31 1689.55C2095.31 1689.04 2097.7 1689.17 2100.44 1690.46C2103.97 1692.1 2105.5 1694.26 2106.03 1696.31C2106.79 1699.26 2105.37 1702.71 2102.31 1705.68C2098.86 1709 2093.46 1711.9 2090.51 1713.06C2091.94 1719.39 2096.55 1725.66 2103.24 1728.83C2110.69 1732.41 2121.86 1733.1 2131.2 1730.55C2133.18 1730 2135.08 1729.31 2136.84 1728.45C2134.71 1725.48 2133.13 1722.19 2132.76 1719.17C2132.42 1716.64 2132.86 1714.26 2134.1 1712.25C2135.29 1710.31 2137.29 1708.63 2140.45 1707.6C2150.22 1704.46 2157.01 1715.77 2151.19 1725.29C2150.3 1726.77 2149.22 1728.13 2147.98 1729.37L2148.09 1729.44C2153.43 1732.82 2162.7 1733.3 2172.47 1732.69C2188.04 1731.75 2204.95 1727.67 2211.29 1725.2C2213.16 1724.48 2215.27 1725.42 2215.98 1727.27C2216.72 1729.15 2215.77 1731.25 2213.9 1731.97C2206.08 1735 2183.06 1740.42 2164.81 1740.14C2156.44 1740 2149.03 1738.61 2144.21 1735.57C2143.45 1735.09 2142.71 1734.55 2141.98 1733.93C2139.29 1735.46 2136.29 1736.66 2133.13 1737.54C2122.09 1740.57 2108.92 1739.59 2100.1 1735.4C2091.41 1731.25 2085.48 1723.08 2083.54 1714.79C2074.05 1716.12 2063.52 1714 2055.22 1711.27C2047.53 1708.74 2038.63 1703.43 2034.34 1696.88L2034.29 1696.77C2033.97 1696.88 2033.66 1696.99 2033.39 1697.1C2013.77 1703.67 1993.02 1700 1979.75 1685.96C1975.35 1681.31 1972.11 1674.94 1970.98 1668.5C1956.07 1668.87 1940.72 1661.47 1931.66 1650.81C1925.02 1642.97 1921.73 1633.45 1923.91 1623.96L1923.99 1623.65C1909.64 1620.61 1892.86 1612.08 1886.28 1604.65C1881.62 1599.39 1880.51 1592.95 1881.57 1586.44C1881.75 1585.35 1881.99 1584.24 1882.28 1583.15C1867.34 1581.82 1851.09 1573.87 1844.77 1562.73C1841.59 1557.1 1840.74 1550.2 1840.82 1544.98C1836.93 1544.44 1832.9 1543.54 1829.45 1542.01C1809.83 1533.37 1800 1518.28 1802.48 1500.44C1802.66 1499.3 1802.95 1497.78 1803.37 1496.09C1793.66 1492.89 1784.28 1486.64 1780.96 1481.82C1776.54 1475.35 1776.17 1467.4 1778.12 1460.11C1778.46 1458.87 1778.85 1457.67 1779.3 1456.49C1776.35 1455.79 1773.4 1454.76 1770.64 1453.34C1764.82 1450.33 1760.71 1444.94 1758.31 1438.52C1755.13 1430 1754.97 1419.7 1757.36 1411.36C1752.62 1409.46 1748.38 1406.71 1744.91 1403.45C1739.35 1398.21 1735.8 1391.68 1735.16 1385.35C1734.79 1381.71 1736.03 1377.21 1738.46 1372.75C1739.59 1370.7 1740.96 1368.63 1742.48 1366.68ZM2142.77 1724.35C2143.61 1723.48 2144.37 1722.54 2145.01 1721.51C2146.22 1719.5 2146.35 1717.25 2145.53 1715.68C2145.03 1714.65 2143.98 1714.09 2142.66 1714.52C2141.34 1714.94 2140.47 1715.51 2140.11 1716.36C2139.42 1718.04 2140.24 1720.09 2141.34 1722.12C2141.77 1722.89 2142.24 1723.63 2142.77 1724.35ZM2098.97 1698.1C2098.89 1698.02 2098.76 1697.89 2098.65 1697.8C2098.31 1697.51 2097.89 1697.27 2097.36 1697.03C2096.47 1696.6 2095.7 1696.42 2095.05 1696.6C2093.97 1696.86 2093.28 1697.86 2092.68 1698.91C2091.54 1700.9 2090.88 1703.3 2090.51 1705.09C2092.73 1703.93 2095.36 1702.27 2097.26 1700.46C2098.02 1699.72 2098.81 1698.39 2098.97 1698.1ZM2038.76 1687.25C2040.9 1686.27 2042.98 1685.11 2044.53 1683.8C2045.61 1682.89 2046.67 1682.01 2045.93 1680.83C2045.4 1679.98 2044.51 1680.24 2043.72 1680.57C2042.08 1681.25 2040.56 1682.58 2039.95 1683.61C2039.21 1684.85 2038.84 1686.07 2038.76 1687.25ZM1978.14 1659.96C1981.98 1658.82 1986.54 1656.9 1989.44 1654.57C1990.02 1654.11 1990.52 1653.65 1990.89 1653.15C1991.12 1652.82 1991.36 1652.54 1991.33 1652.19C1991.31 1651.68 1990.89 1651.27 1990.28 1650.75C1989.04 1649.65 1987.49 1650.03 1986.07 1650.7C1982.75 1652.25 1979.67 1655.7 1978.82 1657.75C1978.53 1658.48 1978.3 1659.22 1978.14 1659.96ZM1942.95 1612.82C1942.35 1612.82 1941.43 1612.84 1940.85 1612.97C1939.98 1613.17 1939.22 1613.41 1938.93 1613.58C1937.24 1614.61 1935.82 1615.96 1934.66 1617.51C1936.21 1617.45 1937.63 1617.23 1938.9 1616.84C1940.93 1616.2 1942.43 1615.03 1942.93 1612.97C1942.96 1612.93 1942.95 1612.86 1942.95 1612.82ZM1893.42 1575.59C1896.5 1575.13 1899.74 1574.35 1902.08 1572.99C1903.32 1572.25 1904.35 1571.36 1903.77 1569.89C1903.56 1569.37 1903.32 1568.96 1902.98 1568.74C1902.66 1568.54 1902.27 1568.58 1901.87 1568.65C1900.97 1568.78 1900.05 1569.2 1899.16 1569.7C1897.26 1570.79 1895.52 1572.36 1894.68 1573.61C1894.26 1574.24 1893.84 1574.92 1893.42 1575.59ZM1857.52 1533.93C1856.6 1533.56 1855.52 1534.06 1854.47 1534.59C1852.75 1535.44 1851.09 1536.73 1849.96 1537.99C1850.86 1537.86 1851.73 1537.67 1852.44 1537.36C1854.02 1536.71 1855.7 1535.72 1856.89 1534.63C1857.1 1534.44 1857.34 1534.17 1857.52 1533.93ZM1813.17 1490.94C1815.96 1491.27 1818.54 1491.09 1820.65 1490.13C1821.1 1489.94 1821.47 1489.7 1821.57 1489.37C1821.76 1488.91 1821.44 1488.43 1821.1 1488.04C1820.65 1487.58 1819.99 1487.25 1819.23 1487.16C1816.38 1486.82 1814.54 1488.69 1813.17 1490.94ZM1797.95 1448.1C1797.76 1447.84 1797.4 1447.34 1797.05 1447.01C1796.55 1446.57 1795.92 1446.82 1795.29 1447.1C1793.97 1447.67 1792.66 1448.76 1791.39 1450.18C1792.39 1450.07 1793.31 1449.92 1794.18 1449.72C1795.34 1449.46 1796.34 1449.13 1797.16 1448.69C1797.42 1448.54 1797.76 1448.28 1797.95 1448.1ZM1767.43 1406.6C1770.48 1407.01 1773.67 1406.97 1776.93 1406.36C1778.01 1406.16 1778.99 1405.66 1779.65 1405C1780.01 1404.65 1780.36 1404.3 1780.36 1403.89C1780.33 1403.74 1780.2 1403.65 1780.04 1403.52C1779.62 1403.17 1779.01 1402.86 1778.25 1402.62C1773.53 1401.05 1769.93 1402.99 1767.43 1406.6ZM1766.24 1363.89C1766.19 1363.65 1766 1363.08 1765.77 1362.64C1763.87 1359.3 1760.29 1360.77 1756.73 1363.08C1756.15 1363.45 1755.6 1363.85 1755.02 1364.28C1758.18 1364.96 1761.47 1365.11 1764 1364.68C1764.61 1364.59 1765.16 1364.43 1765.66 1364.24C1765.85 1364.15 1766.11 1363.98 1766.24 1363.89Z" fill="#133844"/>
<path fill-rule="evenodd" clip-rule="evenodd" d="M1824.34 1047.12C1794.07 1062.35 1753.11 1064.12 1737.37 1074.95C1723.99 1084.15 1753.13 1105.42 1760.7 1131.91C1766.14 1150.96 1747.79 1167.83 1750.12 1177.83C1752 1185.85 1755.29 1192.26 1771.18 1196.42C1788.62 1201 1807.06 1194.92 1805.22 1199.74C1797.03 1221.47 1771.46 1205.95 1753.35 1213.62C1745.72 1216.87 1746.81 1224.95 1750.43 1234.43C1754.11 1244.09 1744.96 1258.21 1742.28 1268.39C1734.5 1298.14 1739.38 1309.17 1773.53 1318.26C1813.22 1328.81 1906.23 1384.09 1951.56 1369.88C2099.01 1323.65 2266.8 1193.63 2125.32 1019.94C2096.27 984.28 2035.7 949.385 1989.34 948.251C1874.19 945.396 1866.34 1026 1824.34 1047.12Z" fill="#DB8B6C"/>
<path fill-rule="evenodd" clip-rule="evenodd" d="M1749.92 1175.99C1750.88 1175.99 1751.87 1176.16 1752.81 1176.51C1761.87 1181.64 1767.17 1185.99 1773.44 1189.2C1777.52 1191.27 1781.71 1192.78 1787.54 1193.61C1788.68 1193.7 1798.02 1194.42 1803.07 1195.73C1805.91 1196.47 1807.43 1197.87 1807.28 1199.05C1807.09 1201.82 1805.99 1204.31 1804.47 1206.47C1802.94 1208.65 1800.95 1210.51 1798.66 1211.86C1795.73 1213.76 1788.9 1215.66 1781.37 1217.52C1770.64 1220.14 1758.72 1222.23 1754.01 1222.19C1751.93 1222.21 1749.84 1221.86 1747.72 1221.25C1748.05 1217.85 1749.68 1215.18 1753.35 1213.63C1771.47 1205.95 1797.02 1221.47 1805.23 1199.75C1807.04 1194.92 1788.61 1200.99 1771.17 1196.43C1755.3 1192.26 1752 1185.84 1750.12 1177.85C1749.99 1177.23 1749.92 1176.62 1749.92 1175.99Z" fill="#C57D7D"/>
<path fill-rule="evenodd" clip-rule="evenodd" d="M1867.33 1057.03C1872.83 1050.09 1884.62 1042.1 1892.1 1048.91C1900.11 1056.19 1891.68 1069.91 1888.68 1073.67C1882.29 1081.65 1867.76 1092.78 1860.7 1085.42C1851.64 1075.97 1862.84 1062.71 1867.33 1057.03Z" fill="#194858"/>
<path fill-rule="evenodd" clip-rule="evenodd" d="M1900.51 1076.83C1904.48 1078.68 1909.62 1079.88 1914.94 1080.49C1916.93 1080.73 1918.91 1080.86 1920.83 1080.9C1924.01 1080.97 1927.04 1080.77 1929.68 1080.55C1931.75 1080.29 1933.21 1078.44 1932.97 1076.37C1932.73 1074.3 1930.86 1072.84 1928.81 1073.08C1925.93 1073.51 1922.53 1073.82 1919 1074.08C1916.82 1074.23 1914.6 1074.41 1912.42 1074.45C1908.49 1074.56 1904.74 1074.45 1901.58 1073.71C1900.73 1073.43 1899.8 1073.86 1899.49 1074.73C1899.21 1075.58 1899.66 1076.52 1900.51 1076.83Z" fill="#926767"/>
<path fill-rule="evenodd" clip-rule="evenodd" d="M1893.33 1083.45C1895.88 1087.09 1897.68 1090.97 1899.14 1095.03C1899.99 1097.45 1900.63 1099.93 1901.22 1102.46C1902.09 1106.21 1902.74 1110.02 1903.09 1113.95C1903.33 1115.99 1905.2 1117.48 1907.25 1117.24C1909.32 1117 1910.81 1115.12 1910.54 1113.05C1910.02 1109.5 1909.39 1106.01 1908.36 1102.63C1907.69 1100.34 1906.86 1098.1 1905.88 1095.94C1903.42 1090.58 1900.15 1085.68 1895.88 1081.34C1895.29 1080.64 1894.24 1080.53 1893.54 1081.12C1892.85 1081.71 1892.76 1082.73 1893.33 1083.45Z" fill="#926767"/>
<path fill-rule="evenodd" clip-rule="evenodd" d="M1978.77 949.45C1976.87 937.854 2030.12 927.261 2089.4 955.88C2160.02 989.947 2201.02 1055.84 2203.46 1129.81C2204.83 1171.64 2194.39 1215.91 2168.15 1254.18C2110.35 1338.53 2021.86 1348.43 2014.82 1345.6C2005.03 1341.65 1991.49 1303.96 2004.83 1286.88C2013.64 1275.61 2035 1246.44 2049.06 1241.45C2071.64 1233.39 2098.49 1215.36 2097.99 1190.71C2097.38 1160.07 2071.99 1151.65 2049.04 1157.47C2035.15 1161 2016.26 1186.13 2006.69 1177.81C2001.06 1172.95 2026.3 1144.83 2034.56 1104.79C2053.88 1011.46 1981.1 963.792 1978.77 949.45Z" fill="#BADDE8"/>
<path fill-rule="evenodd" clip-rule="evenodd" d="M1995.32 971.491C2005.03 971.207 2014.69 972.255 2023.48 975.312C2032.46 978.434 2040.49 983.696 2046.98 991.709C2048.2 993.325 2047.87 995.64 2046.26 996.862C2044.64 998.063 2042.35 997.758 2041.13 996.142C2034.55 986.841 2025.49 981.36 2015.34 978.391C2010.01 976.819 2004.4 975.923 1998.7 975.53C1997.55 974.133 1996.41 972.779 1995.32 971.491ZM1983.96 958.129C1993.29 956.163 2003.75 955.639 2014.14 956.185C2027.72 956.884 2041.15 959.438 2051.8 962.932C2053.7 963.631 2054.69 965.727 2054.01 967.626C2053.33 969.526 2051.21 970.508 2049.31 969.832C2039.34 965.923 2026.63 962.779 2013.72 961.36C2004.47 960.356 1995.12 960.203 1986.58 961.294C1985.62 960.181 1984.75 959.133 1983.96 958.129Z" fill="#FEFEFE"/>
<path fill-rule="evenodd" clip-rule="evenodd" d="M2056.9 1177.13C2058.67 1173.73 2063.14 1173.14 2067.3 1173.95C2071.7 1174.8 2076.02 1177.24 2077.13 1180.82C2077.76 1182.78 2077.39 1185.35 2076.37 1187.57C2075.39 1189.75 2073.77 1191.67 2071.7 1192.28C2069.18 1193.02 2066.76 1192.96 2064.42 1192.46C2058.06 1191.17 2052.13 1187.33 2045.74 1187.66C2043.24 1187.75 2039.88 1188.4 2037.37 1189.67C2035.04 1190.86 2033.47 1192.63 2033.41 1194.9C2033.34 1196.25 2034.45 1197.8 2036.28 1199.23C2038.66 1201.11 2042.32 1202.94 2044.46 1204.01C2046.38 1204.99 2052.48 1207.28 2056.55 1210.31C2057.36 1210.92 2058.08 1211.55 2058.63 1212.2C2059.08 1212.81 2059.43 1213.45 2059.1 1214.23C2058.01 1217.02 2054.59 1217.78 2051.11 1217.59C2047.36 1217.39 2043.35 1216.04 2040.8 1213.55C2040.01 1212.75 2038.75 1212.7 2037.92 1213.47C2037.11 1214.23 2037.07 1215.52 2037.83 1216.32C2041.43 1220.55 2047.9 1223.08 2053.57 1223.06C2058.63 1223.04 2062.9 1220.83 2064.88 1216.76C2066.6 1212.97 2065.45 1209.5 2062.42 1206.78C2060.7 1205.23 2058.34 1203.96 2055.86 1202.96C2051.93 1201.39 2047.79 1200.52 2046.22 1199.98C2044.41 1199.32 2041.49 1198.36 2039.18 1197.14C2038.29 1196.66 2037.5 1196.16 2036.94 1195.64C2036.65 1195.38 2036.37 1195.2 2036.37 1194.92C2036.35 1193.68 2037.37 1192.8 2038.66 1192.11C2040.77 1191 2043.69 1190.49 2045.85 1190.41C2052.02 1190.23 2057.64 1194.11 2063.75 1195.53C2066.58 1196.18 2069.5 1196.36 2072.62 1195.55C2075.63 1194.77 2078.13 1192.24 2079.68 1189.14C2081.21 1186.07 2081.71 1182.49 2080.94 1179.7C2079.61 1174.8 2074.17 1170.9 2068.26 1169.5C2061.94 1168.02 2055.31 1169.55 2052.39 1174.65C2051.69 1175.89 2052.15 1177.46 2053.39 1178.16C2054.64 1178.83 2056.21 1178.38 2056.9 1177.13Z" fill="#607175"/>
<path fill-rule="evenodd" clip-rule="evenodd" d="M1777.14 1272.66C1826.46 1249.34 1835.72 1275.25 1862.99 1272.68C1878.37 1271.24 1986.52 1243.05 1999.97 1232.76C2010.49 1224.72 2016.66 1209.69 2023.41 1199.88C2034.39 1183.85 2048.35 1173.13 2068.59 1171.04C2098.32 1167.95 2130.99 1206.11 2117.39 1241.72C2104.88 1274.44 2058.36 1299.81 2026.49 1313.49C1988.04 1330.03 1930.66 1346.01 1886.29 1353.91C1862.6 1358.14 1801.72 1363.54 1777.68 1345.26C1758.82 1330.94 1743.53 1288.57 1777.14 1272.66Z" fill="#008CB7"/>
<path fill-rule="evenodd" clip-rule="evenodd" d="M1790.35 1135.5C1798.05 1139.1 1808.95 1145.67 1816.42 1155.13C1822.49 1162.86 1826.18 1172.55 1823.4 1184.25C1822.99 1186.22 1824.28 1188.16 1826.24 1188.58C1828.23 1188.97 1830.17 1187.7 1830.56 1185.72C1832.49 1174.6 1829.84 1165.22 1824.76 1157.49C1816.42 1144.76 1801.55 1136.61 1791.55 1132.68C1790.78 1132.36 1789.87 1132.7 1789.54 1133.49C1789.21 1134.25 1789.56 1135.15 1790.35 1135.5Z" fill="#926767"/>
<path fill-rule="evenodd" clip-rule="evenodd" d="M1944.8 966.043C1950.32 968.75 1954.1 972.44 1956.85 976.785C1961.09 983.51 1962.83 991.785 1964.67 1000.56C1965.17 1002.53 1967.18 1003.68 1969.14 1003.18C1971.09 1002.68 1972.26 1000.67 1971.76 998.707C1968.86 989.471 1966.02 980.825 1960.74 974.056C1957.16 969.449 1952.53 965.671 1946.02 963.248C1945.23 962.92 1944.34 963.27 1944.01 964.034C1943.68 964.82 1944.03 965.715 1944.8 966.043Z" fill="#926767"/>
<path fill-rule="evenodd" clip-rule="evenodd" d="M1927.48 976.588C1933.23 979.623 1937.68 980.584 1941.22 984.121C1943.07 985.977 1944.58 988.597 1945.98 992.658C1947.75 997.898 1947.94 1001.87 1947.38 1005.21C1946.52 1010.23 1943.99 1013.84 1942.46 1017.85C1941.83 1019.78 1942.86 1021.85 1944.78 1022.48C1946.7 1023.14 1948.77 1022.09 1949.41 1020.19C1950.74 1015.72 1953.05 1011.54 1953.55 1006.02C1953.93 1001.89 1953.45 997.025 1950.78 990.824C1948.71 986.02 1946.57 983.029 1944.14 980.977C1940.06 977.461 1935.26 976.632 1928.82 973.815C1928.05 973.466 1927.14 973.772 1926.79 974.536C1926.42 975.3 1926.72 976.217 1927.48 976.588Z" fill="#926767"/>
<path fill-rule="evenodd" clip-rule="evenodd" d="M2487.71 1714.87C2491.19 1723.42 2490.19 1733.14 2485.03 1740.78C2479.9 1748.44 2471.28 1753.04 2462.05 1753.04C2397.58 1753.04 2273.54 1753.04 2209.07 1753.04C2199.83 1753.04 2191.21 1748.44 2186.08 1740.78C2180.93 1733.14 2179.92 1723.42 2183.4 1714.87C2197.43 1680.42 2217.43 1631.25 2227.93 1605.49C2232.17 1595.06 2242.32 1588.24 2253.59 1588.24C2291.91 1588.24 2379.2 1588.24 2417.54 1588.24C2428.79 1588.24 2438.94 1595.06 2443.18 1605.49C2453.68 1631.25 2473.69 1680.42 2487.71 1714.87Z" fill="#008CB7"/>
<path d="M2301.26 1649.51C2307.99 1649.51 2313.43 1644.06 2313.43 1637.34C2313.43 1630.62 2307.99 1625.17 2301.26 1625.17C2294.54 1625.17 2289.09 1630.62 2289.09 1637.34C2289.09 1644.06 2294.54 1649.51 2301.26 1649.51Z" fill="#FFA4C1"/>
<path d="M2301.26 1682.79C2307.99 1682.79 2313.43 1677.34 2313.43 1670.62C2313.43 1663.9 2307.99 1658.45 2301.26 1658.45C2294.54 1658.45 2289.09 1663.9 2289.09 1670.62C2289.09 1677.34 2294.54 1682.79 2301.26 1682.79Z" fill="#FFA4C1"/>
<path d="M2301.26 1716.08C2307.99 1716.08 2313.43 1710.63 2313.43 1703.91C2313.43 1697.19 2307.99 1691.74 2301.26 1691.74C2294.54 1691.74 2289.09 1697.19 2289.09 1703.91C2289.09 1710.63 2294.54 1716.08 2301.26 1716.08Z" fill="#FFA4C1"/>
<path d="M2335.54 1649.51C2342.27 1649.51 2347.72 1644.06 2347.72 1637.34C2347.72 1630.62 2342.27 1625.17 2335.54 1625.17C2328.82 1625.17 2323.38 1630.62 2323.38 1637.34C2323.38 1644.06 2328.82 1649.51 2335.54 1649.51Z" fill="#FFA4C1"/>
<path d="M2335.54 1682.79C2342.27 1682.79 2347.72 1677.34 2347.72 1670.62C2347.72 1663.9 2342.27 1658.45 2335.54 1658.45C2328.82 1658.45 2323.38 1663.9 2323.38 1670.62C2323.38 1677.34 2328.82 1682.79 2335.54 1682.79Z" fill="#FFA4C1"/>
<path d="M2335.54 1716.08C2342.27 1716.08 2347.72 1710.63 2347.72 1703.91C2347.72 1697.19 2342.27 1691.74 2335.54 1691.74C2328.82 1691.74 2323.38 1697.19 2323.38 1703.91C2323.38 1710.63 2328.82 1716.08 2335.54 1716.08Z" fill="#FFA4C1"/>
<path d="M2369.85 1649.51C2376.57 1649.51 2382.02 1644.06 2382.02 1637.34C2382.02 1630.62 2376.57 1625.17 2369.85 1625.17C2363.12 1625.17 2357.68 1630.62 2357.68 1637.34C2357.68 1644.06 2363.12 1649.51 2369.85 1649.51Z" fill="#FFA4C1"/>
<path d="M2369.85 1682.79C2376.57 1682.79 2382.02 1677.34 2382.02 1670.62C2382.02 1663.9 2376.57 1658.45 2369.85 1658.45C2363.12 1658.45 2357.68 1663.9 2357.68 1670.62C2357.68 1677.34 2363.12 1682.79 2369.85 1682.79Z" fill="#FFA4C1"/>
<path d="M2369.85 1716.08C2376.57 1716.08 2382.02 1710.63 2382.02 1703.91C2382.02 1697.19 2376.57 1691.74 2369.85 1691.74C2363.12 1691.74 2357.68 1697.19 2357.68 1703.91C2357.68 1710.63 2363.12 1716.08 2369.85 1716.08Z" fill="#FFA4C1"/>
<path d="M2556.69 1748.75H1590.09V1857.93H2556.69V1748.75Z" fill="white"/>
<path d="M2556.69 1748.76H1590.09V1770.59H2556.69V1748.76Z" fill="#EDE3CC"/>
<g style="mix-blend-mode:multiply">
<path fill-rule="evenodd" clip-rule="evenodd" d="M2369.79 1748.77L2477.72 1857.94H1895.62C1859.68 1819.51 1831.17 1785.21 1790.47 1748.77H2369.79Z" fill="#CDE3FF"/>
</g>
<path fill-rule="evenodd" clip-rule="evenodd" d="M2199.4 1750.38C2207.78 1685.77 2062.58 1447.62 2053.64 1418.39C2045.2 1390.79 2041.57 1346.77 2035.67 1318.72C2033.23 1307.12 2020.98 1282.25 2001.16 1261.49C1988.58 1248.29 1968.98 1240.24 1952.62 1235.54C1937.56 1231.21 1932.52 1243.16 1946.54 1254.52C1951.75 1258.73 1971.95 1264.97 1983.29 1277.77C2000.54 1297.26 2009.87 1305.64 2004.91 1307.7C2001.73 1309.02 2000.41 1299.77 1977.6 1278.05C1961.24 1262.48 1935.29 1253.08 1920.94 1253.03C1902.34 1252.96 1900.92 1255.81 1903.85 1264.64C1906.81 1273.52 1922.95 1274.68 1934.95 1278.78C1942 1281.18 1948.8 1282.63 1959.36 1293.75C1971.31 1306.34 1988.81 1318.61 1984.77 1321.63C1981.14 1324.34 1978.42 1316.47 1953.99 1294.47C1939.79 1281.68 1893.91 1264.19 1894.24 1285.56C1894.42 1297.36 1918.9 1297.91 1939.49 1311.86C1946.02 1316.3 1963.11 1337.43 1959.01 1340.58C1955.38 1343.35 1951.31 1327.95 1938.57 1317.04C1917.66 1299.16 1894.98 1298.54 1898.61 1312.35C1900.31 1318.79 1909.17 1318.73 1919.49 1326.85C1933.61 1337.94 1932.99 1347.97 1939.73 1365.36C1949.82 1391.37 1939.37 1375.33 1949.42 1399.31C1962.12 1429.66 1977.57 1430.88 1998.94 1457.47C2010.07 1471.3 2075.75 1746.99 2102.06 1781.37C2124.91 1811.23 2147.26 1820.96 2177.53 1813.84C2206.41 1807.05 2197.33 1766.43 2199.4 1750.38Z" fill="#DB8B6C"/>
<path fill-rule="evenodd" clip-rule="evenodd" d="M1901.45 1304.03C1901.37 1304.09 1901.26 1304.16 1901.15 1304.24C1898.62 1305.84 1899.31 1308.37 1900.8 1311.67C1901.24 1312.61 1902.13 1313.24 1903.16 1313.94C1904.95 1315.14 1907.15 1316.21 1909.6 1317.35C1915.38 1320.1 1922.22 1323.22 1928.14 1328.41C1929.64 1329.72 1931.37 1332.08 1933.05 1335.18C1936.15 1340.95 1939.47 1349.62 1942.17 1356.82C1943.29 1359.79 1949.42 1375.97 1949.77 1380.66C1950.32 1387.65 1953.2 1395.66 1957.48 1403.09C1960.54 1408.39 1963.22 1413.98 1967.63 1418.9C1978.2 1430.64 2003.55 1448.5 2007.9 1480.53C2007.96 1480.93 2007.96 1481.32 2007.94 1481.69C2003.81 1468.39 2000.69 1459.66 1998.94 1457.48C1977.57 1430.88 1962.13 1429.66 1949.42 1399.31C1939.38 1375.34 1949.82 1391.38 1939.73 1365.36C1932.98 1347.98 1933.62 1337.96 1919.49 1326.84C1909.16 1318.72 1900.3 1318.79 1898.62 1312.37C1897.55 1308.33 1898.73 1305.53 1901.45 1304.03ZM1899.18 1276.95C1899.03 1277.21 1898.72 1277.74 1898.59 1278.13C1897.94 1279.92 1897.65 1282.24 1898.35 1283.85C1899.27 1285.93 1900.71 1286.93 1902.31 1287.65C1903.97 1288.44 1905.8 1288.98 1907.59 1289.64C1910.67 1290.79 1928.24 1295.25 1941.28 1302.63C1951.72 1308.52 1962.22 1324.55 1966.5 1337.74C1967.44 1340.6 1965.86 1343.68 1962.98 1344.62C1960.12 1345.53 1957.04 1343.96 1956.11 1341.1C1955.84 1340.25 1955.54 1339.38 1955.21 1338.5C1956.67 1340.53 1957.87 1341.45 1959.01 1340.58C1963.11 1337.43 1946.02 1316.3 1939.49 1311.86C1918.9 1297.91 1894.42 1297.37 1894.25 1285.58C1894.16 1281.19 1896.04 1278.44 1899.18 1276.95ZM1906.5 1254.38C1906.39 1254.64 1906.39 1254.94 1906.41 1255.25C1906.48 1256.23 1906.83 1257.3 1907.39 1258.39C1907.98 1259.51 1908.79 1260.62 1909.84 1261.69C1912 1263.94 1914.45 1264.72 1917.31 1265.29C1921.32 1266.08 1926.02 1266.36 1931.76 1267.5C1941.54 1269.46 1956.24 1274.05 1976.04 1297.89C1981.15 1304.03 1987.96 1311.78 1990.38 1315.77C1991.83 1318.17 1992.11 1320.18 1992 1321.25C1991.72 1324.24 1989.05 1326.45 1986.06 1326.17C1983.59 1325.93 1981.67 1324.11 1981.21 1321.8C1981 1321.52 1980.45 1320.84 1979.69 1319.86C1982.11 1322.15 1983.38 1322.69 1984.77 1321.65C1988.81 1318.63 1971.3 1306.36 1959.36 1293.76C1948.79 1282.63 1942 1281.19 1934.95 1278.79C1922.96 1274.7 1906.8 1273.52 1903.86 1264.64C1902.02 1259.16 1901.89 1255.99 1906.5 1254.38ZM1939.49 1237.61C1939.93 1239.18 1940.8 1240.71 1941.78 1242.17C1945.41 1247.48 1951.02 1248.92 1957.7 1251.45C1966.11 1254.62 1976.06 1258.74 1986.96 1269.07C1999.1 1280.58 2009.01 1295.42 2012.15 1302.24C2013.7 1305.6 2013.7 1308.13 2013.44 1309.16C2012.66 1312.08 2009.66 1313.81 2006.76 1313.04C2004.38 1312.41 2002.81 1310.31 2002.7 1308C2002.41 1307.5 2001.28 1305.55 1999.53 1302.78C2002.39 1306.71 2003.46 1308.31 2004.9 1307.72C2009.86 1305.64 2000.54 1297.26 1983.29 1277.76C1971.96 1264.96 1951.74 1258.74 1946.54 1254.53C1938.53 1248.02 1936.74 1241.34 1939.49 1237.61Z" fill="#926767"/>
<g style="mix-blend-mode:multiply">
<path fill-rule="evenodd" clip-rule="evenodd" d="M414.047 1089.95V1048.78C414.047 514.93 846.799 82.1772 1380.64 82.1772V1089.95H414.047Z" fill="url(#paint0_linear)"/>
</g>
<path d="M1357.47 1060.93H440.76V1109.37H1357.47V1060.93Z" fill="white"/>
<path fill-rule="evenodd" clip-rule="evenodd" d="M1380.64 82.1782V1452.54H414.055C414.055 1452.54 414.055 1275.54 414.055 1048.78C414.055 514.946 846.813 82.1782 1380.64 82.1782ZM1336.98 126.877C847.543 149.645 457.716 553.691 457.716 1048.78V1408.86H1336.98V126.877Z" fill="white"/>
<path fill-rule="evenodd" clip-rule="evenodd" d="M1037.29 702.323C1068.61 762.102 1022.49 824.731 973.065 863.893C956.84 876.757 891.586 911.184 888.334 917.985C886.666 921.514 990.826 1125.98 1011.38 1132.97C1023.92 1137.24 1127.98 1129.82 1162.69 1081.47C1186.26 1048.61 1145.34 969.989 1148.04 967.479C1171.84 945.355 1195.58 914.879 1226.69 900.739L1037.29 702.323Z" fill="#C27251"/>
<path fill-rule="evenodd" clip-rule="evenodd" d="M1133.59 1419.62C1099.38 1467.76 1095.73 1466.37 1067.72 1486.19C1025.93 1515.78 760.188 1464.16 731.127 1462.61C688.769 1460.34 609.425 1473.85 574.032 1458.18C549.818 1447.46 558.638 1431.02 557.721 1391.17C555.822 1309.27 576.018 1243.64 599.118 1183.26C624.861 1116.04 664.774 983.482 810.844 922.39C848.398 906.713 886.673 885.709 929.359 888.045C949.49 889.137 1001.94 1093.35 1104.75 1097.83C1157.72 1100.12 1150.12 981.692 1167.2 993.941C1196.94 1015.27 1240.78 1045.29 1263.01 1088.35C1263.31 1088.85 1263.62 1089.36 1263.92 1089.86C1269.82 1099.9 1272.74 1109.81 1277.55 1124.81C1293.94 1176.1 1284.58 1226.23 1277.66 1254.14C1260.38 1323.72 1233.31 1406.58 1194.86 1418.81C1185.3 1421.85 1159.42 1423.92 1133.59 1419.62Z" fill="#80F0D2"/>
<path fill-rule="evenodd" clip-rule="evenodd" d="M1215.62 1253.48C1215.82 1269.19 1213.76 1284.34 1209.97 1299.11C1204.59 1320.16 1195.35 1340.01 1187.8 1360.56C1182.66 1374.58 1178.43 1388.89 1174.81 1403.25C1173.6 1408.08 1176.55 1412.96 1181.38 1414.17C1186.19 1415.38 1191.1 1412.43 1192.29 1407.6C1195.29 1395.69 1199.29 1383.99 1202.9 1372.15C1204.53 1366.74 1206.02 1361.29 1207.5 1355.84C1210.99 1342.9 1213.95 1329.89 1216.68 1316.84C1221.06 1295.99 1224.18 1275 1222.4 1253.18C1222.31 1251.31 1220.74 1249.86 1218.87 1249.95C1217.01 1250.03 1215.55 1251.62 1215.62 1253.48Z" fill="#349CBC"/>
<path fill-rule="evenodd" clip-rule="evenodd" d="M1081 1428.91C1088.24 1417.55 1144.65 1371.68 1151.64 1366.8C1172.05 1352.63 1245.45 1329.74 1272.39 1342.33C1289.09 1350.15 1271.46 1363.83 1269.8 1380.31C1268.76 1390.67 1261.21 1399.15 1256.03 1407.74C1248.05 1421 1240.26 1436.5 1228.74 1447.38C1223.86 1451.96 1216.82 1454.85 1210.99 1458.2" fill="#D37C59"/>
<path fill-rule="evenodd" clip-rule="evenodd" d="M1139.82 491.419C1229.6 414.474 1479.52 476.343 1489.76 632.557C1491.58 660.312 1483.27 692.203 1476.41 706.936C1459.68 743.127 1442.07 753.111 1435.31 775.04C1429.05 795.493 1444.67 844.965 1433.29 860.922C1418.68 881.409 1396.69 851.325 1383.52 860.554C1377.4 864.808 1380.31 884.144 1371.07 886.229C1349.2 891.1 1328.88 883.343 1316.06 874.003C1306.07 866.739 1301.2 857.173 1300.07 860.294C1292.44 880.975 1338.98 906.167 1331.21 928.283C1328.15 936.875 1320.44 934.397 1305.16 942.101C1291.23 949.145 1305.16 985.055 1247.33 989.847C1194.17 994.278 1119.67 903.667 1063.8 820.212C1006.85 735.18 1022.84 591.635 1139.82 491.419Z" fill="#D37C59"/>
<path fill-rule="evenodd" clip-rule="evenodd" d="M1322.92 935.421C1320.3 932.866 1318.16 929.439 1315.52 925.989C1314.25 924.308 1313.07 921.84 1312.13 918.871C1311.15 915.618 1310.28 911.491 1309.3 907.626C1308.86 905.836 1308.64 904.067 1307.92 902.757C1304.3 895.093 1300.47 887.32 1298.55 879.198C1297.18 873.303 1296.52 867.582 1297.42 861.796C1297.4 860.334 1298.16 858.914 1299.49 858.15C1301.5 856.993 1304.06 857.692 1305.19 859.679C1309.45 866.141 1316.89 870.814 1325.04 873.783C1328.97 875.224 1333.07 876.119 1337.13 876.665C1341.24 877.211 1345.3 877.299 1349.06 876.731C1359.4 875.443 1364.73 873.914 1369.27 873.761C1372.29 873.652 1375.04 873.958 1378.23 875.071C1377.05 880.355 1375.41 885.203 1371.04 886.185C1349.14 891.054 1328.82 883.303 1316 873.958C1306.04 866.687 1301.17 857.146 1300.02 860.268C1292.42 880.945 1338.95 906.12 1331.15 928.238C1329.67 932.474 1327.03 934.024 1322.92 935.421Z" fill="#AA5B3C"/>
<path fill-rule="evenodd" clip-rule="evenodd" d="M1236.93 650.94C1205.04 663.078 1209.75 696.028 1187.29 689.756C1169.98 684.929 1191.98 655.406 1186.36 627.255C1182.15 606.271 1159.81 598.141 1139.85 603.779C1096.26 616.053 1115.81 674.808 1109.92 688.737C1102.05 707.273 1094.46 725.06 1078.86 737.336C1071.65 743.026 1063.37 748.232 1056.27 755.608C1055.26 756.677 1040.94 773.14 1040.67 773.16C1034.65 773.597 1034.93 756.624 1032.95 745.611C1027.59 715.727 1026.04 690.478 1019 662.557C993.668 562.007 1035.61 474.959 1094.78 437.352C1143.48 406.394 1191.17 385.619 1239.81 387.142C1258.17 387.736 1269.03 402.564 1269.03 402.564C1269.03 402.564 1274.51 394.117 1300.45 395.898C1368.44 400.591 1445.93 474.134 1475.12 534.637C1488.81 563.034 1490.17 591.131 1501.53 608.896C1515.81 631.215 1539.09 639.683 1545.44 639.653C1558.01 639.593 1527.98 691.191 1486.67 691.691C1374.85 693.084 1362.37 600.734 1344.32 599.628C1326.32 598.55 1331.34 624.625 1298.63 637.822C1270.82 649.047 1262.68 641.159 1236.93 650.94Z" fill="#1E5A6C"/>
<path fill-rule="evenodd" clip-rule="evenodd" d="M1171.96 633.015L1170.67 625.461L1187.16 637.732C1191.76 640.854 1195.63 645.483 1198.16 651.4L1282.48 848.518C1290 866.029 1283.14 888.387 1267.24 898.409L1209.58 934.763C1203.31 938.715 1196.57 940.156 1190.24 939.414L1171.85 937.361L1175.28 932.645C1171.96 929.697 1169.14 925.855 1167.16 921.204L1082.83 724.108C1075.35 706.597 1082.18 684.238 1098.1 674.195L1155.76 637.863C1161 634.544 1166.57 632.994 1171.96 633.015Z" fill="#438093"/>
<path fill-rule="evenodd" clip-rule="evenodd" d="M1179.63 635.781C1174.41 623.59 1161.17 619.356 1150.09 626.345L1074.94 673.715C1063.85 680.704 1059.09 696.286 1064.3 708.476L1156.86 924.822C1162.09 937.038 1175.33 941.273 1186.42 934.283L1261.56 886.914C1272.65 879.924 1277.41 864.342 1272.19 852.127L1179.63 635.781Z" fill="#FFD500"/>
<path fill-rule="evenodd" clip-rule="evenodd" d="M1146.48 716.34C1149.15 714.604 1150.37 710.839 1149.2 707.935L1135.5 673.981C1134.33 671.078 1131.2 670.129 1128.53 671.864L1118.83 678.16C1116.15 679.896 1114.93 683.662 1116.1 686.565L1129.81 720.519C1130.98 723.423 1134.1 724.371 1136.77 722.635L1146.48 716.34Z" fill="#438093"/>
<path fill-rule="evenodd" clip-rule="evenodd" d="M1135.06 684.865C1133.48 680.845 1129.59 679.397 1126.4 681.574C1123.3 683.693 1122.01 688.59 1123.55 692.503C1125.13 696.524 1129.02 697.972 1132.21 695.795C1135.31 693.676 1136.6 688.779 1135.06 684.865ZM1134.25 685.185C1135.65 688.724 1134.53 693.158 1131.72 695.078C1129 696.936 1125.71 695.617 1124.36 692.184C1122.96 688.644 1124.09 684.206 1126.89 682.29C1129.62 680.428 1132.9 681.752 1134.25 685.185Z" fill="white"/>
<path fill-rule="evenodd" clip-rule="evenodd" d="M712.807 1055.87C696.113 1092.39 687.584 1122.2 683.962 1150.8C679.882 1182.89 682.02 1213.41 685.695 1250.16C688.634 1278.16 696.467 1313.1 705.796 1342.06C711.076 1358.46 716.91 1372.94 722.196 1383.3C726.833 1392.39 731.475 1398.52 735.1 1400.99C737.466 1402.58 740.443 1403.62 743.983 1403.87C748.4 1404.16 753.9 1403.26 759.778 1401.32C774.761 1396.4 792.704 1385.02 800.55 1376.46C802.835 1374.05 802.722 1370.25 800.328 1367.97C797.912 1365.69 794.119 1365.8 791.837 1368.19C786.721 1373.43 776.882 1379.68 766.877 1384.24C761.139 1386.87 755.333 1388.91 750.328 1389.74C747.313 1390.26 744.713 1390.66 743.08 1389.49C740.647 1387.76 738.144 1383.12 735.048 1376.84C730.182 1366.93 724.984 1353.05 719.843 1337.48C710.578 1309.41 701.704 1275.82 698.234 1248.71C693.48 1212.98 690.4 1183.28 693.306 1151.81C695.888 1123.8 703.16 1094.43 718.175 1058.2C718.816 1056.73 718.149 1055 716.678 1054.36C715.186 1053.71 713.473 1054.38 712.807 1055.87Z" fill="#349CBC"/>
<path fill-rule="evenodd" clip-rule="evenodd" d="M781.265 1404.23C776.047 1324.84 1021.27 979.925 1034.42 944.988C1046.84 911.983 1053.65 842.432 1063.01 808.704C1066.88 794.768 1088.25 767.266 1114 743.49C1130.36 728.374 1165.51 716.389 1185.82 711.919C1204.51 707.795 1213.46 725.435 1195.49 738.204C1188.82 742.938 1155.64 751.966 1140.84 766.688C1118.3 789.11 1098.24 821.513 1104.13 824.412C1107.9 826.257 1119.56 793.152 1149.04 768.439C1170.18 750.722 1204.18 741.501 1221.68 742.552C1244.36 743.906 1247.32 749.705 1243.06 760.246C1238.77 770.848 1219 771.014 1204.06 775.08C1195.28 777.457 1186.89 778.699 1173.16 791.439C1157.62 805.871 1128.22 843.285 1132.91 847.278C1137.12 850.856 1149.74 817.082 1181.22 792.149C1199.5 777.662 1259.89 766.505 1257.83 792.553C1256.71 806.902 1226.39 802.189 1200.21 817.608C1191.91 822.493 1155.29 868.451 1160.04 872.599C1164.24 876.264 1185.34 834.951 1201.71 822.658C1228.58 802.481 1270.58 808.067 1264.55 824.449C1258.57 840.708 1246.61 832.455 1226.98 845.201C1208.57 857.155 1210.19 863.456 1200.64 884.13C1186.32 915.057 1194.82 896.902 1191.23 928.474C1186.85 966.93 1151.69 1010.46 1123.59 1041.19C1108.96 1057.21 966.133 1439.17 939.481 1458.06C902.019 1484.62 878.822 1490.39 842.473 1479.36C807.804 1468.86 782.562 1423.94 781.265 1404.23Z" fill="#D97E59"/>
<path fill-rule="evenodd" clip-rule="evenodd" d="M1250.28 810.42C1260.69 812.211 1267.2 817.298 1264.56 824.438C1258.57 840.705 1246.61 832.451 1226.98 845.202C1208.6 857.146 1210.21 863.456 1200.65 884.111C1186.35 915.05 1194.84 896.906 1191.24 928.456C1191.22 928.696 1191.19 928.936 1191.15 929.176C1190.87 931.12 1190.56 933.106 1190.19 935.115C1186.39 954.089 1175.82 974.024 1162.85 992.867C1161.32 994.722 1159.84 996.556 1158.42 998.39C1155.56 1002.1 1152.81 1006.03 1150.12 1010.09C1141.35 1021.29 1132.15 1031.84 1123.59 1041.19C1120.39 1044.72 1110.95 1065.99 1097.9 1097.21C1097.87 1096.6 1097.92 1095.99 1098.09 1095.38C1106.67 1064.9 1110.06 1052.19 1118.62 1039.66C1128.97 1024.53 1138.44 1006.38 1149.8 991.709C1156.65 982.845 1165.52 974.002 1171.5 960.639C1181.78 937.67 1181.87 910.006 1183.6 901.207C1185.89 889.504 1194.69 875.923 1196.15 872.691C1201.91 859.853 1209.25 848.281 1214.6 844.176C1223.6 837.255 1235.04 833.652 1244.29 830.399C1249.16 828.674 1253.38 827.277 1255.6 824.962C1257.02 823.477 1256.98 821.381 1256.46 819.438C1255.78 816.862 1254.16 814.394 1252.22 812.975C1251.28 812.298 1250.65 811.403 1250.28 810.42ZM1243.4 777.713C1252.48 779.46 1258.53 784.001 1257.85 792.538C1256.72 806.905 1226.41 802.167 1200.21 817.604C1191.91 822.473 1155.3 868.434 1160.06 872.582C1160.82 873.259 1162.18 872.429 1163.94 870.508C1163.7 871.36 1163.55 872.124 1163.49 872.801C1163.27 875.814 1160.65 878.084 1157.66 877.844C1154.64 877.626 1152.39 875.006 1152.61 872.015C1153.01 866.447 1158.31 855.814 1165.78 844.831C1176.52 829.001 1191.48 812.298 1199.08 808.608C1215.47 800.661 1237.04 797.342 1240.89 796.185C1243.46 795.399 1246.63 794.591 1249.08 793.062C1250.28 792.298 1251.32 791.359 1251.24 789.722C1251.13 787.604 1249.77 785.071 1248.25 782.8C1246.74 780.573 1245.04 778.543 1243.57 777.822C1243.53 777.779 1243.46 777.757 1243.4 777.713ZM1230.23 743.39C1245.06 745.661 1246.72 751.206 1243.07 760.246C1238.79 770.857 1219.01 771.01 1204.08 775.071C1195.3 777.451 1186.89 778.696 1173.16 791.447C1157.63 805.857 1128.22 843.281 1132.92 847.277C1133.99 848.172 1135.56 846.709 1137.85 843.63C1136.43 847.408 1135.73 850.333 1135.78 851.512C1135.87 854.526 1133.51 857.058 1130.49 857.146C1127.48 857.255 1124.95 854.875 1124.86 851.862C1124.77 848.892 1127.59 837.211 1134.4 825.639C1139.8 816.468 1147.92 807.713 1155.89 798.587C1180.39 770.486 1196.43 768.128 1208.44 766.512C1216.48 765.42 1224.64 763.302 1230.41 760.966C1232.9 759.962 1235.69 758.193 1236 757.997C1239.47 752.604 1238.86 746.337 1233.84 745.595C1232.33 745.355 1231.06 744.547 1230.23 743.39ZM1194.9 711.665C1206.87 714.023 1210.21 727.735 1195.52 738.193C1188.84 742.931 1155.65 751.949 1140.84 766.687C1118.31 789.11 1098.25 821.512 1104.14 824.416C1104.77 824.722 1105.63 824.045 1106.74 822.604C1106.59 823.936 1106.63 825.159 1106.83 826.228C1107.42 829.176 1105.49 832.058 1102.55 832.648C1099.6 833.237 1096.72 831.294 1096.13 828.346C1095.39 824.591 1095.69 819.656 1097.57 813.958C1102.92 797.735 1119.71 774.241 1139.21 757.975C1153.05 746.425 1165.08 741.861 1175.17 738.324C1183.66 735.311 1190.65 733.433 1195.67 726.992C1198.99 722.757 1201.78 716.883 1196.15 712.866C1195.67 712.516 1195.25 712.123 1194.9 711.665Z" fill="#476B76"/>
<path fill-rule="evenodd" clip-rule="evenodd" d="M1391.34 744.489C1397.39 738.012 1409.82 730.99 1416.73 738.408C1424.13 746.329 1414.6 759.34 1411.3 762.841C1404.27 770.295 1388.85 780.216 1382.4 772.301C1374.13 762.122 1386.39 749.794 1391.34 744.489Z" fill="#1E5A6C"/>
<path d="M1122.07 1150.52C1127.73 1152.6 1134.01 1149.7 1136.08 1144.03C1138.16 1138.37 1135.26 1132.1 1129.59 1130.02C1123.93 1127.94 1117.66 1130.85 1115.58 1136.51C1113.5 1142.17 1116.41 1148.44 1122.07 1150.52Z" fill="white"/>
<path d="M1132 1201.75C1137.67 1203.83 1143.94 1200.92 1146.02 1195.26C1148.1 1189.6 1145.19 1183.33 1139.53 1181.25C1133.87 1179.17 1127.59 1182.07 1125.52 1187.74C1123.44 1193.4 1126.34 1199.67 1132 1201.75Z" fill="white"/>
<path fill-rule="evenodd" clip-rule="evenodd" d="M1419.76 689.741C1417.05 687.689 1414.52 685.833 1411.99 684.196C1410.05 682.973 1408.13 681.925 1406.23 681.051C1404.41 680.2 1402.62 679.545 1400.85 679.064C1398.85 678.54 1396.86 678.235 1394.89 678.235C1390.81 678.191 1386.84 679.195 1383.04 681.488C1379 683.933 1375.11 687.82 1371.34 693.693C1370.4 694.982 1370.66 696.816 1371.95 697.755C1373.23 698.715 1375.05 698.453 1376.01 697.165C1381.09 691.139 1385.88 688.191 1390.7 687.252C1392.32 686.925 1393.91 686.903 1395.57 686.99C1397.25 687.099 1398.98 687.318 1400.77 687.733C1402.89 688.213 1405.07 688.803 1407.36 689.589C1410.59 690.702 1413.98 691.947 1417.58 693.475C1418.61 694.087 1419.94 693.737 1420.53 692.711C1421.14 691.663 1420.79 690.353 1419.76 689.741Z" fill="#476B76"/>
<path d="M1380.73 1408.86H414.127V1518.04H1380.73V1408.86Z" fill="white"/>
<path d="M1380.73 1408.86H414.127V1430.7H1380.73V1408.86Z" fill="#EDE3CC"/>
<g style="mix-blend-mode:multiply">
<path fill-rule="evenodd" clip-rule="evenodd" d="M1179.27 1518.02H433.223L544.795 1408.85H1309.25L1179.27 1518.02Z" fill="#CCE2FF"/>
</g>
<path fill-rule="evenodd" clip-rule="evenodd" d="M1308.03 1340.21C1284.55 1332.98 1223.79 1336.17 1209.1 1373.6C1206.78 1379.54 1172.33 1396.7 1169.58 1401.59C1168.03 1404.37 1174.85 1408.5 1182.36 1407.97C1190.56 1407.36 1199.78 1401.99 1204.44 1403.54C1231.67 1412.54 1242.31 1444.43 1285.33 1450.74C1313.62 1454.9 1367.51 1488.71 1384.9 1460.98C1400.4 1436.22 1324.29 1434.04 1334.88 1419.7C1344.94 1406.1 1411.36 1415.93 1423.59 1419.61C1442.66 1425.35 1469.2 1460.15 1485.85 1442.32C1500.08 1427.08 1447.54 1392.45 1436.8 1386.78C1415.3 1375.44 1389.9 1371.64 1367.58 1361.3C1355.26 1355.57 1327.34 1346.18 1308.03 1340.21Z" fill="#D37C59"/>
<path fill-rule="evenodd" clip-rule="evenodd" d="M1472.26 1447.17C1473.81 1446.8 1475.36 1446.12 1476.72 1445.29C1478.03 1444.46 1479.14 1443.48 1479.86 1442.37C1480.45 1441.47 1480.73 1440.51 1480.34 1439.57C1478.55 1435.25 1475.17 1429.77 1471.24 1424.59C1467.48 1419.64 1463.2 1414.92 1459.16 1411.87C1452.46 1406.8 1444.25 1401.65 1436.43 1397.21C1426.13 1391.36 1416.54 1386.73 1412.24 1384.97C1409.86 1383.98 1400.8 1380.97 1389.77 1377.89C1382.52 1375.88 1374.45 1373.81 1366.83 1372.26C1366.3 1372.15 1365.97 1371.65 1366.08 1371.14C1366.17 1370.64 1366.67 1370.29 1367.18 1370.4C1374.86 1371.84 1383.05 1373.81 1390.36 1375.73C1401.59 1378.66 1410.8 1381.54 1413.25 1382.5C1417.61 1384.2 1427.39 1388.72 1438.01 1394.35C1446.08 1398.66 1454.62 1403.59 1461.61 1408.52C1466.04 1411.65 1470.82 1416.47 1474.99 1421.67C1479.34 1427.11 1483.01 1432.96 1485.01 1437.56C1485.78 1439.33 1485.78 1441.17 1485.21 1442.91C1481.32 1446.73 1476.94 1447.83 1472.26 1447.17ZM1216.56 1409.53C1214.77 1407.96 1212.94 1406.43 1211.08 1405.1C1209.47 1403.92 1207.85 1402.85 1206.21 1401.97C1203.53 1400.49 1200.87 1399.46 1198.31 1399.01C1196.52 1398.72 1192.74 1399.18 1188.97 1400.03C1185.45 1400.84 1181.93 1401.95 1179.9 1403.22C1179.45 1403.5 1178.81 1403.37 1178.53 1402.91C1178.22 1402.45 1178.35 1401.82 1178.81 1401.52C1180.93 1400.07 1184.64 1398.7 1188.38 1397.67C1192.55 1396.54 1196.72 1395.9 1198.73 1396.17C1201.89 1396.52 1205.23 1397.7 1208.68 1399.31C1213.05 1401.34 1217.59 1404.07 1221.83 1407.32C1223.44 1408.57 1225.04 1409.88 1226.5 1411.28C1227.48 1412.21 1228.42 1413.22 1229.31 1414.22C1231.06 1416.23 1232.61 1418.24 1234.03 1420.21C1235.69 1422.48 1237.04 1424.62 1238.22 1426.56C1238.46 1426.84 1238.44 1427.26 1238.22 1427.54C1230.78 1421.06 1224.14 1414.49 1216.56 1409.53ZM1334.16 1423.83L1333.92 1423.7C1328.22 1420.64 1323.03 1417.32 1317.28 1414.16C1312.09 1411.28 1306.54 1408.46 1300.38 1405.25C1299.6 1404.9 1299.27 1403.96 1299.62 1403.18C1299.99 1402.41 1300.93 1402.06 1301.69 1402.43C1308.14 1405.05 1313.83 1407.54 1319.36 1409.75C1325.43 1412.15 1331.28 1414.05 1337.28 1416.39C1337.66 1416.52 1338.03 1416.67 1338.38 1416.82C1336.87 1417.63 1335.67 1418.59 1334.84 1419.7C1333.75 1421.19 1333.57 1422.54 1334.16 1423.83Z" fill="#476B76"/>
</g>
<defs>
<linearGradient id="paint0_linear" x1="1380.64" y1="402.877" x2="1380.64" y2="1073.12" gradientUnits="userSpaceOnUse">
<stop stop-color="white"/>
<stop offset="1" stop-color="#B8EEFF"/>
</linearGradient>
<clipPath id="clip0">
<rect width="3028.38" height="2000" fill="white"/>
</clipPath>
</defs>
</svg>
