<svg width="680" height="275" viewBox="0 0 680 275" fill="none" xmlns="http://www.w3.org/2000/svg">
<path d="M585.484 154.338C585.484 153.739 585.273 153.234 584.85 152.824C584.433 152.414 583.727 152.043 582.73 151.711C581.344 151.288 580.331 150.738 579.693 150.061C579.062 149.377 578.746 148.511 578.746 147.463C578.746 146.395 579.055 145.52 579.674 144.836C580.299 144.152 581.155 143.745 582.242 143.615V141.477H583.697V143.625C584.791 143.775 585.641 144.234 586.246 145.002C586.858 145.77 587.164 146.822 587.164 148.156H585.367C585.367 147.238 585.149 146.509 584.713 145.969C584.277 145.428 583.688 145.158 582.945 145.158C582.171 145.158 581.578 145.36 581.168 145.764C580.758 146.161 580.553 146.717 580.553 147.434C580.553 148.098 580.768 148.628 581.197 149.025C581.633 149.416 582.346 149.774 583.336 150.1C584.332 150.419 585.107 150.773 585.66 151.164C586.22 151.548 586.63 151.997 586.891 152.512C587.158 153.026 587.291 153.628 587.291 154.318C587.291 155.419 586.959 156.304 586.295 156.975C585.637 157.645 584.713 158.042 583.521 158.166V160.031H582.076V158.166C580.865 158.055 579.915 157.626 579.225 156.877C578.541 156.122 578.199 155.1 578.199 153.811H580.006C580.006 154.715 580.243 155.412 580.719 155.9C581.194 156.389 581.868 156.633 582.74 156.633C583.593 156.633 584.264 156.428 584.752 156.018C585.24 155.607 585.484 155.048 585.484 154.338ZM598.453 151.936C598.453 154.051 598.092 155.624 597.369 156.652C596.646 157.681 595.517 158.195 593.98 158.195C592.464 158.195 591.34 157.694 590.611 156.691C589.882 155.682 589.505 154.178 589.479 152.18V149.768C589.479 147.678 589.84 146.125 590.562 145.109C591.285 144.094 592.418 143.586 593.961 143.586C595.491 143.586 596.617 144.077 597.34 145.061C598.062 146.037 598.434 147.548 598.453 149.592V151.936ZM596.646 149.465C596.646 147.935 596.432 146.822 596.002 146.125C595.572 145.422 594.892 145.07 593.961 145.07C593.036 145.07 592.363 145.419 591.939 146.115C591.516 146.812 591.298 147.883 591.285 149.328V152.219C591.285 153.755 591.507 154.891 591.949 155.627C592.398 156.356 593.076 156.721 593.98 156.721C594.872 156.721 595.533 156.376 595.963 155.686C596.399 154.995 596.627 153.908 596.646 152.424V149.465ZM600.992 157.053C600.992 156.74 601.083 156.48 601.266 156.271C601.454 156.063 601.734 155.959 602.105 155.959C602.477 155.959 602.757 156.063 602.945 156.271C603.141 156.48 603.238 156.74 603.238 157.053C603.238 157.352 603.141 157.603 602.945 157.805C602.757 158.007 602.477 158.107 602.105 158.107C601.734 158.107 601.454 158.007 601.266 157.805C601.083 157.603 600.992 157.352 600.992 157.053ZM614.957 151.936C614.957 154.051 614.596 155.624 613.873 156.652C613.15 157.681 612.021 158.195 610.484 158.195C608.967 158.195 607.844 157.694 607.115 156.691C606.386 155.682 606.008 154.178 605.982 152.18V149.768C605.982 147.678 606.344 146.125 607.066 145.109C607.789 144.094 608.922 143.586 610.465 143.586C611.995 143.586 613.121 144.077 613.844 145.061C614.566 146.037 614.938 147.548 614.957 149.592V151.936ZM613.15 149.465C613.15 147.935 612.936 146.822 612.506 146.125C612.076 145.422 611.396 145.07 610.465 145.07C609.54 145.07 608.867 145.419 608.443 146.115C608.02 146.812 607.802 147.883 607.789 149.328V152.219C607.789 153.755 608.01 154.891 608.453 155.627C608.902 156.356 609.579 156.721 610.484 156.721C611.376 156.721 612.037 156.376 612.467 155.686C612.903 154.995 613.131 153.908 613.15 152.424V149.465ZM624.361 143.771V145.305H624.029C622.623 145.331 621.503 145.747 620.67 146.555C619.837 147.362 619.355 148.498 619.225 149.963C619.973 149.104 620.995 148.674 622.291 148.674C623.528 148.674 624.514 149.11 625.25 149.982C625.992 150.855 626.363 151.981 626.363 153.361C626.363 154.826 625.963 155.998 625.162 156.877C624.368 157.756 623.3 158.195 621.959 158.195C620.598 158.195 619.495 157.674 618.648 156.633C617.802 155.585 617.379 154.237 617.379 152.59V151.896C617.379 149.279 617.936 147.281 619.049 145.9C620.169 144.514 621.832 143.804 624.039 143.771H624.361ZM621.988 150.178C621.37 150.178 620.8 150.363 620.279 150.734C619.758 151.105 619.397 151.571 619.195 152.131V152.795C619.195 153.967 619.459 154.911 619.986 155.627C620.514 156.343 621.171 156.701 621.959 156.701C622.773 156.701 623.411 156.402 623.873 155.803C624.342 155.204 624.576 154.419 624.576 153.449C624.576 152.473 624.339 151.685 623.863 151.086C623.395 150.48 622.77 150.178 621.988 150.178ZM629.049 159.221H627.496L633.434 143.781H634.977L629.049 159.221ZM638.629 147.434L638.678 148.605C639.452 147.694 640.497 147.238 641.812 147.238C643.29 147.238 644.296 147.805 644.83 148.938C645.182 148.43 645.637 148.02 646.197 147.707C646.764 147.395 647.431 147.238 648.199 147.238C650.517 147.238 651.695 148.465 651.734 150.92V158H649.928V151.027C649.928 150.272 649.755 149.709 649.41 149.338C649.065 148.96 648.486 148.771 647.672 148.771C647.001 148.771 646.445 148.973 646.002 149.377C645.559 149.774 645.302 150.311 645.23 150.988V158H643.414V151.076C643.414 149.54 642.662 148.771 641.158 148.771C639.973 148.771 639.163 149.276 638.727 150.285V158H636.92V147.434H638.629ZM656.432 158H654.625V147.434H656.432V158ZM654.479 144.631C654.479 144.338 654.566 144.09 654.742 143.889C654.924 143.687 655.191 143.586 655.543 143.586C655.895 143.586 656.161 143.687 656.344 143.889C656.526 144.09 656.617 144.338 656.617 144.631C656.617 144.924 656.526 145.168 656.344 145.363C656.161 145.559 655.895 145.656 655.543 145.656C655.191 145.656 654.924 145.559 654.742 145.363C654.566 145.168 654.479 144.924 654.479 144.631ZM661.041 147.434L661.1 148.762C661.907 147.746 662.962 147.238 664.264 147.238C666.497 147.238 667.623 148.498 667.643 151.018V158H665.836V151.008C665.829 150.246 665.654 149.683 665.309 149.318C664.97 148.954 664.439 148.771 663.717 148.771C663.131 148.771 662.617 148.928 662.174 149.24C661.731 149.553 661.386 149.963 661.139 150.471V158H659.332V147.434H661.041ZM532.169 173.114C532.169 172.379 532.267 171.672 532.462 170.995C532.66 170.318 532.955 169.703 533.346 169.149C533.736 168.596 534.142 168.205 534.562 167.978L534.747 168.573C534.272 168.938 533.881 169.494 533.575 170.243C533.272 170.992 533.106 171.83 533.077 172.758L533.072 173.173C533.072 174.429 533.302 175.52 533.761 176.444C534.037 176.998 534.366 177.431 534.747 177.743L534.562 178.295C534.129 178.054 533.715 177.65 533.321 177.084C532.553 175.977 532.169 174.654 532.169 173.114ZM536.603 176H535.699V170.717H536.603V176ZM535.626 169.315C535.626 169.169 535.67 169.045 535.758 168.944C535.849 168.843 535.982 168.793 536.158 168.793C536.334 168.793 536.467 168.843 536.559 168.944C536.65 169.045 536.695 169.169 536.695 169.315C536.695 169.462 536.65 169.584 536.559 169.682C536.467 169.779 536.334 169.828 536.158 169.828C535.982 169.828 535.849 169.779 535.758 169.682C535.67 169.584 535.626 169.462 535.626 169.315ZM538.907 170.717L538.937 171.381C539.34 170.873 539.868 170.619 540.519 170.619C541.635 170.619 542.198 171.249 542.208 172.509V176H541.305V172.504C541.301 172.123 541.214 171.841 541.041 171.659C540.872 171.477 540.606 171.386 540.245 171.386C539.952 171.386 539.695 171.464 539.474 171.62C539.252 171.776 539.08 171.981 538.956 172.235V176H538.053V170.717H538.907ZM545.689 175.36C546.012 175.36 546.293 175.263 546.534 175.067C546.775 174.872 546.909 174.628 546.935 174.335H547.789C547.773 174.638 547.669 174.926 547.477 175.199C547.285 175.473 547.027 175.691 546.705 175.854C546.386 176.016 546.048 176.098 545.689 176.098C544.97 176.098 544.397 175.858 543.971 175.38C543.548 174.898 543.336 174.241 543.336 173.407V173.256C543.336 172.742 543.43 172.284 543.619 171.884C543.808 171.483 544.078 171.173 544.43 170.951C544.785 170.73 545.203 170.619 545.685 170.619C546.277 170.619 546.769 170.797 547.159 171.151C547.553 171.506 547.763 171.967 547.789 172.533H546.935C546.909 172.191 546.778 171.911 546.544 171.693C546.313 171.472 546.026 171.361 545.685 171.361C545.226 171.361 544.869 171.527 544.615 171.859C544.365 172.188 544.239 172.665 544.239 173.29V173.461C544.239 174.07 544.365 174.538 544.615 174.867C544.866 175.196 545.224 175.36 545.689 175.36ZM549.786 176H548.883V168.5H549.786V176ZM557.213 174.169C557.213 173.869 557.107 173.617 556.896 173.412C556.687 173.207 556.334 173.021 555.836 172.855C555.143 172.644 554.636 172.369 554.317 172.03C554.002 171.688 553.844 171.256 553.844 170.731C553.844 170.198 553.998 169.76 554.308 169.418C554.62 169.076 555.048 168.873 555.592 168.808V167.738H556.319V168.812C556.866 168.887 557.291 169.117 557.594 169.501C557.9 169.885 558.053 170.411 558.053 171.078H557.154C557.154 170.619 557.045 170.255 556.827 169.984C556.609 169.714 556.314 169.579 555.943 169.579C555.556 169.579 555.26 169.68 555.055 169.882C554.85 170.08 554.747 170.359 554.747 170.717C554.747 171.049 554.854 171.314 555.069 171.513C555.287 171.708 555.644 171.887 556.139 172.05C556.637 172.209 557.024 172.387 557.301 172.582C557.581 172.774 557.786 172.999 557.916 173.256C558.049 173.513 558.116 173.814 558.116 174.159C558.116 174.709 557.95 175.152 557.618 175.487C557.289 175.823 556.827 176.021 556.231 176.083V177.016H555.509V176.083C554.903 176.028 554.428 175.813 554.083 175.438C553.741 175.061 553.57 174.55 553.57 173.905H554.474C554.474 174.358 554.592 174.706 554.83 174.95C555.068 175.194 555.405 175.316 555.841 175.316C556.267 175.316 556.603 175.214 556.847 175.009C557.091 174.804 557.213 174.524 557.213 174.169ZM563.697 172.968C563.697 174.026 563.517 174.812 563.155 175.326C562.794 175.84 562.229 176.098 561.461 176.098C560.702 176.098 560.141 175.847 559.776 175.346C559.412 174.841 559.223 174.089 559.21 173.09V171.884C559.21 170.839 559.391 170.062 559.752 169.555C560.113 169.047 560.68 168.793 561.451 168.793C562.216 168.793 562.779 169.039 563.141 169.53C563.502 170.019 563.688 170.774 563.697 171.796V172.968ZM562.794 171.732C562.794 170.967 562.687 170.411 562.472 170.062C562.257 169.711 561.917 169.535 561.451 169.535C560.989 169.535 560.652 169.709 560.44 170.058C560.229 170.406 560.12 170.941 560.113 171.664V173.109C560.113 173.878 560.224 174.446 560.445 174.813C560.67 175.178 561.008 175.36 561.461 175.36C561.907 175.36 562.237 175.188 562.452 174.843C562.67 174.498 562.784 173.954 562.794 173.212V171.732ZM564.967 175.526C564.967 175.37 565.012 175.24 565.104 175.136C565.198 175.032 565.338 174.979 565.523 174.979C565.709 174.979 565.849 175.032 565.943 175.136C566.041 175.24 566.09 175.37 566.09 175.526C566.09 175.676 566.041 175.801 565.943 175.902C565.849 176.003 565.709 176.054 565.523 176.054C565.338 176.054 565.198 176.003 565.104 175.902C565.012 175.801 564.967 175.676 564.967 175.526ZM571.949 172.968C571.949 174.026 571.769 174.812 571.407 175.326C571.046 175.84 570.481 176.098 569.713 176.098C568.954 176.098 568.393 175.847 568.028 175.346C567.664 174.841 567.475 174.089 567.462 173.09V171.884C567.462 170.839 567.643 170.062 568.004 169.555C568.365 169.047 568.932 168.793 569.703 168.793C570.468 168.793 571.031 169.039 571.393 169.53C571.754 170.019 571.939 170.774 571.949 171.796V172.968ZM571.046 171.732C571.046 170.967 570.938 170.411 570.724 170.062C570.509 169.711 570.169 169.535 569.703 169.535C569.241 169.535 568.904 169.709 568.692 170.058C568.481 170.406 568.372 170.941 568.365 171.664V173.109C568.365 173.878 568.476 174.446 568.697 174.813C568.922 175.178 569.26 175.36 569.713 175.36C570.159 175.36 570.489 175.188 570.704 174.843C570.922 174.498 571.036 173.954 571.046 173.212V171.732ZM577.564 172.968C577.564 174.026 577.384 174.812 577.022 175.326C576.661 175.84 576.096 176.098 575.328 176.098C574.57 176.098 574.008 175.847 573.644 175.346C573.279 174.841 573.09 174.089 573.077 173.09V171.884C573.077 170.839 573.258 170.062 573.619 169.555C573.98 169.047 574.547 168.793 575.318 168.793C576.083 168.793 576.646 169.039 577.008 169.53C577.369 170.019 577.555 170.774 577.564 171.796V172.968ZM576.661 171.732C576.661 170.967 576.554 170.411 576.339 170.062C576.124 169.711 575.784 169.535 575.318 169.535C574.856 169.535 574.519 169.709 574.308 170.058C574.096 170.406 573.987 170.941 573.98 171.664V173.109C573.98 173.878 574.091 174.446 574.312 174.813C574.537 175.178 574.876 175.36 575.328 175.36C575.774 175.36 576.104 175.188 576.319 174.843C576.537 174.498 576.651 173.954 576.661 173.212V171.732ZM583.38 176H578.722V175.351L581.183 172.616C581.547 172.203 581.798 171.868 581.935 171.61C582.075 171.35 582.145 171.081 582.145 170.805C582.145 170.434 582.032 170.129 581.808 169.892C581.583 169.654 581.284 169.535 580.909 169.535C580.46 169.535 580.11 169.664 579.859 169.921C579.612 170.175 579.488 170.53 579.488 170.985H578.585C578.585 170.331 578.795 169.802 579.215 169.398C579.638 168.995 580.203 168.793 580.909 168.793C581.57 168.793 582.092 168.967 582.477 169.315C582.861 169.66 583.053 170.121 583.053 170.697C583.053 171.397 582.607 172.23 581.715 173.197L579.811 175.263H583.38V176ZM584.61 176.61H583.834L586.803 168.891H587.574L584.61 176.61ZM589.4 170.717L589.425 171.303C589.812 170.847 590.335 170.619 590.992 170.619C591.731 170.619 592.234 170.902 592.501 171.469C592.677 171.215 592.905 171.01 593.185 170.854C593.468 170.697 593.801 170.619 594.186 170.619C595.344 170.619 595.934 171.233 595.953 172.46V176H595.05V172.514C595.05 172.136 594.964 171.854 594.791 171.669C594.618 171.48 594.329 171.386 593.922 171.386C593.587 171.386 593.308 171.487 593.087 171.688C592.866 171.887 592.737 172.156 592.701 172.494V176H591.793V172.538C591.793 171.77 591.417 171.386 590.665 171.386C590.073 171.386 589.667 171.638 589.449 172.143V176H588.546V170.717H589.4ZM598.302 176H597.398V170.717H598.302V176ZM597.325 169.315C597.325 169.169 597.369 169.045 597.457 168.944C597.548 168.843 597.682 168.793 597.857 168.793C598.033 168.793 598.167 168.843 598.258 168.944C598.349 169.045 598.395 169.169 598.395 169.315C598.395 169.462 598.349 169.584 598.258 169.682C598.167 169.779 598.033 169.828 597.857 169.828C597.682 169.828 597.548 169.779 597.457 169.682C597.369 169.584 597.325 169.462 597.325 169.315ZM600.606 170.717L600.636 171.381C601.039 170.873 601.567 170.619 602.218 170.619C603.334 170.619 603.897 171.249 603.907 172.509V176H603.004V172.504C603.001 172.123 602.913 171.841 602.74 171.659C602.571 171.477 602.306 171.386 601.944 171.386C601.651 171.386 601.394 171.464 601.173 171.62C600.951 171.776 600.779 171.981 600.655 172.235V176H599.752V170.717H600.606ZM607.511 173.31C607.511 172.792 607.612 172.326 607.813 171.913C608.019 171.5 608.302 171.181 608.663 170.956C609.028 170.731 609.443 170.619 609.908 170.619C610.628 170.619 611.209 170.868 611.651 171.366C612.097 171.864 612.32 172.527 612.32 173.354V173.417C612.32 173.931 612.221 174.394 612.022 174.804C611.827 175.211 611.546 175.528 611.178 175.756C610.813 175.984 610.393 176.098 609.918 176.098C609.202 176.098 608.621 175.849 608.175 175.351C607.732 174.853 607.511 174.193 607.511 173.373V173.31ZM608.419 173.417C608.419 174.003 608.554 174.473 608.824 174.828C609.098 175.183 609.462 175.36 609.918 175.36C610.377 175.36 610.742 175.181 611.012 174.823C611.282 174.462 611.417 173.957 611.417 173.31C611.417 172.73 611.279 172.261 611.002 171.903C610.729 171.542 610.364 171.361 609.908 171.361C609.462 171.361 609.103 171.539 608.829 171.894C608.556 172.248 608.419 172.756 608.419 173.417ZM613.897 176V171.415H613.062V170.717H613.897V170.175C613.897 169.608 614.049 169.171 614.352 168.861C614.654 168.552 615.082 168.397 615.636 168.397C615.844 168.397 616.051 168.425 616.256 168.48L616.207 169.213C616.054 169.184 615.891 169.169 615.719 169.169C615.426 169.169 615.2 169.255 615.04 169.428C614.881 169.597 614.801 169.841 614.801 170.16V170.717H615.929V171.415H614.801V176H613.897ZM619.19 173.314C619.19 172.504 619.382 171.853 619.767 171.361C620.151 170.867 620.654 170.619 621.275 170.619C621.894 170.619 622.384 170.831 622.745 171.254V168.5H623.648V176H622.818L622.774 175.434C622.413 175.876 621.91 176.098 621.266 176.098C620.654 176.098 620.154 175.847 619.767 175.346C619.382 174.844 619.19 174.19 619.19 173.383V173.314ZM620.094 173.417C620.094 174.016 620.217 174.485 620.465 174.823C620.712 175.162 621.054 175.331 621.49 175.331C622.063 175.331 622.481 175.074 622.745 174.56V172.133C622.475 171.635 622.06 171.386 621.5 171.386C621.057 171.386 620.712 171.557 620.465 171.898C620.217 172.24 620.094 172.746 620.094 173.417ZM628.316 176C628.264 175.896 628.222 175.71 628.189 175.443C627.77 175.88 627.268 176.098 626.686 176.098C626.165 176.098 625.737 175.951 625.401 175.658C625.069 175.362 624.903 174.988 624.903 174.535C624.903 173.985 625.112 173.559 625.528 173.256C625.948 172.95 626.537 172.797 627.296 172.797H628.175V172.382C628.175 172.066 628.08 171.815 627.892 171.63C627.703 171.441 627.424 171.347 627.057 171.347C626.734 171.347 626.464 171.428 626.246 171.591C626.028 171.754 625.919 171.951 625.919 172.182H625.011C625.011 171.918 625.104 171.664 625.289 171.42C625.478 171.173 625.732 170.977 626.051 170.834C626.373 170.691 626.726 170.619 627.11 170.619C627.719 170.619 628.196 170.772 628.541 171.078C628.886 171.381 629.065 171.799 629.078 172.333V174.765C629.078 175.25 629.14 175.635 629.264 175.922V176H628.316ZM626.817 175.312C627.101 175.312 627.369 175.238 627.623 175.092C627.877 174.945 628.061 174.755 628.175 174.521V173.437H627.467C626.36 173.437 625.807 173.76 625.807 174.408C625.807 174.691 625.901 174.913 626.09 175.072C626.279 175.232 626.521 175.312 626.817 175.312ZM631.72 169.438V170.717H632.706V171.415H631.72V174.691C631.72 174.903 631.764 175.062 631.852 175.17C631.939 175.274 632.089 175.326 632.301 175.326C632.405 175.326 632.548 175.307 632.73 175.268V176C632.493 176.065 632.262 176.098 632.037 176.098C631.633 176.098 631.329 175.976 631.124 175.731C630.919 175.487 630.816 175.141 630.816 174.691V171.415H629.854V170.717H630.816V169.438H631.72ZM637.027 176C636.975 175.896 636.933 175.71 636.9 175.443C636.48 175.88 635.979 176.098 635.396 176.098C634.876 176.098 634.448 175.951 634.112 175.658C633.78 175.362 633.614 174.988 633.614 174.535C633.614 173.985 633.823 173.559 634.239 173.256C634.659 172.95 635.248 172.797 636.007 172.797H636.886V172.382C636.886 172.066 636.791 171.815 636.603 171.63C636.414 171.441 636.135 171.347 635.768 171.347C635.445 171.347 635.175 171.428 634.957 171.591C634.739 171.754 634.63 171.951 634.63 172.182H633.722C633.722 171.918 633.814 171.664 634 171.42C634.189 171.173 634.443 170.977 634.762 170.834C635.084 170.691 635.437 170.619 635.821 170.619C636.43 170.619 636.907 170.772 637.252 171.078C637.597 171.381 637.776 171.799 637.789 172.333V174.765C637.789 175.25 637.851 175.635 637.975 175.922V176H637.027ZM635.528 175.312C635.812 175.312 636.08 175.238 636.334 175.092C636.588 174.945 636.772 174.755 636.886 174.521V173.437H636.178C635.071 173.437 634.518 173.76 634.518 174.408C634.518 174.691 634.612 174.913 634.801 175.072C634.99 175.232 635.232 175.312 635.528 175.312ZM643.805 175.36C644.127 175.36 644.409 175.263 644.649 175.067C644.89 174.872 645.024 174.628 645.05 174.335H645.904C645.888 174.638 645.784 174.926 645.592 175.199C645.4 175.473 645.143 175.691 644.82 175.854C644.501 176.016 644.163 176.098 643.805 176.098C643.085 176.098 642.512 175.858 642.086 175.38C641.663 174.898 641.451 174.241 641.451 173.407V173.256C641.451 172.742 641.546 172.284 641.734 171.884C641.923 171.483 642.193 171.173 642.545 170.951C642.9 170.73 643.318 170.619 643.8 170.619C644.392 170.619 644.884 170.797 645.274 171.151C645.668 171.506 645.878 171.967 645.904 172.533H645.05C645.024 172.191 644.894 171.911 644.659 171.693C644.428 171.472 644.142 171.361 643.8 171.361C643.341 171.361 642.984 171.527 642.73 171.859C642.48 172.188 642.354 172.665 642.354 173.29V173.461C642.354 174.07 642.48 174.538 642.73 174.867C642.981 175.196 643.339 175.36 643.805 175.36ZM646.681 173.31C646.681 172.792 646.782 172.326 646.983 171.913C647.188 171.5 647.472 171.181 647.833 170.956C648.198 170.731 648.613 170.619 649.078 170.619C649.798 170.619 650.379 170.868 650.821 171.366C651.267 171.864 651.49 172.527 651.49 173.354V173.417C651.49 173.931 651.391 174.394 651.192 174.804C650.997 175.211 650.715 175.528 650.348 175.756C649.983 175.984 649.563 176.098 649.088 176.098C648.372 176.098 647.791 175.849 647.345 175.351C646.902 174.853 646.681 174.193 646.681 173.373V173.31ZM647.589 173.417C647.589 174.003 647.724 174.473 647.994 174.828C648.268 175.183 648.632 175.36 649.088 175.36C649.547 175.36 649.911 175.181 650.182 174.823C650.452 174.462 650.587 173.957 650.587 173.31C650.587 172.73 650.449 172.261 650.172 171.903C649.898 171.542 649.534 171.361 649.078 171.361C648.632 171.361 648.272 171.539 647.999 171.894C647.726 172.248 647.589 172.756 647.589 173.417ZM655.699 174.599C655.699 174.354 655.606 174.166 655.421 174.032C655.239 173.896 654.918 173.778 654.459 173.681C654.003 173.583 653.64 173.466 653.37 173.329C653.103 173.192 652.905 173.03 652.774 172.841C652.647 172.652 652.584 172.427 652.584 172.167C652.584 171.734 652.766 171.368 653.131 171.068C653.499 170.769 653.967 170.619 654.537 170.619C655.136 170.619 655.621 170.774 655.992 171.083C656.367 171.392 656.554 171.788 656.554 172.27H655.646C655.646 172.022 655.54 171.809 655.328 171.63C655.12 171.451 654.856 171.361 654.537 171.361C654.208 171.361 653.951 171.433 653.766 171.576C653.58 171.719 653.487 171.907 653.487 172.138C653.487 172.356 653.574 172.52 653.746 172.631C653.919 172.742 654.229 172.847 654.679 172.948C655.131 173.049 655.497 173.17 655.777 173.31C656.057 173.45 656.264 173.619 656.397 173.817C656.534 174.013 656.603 174.252 656.603 174.535C656.603 175.007 656.414 175.386 656.036 175.673C655.659 175.956 655.169 176.098 654.566 176.098C654.143 176.098 653.769 176.023 653.443 175.873C653.118 175.723 652.862 175.515 652.677 175.248C652.494 174.978 652.403 174.687 652.403 174.374H653.307C653.323 174.677 653.443 174.918 653.668 175.097C653.896 175.272 654.195 175.36 654.566 175.36C654.908 175.36 655.182 175.292 655.387 175.155C655.595 175.015 655.699 174.83 655.699 174.599ZM659.005 169.438V170.717H659.991V171.415H659.005V174.691C659.005 174.903 659.049 175.062 659.137 175.17C659.225 175.274 659.374 175.326 659.586 175.326C659.69 175.326 659.833 175.307 660.016 175.268V176C659.778 176.065 659.547 176.098 659.322 176.098C658.919 176.098 658.614 175.976 658.409 175.731C658.204 175.487 658.102 175.141 658.102 174.691V171.415H657.14V170.717H658.102V169.438H659.005ZM664.127 174.599C664.127 174.354 664.034 174.166 663.849 174.032C663.666 173.896 663.346 173.778 662.887 173.681C662.431 173.583 662.068 173.466 661.798 173.329C661.531 173.192 661.332 173.03 661.202 172.841C661.075 172.652 661.012 172.427 661.012 172.167C661.012 171.734 661.194 171.368 661.559 171.068C661.926 170.769 662.395 170.619 662.965 170.619C663.564 170.619 664.049 170.774 664.42 171.083C664.794 171.392 664.981 171.788 664.981 172.27H664.073C664.073 172.022 663.967 171.809 663.756 171.63C663.548 171.451 663.284 171.361 662.965 171.361C662.636 171.361 662.379 171.433 662.193 171.576C662.008 171.719 661.915 171.907 661.915 172.138C661.915 172.356 662.001 172.52 662.174 172.631C662.346 172.742 662.657 172.847 663.106 172.948C663.559 173.049 663.925 173.17 664.205 173.31C664.485 173.45 664.692 173.619 664.825 173.817C664.962 174.013 665.03 174.252 665.03 174.535C665.03 175.007 664.841 175.386 664.464 175.673C664.086 175.956 663.596 176.098 662.994 176.098C662.571 176.098 662.197 176.023 661.871 175.873C661.546 175.723 661.29 175.515 661.104 175.248C660.922 174.978 660.831 174.687 660.831 174.374H661.734C661.751 174.677 661.871 174.918 662.096 175.097C662.324 175.272 662.623 175.36 662.994 175.36C663.336 175.36 663.609 175.292 663.814 175.155C664.023 175.015 664.127 174.83 664.127 174.599ZM668.292 173.163C668.292 173.889 668.196 174.586 668.004 175.253C667.815 175.917 667.524 176.531 667.13 177.094C666.739 177.657 666.329 178.057 665.899 178.295L665.709 177.743C666.21 177.359 666.612 176.763 666.915 175.956C667.221 175.146 667.377 174.247 667.384 173.261V173.104C667.384 172.421 667.312 171.786 667.169 171.2C667.026 170.611 666.826 170.084 666.568 169.618C666.314 169.153 666.028 168.79 665.709 168.529L665.899 167.978C666.329 168.215 666.738 168.612 667.125 169.169C667.516 169.726 667.807 170.339 667.999 171.01C668.194 171.68 668.292 172.398 668.292 173.163Z" fill="black"/>
<rect x="134" y="245" width="30" height="30" fill="#52B2CF"/>
<rect x="358" y="245" width="30" height="30" fill="#CBE8F1"/>
<rect x="134" y="60" width="546" height="50" fill="#52B2CF"/>
<rect x="141" y="136" width="360" height="50" fill="#CBE8F1"/>
<path d="M19.8398 72.6621C18.2318 72.1999 17.0599 71.6335 16.3242 70.9629C15.5951 70.2858 15.2305 69.4525 15.2305 68.4629C15.2305 67.3431 15.6764 66.4186 16.5684 65.6895C17.4668 64.9538 18.6322 64.5859 20.0645 64.5859C21.041 64.5859 21.9102 64.7747 22.6719 65.1523C23.4401 65.5299 24.0326 66.0508 24.4492 66.7148C24.8724 67.3789 25.084 68.1048 25.084 68.8926H23.1992C23.1992 68.0332 22.9258 67.3594 22.3789 66.8711C21.832 66.3763 21.0605 66.1289 20.0645 66.1289C19.14 66.1289 18.4173 66.334 17.8965 66.7441C17.3822 67.1478 17.125 67.7109 17.125 68.4336C17.125 69.013 17.3691 69.5046 17.8574 69.9082C18.3522 70.3053 19.1888 70.6699 20.3672 71.002C21.5521 71.334 22.4766 71.7018 23.1406 72.1055C23.8112 72.5026 24.306 72.9681 24.625 73.502C24.9505 74.0358 25.1133 74.6641 25.1133 75.3867C25.1133 76.5391 24.6641 77.4635 23.7656 78.1602C22.8672 78.8503 21.666 79.1953 20.1621 79.1953C19.1855 79.1953 18.2741 79.0098 17.4277 78.6387C16.5814 78.2611 15.9271 77.7467 15.4648 77.0957C15.0091 76.4447 14.7812 75.7057 14.7812 74.8789H16.666C16.666 75.7383 16.9818 76.4186 17.6133 76.9199C18.2513 77.4147 19.1009 77.6621 20.1621 77.6621C21.1517 77.6621 21.9102 77.4603 22.4375 77.0566C22.9648 76.653 23.2285 76.1029 23.2285 75.4062C23.2285 74.7096 22.9844 74.1725 22.4961 73.7949C22.0078 73.4108 21.1224 73.0332 19.8398 72.6621ZM29.6934 65.875V68.4336H31.666V69.8301H29.6934V76.3828C29.6934 76.806 29.7812 77.125 29.957 77.3398C30.1328 77.5482 30.4323 77.6523 30.8555 77.6523C31.0638 77.6523 31.3503 77.6133 31.7148 77.5352V79C31.2396 79.1302 30.7773 79.1953 30.3281 79.1953C29.5208 79.1953 28.9121 78.9512 28.502 78.4629C28.0918 77.9746 27.8867 77.2812 27.8867 76.3828V69.8301H25.9629V68.4336H27.8867V65.875H29.6934ZM40.3086 79C40.2044 78.7917 40.1198 78.4206 40.0547 77.8867C39.2148 78.7591 38.2122 79.1953 37.0469 79.1953C36.0052 79.1953 35.1491 78.9023 34.4785 78.3164C33.8145 77.724 33.4824 76.9753 33.4824 76.0703C33.4824 74.9701 33.8991 74.1172 34.7324 73.5117C35.5723 72.8997 36.7507 72.5938 38.2676 72.5938H40.0254V71.7637C40.0254 71.1322 39.8366 70.6309 39.459 70.2598C39.0814 69.8822 38.5247 69.6934 37.7891 69.6934C37.1445 69.6934 36.6042 69.8561 36.168 70.1816C35.7318 70.5072 35.5137 70.901 35.5137 71.3633H33.6973C33.6973 70.8359 33.8828 70.3281 34.2539 69.8398C34.6315 69.3451 35.1393 68.9544 35.7773 68.668C36.4219 68.3815 37.1283 68.2383 37.8965 68.2383C39.1139 68.2383 40.0677 68.5443 40.7578 69.1562C41.4479 69.7617 41.806 70.5983 41.832 71.666V76.5293C41.832 77.4993 41.9557 78.2708 42.2031 78.8438V79H40.3086ZM37.3105 77.623C37.877 77.623 38.4141 77.4766 38.9219 77.1836C39.4297 76.8906 39.7975 76.5098 40.0254 76.041V73.873H38.6094C36.3958 73.873 35.2891 74.5208 35.2891 75.8164C35.2891 76.3828 35.4779 76.8255 35.8555 77.1445C36.2331 77.4635 36.7181 77.623 37.3105 77.623ZM46.373 68.4336L46.4316 69.7617C47.2389 68.7461 48.2936 68.2383 49.5957 68.2383C51.8288 68.2383 52.9551 69.498 52.9746 72.0176V79H51.168V72.0078C51.1615 71.2461 50.9857 70.6829 50.6406 70.3184C50.3021 69.9538 49.7715 69.7715 49.0488 69.7715C48.4629 69.7715 47.9486 69.9277 47.5059 70.2402C47.0632 70.5527 46.7181 70.9629 46.4707 71.4707V79H44.6641V68.4336H46.373ZM55.2598 73.6289C55.2598 72.0078 55.6439 70.7057 56.4121 69.7227C57.1803 68.7331 58.1862 68.2383 59.4297 68.2383C60.6667 68.2383 61.6465 68.6615 62.3691 69.5078V64H64.1758V79H62.5156L62.4277 77.8672C61.7051 78.7526 60.6992 79.1953 59.4102 79.1953C58.1862 79.1953 57.1868 78.694 56.4121 77.6914C55.6439 76.6888 55.2598 75.3802 55.2598 73.7656V73.6289ZM57.0664 73.834C57.0664 75.0319 57.3138 75.9694 57.8086 76.6465C58.3034 77.3236 58.987 77.6621 59.8594 77.6621C61.0052 77.6621 61.8418 77.1478 62.3691 76.1191V71.2656C61.8288 70.2695 60.9987 69.7715 59.8789 69.7715C58.9935 69.7715 58.3034 70.1133 57.8086 70.7969C57.3138 71.4805 57.0664 72.4928 57.0664 73.834ZM73.5117 79C73.4076 78.7917 73.3229 78.4206 73.2578 77.8867C72.418 78.7591 71.4154 79.1953 70.25 79.1953C69.2083 79.1953 68.3522 78.9023 67.6816 78.3164C67.0176 77.724 66.6855 76.9753 66.6855 76.0703C66.6855 74.9701 67.1022 74.1172 67.9355 73.5117C68.7754 72.8997 69.9538 72.5938 71.4707 72.5938H73.2285V71.7637C73.2285 71.1322 73.0397 70.6309 72.6621 70.2598C72.2845 69.8822 71.7279 69.6934 70.9922 69.6934C70.3477 69.6934 69.8073 69.8561 69.3711 70.1816C68.9349 70.5072 68.7168 70.901 68.7168 71.3633H66.9004C66.9004 70.8359 67.0859 70.3281 67.457 69.8398C67.8346 69.3451 68.3424 68.9544 68.9805 68.668C69.625 68.3815 70.3314 68.2383 71.0996 68.2383C72.3171 68.2383 73.2708 68.5443 73.9609 69.1562C74.651 69.7617 75.0091 70.5983 75.0352 71.666V76.5293C75.0352 77.4993 75.1589 78.2708 75.4062 78.8438V79H73.5117ZM70.5137 77.623C71.0801 77.623 71.6172 77.4766 72.125 77.1836C72.6328 76.8906 73.0007 76.5098 73.2285 76.041V73.873H71.8125C69.599 73.873 68.4922 74.5208 68.4922 75.8164C68.4922 76.3828 68.681 76.8255 69.0586 77.1445C69.4362 77.4635 69.9212 77.623 70.5137 77.623ZM82.9746 70.0547C82.7012 70.0091 82.4049 69.9863 82.0859 69.9863C80.901 69.9863 80.097 70.4909 79.6738 71.5V79H77.8672V68.4336H79.625L79.6543 69.6543C80.2467 68.7103 81.0866 68.2383 82.1738 68.2383C82.5254 68.2383 82.7923 68.2839 82.9746 68.375V70.0547ZM84.0098 73.6289C84.0098 72.0078 84.3939 70.7057 85.1621 69.7227C85.9303 68.7331 86.9362 68.2383 88.1797 68.2383C89.4167 68.2383 90.3965 68.6615 91.1191 69.5078V64H92.9258V79H91.2656L91.1777 77.8672C90.4551 78.7526 89.4492 79.1953 88.1602 79.1953C86.9362 79.1953 85.9368 78.694 85.1621 77.6914C84.3939 76.6888 84.0098 75.3802 84.0098 73.7656V73.6289ZM85.8164 73.834C85.8164 75.0319 86.0638 75.9694 86.5586 76.6465C87.0534 77.3236 87.737 77.6621 88.6094 77.6621C89.7552 77.6621 90.5918 77.1478 91.1191 76.1191V71.2656C90.5788 70.2695 89.7487 69.7715 88.6289 69.7715C87.7435 69.7715 87.0534 70.1133 86.5586 70.7969C86.0638 71.4805 85.8164 72.4928 85.8164 73.834ZM19.6055 105.721C20.25 105.721 20.8132 105.525 21.2949 105.135C21.7767 104.744 22.0436 104.256 22.0957 103.67H23.8047C23.7721 104.275 23.5638 104.852 23.1797 105.398C22.7956 105.945 22.2812 106.382 21.6367 106.707C20.9987 107.033 20.3216 107.195 19.6055 107.195C18.1667 107.195 17.0208 106.717 16.168 105.76C15.3216 104.796 14.8984 103.481 14.8984 101.814V101.512C14.8984 100.483 15.0872 99.5684 15.4648 98.7676C15.8424 97.9668 16.3828 97.3451 17.0859 96.9023C17.7956 96.4596 18.6322 96.2383 19.5957 96.2383C20.7806 96.2383 21.7637 96.5931 22.5449 97.3027C23.3327 98.0124 23.7526 98.9336 23.8047 100.066H22.0957C22.0436 99.3828 21.7832 98.8229 21.3145 98.3867C20.8522 97.944 20.2793 97.7227 19.5957 97.7227C18.6777 97.7227 17.9648 98.0547 17.457 98.7188C16.9557 99.3763 16.7051 100.33 16.7051 101.58V101.922C16.7051 103.139 16.9557 104.077 17.457 104.734C17.9583 105.392 18.6745 105.721 19.6055 105.721ZM32.3594 107C32.2552 106.792 32.1706 106.421 32.1055 105.887C31.2656 106.759 30.263 107.195 29.0977 107.195C28.056 107.195 27.1999 106.902 26.5293 106.316C25.8652 105.724 25.5332 104.975 25.5332 104.07C25.5332 102.97 25.9499 102.117 26.7832 101.512C27.623 100.9 28.8014 100.594 30.3184 100.594H32.0762V99.7637C32.0762 99.1322 31.8874 98.6309 31.5098 98.2598C31.1322 97.8822 30.5755 97.6934 29.8398 97.6934C29.1953 97.6934 28.6549 97.8561 28.2188 98.1816C27.7826 98.5072 27.5645 98.901 27.5645 99.3633H25.748C25.748 98.8359 25.9336 98.3281 26.3047 97.8398C26.6823 97.3451 27.1901 96.9544 27.8281 96.668C28.4727 96.3815 29.179 96.2383 29.9473 96.2383C31.1647 96.2383 32.1185 96.5443 32.8086 97.1562C33.4987 97.7617 33.8568 98.5983 33.8828 99.666V104.529C33.8828 105.499 34.0065 106.271 34.2539 106.844V107H32.3594ZM29.3613 105.623C29.9277 105.623 30.4648 105.477 30.9727 105.184C31.4805 104.891 31.8483 104.51 32.0762 104.041V101.873H30.6602C28.4466 101.873 27.3398 102.521 27.3398 103.816C27.3398 104.383 27.5286 104.826 27.9062 105.145C28.2839 105.464 28.7689 105.623 29.3613 105.623ZM38.6777 107H36.8711V92H38.6777V107ZM43.541 107H41.7344V92H43.541V107ZM48.4043 107H46.5977V96.4336H48.4043V107ZM46.4512 93.6309C46.4512 93.3379 46.5391 93.0905 46.7148 92.8887C46.8971 92.6868 47.1641 92.5859 47.5156 92.5859C47.8672 92.5859 48.1341 92.6868 48.3164 92.8887C48.4987 93.0905 48.5898 93.3379 48.5898 93.6309C48.5898 93.9238 48.4987 94.168 48.3164 94.3633C48.1341 94.5586 47.8672 94.6562 47.5156 94.6562C47.1641 94.6562 46.8971 94.5586 46.7148 94.3633C46.5391 94.168 46.4512 93.9238 46.4512 93.6309ZM53.0137 96.4336L53.0723 97.7617C53.8796 96.7461 54.9342 96.2383 56.2363 96.2383C58.4694 96.2383 59.5957 97.498 59.6152 100.018V107H57.8086V100.008C57.8021 99.2461 57.6263 98.6829 57.2812 98.3184C56.9427 97.9538 56.4121 97.7715 55.6895 97.7715C55.1035 97.7715 54.5892 97.9277 54.1465 98.2402C53.7038 98.5527 53.3587 98.9629 53.1113 99.4707V107H51.3047V96.4336H53.0137ZM61.9102 101.629C61.9102 99.9818 62.291 98.6732 63.0527 97.7031C63.8145 96.7266 64.8236 96.2383 66.0801 96.2383C67.3691 96.2383 68.375 96.694 69.0977 97.6055L69.1855 96.4336H70.8359V106.746C70.8359 108.113 70.429 109.191 69.6152 109.979C68.8079 110.766 67.7207 111.16 66.3535 111.16C65.5918 111.16 64.8464 110.997 64.1172 110.672C63.388 110.346 62.8314 109.9 62.4473 109.334L63.3848 108.25C64.1595 109.207 65.1068 109.686 66.2266 109.686C67.1055 109.686 67.7891 109.438 68.2773 108.943C68.7721 108.449 69.0195 107.752 69.0195 106.854V105.945C68.2969 106.779 67.3105 107.195 66.0605 107.195C64.8236 107.195 63.821 106.697 63.0527 105.701C62.291 104.705 61.9102 103.348 61.9102 101.629ZM63.7266 101.834C63.7266 103.025 63.9707 103.963 64.459 104.646C64.9473 105.324 65.6309 105.662 66.5098 105.662C67.6491 105.662 68.4857 105.145 69.0195 104.109V99.2852C68.4661 98.276 67.6361 97.7715 66.5293 97.7715C65.6504 97.7715 64.9635 98.1133 64.4688 98.7969C63.974 99.4805 63.7266 100.493 63.7266 101.834ZM83.6387 98.0547C83.3652 98.0091 83.069 97.9863 82.75 97.9863C81.5651 97.9863 80.7611 98.4909 80.3379 99.5V107H78.5312V96.4336H80.2891L80.3184 97.6543C80.9108 96.7103 81.7507 96.2383 82.8379 96.2383C83.1895 96.2383 83.4564 96.2839 83.6387 96.375V98.0547ZM91.4414 107C91.3372 106.792 91.2526 106.421 91.1875 105.887C90.3477 106.759 89.3451 107.195 88.1797 107.195C87.138 107.195 86.2819 106.902 85.6113 106.316C84.9473 105.724 84.6152 104.975 84.6152 104.07C84.6152 102.97 85.0319 102.117 85.8652 101.512C86.7051 100.9 87.8835 100.594 89.4004 100.594H91.1582V99.7637C91.1582 99.1322 90.9694 98.6309 90.5918 98.2598C90.2142 97.8822 89.6576 97.6934 88.9219 97.6934C88.2773 97.6934 87.737 97.8561 87.3008 98.1816C86.8646 98.5072 86.6465 98.901 86.6465 99.3633H84.8301C84.8301 98.8359 85.0156 98.3281 85.3867 97.8398C85.7643 97.3451 86.2721 96.9544 86.9102 96.668C87.5547 96.3815 88.2611 96.2383 89.0293 96.2383C90.2467 96.2383 91.2005 96.5443 91.8906 97.1562C92.5807 97.7617 92.9388 98.5983 92.9648 99.666V104.529C92.9648 105.499 93.0885 106.271 93.3359 106.844V107H91.4414ZM88.4434 105.623C89.0098 105.623 89.5469 105.477 90.0547 105.184C90.5625 104.891 90.9303 104.51 91.1582 104.041V101.873H89.7422C87.5286 101.873 86.4219 102.521 86.4219 103.816C86.4219 104.383 86.6107 104.826 86.9883 105.145C87.3659 105.464 87.8509 105.623 88.4434 105.623ZM98.248 93.875V96.4336H100.221V97.8301H98.248V104.383C98.248 104.806 98.3359 105.125 98.5117 105.34C98.6875 105.548 98.987 105.652 99.4102 105.652C99.6185 105.652 99.9049 105.613 100.27 105.535V107C99.7943 107.13 99.332 107.195 98.8828 107.195C98.0755 107.195 97.4668 106.951 97.0566 106.463C96.6465 105.975 96.4414 105.281 96.4414 104.383V97.8301H94.5176V96.4336H96.4414V93.875H98.248ZM106.725 107.195C105.292 107.195 104.127 106.727 103.229 105.789C102.33 104.845 101.881 103.585 101.881 102.01V101.678C101.881 100.63 102.079 99.6953 102.477 98.875C102.88 98.0482 103.44 97.4036 104.156 96.9414C104.879 96.4727 105.66 96.2383 106.5 96.2383C107.874 96.2383 108.941 96.6908 109.703 97.5957C110.465 98.5007 110.846 99.7962 110.846 101.482V102.234H103.688C103.714 103.276 104.016 104.119 104.596 104.764C105.182 105.402 105.924 105.721 106.822 105.721C107.46 105.721 108.001 105.59 108.443 105.33C108.886 105.07 109.273 104.725 109.605 104.295L110.709 105.154C109.824 106.515 108.495 107.195 106.725 107.195ZM106.5 97.7227C105.771 97.7227 105.159 97.9896 104.664 98.5234C104.169 99.0508 103.863 99.793 103.746 100.75H109.039V100.613C108.987 99.6953 108.74 98.9857 108.297 98.4844C107.854 97.9766 107.255 97.7227 106.5 97.7227ZM119.098 104.197C119.098 103.709 118.912 103.331 118.541 103.064C118.176 102.791 117.535 102.557 116.617 102.361C115.706 102.166 114.98 101.932 114.439 101.658C113.906 101.385 113.508 101.059 113.248 100.682C112.994 100.304 112.867 99.8548 112.867 99.334C112.867 98.4681 113.232 97.7357 113.961 97.1367C114.697 96.5378 115.634 96.2383 116.773 96.2383C117.971 96.2383 118.941 96.5475 119.684 97.166C120.432 97.7845 120.807 98.5755 120.807 99.5391H118.99C118.99 99.0443 118.779 98.6178 118.355 98.2598C117.939 97.9017 117.411 97.7227 116.773 97.7227C116.116 97.7227 115.602 97.8659 115.23 98.1523C114.859 98.4388 114.674 98.8132 114.674 99.2754C114.674 99.7116 114.846 100.04 115.191 100.262C115.536 100.483 116.158 100.695 117.057 100.896C117.962 101.098 118.694 101.339 119.254 101.619C119.814 101.899 120.227 102.238 120.494 102.635C120.768 103.025 120.904 103.504 120.904 104.07C120.904 105.014 120.527 105.773 119.771 106.346C119.016 106.912 118.036 107.195 116.832 107.195C115.986 107.195 115.237 107.046 114.586 106.746C113.935 106.447 113.424 106.03 113.053 105.496C112.688 104.956 112.506 104.373 112.506 103.748H114.312C114.345 104.354 114.586 104.835 115.035 105.193C115.491 105.545 116.09 105.721 116.832 105.721C117.516 105.721 118.062 105.584 118.473 105.311C118.889 105.031 119.098 104.66 119.098 104.197Z" fill="black"/>
<path d="M334.748 14.2637C334.637 15.7936 334.071 16.998 333.049 17.877C332.033 18.7559 330.692 19.1953 329.025 19.1953C327.202 19.1953 325.767 18.5833 324.719 17.3594C323.677 16.1289 323.156 14.4427 323.156 12.3008V11.4316C323.156 10.0645 323.397 8.86003 323.879 7.81836C324.361 6.77669 325.048 5.97917 325.939 5.42578C326.838 4.86589 327.88 4.58594 329.064 4.58594C330.705 4.58594 332.027 5.02539 333.029 5.9043C334.032 6.7832 334.611 8.01693 334.768 9.60547H331.838C331.766 8.6875 331.509 8.02344 331.066 7.61328C330.63 7.19661 329.963 6.98828 329.064 6.98828C328.088 6.98828 327.355 7.33984 326.867 8.04297C326.385 8.73958 326.138 9.82357 326.125 11.2949V12.3691C326.125 13.9056 326.356 15.0286 326.818 15.7383C327.287 16.4479 328.023 16.8027 329.025 16.8027C329.93 16.8027 330.604 16.5977 331.047 16.1875C331.496 15.7708 331.753 15.1296 331.818 14.2637H334.748ZM336.047 13.6191C336.047 12.571 336.249 11.6367 336.652 10.8164C337.056 9.99609 337.635 9.36133 338.391 8.91211C339.152 8.46289 340.035 8.23828 341.037 8.23828C342.463 8.23828 343.625 8.67448 344.523 9.54688C345.428 10.4193 345.933 11.6042 346.037 13.1016L346.057 13.8242C346.057 15.4453 345.604 16.7474 344.699 17.7305C343.794 18.707 342.58 19.1953 341.057 19.1953C339.533 19.1953 338.316 18.707 337.404 17.7305C336.499 16.7539 336.047 15.4258 336.047 13.7461V13.6191ZM338.869 13.8242C338.869 14.8268 339.058 15.5951 339.436 16.1289C339.813 16.6562 340.354 16.9199 341.057 16.9199C341.74 16.9199 342.274 16.6595 342.658 16.1387C343.042 15.6113 343.234 14.7715 343.234 13.6191C343.234 12.6361 343.042 11.8743 342.658 11.334C342.274 10.7936 341.734 10.5234 341.037 10.5234C340.347 10.5234 339.813 10.7936 339.436 11.334C339.058 11.8678 338.869 12.6979 338.869 13.8242ZM353.518 16.0801C353.518 15.735 353.345 15.4648 353 15.2695C352.661 15.0677 352.115 14.8887 351.359 14.7324C348.846 14.2051 347.59 13.1374 347.59 11.5293C347.59 10.5918 347.977 9.81055 348.752 9.18555C349.533 8.55404 350.552 8.23828 351.809 8.23828C353.15 8.23828 354.221 8.55404 355.021 9.18555C355.829 9.81706 356.232 10.6374 356.232 11.6465H353.41C353.41 11.2428 353.28 10.9108 353.02 10.6504C352.759 10.3835 352.352 10.25 351.799 10.25C351.324 10.25 350.956 10.3574 350.695 10.5723C350.435 10.7871 350.305 11.0605 350.305 11.3926C350.305 11.7051 350.451 11.959 350.744 12.1543C351.044 12.3431 351.545 12.5091 352.248 12.6523C352.951 12.7891 353.544 12.9453 354.025 13.1211C355.516 13.668 356.262 14.6152 356.262 15.9629C356.262 16.9264 355.848 17.7077 355.021 18.3066C354.195 18.8991 353.127 19.1953 351.818 19.1953C350.933 19.1953 350.145 19.0391 349.455 18.7266C348.771 18.4076 348.234 17.9746 347.844 17.4277C347.453 16.8743 347.258 16.2786 347.258 15.6406H349.934C349.96 16.1419 350.145 16.526 350.49 16.793C350.835 17.0599 351.298 17.1934 351.877 17.1934C352.417 17.1934 352.824 17.0924 353.098 16.8906C353.378 16.6823 353.518 16.4121 353.518 16.0801ZM361.467 5.83594V8.43359H363.273V10.5039H361.467V15.7773C361.467 16.168 361.542 16.4479 361.691 16.6172C361.841 16.7865 362.128 16.8711 362.551 16.8711C362.863 16.8711 363.14 16.8483 363.381 16.8027V18.9414C362.827 19.1107 362.258 19.1953 361.672 19.1953C359.693 19.1953 358.684 18.196 358.645 16.1973V10.5039H357.102V8.43359H358.645V5.83594H361.467ZM370.568 16.0801C370.568 15.735 370.396 15.4648 370.051 15.2695C369.712 15.0677 369.165 14.8887 368.41 14.7324C365.897 14.2051 364.641 13.1374 364.641 11.5293C364.641 10.5918 365.028 9.81055 365.803 9.18555C366.584 8.55404 367.603 8.23828 368.859 8.23828C370.201 8.23828 371.271 8.55404 372.072 9.18555C372.88 9.81706 373.283 10.6374 373.283 11.6465H370.461C370.461 11.2428 370.331 10.9108 370.07 10.6504C369.81 10.3835 369.403 10.25 368.85 10.25C368.374 10.25 368.007 10.3574 367.746 10.5723C367.486 10.7871 367.355 11.0605 367.355 11.3926C367.355 11.7051 367.502 11.959 367.795 12.1543C368.094 12.3431 368.596 12.5091 369.299 12.6523C370.002 12.7891 370.594 12.9453 371.076 13.1211C372.567 13.668 373.312 14.6152 373.312 15.9629C373.312 16.9264 372.899 17.7077 372.072 18.3066C371.245 18.8991 370.178 19.1953 368.869 19.1953C367.984 19.1953 367.196 19.0391 366.506 18.7266C365.822 18.4076 365.285 17.9746 364.895 17.4277C364.504 16.8743 364.309 16.2786 364.309 15.6406H366.984C367.01 16.1419 367.196 16.526 367.541 16.793C367.886 17.0599 368.348 17.1934 368.928 17.1934C369.468 17.1934 369.875 17.0924 370.148 16.8906C370.428 16.6823 370.568 16.4121 370.568 16.0801ZM383.098 19H380.266V8.43359H383.098V19ZM380.1 5.69922C380.1 5.27604 380.24 4.92773 380.52 4.6543C380.806 4.38086 381.193 4.24414 381.682 4.24414C382.163 4.24414 382.548 4.38086 382.834 4.6543C383.12 4.92773 383.264 5.27604 383.264 5.69922C383.264 6.12891 383.117 6.48047 382.824 6.75391C382.538 7.02734 382.157 7.16406 381.682 7.16406C381.206 7.16406 380.822 7.02734 380.529 6.75391C380.243 6.48047 380.1 6.12891 380.1 5.69922ZM388.029 8.43359L388.117 9.6543C388.872 8.71029 389.885 8.23828 391.154 8.23828C392.274 8.23828 393.107 8.56706 393.654 9.22461C394.201 9.88216 394.481 10.8652 394.494 12.1738V19H391.672V12.2422C391.672 11.6432 391.542 11.2103 391.281 10.9434C391.021 10.6699 390.588 10.5332 389.982 10.5332C389.188 10.5332 388.592 10.8717 388.195 11.5488V19H385.373V8.43359H388.029ZM401.037 16.9199C401.558 16.9199 401.981 16.7767 402.307 16.4902C402.632 16.2038 402.801 15.8229 402.814 15.3477H405.461C405.454 16.0638 405.259 16.7214 404.875 17.3203C404.491 17.9128 403.964 18.375 403.293 18.707C402.629 19.0326 401.893 19.1953 401.086 19.1953C399.576 19.1953 398.384 18.7168 397.512 17.7598C396.639 16.7962 396.203 15.4681 396.203 13.7754V13.5898C396.203 11.9622 396.636 10.6634 397.502 9.69336C398.368 8.72331 399.556 8.23828 401.066 8.23828C402.388 8.23828 403.446 8.61589 404.24 9.37109C405.041 10.1198 405.448 11.1191 405.461 12.3691H402.814C402.801 11.8223 402.632 11.3796 402.307 11.041C401.981 10.696 401.551 10.5234 401.018 10.5234C400.36 10.5234 399.862 10.7643 399.523 11.2461C399.191 11.7214 399.025 12.4961 399.025 13.5703V13.8633C399.025 14.9505 399.191 15.7318 399.523 16.207C399.855 16.6823 400.36 16.9199 401.037 16.9199ZM413.4 17.9258C412.704 18.7721 411.74 19.1953 410.51 19.1953C409.377 19.1953 408.511 18.8698 407.912 18.2188C407.32 17.5677 407.017 16.6139 407.004 15.3574V8.43359H409.826V15.2598C409.826 16.36 410.327 16.9102 411.33 16.9102C412.287 16.9102 412.945 16.5781 413.303 15.9141V8.43359H416.135V19H413.479L413.4 17.9258ZM424.201 11.0801C423.817 11.028 423.479 11.002 423.186 11.002C422.118 11.002 421.418 11.3633 421.086 12.0859V19H418.264V8.43359H420.93L421.008 9.69336C421.574 8.72331 422.359 8.23828 423.361 8.23828C423.674 8.23828 423.967 8.2806 424.24 8.36523L424.201 11.0801ZM431.506 11.0801C431.122 11.028 430.783 11.002 430.49 11.002C429.423 11.002 428.723 11.3633 428.391 12.0859V19H425.568V8.43359H428.234L428.312 9.69336C428.879 8.72331 429.663 8.23828 430.666 8.23828C430.979 8.23828 431.271 8.2806 431.545 8.36523L431.506 11.0801ZM437.541 19.1953C435.992 19.1953 434.729 18.7201 433.752 17.7695C432.782 16.819 432.297 15.5527 432.297 13.9707V13.6973C432.297 12.6361 432.502 11.6888 432.912 10.8555C433.322 10.0156 433.902 9.37109 434.65 8.92188C435.406 8.46615 436.265 8.23828 437.229 8.23828C438.674 8.23828 439.81 8.69401 440.637 9.60547C441.47 10.5169 441.887 11.8092 441.887 13.4824V14.6348H435.158C435.249 15.3249 435.523 15.8783 435.979 16.2949C436.441 16.7116 437.023 16.9199 437.727 16.9199C438.814 16.9199 439.663 16.526 440.275 15.7383L441.662 17.291C441.239 17.89 440.666 18.3587 439.943 18.6973C439.221 19.0293 438.42 19.1953 437.541 19.1953ZM437.219 10.5234C436.659 10.5234 436.203 10.7122 435.852 11.0898C435.507 11.4674 435.285 12.0078 435.188 12.7109H439.113V12.4863C439.1 11.8613 438.931 11.3796 438.605 11.041C438.28 10.696 437.818 10.5234 437.219 10.5234ZM443.059 13.6387C443.059 11.9915 443.426 10.6797 444.162 9.70312C444.904 8.72656 445.917 8.23828 447.199 8.23828C448.228 8.23828 449.077 8.6224 449.748 9.39062V4H452.58V19H450.031L449.895 17.877C449.191 18.7559 448.286 19.1953 447.18 19.1953C445.936 19.1953 444.937 18.707 444.182 17.7305C443.433 16.7474 443.059 15.3835 443.059 13.6387ZM445.881 13.8438C445.881 14.8333 446.053 15.5918 446.398 16.1191C446.743 16.6465 447.245 16.9102 447.902 16.9102C448.775 16.9102 449.39 16.5423 449.748 15.8066V11.6367C449.396 10.901 448.788 10.5332 447.922 10.5332C446.561 10.5332 445.881 11.6367 445.881 13.8438Z" fill="black"/>
<path d="M26.1094 166.488C25.9336 167.992 25.377 169.154 24.4395 169.975C23.5085 170.788 22.2682 171.195 20.7188 171.195C19.0391 171.195 17.6914 170.593 16.6758 169.389C15.6667 168.184 15.1621 166.573 15.1621 164.555V163.188C15.1621 161.866 15.3965 160.704 15.8652 159.701C16.3405 158.699 17.0111 157.93 17.877 157.396C18.7428 156.856 19.7454 156.586 20.8848 156.586C22.3952 156.586 23.6061 157.009 24.5176 157.855C25.429 158.695 25.9596 159.861 26.1094 161.352H24.2246C24.0618 160.219 23.707 159.398 23.1602 158.891C22.6198 158.383 21.8613 158.129 20.8848 158.129C19.6868 158.129 18.7461 158.572 18.0625 159.457C17.3854 160.342 17.0469 161.602 17.0469 163.236V164.613C17.0469 166.156 17.3691 167.383 18.0137 168.295C18.6582 169.206 19.5599 169.662 20.7188 169.662C21.7604 169.662 22.5579 169.428 23.1113 168.959C23.6712 168.484 24.0423 167.66 24.2246 166.488H26.1094ZM34.918 171C34.8138 170.792 34.7292 170.421 34.6641 169.887C33.8242 170.759 32.8216 171.195 31.6562 171.195C30.6146 171.195 29.7585 170.902 29.0879 170.316C28.4238 169.724 28.0918 168.975 28.0918 168.07C28.0918 166.97 28.5085 166.117 29.3418 165.512C30.1816 164.9 31.36 164.594 32.877 164.594H34.6348V163.764C34.6348 163.132 34.446 162.631 34.0684 162.26C33.6908 161.882 33.1341 161.693 32.3984 161.693C31.7539 161.693 31.2135 161.856 30.7773 162.182C30.3411 162.507 30.123 162.901 30.123 163.363H28.3066C28.3066 162.836 28.4922 162.328 28.8633 161.84C29.2409 161.345 29.7487 160.954 30.3867 160.668C31.0312 160.382 31.7376 160.238 32.5059 160.238C33.7233 160.238 34.6771 160.544 35.3672 161.156C36.0573 161.762 36.4154 162.598 36.4414 163.666V168.529C36.4414 169.499 36.5651 170.271 36.8125 170.844V171H34.918ZM31.9199 169.623C32.4863 169.623 33.0234 169.477 33.5312 169.184C34.0391 168.891 34.4069 168.51 34.6348 168.041V165.873H33.2188C31.0052 165.873 29.8984 166.521 29.8984 167.816C29.8984 168.383 30.0872 168.826 30.4648 169.145C30.8424 169.464 31.3275 169.623 31.9199 169.623ZM41.2363 171H39.4297V156H41.2363V171ZM46.0996 171H44.293V156H46.0996V171ZM65.1719 171H63.2871V164.428H56.1191V171H54.2441V156.781H56.1191V162.895H63.2871V156.781H65.1719V171ZM67.7402 165.619C67.7402 164.584 67.9421 163.653 68.3457 162.826C68.7559 161.999 69.3223 161.361 70.0449 160.912C70.7741 160.463 71.6042 160.238 72.5352 160.238C73.974 160.238 75.1361 160.736 76.0215 161.732C76.9134 162.729 77.3594 164.053 77.3594 165.707V165.834C77.3594 166.863 77.1608 167.787 76.7637 168.607C76.373 169.421 75.8099 170.056 75.0742 170.512C74.3451 170.967 73.5052 171.195 72.5547 171.195C71.1224 171.195 69.9603 170.697 69.0684 169.701C68.1829 168.705 67.7402 167.387 67.7402 165.746V165.619ZM69.5566 165.834C69.5566 167.006 69.8268 167.947 70.3672 168.656C70.9141 169.366 71.6432 169.721 72.5547 169.721C73.4727 169.721 74.2018 169.363 74.7422 168.646C75.2826 167.924 75.5527 166.915 75.5527 165.619C75.5527 164.46 75.276 163.523 74.7227 162.807C74.1758 162.084 73.4466 161.723 72.5352 161.723C71.6432 161.723 70.9238 162.077 70.377 162.787C69.8301 163.497 69.5566 164.512 69.5566 165.834ZM81.3242 160.434L81.373 161.605C82.1478 160.694 83.1927 160.238 84.5078 160.238C85.9857 160.238 86.9915 160.805 87.5254 161.938C87.877 161.43 88.3327 161.02 88.8926 160.707C89.459 160.395 90.1263 160.238 90.8945 160.238C93.2122 160.238 94.3906 161.465 94.4297 163.92V171H92.623V164.027C92.623 163.272 92.4505 162.709 92.1055 162.338C91.7604 161.96 91.181 161.771 90.3672 161.771C89.6966 161.771 89.14 161.973 88.6973 162.377C88.2546 162.774 87.9974 163.311 87.9258 163.988V171H86.1094V164.076C86.1094 162.54 85.3574 161.771 83.8535 161.771C82.6686 161.771 81.8581 162.276 81.4219 163.285V171H79.6152V160.434H81.3242ZM101.549 171.195C100.117 171.195 98.9512 170.727 98.0527 169.789C97.1543 168.845 96.7051 167.585 96.7051 166.01V165.678C96.7051 164.63 96.9036 163.695 97.3008 162.875C97.7044 162.048 98.2643 161.404 98.9805 160.941C99.7031 160.473 100.484 160.238 101.324 160.238C102.698 160.238 103.766 160.691 104.527 161.596C105.289 162.501 105.67 163.796 105.67 165.482V166.234H98.5117C98.5378 167.276 98.8405 168.119 99.4199 168.764C100.006 169.402 100.748 169.721 101.646 169.721C102.285 169.721 102.825 169.59 103.268 169.33C103.71 169.07 104.098 168.725 104.43 168.295L105.533 169.154C104.648 170.515 103.32 171.195 101.549 171.195ZM101.324 161.723C100.595 161.723 99.9831 161.99 99.4883 162.523C98.9935 163.051 98.6875 163.793 98.5703 164.75H103.863V164.613C103.811 163.695 103.564 162.986 103.121 162.484C102.678 161.977 102.079 161.723 101.324 161.723Z" fill="black"/>
<path d="M183.115 260.66V264H181.99V255.469H185.137C186.07 255.469 186.801 255.707 187.328 256.184C187.859 256.66 188.125 257.291 188.125 258.076C188.125 258.904 187.865 259.543 187.346 259.992C186.83 260.438 186.09 260.66 185.125 260.66H183.115ZM183.115 259.74H185.137C185.738 259.74 186.199 259.6 186.52 259.318C186.84 259.033 187 258.623 187 258.088C187 257.58 186.84 257.174 186.52 256.869C186.199 256.564 185.76 256.406 185.201 256.395H183.115V259.74ZM193.234 264C193.172 263.875 193.121 263.652 193.082 263.332C192.578 263.855 191.977 264.117 191.277 264.117C190.652 264.117 190.139 263.941 189.736 263.59C189.338 263.234 189.139 262.785 189.139 262.242C189.139 261.582 189.389 261.07 189.889 260.707C190.393 260.34 191.1 260.156 192.01 260.156H193.064V259.658C193.064 259.279 192.951 258.979 192.725 258.756C192.498 258.529 192.164 258.416 191.723 258.416C191.336 258.416 191.012 258.514 190.75 258.709C190.488 258.904 190.357 259.141 190.357 259.418H189.268C189.268 259.102 189.379 258.797 189.602 258.504C189.828 258.207 190.133 257.973 190.516 257.801C190.902 257.629 191.326 257.543 191.787 257.543C192.518 257.543 193.09 257.727 193.504 258.094C193.918 258.457 194.133 258.959 194.148 259.6V262.518C194.148 263.1 194.223 263.562 194.371 263.906V264H193.234ZM191.436 263.174C191.775 263.174 192.098 263.086 192.402 262.91C192.707 262.734 192.928 262.506 193.064 262.225V260.924H192.215C190.887 260.924 190.223 261.312 190.223 262.09C190.223 262.43 190.336 262.695 190.562 262.887C190.789 263.078 191.08 263.174 191.436 263.174ZM197.025 264H195.941V257.66H197.025V264ZM195.854 255.979C195.854 255.803 195.906 255.654 196.012 255.533C196.121 255.412 196.281 255.352 196.492 255.352C196.703 255.352 196.863 255.412 196.973 255.533C197.082 255.654 197.137 255.803 197.137 255.979C197.137 256.154 197.082 256.301 196.973 256.418C196.863 256.535 196.703 256.594 196.492 256.594C196.281 256.594 196.121 256.535 196.012 256.418C195.906 256.301 195.854 256.154 195.854 255.979ZM198.502 260.777C198.502 259.805 198.732 259.023 199.193 258.434C199.654 257.84 200.258 257.543 201.004 257.543C201.746 257.543 202.334 257.797 202.768 258.305V255H203.852V264H202.855L202.803 263.32C202.369 263.852 201.766 264.117 200.992 264.117C200.258 264.117 199.658 263.816 199.193 263.215C198.732 262.613 198.502 261.828 198.502 260.859V260.777ZM199.586 260.9C199.586 261.619 199.734 262.182 200.031 262.588C200.328 262.994 200.738 263.197 201.262 263.197C201.949 263.197 202.451 262.889 202.768 262.271V259.359C202.443 258.762 201.945 258.463 201.273 258.463C200.742 258.463 200.328 258.668 200.031 259.078C199.734 259.488 199.586 260.096 199.586 260.9ZM213.883 260.9C213.883 261.869 213.66 262.648 213.215 263.238C212.77 263.824 212.172 264.117 211.422 264.117C210.621 264.117 210.002 263.834 209.564 263.268L209.512 264H208.516V255H209.6V258.357C210.037 257.814 210.641 257.543 211.41 257.543C212.18 257.543 212.783 257.834 213.221 258.416C213.662 258.998 213.883 259.795 213.883 260.807V260.9ZM212.799 260.777C212.799 260.039 212.656 259.469 212.371 259.066C212.086 258.664 211.676 258.463 211.141 258.463C210.426 258.463 209.912 258.795 209.6 259.459V262.201C209.932 262.865 210.449 263.197 211.152 263.197C211.672 263.197 212.076 262.996 212.365 262.594C212.654 262.191 212.799 261.586 212.799 260.777ZM217.258 262.412L218.734 257.66H219.895L217.346 264.979C216.951 266.033 216.324 266.561 215.465 266.561L215.26 266.543L214.855 266.467V265.588L215.148 265.611C215.516 265.611 215.801 265.537 216.004 265.389C216.211 265.24 216.381 264.969 216.514 264.574L216.754 263.93L214.492 257.66H215.676L217.258 262.412ZM225.467 255.469L228.256 262.43L231.045 255.469H232.504V264H231.379V260.678L231.484 257.092L228.684 264H227.822L225.027 257.109L225.139 260.678V264H224.014V255.469H225.467ZM235.498 264H234.414V257.66H235.498V264ZM234.326 255.979C234.326 255.803 234.379 255.654 234.484 255.533C234.594 255.412 234.754 255.352 234.965 255.352C235.176 255.352 235.336 255.412 235.445 255.533C235.555 255.654 235.609 255.803 235.609 255.979C235.609 256.154 235.555 256.301 235.445 256.418C235.336 256.535 235.176 256.594 234.965 256.594C234.754 256.594 234.594 256.535 234.484 256.418C234.379 256.301 234.326 256.154 234.326 255.979ZM236.98 260.777C236.98 259.789 237.209 259.004 237.666 258.422C238.123 257.836 238.729 257.543 239.482 257.543C240.256 257.543 240.859 257.816 241.293 258.363L241.346 257.66H242.336V263.848C242.336 264.668 242.092 265.314 241.604 265.787C241.119 266.26 240.467 266.496 239.646 266.496C239.189 266.496 238.742 266.398 238.305 266.203C237.867 266.008 237.533 265.74 237.303 265.4L237.865 264.75C238.33 265.324 238.898 265.611 239.57 265.611C240.098 265.611 240.508 265.463 240.801 265.166C241.098 264.869 241.246 264.451 241.246 263.912V263.367C240.812 263.867 240.221 264.117 239.471 264.117C238.729 264.117 238.127 263.818 237.666 263.221C237.209 262.623 236.98 261.809 236.98 260.777ZM238.07 260.9C238.07 261.615 238.217 262.178 238.51 262.588C238.803 262.994 239.213 263.197 239.74 263.197C240.424 263.197 240.926 262.887 241.246 262.266V259.371C240.914 258.766 240.416 258.463 239.752 258.463C239.225 258.463 238.812 258.668 238.516 259.078C238.219 259.488 238.07 260.096 238.07 260.9ZM247.041 258.633C246.877 258.605 246.699 258.592 246.508 258.592C245.797 258.592 245.314 258.895 245.061 259.5V264H243.977V257.66H245.031L245.049 258.393C245.404 257.826 245.908 257.543 246.561 257.543C246.771 257.543 246.932 257.57 247.041 257.625V258.633ZM251.723 264C251.66 263.875 251.609 263.652 251.57 263.332C251.066 263.855 250.465 264.117 249.766 264.117C249.141 264.117 248.627 263.941 248.225 263.59C247.826 263.234 247.627 262.785 247.627 262.242C247.627 261.582 247.877 261.07 248.377 260.707C248.881 260.34 249.588 260.156 250.498 260.156H251.553V259.658C251.553 259.279 251.439 258.979 251.213 258.756C250.986 258.529 250.652 258.416 250.211 258.416C249.824 258.416 249.5 258.514 249.238 258.709C248.977 258.904 248.846 259.141 248.846 259.418H247.756C247.756 259.102 247.867 258.797 248.09 258.504C248.316 258.207 248.621 257.973 249.004 257.801C249.391 257.629 249.814 257.543 250.275 257.543C251.006 257.543 251.578 257.727 251.992 258.094C252.406 258.457 252.621 258.959 252.637 259.6V262.518C252.637 263.1 252.711 263.562 252.859 263.906V264H251.723ZM249.924 263.174C250.264 263.174 250.586 263.086 250.891 262.91C251.195 262.734 251.416 262.506 251.553 262.225V260.924H250.703C249.375 260.924 248.711 261.312 248.711 262.09C248.711 262.43 248.824 262.695 249.051 262.887C249.277 263.078 249.568 263.174 249.924 263.174ZM255.361 257.66L255.396 258.457C255.881 257.848 256.514 257.543 257.295 257.543C258.635 257.543 259.311 258.299 259.322 259.811V264H258.238V259.805C258.234 259.348 258.129 259.01 257.922 258.791C257.719 258.572 257.4 258.463 256.967 258.463C256.615 258.463 256.307 258.557 256.041 258.744C255.775 258.932 255.568 259.178 255.42 259.482V264H254.336V257.66H255.361ZM262.428 256.125V257.66H263.611V258.498H262.428V262.43C262.428 262.684 262.48 262.875 262.586 263.004C262.691 263.129 262.871 263.191 263.125 263.191C263.25 263.191 263.422 263.168 263.641 263.121V264C263.355 264.078 263.078 264.117 262.809 264.117C262.324 264.117 261.959 263.971 261.713 263.678C261.467 263.385 261.344 262.969 261.344 262.43V258.498H260.189V257.66H261.344V256.125H262.428ZM273.473 262.506L274.691 257.66H275.775L273.93 264H273.051L271.51 259.195L270.01 264H269.131L267.291 257.66H268.369L269.617 262.406L271.094 257.66H271.967L273.473 262.506ZM276.596 260.771C276.596 260.15 276.717 259.592 276.959 259.096C277.205 258.6 277.545 258.217 277.979 257.947C278.416 257.678 278.914 257.543 279.473 257.543C280.336 257.543 281.033 257.842 281.564 258.439C282.1 259.037 282.367 259.832 282.367 260.824V260.9C282.367 261.518 282.248 262.072 282.01 262.564C281.775 263.053 281.438 263.434 280.996 263.707C280.559 263.98 280.055 264.117 279.484 264.117C278.625 264.117 277.928 263.818 277.393 263.221C276.861 262.623 276.596 261.832 276.596 260.848V260.771ZM277.686 260.9C277.686 261.604 277.848 262.168 278.172 262.594C278.5 263.02 278.938 263.232 279.484 263.232C280.035 263.232 280.473 263.018 280.797 262.588C281.121 262.154 281.283 261.549 281.283 260.771C281.283 260.076 281.117 259.514 280.785 259.084C280.457 258.65 280.02 258.434 279.473 258.434C278.938 258.434 278.506 258.646 278.178 259.072C277.85 259.498 277.686 260.107 277.686 260.9ZM286.791 258.633C286.627 258.605 286.449 258.592 286.258 258.592C285.547 258.592 285.064 258.895 284.811 259.5V264H283.727V257.66H284.781L284.799 258.393C285.154 257.826 285.658 257.543 286.311 257.543C286.521 257.543 286.682 257.57 286.791 257.625V258.633ZM289.562 261.064L288.883 261.773V264H287.799V255H288.883V260.443L289.463 259.746L291.438 257.66H292.756L290.289 260.309L293.043 264H291.771L289.562 261.064ZM296.389 264.117C295.529 264.117 294.83 263.836 294.291 263.273C293.752 262.707 293.482 261.951 293.482 261.006V260.807C293.482 260.178 293.602 259.617 293.84 259.125C294.082 258.629 294.418 258.242 294.848 257.965C295.281 257.684 295.75 257.543 296.254 257.543C297.078 257.543 297.719 257.814 298.176 258.357C298.633 258.9 298.861 259.678 298.861 260.689V261.141H294.566C294.582 261.766 294.764 262.271 295.111 262.658C295.463 263.041 295.908 263.232 296.447 263.232C296.83 263.232 297.154 263.154 297.42 262.998C297.686 262.842 297.918 262.635 298.117 262.377L298.779 262.893C298.248 263.709 297.451 264.117 296.389 264.117ZM296.254 258.434C295.816 258.434 295.449 258.594 295.152 258.914C294.855 259.23 294.672 259.676 294.602 260.25H297.777V260.168C297.746 259.617 297.598 259.191 297.332 258.891C297.066 258.586 296.707 258.434 296.254 258.434ZM303.186 258.633C303.021 258.605 302.844 258.592 302.652 258.592C301.941 258.592 301.459 258.895 301.205 259.5V264H300.121V257.66H301.176L301.193 258.393C301.549 257.826 302.053 257.543 302.705 257.543C302.916 257.543 303.076 257.57 303.186 257.625V258.633ZM307.879 262.318C307.879 262.025 307.768 261.799 307.545 261.639C307.326 261.475 306.941 261.334 306.391 261.217C305.844 261.1 305.408 260.959 305.084 260.795C304.764 260.631 304.525 260.436 304.369 260.209C304.217 259.982 304.141 259.713 304.141 259.4C304.141 258.881 304.359 258.441 304.797 258.082C305.238 257.723 305.801 257.543 306.484 257.543C307.203 257.543 307.785 257.729 308.23 258.1C308.68 258.471 308.904 258.945 308.904 259.523H307.814C307.814 259.227 307.688 258.971 307.434 258.756C307.184 258.541 306.867 258.434 306.484 258.434C306.09 258.434 305.781 258.52 305.559 258.691C305.336 258.863 305.225 259.088 305.225 259.365C305.225 259.627 305.328 259.824 305.535 259.957C305.742 260.09 306.115 260.217 306.654 260.338C307.197 260.459 307.637 260.604 307.973 260.771C308.309 260.939 308.557 261.143 308.717 261.381C308.881 261.615 308.963 261.902 308.963 262.242C308.963 262.809 308.736 263.264 308.283 263.607C307.83 263.947 307.242 264.117 306.52 264.117C306.012 264.117 305.562 264.027 305.172 263.848C304.781 263.668 304.475 263.418 304.252 263.098C304.033 262.773 303.924 262.424 303.924 262.049H305.008C305.027 262.412 305.172 262.701 305.441 262.916C305.715 263.127 306.074 263.232 306.52 263.232C306.93 263.232 307.258 263.15 307.504 262.986C307.754 262.818 307.879 262.596 307.879 262.318Z" fill="black"/>
<path d="M407.115 260.66V264H405.99V255.469H409.137C410.07 255.469 410.801 255.707 411.328 256.184C411.859 256.66 412.125 257.291 412.125 258.076C412.125 258.904 411.865 259.543 411.346 259.992C410.83 260.438 410.09 260.66 409.125 260.66H407.115ZM407.115 259.74H409.137C409.738 259.74 410.199 259.6 410.52 259.318C410.84 259.033 411 258.623 411 258.088C411 257.58 410.84 257.174 410.52 256.869C410.199 256.564 409.76 256.406 409.201 256.395H407.115V259.74ZM417.234 264C417.172 263.875 417.121 263.652 417.082 263.332C416.578 263.855 415.977 264.117 415.277 264.117C414.652 264.117 414.139 263.941 413.736 263.59C413.338 263.234 413.139 262.785 413.139 262.242C413.139 261.582 413.389 261.07 413.889 260.707C414.393 260.34 415.1 260.156 416.01 260.156H417.064V259.658C417.064 259.279 416.951 258.979 416.725 258.756C416.498 258.529 416.164 258.416 415.723 258.416C415.336 258.416 415.012 258.514 414.75 258.709C414.488 258.904 414.357 259.141 414.357 259.418H413.268C413.268 259.102 413.379 258.797 413.602 258.504C413.828 258.207 414.133 257.973 414.516 257.801C414.902 257.629 415.326 257.543 415.787 257.543C416.518 257.543 417.09 257.727 417.504 258.094C417.918 258.457 418.133 258.959 418.148 259.6V262.518C418.148 263.1 418.223 263.562 418.371 263.906V264H417.234ZM415.436 263.174C415.775 263.174 416.098 263.086 416.402 262.91C416.707 262.734 416.928 262.506 417.064 262.225V260.924H416.215C414.887 260.924 414.223 261.312 414.223 262.09C414.223 262.43 414.336 262.695 414.562 262.887C414.789 263.078 415.08 263.174 415.436 263.174ZM421.025 264H419.941V257.66H421.025V264ZM419.854 255.979C419.854 255.803 419.906 255.654 420.012 255.533C420.121 255.412 420.281 255.352 420.492 255.352C420.703 255.352 420.863 255.412 420.973 255.533C421.082 255.654 421.137 255.803 421.137 255.979C421.137 256.154 421.082 256.301 420.973 256.418C420.863 256.535 420.703 256.594 420.492 256.594C420.281 256.594 420.121 256.535 420.012 256.418C419.906 256.301 419.854 256.154 419.854 255.979ZM422.502 260.777C422.502 259.805 422.732 259.023 423.193 258.434C423.654 257.84 424.258 257.543 425.004 257.543C425.746 257.543 426.334 257.797 426.768 258.305V255H427.852V264H426.855L426.803 263.32C426.369 263.852 425.766 264.117 424.992 264.117C424.258 264.117 423.658 263.816 423.193 263.215C422.732 262.613 422.502 261.828 422.502 260.859V260.777ZM423.586 260.9C423.586 261.619 423.734 262.182 424.031 262.588C424.328 262.994 424.738 263.197 425.262 263.197C425.949 263.197 426.451 262.889 426.768 262.271V259.359C426.443 258.762 425.945 258.463 425.273 258.463C424.742 258.463 424.328 258.668 424.031 259.078C423.734 259.488 423.586 260.096 423.586 260.9ZM437.883 260.9C437.883 261.869 437.66 262.648 437.215 263.238C436.77 263.824 436.172 264.117 435.422 264.117C434.621 264.117 434.002 263.834 433.564 263.268L433.512 264H432.516V255H433.6V258.357C434.037 257.814 434.641 257.543 435.41 257.543C436.18 257.543 436.783 257.834 437.221 258.416C437.662 258.998 437.883 259.795 437.883 260.807V260.9ZM436.799 260.777C436.799 260.039 436.656 259.469 436.371 259.066C436.086 258.664 435.676 258.463 435.141 258.463C434.426 258.463 433.912 258.795 433.6 259.459V262.201C433.932 262.865 434.449 263.197 435.152 263.197C435.672 263.197 436.076 262.996 436.365 262.594C436.654 262.191 436.799 261.586 436.799 260.777ZM441.258 262.412L442.734 257.66H443.895L441.346 264.979C440.951 266.033 440.324 266.561 439.465 266.561L439.26 266.543L438.855 266.467V265.588L439.148 265.611C439.516 265.611 439.801 265.537 440.004 265.389C440.211 265.24 440.381 264.969 440.514 264.574L440.754 263.93L438.492 257.66H439.676L441.258 262.412ZM454.289 261.293C454.184 262.195 453.85 262.893 453.287 263.385C452.729 263.873 451.984 264.117 451.055 264.117C450.047 264.117 449.238 263.756 448.629 263.033C448.023 262.311 447.721 261.344 447.721 260.133V259.312C447.721 258.52 447.861 257.822 448.143 257.221C448.428 256.619 448.83 256.158 449.35 255.838C449.869 255.514 450.471 255.352 451.154 255.352C452.061 255.352 452.787 255.605 453.334 256.113C453.881 256.617 454.199 257.316 454.289 258.211H453.158C453.061 257.531 452.848 257.039 452.52 256.734C452.195 256.43 451.74 256.277 451.154 256.277C450.436 256.277 449.871 256.543 449.461 257.074C449.055 257.605 448.852 258.361 448.852 259.342V260.168C448.852 261.094 449.045 261.83 449.432 262.377C449.818 262.924 450.359 263.197 451.055 263.197C451.68 263.197 452.158 263.057 452.49 262.775C452.826 262.49 453.049 261.996 453.158 261.293H454.289ZM455.373 260.771C455.373 260.15 455.494 259.592 455.736 259.096C455.982 258.6 456.322 258.217 456.756 257.947C457.193 257.678 457.691 257.543 458.25 257.543C459.113 257.543 459.811 257.842 460.342 258.439C460.877 259.037 461.145 259.832 461.145 260.824V260.9C461.145 261.518 461.025 262.072 460.787 262.564C460.553 263.053 460.215 263.434 459.773 263.707C459.336 263.98 458.832 264.117 458.262 264.117C457.402 264.117 456.705 263.818 456.17 263.221C455.639 262.623 455.373 261.832 455.373 260.848V260.771ZM456.463 260.9C456.463 261.604 456.625 262.168 456.949 262.594C457.277 263.02 457.715 263.232 458.262 263.232C458.812 263.232 459.25 263.018 459.574 262.588C459.898 262.154 460.061 261.549 460.061 260.771C460.061 260.076 459.895 259.514 459.562 259.084C459.234 258.65 458.797 258.434 458.25 258.434C457.715 258.434 457.283 258.646 456.955 259.072C456.627 259.498 456.463 260.107 456.463 260.9ZM463.523 257.66L463.553 258.363C464.018 257.816 464.645 257.543 465.434 257.543C466.32 257.543 466.924 257.883 467.244 258.562C467.455 258.258 467.729 258.012 468.064 257.824C468.404 257.637 468.805 257.543 469.266 257.543C470.656 257.543 471.363 258.279 471.387 259.752V264H470.303V259.816C470.303 259.363 470.199 259.025 469.992 258.803C469.785 258.576 469.438 258.463 468.949 258.463C468.547 258.463 468.213 258.584 467.947 258.826C467.682 259.064 467.527 259.387 467.484 259.793V264H466.395V259.846C466.395 258.924 465.943 258.463 465.041 258.463C464.33 258.463 463.844 258.766 463.582 259.371V264H462.498V257.66H463.523ZM474.047 257.66L474.076 258.363C474.541 257.816 475.168 257.543 475.957 257.543C476.844 257.543 477.447 257.883 477.768 258.562C477.979 258.258 478.252 258.012 478.588 257.824C478.928 257.637 479.328 257.543 479.789 257.543C481.18 257.543 481.887 258.279 481.91 259.752V264H480.826V259.816C480.826 259.363 480.723 259.025 480.516 258.803C480.309 258.576 479.961 258.463 479.473 258.463C479.07 258.463 478.736 258.584 478.471 258.826C478.205 259.064 478.051 259.387 478.008 259.793V264H476.918V259.846C476.918 258.924 476.467 258.463 475.564 258.463C474.854 258.463 474.367 258.766 474.105 259.371V264H473.021V257.66H474.047ZM487.465 263.373C487.043 263.869 486.424 264.117 485.607 264.117C484.932 264.117 484.416 263.922 484.061 263.531C483.709 263.137 483.531 262.555 483.527 261.785V257.66H484.611V261.756C484.611 262.717 485.002 263.197 485.783 263.197C486.611 263.197 487.162 262.889 487.436 262.271V257.66H488.52V264H487.488L487.465 263.373ZM491.197 257.66L491.232 258.457C491.717 257.848 492.35 257.543 493.131 257.543C494.471 257.543 495.146 258.299 495.158 259.811V264H494.074V259.805C494.07 259.348 493.965 259.01 493.758 258.791C493.555 258.572 493.236 258.463 492.803 258.463C492.451 258.463 492.143 258.557 491.877 258.744C491.611 258.932 491.404 259.178 491.256 259.482V264H490.172V257.66H491.197ZM497.971 264H496.887V257.66H497.971V264ZM496.799 255.979C496.799 255.803 496.852 255.654 496.957 255.533C497.066 255.412 497.227 255.352 497.438 255.352C497.648 255.352 497.809 255.412 497.918 255.533C498.027 255.654 498.082 255.803 498.082 255.979C498.082 256.154 498.027 256.301 497.918 256.418C497.809 256.535 497.648 256.594 497.438 256.594C497.227 256.594 497.066 256.535 496.957 256.418C496.852 256.301 496.799 256.154 496.799 255.979ZM501.182 256.125V257.66H502.365V258.498H501.182V262.43C501.182 262.684 501.234 262.875 501.34 263.004C501.445 263.129 501.625 263.191 501.879 263.191C502.004 263.191 502.176 263.168 502.395 263.121V264C502.109 264.078 501.832 264.117 501.562 264.117C501.078 264.117 500.713 263.971 500.467 263.678C500.221 263.385 500.098 262.969 500.098 262.43V258.498H498.943V257.66H500.098V256.125H501.182ZM505.711 262.412L507.188 257.66H508.348L505.799 264.979C505.404 266.033 504.777 266.561 503.918 266.561L503.713 266.543L503.309 266.467V265.588L503.602 265.611C503.969 265.611 504.254 265.537 504.457 265.389C504.664 265.24 504.834 264.969 504.967 264.574L505.207 263.93L502.945 257.66H504.129L505.711 262.412ZM512.033 260.777C512.033 259.805 512.264 259.023 512.725 258.434C513.186 257.84 513.789 257.543 514.535 257.543C515.277 257.543 515.865 257.797 516.299 258.305V255H517.383V264H516.387L516.334 263.32C515.9 263.852 515.297 264.117 514.523 264.117C513.789 264.117 513.189 263.816 512.725 263.215C512.264 262.613 512.033 261.828 512.033 260.859V260.777ZM513.117 260.9C513.117 261.619 513.266 262.182 513.562 262.588C513.859 262.994 514.27 263.197 514.793 263.197C515.48 263.197 515.982 262.889 516.299 262.271V259.359C515.975 258.762 515.477 258.463 514.805 258.463C514.273 258.463 513.859 258.668 513.562 259.078C513.266 259.488 513.117 260.096 513.117 260.9ZM518.783 260.771C518.783 260.15 518.904 259.592 519.146 259.096C519.393 258.6 519.732 258.217 520.166 257.947C520.604 257.678 521.102 257.543 521.66 257.543C522.523 257.543 523.221 257.842 523.752 258.439C524.287 259.037 524.555 259.832 524.555 260.824V260.9C524.555 261.518 524.436 262.072 524.197 262.564C523.963 263.053 523.625 263.434 523.184 263.707C522.746 263.98 522.242 264.117 521.672 264.117C520.812 264.117 520.115 263.818 519.58 263.221C519.049 262.623 518.783 261.832 518.783 260.848V260.771ZM519.873 260.9C519.873 261.604 520.035 262.168 520.359 262.594C520.688 263.02 521.125 263.232 521.672 263.232C522.223 263.232 522.66 263.018 522.984 262.588C523.309 262.154 523.471 261.549 523.471 260.771C523.471 260.076 523.305 259.514 522.973 259.084C522.645 258.65 522.207 258.434 521.66 258.434C521.125 258.434 520.693 258.646 520.365 259.072C520.037 259.498 519.873 260.107 519.873 260.9ZM526.939 257.66L526.975 258.457C527.459 257.848 528.092 257.543 528.873 257.543C530.213 257.543 530.889 258.299 530.9 259.811V264H529.816V259.805C529.812 259.348 529.707 259.01 529.5 258.791C529.297 258.572 528.979 258.463 528.545 258.463C528.193 258.463 527.885 258.557 527.619 258.744C527.354 258.932 527.146 259.178 526.998 259.482V264H525.914V257.66H526.939ZM536.449 264C536.387 263.875 536.336 263.652 536.297 263.332C535.793 263.855 535.191 264.117 534.492 264.117C533.867 264.117 533.354 263.941 532.951 263.59C532.553 263.234 532.354 262.785 532.354 262.242C532.354 261.582 532.604 261.07 533.104 260.707C533.607 260.34 534.314 260.156 535.225 260.156H536.279V259.658C536.279 259.279 536.166 258.979 535.939 258.756C535.713 258.529 535.379 258.416 534.938 258.416C534.551 258.416 534.227 258.514 533.965 258.709C533.703 258.904 533.572 259.141 533.572 259.418H532.482C532.482 259.102 532.594 258.797 532.816 258.504C533.043 258.207 533.348 257.973 533.73 257.801C534.117 257.629 534.541 257.543 535.002 257.543C535.732 257.543 536.305 257.727 536.719 258.094C537.133 258.457 537.348 258.959 537.363 259.6V262.518C537.363 263.1 537.438 263.562 537.586 263.906V264H536.449ZM534.65 263.174C534.99 263.174 535.312 263.086 535.617 262.91C535.922 262.734 536.143 262.506 536.279 262.225V260.924H535.43C534.102 260.924 533.438 261.312 533.438 262.09C533.438 262.43 533.551 262.695 533.777 262.887C534.004 263.078 534.295 263.174 534.65 263.174ZM540.533 256.125V257.66H541.717V258.498H540.533V262.43C540.533 262.684 540.586 262.875 540.691 263.004C540.797 263.129 540.977 263.191 541.23 263.191C541.355 263.191 541.527 263.168 541.746 263.121V264C541.461 264.078 541.184 264.117 540.914 264.117C540.43 264.117 540.064 263.971 539.818 263.678C539.572 263.385 539.449 262.969 539.449 262.43V258.498H538.295V257.66H539.449V256.125H540.533ZM544.166 264H543.082V257.66H544.166V264ZM542.994 255.979C542.994 255.803 543.047 255.654 543.152 255.533C543.262 255.412 543.422 255.352 543.633 255.352C543.844 255.352 544.004 255.412 544.113 255.533C544.223 255.654 544.277 255.803 544.277 255.979C544.277 256.154 544.223 256.301 544.113 256.418C544.004 256.535 543.844 256.594 543.633 256.594C543.422 256.594 543.262 256.535 543.152 256.418C543.047 256.301 542.994 256.154 542.994 255.979ZM545.619 260.771C545.619 260.15 545.74 259.592 545.982 259.096C546.229 258.6 546.568 258.217 547.002 257.947C547.439 257.678 547.938 257.543 548.496 257.543C549.359 257.543 550.057 257.842 550.588 258.439C551.123 259.037 551.391 259.832 551.391 260.824V260.9C551.391 261.518 551.271 262.072 551.033 262.564C550.799 263.053 550.461 263.434 550.02 263.707C549.582 263.98 549.078 264.117 548.508 264.117C547.648 264.117 546.951 263.818 546.416 263.221C545.885 262.623 545.619 261.832 545.619 260.848V260.771ZM546.709 260.9C546.709 261.604 546.871 262.168 547.195 262.594C547.523 263.02 547.961 263.232 548.508 263.232C549.059 263.232 549.496 263.018 549.82 262.588C550.145 262.154 550.307 261.549 550.307 260.771C550.307 260.076 550.141 259.514 549.809 259.084C549.48 258.65 549.043 258.434 548.496 258.434C547.961 258.434 547.529 258.646 547.201 259.072C546.873 259.498 546.709 260.107 546.709 260.9ZM553.775 257.66L553.811 258.457C554.295 257.848 554.928 257.543 555.709 257.543C557.049 257.543 557.725 258.299 557.736 259.811V264H556.652V259.805C556.648 259.348 556.543 259.01 556.336 258.791C556.133 258.572 555.814 258.463 555.381 258.463C555.029 258.463 554.721 258.557 554.455 258.744C554.189 258.932 553.982 259.178 553.834 259.482V264H552.75V257.66H553.775ZM563.062 262.318C563.062 262.025 562.951 261.799 562.729 261.639C562.51 261.475 562.125 261.334 561.574 261.217C561.027 261.1 560.592 260.959 560.268 260.795C559.947 260.631 559.709 260.436 559.553 260.209C559.4 259.982 559.324 259.713 559.324 259.4C559.324 258.881 559.543 258.441 559.98 258.082C560.422 257.723 560.984 257.543 561.668 257.543C562.387 257.543 562.969 257.729 563.414 258.1C563.863 258.471 564.088 258.945 564.088 259.523H562.998C562.998 259.227 562.871 258.971 562.617 258.756C562.367 258.541 562.051 258.434 561.668 258.434C561.273 258.434 560.965 258.52 560.742 258.691C560.52 258.863 560.408 259.088 560.408 259.365C560.408 259.627 560.512 259.824 560.719 259.957C560.926 260.09 561.299 260.217 561.838 260.338C562.381 260.459 562.82 260.604 563.156 260.771C563.492 260.939 563.74 261.143 563.9 261.381C564.064 261.615 564.146 261.902 564.146 262.242C564.146 262.809 563.92 263.264 563.467 263.607C563.014 263.947 562.426 264.117 561.703 264.117C561.195 264.117 560.746 264.027 560.355 263.848C559.965 263.668 559.658 263.418 559.436 263.098C559.217 262.773 559.107 262.424 559.107 262.049H560.191C560.211 262.412 560.355 262.701 560.625 262.916C560.898 263.127 561.258 263.232 561.703 263.232C562.113 263.232 562.441 263.15 562.688 262.986C562.938 262.818 563.062 262.596 563.062 262.318Z" fill="black"/>
<path d="M575.846 85.4121C575.846 86.4408 575.54 87.3099 574.928 88.0195C574.322 88.7227 573.574 89.0742 572.682 89.0742C572.213 89.0742 571.77 88.9896 571.354 88.8203C570.937 88.6445 570.452 88.3158 569.898 87.834C569.352 87.3522 568.958 87.0527 568.717 86.9355C568.476 86.8184 568.219 86.7598 567.945 86.7598C567.438 86.7598 567.047 86.9355 566.773 87.2871C566.5 87.6322 566.363 88.1107 566.363 88.7227L564.791 88.7422C564.791 87.7005 565.09 86.8444 565.689 86.1738C566.288 85.5033 567.04 85.168 567.945 85.168C568.44 85.168 568.915 85.2721 569.371 85.4805C569.827 85.6888 570.341 86.0566 570.914 86.584C571.487 87.1048 571.982 87.3978 572.398 87.4629L572.682 87.4824C573.176 87.4824 573.577 87.2936 573.883 86.916C574.195 86.5384 574.352 86.0404 574.352 85.4219L575.846 85.4121ZM585.484 89.3379C585.484 88.7389 585.273 88.2344 584.85 87.8242C584.433 87.4141 583.727 87.043 582.73 86.7109C581.344 86.2878 580.331 85.7376 579.693 85.0605C579.062 84.377 578.746 83.5111 578.746 82.4629C578.746 81.3952 579.055 80.5195 579.674 79.8359C580.299 79.1523 581.155 78.7454 582.242 78.6152V76.4766H583.697V78.625C584.791 78.7747 585.641 79.2337 586.246 80.002C586.858 80.7702 587.164 81.8216 587.164 83.1562H585.367C585.367 82.2383 585.149 81.5091 584.713 80.9688C584.277 80.4284 583.688 80.1582 582.945 80.1582C582.171 80.1582 581.578 80.36 581.168 80.7637C580.758 81.1608 580.553 81.7174 580.553 82.4336C580.553 83.0977 580.768 83.6283 581.197 84.0254C581.633 84.416 582.346 84.7741 583.336 85.0996C584.332 85.4186 585.107 85.7734 585.66 86.1641C586.22 86.5482 586.63 86.9974 586.891 87.5117C587.158 88.026 587.291 88.6283 587.291 89.3184C587.291 90.4186 586.959 91.304 586.295 91.9746C585.637 92.6452 584.713 93.0423 583.521 93.166V95.0312H582.076V93.166C580.865 93.0553 579.915 92.6257 579.225 91.877C578.541 91.1217 578.199 90.0996 578.199 88.8105H580.006C580.006 89.7155 580.243 90.4121 580.719 90.9004C581.194 91.3887 581.868 91.6328 582.74 91.6328C583.593 91.6328 584.264 91.4277 584.752 91.0176C585.24 90.6074 585.484 90.0475 585.484 89.3379ZM598.453 86.9355C598.453 89.0514 598.092 90.6237 597.369 91.6523C596.646 92.681 595.517 93.1953 593.98 93.1953C592.464 93.1953 591.34 92.694 590.611 91.6914C589.882 90.6823 589.505 89.1784 589.479 87.1797V84.7676C589.479 82.6777 589.84 81.125 590.562 80.1094C591.285 79.0938 592.418 78.5859 593.961 78.5859C595.491 78.5859 596.617 79.0775 597.34 80.0605C598.062 81.0371 598.434 82.5475 598.453 84.5918V86.9355ZM596.646 84.4648C596.646 82.9349 596.432 81.8216 596.002 81.125C595.572 80.4219 594.892 80.0703 593.961 80.0703C593.036 80.0703 592.363 80.4186 591.939 81.1152C591.516 81.8118 591.298 82.8828 591.285 84.3281V87.2188C591.285 88.7552 591.507 89.8913 591.949 90.627C592.398 91.3561 593.076 91.7207 593.98 91.7207C594.872 91.7207 595.533 91.3757 595.963 90.6855C596.399 89.9954 596.627 88.9082 596.646 87.4238V84.4648ZM600.992 92.0527C600.992 91.7402 601.083 91.4798 601.266 91.2715C601.454 91.0632 601.734 90.959 602.105 90.959C602.477 90.959 602.757 91.0632 602.945 91.2715C603.141 91.4798 603.238 91.7402 603.238 92.0527C603.238 92.3522 603.141 92.6029 602.945 92.8047C602.757 93.0065 602.477 93.1074 602.105 93.1074C601.734 93.1074 601.454 93.0065 601.266 92.8047C601.083 92.6029 600.992 92.3522 600.992 92.0527ZM614.957 86.9355C614.957 89.0514 614.596 90.6237 613.873 91.6523C613.15 92.681 612.021 93.1953 610.484 93.1953C608.967 93.1953 607.844 92.694 607.115 91.6914C606.386 90.6823 606.008 89.1784 605.982 87.1797V84.7676C605.982 82.6777 606.344 81.125 607.066 80.1094C607.789 79.0938 608.922 78.5859 610.465 78.5859C611.995 78.5859 613.121 79.0775 613.844 80.0605C614.566 81.0371 614.938 82.5475 614.957 84.5918V86.9355ZM613.15 84.4648C613.15 82.9349 612.936 81.8216 612.506 81.125C612.076 80.4219 611.396 80.0703 610.465 80.0703C609.54 80.0703 608.867 80.4186 608.443 81.1152C608.02 81.8118 607.802 82.8828 607.789 84.3281V87.2188C607.789 88.7552 608.01 89.8913 608.453 90.627C608.902 91.3561 609.579 91.7207 610.484 91.7207C611.376 91.7207 612.037 91.3757 612.467 90.6855C612.903 89.9954 613.131 88.9082 613.15 87.4238V84.4648ZM624.195 86.75C623.818 87.1992 623.365 87.5605 622.838 87.834C622.317 88.1074 621.744 88.2441 621.119 88.2441C620.299 88.2441 619.583 88.0423 618.971 87.6387C618.365 87.235 617.896 86.6686 617.564 85.9395C617.232 85.2038 617.066 84.3932 617.066 83.5078C617.066 82.5573 617.245 81.7012 617.604 80.9395C617.968 80.1777 618.482 79.5951 619.146 79.1914C619.811 78.7878 620.585 78.5859 621.471 78.5859C622.877 78.5859 623.984 79.1133 624.791 80.168C625.605 81.2161 626.012 82.6484 626.012 84.4648V84.9922C626.012 87.7591 625.465 89.7806 624.371 91.0566C623.277 92.3262 621.627 92.9772 619.42 93.0098H619.068V91.4863H619.449C620.94 91.4603 622.086 91.0729 622.887 90.3242C623.688 89.569 624.124 88.3776 624.195 86.75ZM621.412 86.75C622.018 86.75 622.574 86.5645 623.082 86.1934C623.596 85.8223 623.971 85.3633 624.205 84.8164V84.0938C624.205 82.9089 623.948 81.9453 623.434 81.2031C622.919 80.4609 622.268 80.0898 621.48 80.0898C620.686 80.0898 620.048 80.3958 619.566 81.0078C619.085 81.6133 618.844 82.4141 618.844 83.4102C618.844 84.3802 619.075 85.181 619.537 85.8125C620.006 86.4375 620.631 86.75 621.412 86.75ZM629.049 94.2207H627.496L633.434 78.7812H634.977L629.049 94.2207ZM638.629 82.4336L638.678 83.6055C639.452 82.694 640.497 82.2383 641.812 82.2383C643.29 82.2383 644.296 82.8047 644.83 83.9375C645.182 83.4297 645.637 83.0195 646.197 82.707C646.764 82.3945 647.431 82.2383 648.199 82.2383C650.517 82.2383 651.695 83.4655 651.734 85.9199V93H649.928V86.0273C649.928 85.2721 649.755 84.709 649.41 84.3379C649.065 83.9603 648.486 83.7715 647.672 83.7715C647.001 83.7715 646.445 83.9733 646.002 84.377C645.559 84.7741 645.302 85.3112 645.23 85.9883V93H643.414V86.0762C643.414 84.5397 642.662 83.7715 641.158 83.7715C639.973 83.7715 639.163 84.276 638.727 85.2852V93H636.92V82.4336H638.629ZM656.432 93H654.625V82.4336H656.432V93ZM654.479 79.6309C654.479 79.3379 654.566 79.0905 654.742 78.8887C654.924 78.6868 655.191 78.5859 655.543 78.5859C655.895 78.5859 656.161 78.6868 656.344 78.8887C656.526 79.0905 656.617 79.3379 656.617 79.6309C656.617 79.9238 656.526 80.168 656.344 80.3633C656.161 80.5586 655.895 80.6562 655.543 80.6562C655.191 80.6562 654.924 80.5586 654.742 80.3633C654.566 80.168 654.479 79.9238 654.479 79.6309ZM661.041 82.4336L661.1 83.7617C661.907 82.7461 662.962 82.2383 664.264 82.2383C666.497 82.2383 667.623 83.498 667.643 86.0176V93H665.836V86.0078C665.829 85.2461 665.654 84.6829 665.309 84.3184C664.97 83.9538 664.439 83.7715 663.717 83.7715C663.131 83.7715 662.617 83.9277 662.174 84.2402C661.731 84.5527 661.386 84.9629 661.139 85.4707V93H659.332V82.4336H661.041Z" fill="black"/>
</svg>
